<?xml version="1.0" encoding="utf-8"?>
<!-- Generator: Adobe Illustrator 28.4.1, SVG Export Plug-In . SVG Version: 6.00 Build 0)  -->
<svg version="1.1" id="a" xmlns="http://www.w3.org/2000/svg" xmlns:xlink="http://www.w3.org/1999/xlink" x="0px" y="0px"
	 viewBox="0 0 133.4 74.1" style="enable-background:new 0 0 133.4 74.1;" xml:space="preserve">
<style type="text/css">
	.st0{fill:#D9263C;}
	.st1{opacity:0.5;}
	.st2{fill:#70171C;}
	.st3{fill:none;stroke:#FFC149;stroke-width:2.44;stroke-linecap:round;stroke-linejoin:round;stroke-miterlimit:10;}
	.st4{opacity:0.3;fill:#FFFFFF;}
</style>
<g>
	<g>
		<g>
			<path class="st0" d="M114.6,57.9c-3.2,0.2-6.4-0.9-8.8-3c-2.6-2.3-4.1-5.5-4.4-9c-0.3-5.5,3.7-10.3,9.1-10.7
				c2-0.1,3.8,0.5,5.3,1.8c1.6,1.4,2.5,3.3,2.6,5.5c0,0.7,0.6,1.2,1.3,1.1c0.7,0,1.2-0.6,1.1-1.3c-0.2-2.8-1.4-5.3-3.5-7.1
				c-2-1.7-4.5-2.6-7.1-2.4C103.6,33.2,98.5,39.1,99,46c0.3,4.2,2.1,8,5.2,10.7c1.5,1.3,3.2,2.3,5,2.9c-0.7,2.2-3.7,9.1-14.2,10.8
				c-9.7,1.6-14.1-2.5-15.5-4.4c1.2-0.8,2.2-1.9,3.1-3.1c3.6-4.9,2.6-11.9-2.1-15.6c-1.9-1.5-4.2-2.1-6.6-1.8
				c-2.4,0.3-4.5,1.6-5.9,3.6c-2.4,3.3-1.8,8.1,1.5,10.6c1.3,1,2.9,1.5,4.6,1.2c1.6-0.2,3.1-1.1,4.1-2.5c0.4-0.5,0.3-1.3-0.3-1.7
				c-0.5-0.4-1.3-0.3-1.7,0.3c-0.6,0.8-1.5,1.4-2.5,1.5c-1,0.1-1.9-0.1-2.7-0.7c-2.2-1.7-2.6-5-1-7.3c1.1-1.4,2.6-2.4,4.3-2.6
				c1.7-0.2,3.4,0.2,4.8,1.3c3.7,2.9,4.5,8.4,1.7,12.3c-1.8,2.4-4.3,4-7.2,4.4c-2.8,0.4-5.7-0.4-8-2.1c-3-2.3-4.9-5.7-5.4-9.5
				c-0.1-0.7-0.7-1.1-1.4-1.1c-0.7,0.1-1.1,0.7-1.1,1.4c0.3,2.6,1.3,5.1,2.7,7.2c-1.4,1.2-4,2.2-7,2c-1.9-0.1-5.3-0.7-7.4-4
				c-4.8-7.3-15.6-6.8-19.1-4.6c-3.5,2.2-11.7,4.7-17.9-1c-4.2-3.9-5.1-8.7-5.2-11.7c5.6,6.5,10.7,6.7,17.1,6.3
				c7.5-0.5,10.4-6.8,10.7-7.6c1-1.8,2.5-3,4.4-3.6c1.9-0.5,3.8-0.3,5.5,0.7c2.7,1.6,3.7,5.1,2.2,8c-0.6,1-1.5,1.8-2.6,2.1
				c-1.1,0.3-2.2,0.2-3.2-0.4c-1.5-0.9-2.1-2.9-1.2-4.5c0.3-0.6,0.8-1,1.4-1.1c0.6-0.2,1.2-0.1,1.7,0.2c0.8,0.4,1.1,1.5,0.6,2.3
				c-0.3,0.6-0.1,1.3,0.5,1.7c0.6,0.3,1.3,0.1,1.7-0.5c1.1-2,0.3-4.5-1.6-5.6c-1.1-0.6-2.4-0.8-3.6-0.4c-1.2,0.4-2.2,1.2-2.9,2.3
				c-1.5,2.8-0.5,6.2,2.2,7.8c1.6,0.9,3.3,1.1,5.1,0.6c1.7-0.5,3.2-1.7,4.1-3.3c2.1-4,0.7-9-3.2-11.2c-1-0.6-2.1-1-3.2-1.1
				c0.7-2.8,2-4.9,4-6.1c2.7-1.8,6-1.6,7.4-1.4C52,33.9,59,37.6,65.5,38c0.4,0,0.7,0,1.1,0c6.4,0,11.1-3.2,12.3-8.4
				c0.1-0.7-0.3-1.3-0.9-1.5c-0.7-0.1-1.3,0.3-1.5,0.9c-1.2,5.1-6.4,6.7-10.9,6.4c-5.7-0.3-12-3.7-12.7-9.3c0,0,0,0,0,0
				c0,0,0-0.1,0-0.1c-0.1-0.5-2.4-11.8,6.3-16.8c7.2-4.2,15.9-0.8,18.9,0.6c-0.3,0.5-0.6,1.1-0.8,1.6c-0.3,0.6,0,1.3,0.6,1.6
				c0.6,0.3,1.3,0,1.6-0.6c1.7-4,4.8-7,8.8-8.5c3.8-1.5,7.9-1.3,11.7,0.4c6.1,2.8,8.9,10.3,6.1,16.6c-1.1,2.4-3,4.3-5.4,5.2
				c-2.3,0.9-4.9,0.8-7.1-0.2c-3.7-1.7-5.4-6.2-3.7-10.1c0.6-1.4,1.8-2.5,3.2-3.1c1.4-0.5,2.9-0.5,4.2,0.1c0.6,0.3,1.3,0,1.6-0.6
				c0.3-0.6,0-1.3-0.6-1.6c-1.9-0.9-4.1-1-6.1-0.2c-2,0.8-3.7,2.3-4.6,4.4c-2.2,5.1,0,11,4.9,13.3c1.6,0.7,3.2,1.1,4.9,1.1
				c1.4,0,2.8-0.3,4.1-0.8c3-1.2,5.4-3.5,6.7-6.5c0.1-0.3,0.3-0.7,0.4-1c5-0.1,9.7,1.6,13.5,4.9c4.2,3.7,6.7,8.9,7.1,14.6
				C130,49.5,123.3,57.3,114.6,57.9z"/>
			<g class="st1">
				<path class="st2" d="M77.3,11.7c0.1-0.2,0.8-1.6,0.9-1.8c-0.3-0.1-2.6-1-3-1.2C76.7,10.1,76.9,11.5,77.3,11.7z"/>
				<path class="st2" d="M100.8,23.8c-2.3,0.9-4.9,0.8-7.1-0.2c-2.3-1.1-3.9-3.3-4.3-5.7c-0.5,3.3,1.1,6.7,4.3,8.2
					c0.9,0.4,1.8,0.7,2.8,0.8c0.4,0,0.7,0.1,1.1,0.1c0.3,0,0.6,0,0.9,0c0.8-0.1,1.6-0.3,2.4-0.6c2.4-0.9,4.3-2.8,5.4-5.2
					c0.9-2.1,1.2-4.3,1-6.4c-0.1,1.3-0.4,2.6-1,3.9C105.1,21,103.2,22.9,100.8,23.8z"/>
				<path class="st2" d="M46.6,42.2c0.5-3.3-1-6.8-4-8.5c-0.8-0.4-1.6-0.8-2.4-1c-0.3,0.7-0.6,1.5-0.8,2.3c1.1,0.2,2.2,0.6,3.2,1.1
					C44.8,37.4,46.3,39.7,46.6,42.2z"/>
				<path class="st2" d="M92.3,10.6c0.9-0.3,1.8-0.5,2.7-0.5c0.1,0,0.3,0,0.4,0c0.9,0,2.7,1.8,3.6,2.1c0.4,0-0.6-5.7-6.7-4.1
					c-2.1,0.6-3.7,2.3-4.6,4.4c-0.7,1.7-1,3.5-0.8,5.3c0.1-0.9,0.4-1.9,0.8-2.8C88.6,12.9,90.3,11.4,92.3,10.6z"/>
				<path class="st2" d="M117.4,32.7c-2-1.7-4.5-2.6-7.1-2.4c-6.7,0.4-11.8,6.4-11.4,13.3c0,0.1,0,0.3,0,0.4
					c0.6-6,5.3-10.9,11.3-11.3c0,0,0,0,0,0c0.1,0,0.1,0,0.2,0c0.5,0,1,0,1.5,0.1c2,0.2,3.9,1,5.5,2.4c1.6,1.4,2.7,3.4,3.2,5.5
					c0.2-0.2,0.3-0.5,0.2-0.8C120.7,37.1,119.5,34.5,117.4,32.7z"/>
				<path class="st2" d="M76,54.6c-0.6,0.8-1.5,1.4-2.5,1.5c-1,0.1-1.9-0.1-2.7-0.7c-1-0.8-1.6-1.8-1.8-3c-0.5,2,0.2,4.1,1.8,5.4
					c0.6,0.4,1.2,0.7,1.9,0.7c0.1,0,0.3,0,0.4,0c0.1,0,0.2,0,0.3,0c0.1,0,0.1,0,0.2,0c1-0.1,1.8-0.7,2.4-1.5c0.3-0.5,2,1.2,2.2,1
					C78.6,57.5,77.2,53.4,76,54.6z"/>
				<path class="st2" d="M80.4,44.9c-1.9-1.5-4.2-2.1-6.6-1.8c-2.4,0.3-4.5,1.6-5.9,3.6c-1.2,1.7-1.7,3.8-1.4,5.8
					c0.2-1.2,0.6-2.3,1.4-3.3c1.4-2,3.6-3.3,5.9-3.6c0.1,0,0.2,0,0.3,0c0,0,0,0,0.1,0c0.6-0.1,1.2-0.1,1.8,0
					c1.6,0.2,3.2,0.8,4.5,1.8c2.5,1.9,3.9,4.8,4.2,7.7C85,51.2,83.6,47.3,80.4,44.9z"/>
				<path class="st2" d="M53,26.3C53,26.3,53,26.3,53,26.3c0.6,5.3,6.2,8.5,11.5,9.2c0.3,0,0.7,0.1,1,0.1c0.4,0,0.7,0,1.1,0
					c0.4,0,0.7,0,1.1,0c0.1,0,0.2,0,0.3,0c0.1,0,0.2,0,0.3,0c3.7-0.4,7.3-2.2,8.2-6.4c0.1-0.7,2.3,0.8,2.4,0.3
					c0.1-0.7-1.6-6.2-2.4-2.8c-1.3,5.1-6.4,6.7-10.9,6.4c-5.7-0.3-12-3.7-12.7-9.3c0,0,0,0,0,0c0,0,0-0.1,0-0.1
					c0-0.1-0.2-1.1-0.3-2.6C52.5,23.9,52.9,26,53,26.3C53,26.2,53,26.2,53,26.3z"/>
				<path class="st2" d="M82.2,55c-0.2,1.4-0.7,2.8-1.6,4.1c-1.8,2.4-4.3,4-7.2,4.4c-2.8,0.4-5.7-0.4-8-2.1c-3-2.3-1.9-7.8-5.4-9.5
					c-2.1-1.1-2.5,2.3-2.4,2.8c0.2-0.2,0.7-1.3,1.1-1.4c0.7-0.1,1.3,0.4,1.4,1.1c0.5,3.8,2.4,7.2,5.4,9.5c2.3,1.8,5.1,2.5,8,2.1
					c2.9-0.4,5.4-2,7.2-4.4C82,59.6,82.5,57.2,82.2,55z"/>
				<path class="st2" d="M95,68c-7.7,1.3-12.1-1.1-14.2-3c-0.4,0.4-0.8,0.7-1.3,1.1c1.5,1.9,5.8,6,15.5,4.4
					c10.5-1.7,13.5-8.6,14.2-10.8c-0.3-0.1-0.6-0.2-0.9-0.4C106.8,62.2,103.1,66.6,95,68z"/>
				<path class="st2" d="M129.4,40.2c-0.6,8.1-6.8,14.7-14.8,15.2c-3.2,0.2-6.4-0.9-8.8-3c-2.5-2.2-4-5.2-4.3-8.5
					c-0.1,0.6-0.1,1.3-0.1,1.9c0.2,3.5,1.8,6.7,4.4,9c2.5,2.2,5.6,3.3,8.8,3c8.7-0.6,15.4-8.4,14.8-17.4
					C129.4,40.4,129.4,40.3,129.4,40.2z"/>
				<path class="st2" d="M40.5,43.7c0-0.3-0.1-0.5-0.3-0.8C40.2,43.2,40.3,43.5,40.5,43.7z"/>
				<path class="st2" d="M43.6,46.2c0.7-1.3,0.9-2.7,0.6-4.1c-0.1,0.5-0.3,1.1-0.6,1.6c-0.2,0.4-0.5,0.7-0.7,1
					c-0.1,0.4-0.2,0.8-0.4,1.2c-0.3,0.6-1.1,0.8-1.7,0.5c-0.2-0.1-0.3-0.3-0.5-0.5c-0.9,0.1-1.7-0.1-2.5-0.5c-0.7-0.4-1.1-1-1.4-1.7
					c-0.6,1.5,0,3.3,1.4,4.1c0.5,0.3,1,0.4,1.5,0.5c0.1,0,0.1,0,0.2,0c0.1,0,0.3,0,0.4,0c0.1,0,0.2,0,0.3,0c0.2,0,0.5-0.1,0.7-0.1
					C42.1,48,43,47.2,43.6,46.2z"/>
				<path class="st2" d="M53.3,61.3c-1.9-0.1-5.3-0.7-7.4-4c-4.8-7.3-15.6-6.8-19.1-4.6c-3.5,2.2-11.7,4.7-17.9-1
					c-3.1-2.9-4.4-6.2-4.9-9c-0.1-0.1-0.2-0.2-0.3-0.3c0.1,3,1,7.8,5.2,11.7c6.2,5.7,14.4,3.2,17.9,1c3.5-2.2,14.4-2.7,19.1,4.6
					c2.1,3.3,5.6,3.9,7.4,4c3,0.1,5.6-0.9,7-2c-0.4-0.6-0.7-1.2-1-1.8C57.8,60.8,55.7,61.4,53.3,61.3z"/>
				<path class="st2" d="M37.3,37.5c-1.2,0.4-2.2,1.2-2.9,2.3c-0.7,1.3-0.8,2.7-0.6,4c0.1-0.5,0.3-1,0.6-1.5c0.6-1.1,1.6-2,2.9-2.3
					c0.3-0.1,0.7-0.1,1-0.2c0.2,0,0.4,0,0.7,0c0.7,0.1,1.3,0.2,1.9,0.6c0.9,0.5,1.6,1.4,1.9,2.4c0.5-1.7-0.1-3.6-1.6-4.6
					c-0.9-0.5-1.8-0.7-2.8-0.8C38,37.3,37.6,37.4,37.3,37.5z"/>
			</g>
		</g>
		<g>
			<path class="st3" d="M58.8,54.4c0.5,4,2.5,7.7,5.9,10.3c5.3,4.1,12.9,3,16.9-2.5c3.2-4.4,2.4-10.6-1.9-14
				c-3.4-2.6-8.2-1.9-10.8,1.6c-2.1,2.8-1.5,6.8,1.2,8.9c2.2,1.7,5.3,1.2,6.9-1"/>
			<path class="st3" d="M41.4,45.4c0.7-1.4,0.3-3.2-1.1-3.9c-1.7-1-3.8-0.3-4.8,1.4c-1.2,2.2-0.4,4.9,1.7,6.1c2.6,1.5,6,0.5,7.4-2.2
				c1.8-3.4,0.6-7.7-2.7-9.6c-4.1-2.4-9.3-0.8-11.6,3.5c0,0-2.6,6.4-9.7,6.9c-7.1,0.4-12-0.2-18-8.3c0,0-1.9,9.1,5.4,15.9
				c7.2,6.7,16.5,2.9,19.3,1.2c2.8-1.8,13.1-2.5,17.5,4.3c4.4,6.8,14.3,4.9,17,1.4"/>
			<path class="st3" d="M78.5,12c3.8-8.7,13.6-12.6,22.1-8.7c6.7,3.1,9.8,11.3,6.8,18.2c-2.4,5.6-8.7,8.1-14.1,5.6
				c-4.3-2-6.2-7.2-4.3-11.7c1.5-3.6,5.6-5.2,9-3.6"/>
			<path class="st3" d="M108,19.8c11.8-0.8,21.9,8.5,22.7,20.6c0.6,9.7-6.5,18.1-16,18.7c-7.5,0.5-14-5.4-14.5-13.2
				c-0.4-6.2,4.2-11.6,10.2-12c4.8-0.3,9,3.5,9.3,8.4"/>
			<path class="st3" d="M77.8,65.7c0,0,4,8.2,17.4,6c13.4-2.2,15.4-12.5,15.4-12.5"/>
			<path class="st3" d="M79.9,9.4c0,0-11.6-6.7-21.2-1.1c-9.6,5.6-6.9,18.2-6.9,18.2s-11.6-2.8-13.9,9.3"/>
			<path class="st3" d="M51.8,26.4c1.3,11.5,23.3,14.8,26,3"/>
		</g>
		<path class="st4" d="M62.8,17.4c-2.2,2.2-5,2.8-6.4,1.5c-1.4-1.4-0.7-4.2,1.5-6.4c2.2-2.2,5-2.8,6.4-1.5
			C65.6,12.4,64.9,15.2,62.8,17.4z"/>
		<path class="st4" d="M110.5,44.2c-2.2,2.2-5,2.8-6.4,1.5c-1.4-1.4-0.7-4.2,1.5-6.4s5-2.8,6.4-1.5
			C113.4,39.2,112.7,42.1,110.5,44.2z"/>
		<path class="st4" d="M94.8,18.1c-1.2,1.2-2.7,1.5-3.4,0.8c-0.7-0.7-0.4-2.3,0.8-3.4c1.2-1.2,2.7-1.5,3.4-0.8
			C96.3,15.4,96,16.9,94.8,18.1z"/>
		<path class="st4" d="M73.8,52.9c-1.2,1.2-2.7,1.5-3.4,0.8c-0.7-0.7-0.4-2.3,0.8-3.4c1.2-1.2,2.7-1.5,3.4-0.8
			C75.3,50.2,74.9,51.7,73.8,52.9z"/>
	</g>
</g>
</svg>
