<?xml version="1.0" encoding="UTF-8"?>
<svg id="Calque_1" data-name="Calque 1" xmlns="http://www.w3.org/2000/svg" width="3840" height="508.8" version="1.1" viewBox="0 0 3840 508.8">
  <defs>
    <style>
      .cls-1 {
        fill: #252525;
        stroke-width: 0px;
      }
    </style>
  </defs>
  <path class="cls-1" d="M3797.9,181.6c-76.8,15.4-153.3,53.8-231.8,66.4l-1.8-42.3c4-.6,8-1.4,11.6-2.4,6.7-1.8,10.3-8.3,11.9-12.5-7.9,1.7-15.9,3-23.9,4l-.4-8.9c1.2-.3,2.4-.5,3.5-.8,5.6-1.5,8.6-6.9,9.9-10.4h0s2.1-.6,2.3-.7c3.5-.8,13.6-17.6,13.8-17.8-.1,0-5,1.7-14.1,3.8-35.9,8.2-73.2,8.2-109.1,0-9.1-2.1-14-3.7-14.1-3.8.1.2,10.3,17.1,13.8,17.8.2,0,.4.1.6.1,1.1.2,2.2.5,3.3.7,1.4,3.5,4.3,8.7,9.8,10.2,1.1.3,2.3.6,3.5.8l-.4,8.8c-7.6-1-15.2-2.3-22.7-3.8,1.6,4.2,5.1,10.7,11.9,12.5,3.2.9,6.8,1.6,10.4,2.2l-1.9,44.3c-84.6-12-159.5-68.8-241.5-90.9l-3.2-73.1c6.4-1,12.6-2.2,18.3-3.7,10.7-2.8,16.2-13.1,18.8-19.7-12.6,2.6-25.2,4.7-37.9,6.3l-.6-14.1c1.9-.4,3.7-.8,5.5-1.3,8.9-2.4,13.5-10.9,15.7-16.5h0s3.3-1,3.6-1c5.5-1.2,21.6-27.9,21.8-28.3-.2,0-8.2,2.8-23.2,6.2-56.3,12.7-114.7,12.7-171,0-15-3.4-23.1-6.1-23.2-6.2.2.3,16.3,27,21.8,28.3.3,0,.6,0,1,.2,1.8.4,3.5.8,5.3,1.1,2.2,5.6,6.8,13.8,15.6,16.2,1.8.5,3.6.9,5.5,1.3l-.6,13.9c-12-1.6-24-3.6-36-6.1,2.6,6.7,8.1,16.9,18.8,19.7,5.1,1.4,10.7,2.5,16.4,3.4l-3.2,74.2c-103.6,27.6-201.5,103.2-306.3,81.5-60.1-12.4-115.7-56.5-176-45.5-36.9,6.7-67.2,33.2-100.6,50l-1.8-41.4c5.1-.8,10-1.8,14.6-3,8.5-2.2,12.9-10.4,14.9-15.7-10,2.1-20,3.8-30.1,5l-.5-11.2c1.5-.3,3-.7,4.4-1,7.1-1.9,10.8-8.7,12.5-13.1h0s2.6-.8,2.9-.8c4.4-1,17.2-22.2,17.3-22.5-.1,0-6.3,2.1-17.7,4.7-45.2,10.3-92.1,10.3-137.3,0-11.4-2.6-17.6-4.7-17.7-4.7.1.2,12.9,21.5,17.3,22.5.3.1.5.1.8.2,1.4.3,2.8.6,4.2.9,1.7,4.4,5.4,11,12.4,12.8,1.4.4,2.9.7,4.4,1l-.5,11c-9.6-1.2-19.1-2.9-28.6-4.8,2,5.3,6.5,13.4,14.9,15.7,4.1,1.1,8.5,2,13.1,2.7l-2,46c-32.6-12.8-63.7-35.4-94.4-53.3-106.2-61.9-241.1-71.9-355.3-26.5-.2.1-.4.2-.6.2-35.8,14.3-75.5,14.3-111.3,0-.2-.1-.4-.2-.6-.2-25.3-10.1-51.7-17.4-78.5-22.1l-3-70.2c5.7-.9,11.3-2.1,16.4-3.4,10.7-2.8,16.2-13.1,18.8-19.7-11.9,2.5-23.9,4.5-36,6.1l-.6-13.9c1.9-.4,3.7-.8,5.5-1.3,8.8-2.3,13.4-10.6,15.6-16.2,1.8-.4,3.5-.7,5.3-1.1.3-.1.6-.1,1-.2,5.5-1.2,21.6-27.9,21.8-28.3-.2.1-8.2,2.8-23.2,6.2-56.3,12.7-114.7,12.7-171,0C1621.2,2.7,1613.1,0,1613,0c.2.3,16.3,27,21.8,28.3.3.1,3.6,1,3.6,1h0c2.1,5.6,6.8,14.1,15.7,16.5,1.8.5,3.6.9,5.5,1.3l-.6,14.1c-12.7-1.6-25.3-3.7-37.9-6.3,2.6,6.7,8.1,16.9,18.8,19.7,5.7,1.5,11.9,2.7,18.3,3.7l-2.9,68c-51.4,7.4-101.5,24.3-146.4,50.4-30.7,17.9-61.8,40.5-94.4,53.3l-2-46c4.6-.7,9-1.6,13.1-2.7,8.5-2.2,12.9-10.4,14.9-15.7-9.5,2-19,3.6-28.6,4.8l-.5-11c1.5-.3,3-.7,4.4-1,7-1.8,10.6-8.4,12.4-12.8,1.4-.3,2.8-.6,4.2-.9.3-.1.5-.1.8-.2,4.4-1,17.2-22.2,17.3-22.5,0,0-6.3,2.1-17.7,4.7-45.2,10.3-92.1,10.3-137.3,0-11.4-2.6-17.6-4.7-17.7-4.7,0,.2,12.9,21.5,17.3,22.5.3.1,2.9.8,2.9.8h0c1.7,4.4,5.4,11.2,12.5,13.1,1.4.4,2.9.7,4.4,1l-.5,11.2c-10.1-1.3-20.1-2.9-30.1-5,2,5.3,6.5,13.4,14.9,15.7,4.5,1.2,9.5,2.2,14.6,3l-1.8,41.4c-33.4-16.8-63.7-43.3-100.6-50-60.3-11-116,33.1-176,45.5-104.8,21.7-202.7-53.9-306.3-81.5l-3.2-74.2c5.7-.9,11.3-2.1,16.4-3.4,10.7-2.8,16.2-13.1,18.8-19.7-11.9,2.5-23.9,4.5-36,6.1l-.6-13.9c1.9-.4,3.7-.8,5.5-1.3,8.8-2.3,13.4-10.6,15.6-16.2,1.8-.4,3.5-.7,5.3-1.1.3,0,.6,0,1-.2,5.5-1.2,21.6-27.9,21.8-28.3-.2,0-8.2,2.8-23.2,6.2-56.3,12.7-114.7,12.7-171,0-15-3.4-23.1-6.1-23.2-6.2.2.3,16.3,27,21.8,28.3.3,0,3.6,1,3.6,1h0c2.1,5.6,6.8,14.1,15.7,16.5,1.8.5,3.6.9,5.5,1.3l-.6,14.1c-12.7-1.6-25.3-3.7-37.9-6.3,2.6,6.7,8.1,16.9,18.8,19.7,5.7,1.5,11.9,2.7,18.3,3.7l-3.2,73.1c-82,22.1-156.9,78.9-241.5,90.9l-1.9-44.3c3.6-.6,7.1-1.3,10.4-2.2,6.7-1.8,10.3-8.3,11.9-12.5-7.5,1.6-15.1,2.8-22.7,3.8l-.4-8.8c1.2-.3,2.4-.5,3.5-.8,5.5-1.5,8.4-6.7,9.8-10.2,1.1-.2,2.2-.5,3.3-.7.2,0,.4-.1.6-.1,3.5-.8,13.6-17.6,13.8-17.8-.1,0-5,1.7-14.1,3.8-35.9,8.2-73.2,8.2-109.1,0-9.1-2.1-14-3.7-14.1-3.8.1.2,10.3,17.1,13.8,17.8.2,0,2.3.7,2.3.7h0c1.3,3.5,4.3,8.9,9.9,10.4,1.1.3,2.3.6,3.5.8l-.4,8.9c-8-1-16-2.3-23.9-4,1.6,4.2,5.1,10.7,11.9,12.5,3.6,1,7.5,1.7,11.6,2.4l-1.8,42.3c-78.4-12.6-155-51-231.8-66.4-13.9-2.8-27.9-5.2-42.1-7v334.1h3840V174.6c-14.9,1.8-29,4.2-42.9,7ZM657.2,59.8h11.5c9.5-.2,23.8-.7,37.9-2.4l-.6,13.1c-28.6,2.6-57.5,2.7-86.1.2l-.6-13.3c14.1,1.7,28.4,2.2,37.9,2.4ZM311.3,189.3h7.3c6-.1,15-.4,23.9-1.5l-.4,8.3c-18.1,1.7-36.3,1.7-54.4.1l-.4-8.4c9,1,18,1.4,24,1.5ZM290.1,250.3l-1.9-43.1c8.2.7,16.1,1,21.7,1.1h8.7c5.9-.1,14.3-.4,23-1.2l-1.9,44.4c-16.6,1.2-33.1.6-49.6-1.2ZM654.3,150.1c-10.4.3-20.6,1.4-30.8,3.1l-2.8-65c13.1,1.2,25.5,1.6,34.4,1.8h13.8c9.4-.2,22.6-.6,36.4-1.9l-2.9,65.9c-15.8-2.9-31.9-4.4-48.1-3.9ZM1358,183.7h9.2c7.6-.1,18.9-.6,30.1-1.9l-.5,10.4c-22.8,2.1-45.7,2.1-68.4.1l-.5-10.5c11.2,1.3,22.6,1.7,30.1,1.9ZM1349.9,258.9c-6.5-1-12.7-2.6-18.8-4.7l-2.1-47.9c10.4.9,20.2,1.3,27.3,1.4h11c7.5-.1,18-.5,28.9-1.5l-2.2,50.4c-14.3,3.4-29,4.6-44.1,2.3ZM1714.2,52.3h11.5c9.5-.2,23.8-.7,37.9-2.4l-.6,13.1c-28.6,2.6-57.5,2.7-86.1.2l-.6-13.3c14.1,1.7,28.4,2.3,37.9,2.4ZM1680.4,143.5l-2.7-62.8c13.1,1.2,25.5,1.6,34.4,1.8h13.8c9.4-.2,22.6-.6,36.4-1.9l-2.8,64c-26.2-2.9-52.8-3.3-79.1-1.1ZM2472.8,183.7h9.2c7.6-.1,18.9-.6,30.1-1.9l-.5,10.5c-22.8,2-45.7,1.9-68.4-.1l-.5-10.4c11.2,1.3,22.5,1.7,30.1,1.9ZM2445.9,256.5l-2.2-50.4c10.9,1,21.4,1.4,28.9,1.5h11c7.1-.1,17-.5,27.3-1.4l-2.1,47.9c-6.1,2.1-12.3,3.7-18.8,4.7-15,2.4-29.7,1.2-44.1-2.3ZM3521.4,189.3h7.3c6-.1,15-.4,23.9-1.5l-.4,8.4c-18.1,1.6-36.3,1.5-54.4-.1l-.4-8.3c9,1,18,1.4,24,1.5ZM3171.2,59.8h11.5c9.5-.2,23.8-.7,37.9-2.4l-.6,13.3c-28.7,2.5-57.5,2.5-86.1-.2l-.6-13.1c14.2,1.7,28.4,2.2,37.9,2.4ZM3137.6,153.9l-2.9-65.9c13.8,1.3,27,1.8,36.4,1.9h13.8c9,0,21.4-.6,34.4-1.8l-2.8,65c-10.1-1.7-20.4-2.8-30.8-3.1-16.2-.4-32.3,1.1-48.1,3.9ZM3500.3,251.5l-1.9-44.4c8.7.8,17,1.1,23,1.2h8.7c5.7-.1,13.5-.4,21.7-1.1l-1.9,43.1c-16.5,1.8-33,2.4-49.6,1.2Z"/>
</svg>
