<?xml version="1.0" encoding="UTF-8"?>
<svg id="Calque_1" data-name="Calque 1" xmlns="http://www.w3.org/2000/svg" width="30" height="30" xmlns:xlink="http://www.w3.org/1999/xlink" version="1.1" viewBox="0 0 30 30">
  <defs>
    <style>
      .cls-1 {
        mask: url(#mask);
      }

      .cls-2 {
        fill: #fff;
        stroke-width: 0px;
      }
    </style>
    <mask id="mask" x="1.6" y="4.2" width="26.4" height="21.7" maskUnits="userSpaceOnUse">
      <g id="mask0_9330_100145" data-name="mask0 9330 100145">
        <path class="cls-2" d="M28,4.2H1.6v21.7h26.4V4.2Z"/>
      </g>
    </mask>
  </defs>
  <g class="cls-1">
    <g>
      <path class="cls-2" d="M17,15.3l-.2,1.1-1.9-1.1-1.9,1.1-.2-1.1,2-1.2,2,1.2Z"/>
      <path class="cls-2" d="M16.9,21.2l-1.9.6-1.9-.6.5-1,1.3.5,1.3-.5.5,1Z"/>
      <path class="cls-2" d="M15,14.1l2,1.2,4.7-3.4-.9-1c-1.2,1.1-2.8,1.7-4.5,1.8l-1.3-.8-1.3.8c-1.6,0-3.3-.7-4.5-1.8l-.9,1,4.7,3.4,2-1.2Z"/>
      <path class="cls-2" d="M20.8,10.9c-1.2,1.1-2.8,1.7-4.5,1.8l-1.3-.8-1.3.8c-1.6,0-3.3-.7-4.5-1.8.6-.7,1.2-1.4,1.8-2l1.8-.6,2.2,1.5,2.2-1.5,1.8.6c.6.7,1.2,1.4,1.8,2Z"/>
      <path class="cls-2" d="M16.9,16.4l-.6,3.8-1.3.5-1.3-.5-.6-3.8,1.9-1.1,1.9,1.1Z"/>
      <path class="cls-2" d="M18.3,23.9l-1.4,1.5-1.9-.6-1.9.6-1.4-1.5,1.4-2.7,1.9.6,1.9-.6,1.4,2.7Z"/>
      <path class="cls-2" d="M16.9,25.4l-.4.4h-3.1l-.4-.4,1.9-.6,1.9.6Z"/>
      <path class="cls-2" d="M12.1,15.9l-2.8-1.7-.6,1.6,1.8,2.3.9,4.3,1.2-2.3-.6-4.1Z"/>
      <path class="cls-2" d="M8.7,15.8l-.5,1.3,3.2,5.2-.9-4.3-1.8-2.3Z"/>
      <path class="cls-2" d="M17.9,15.9l2.8-1.7.6,1.6-1.8,2.3-.9,4.3-1.2-2.3.6-4.1Z"/>
      <path class="cls-2" d="M21.3,15.8l.5,1.3-3.2,5.2.9-4.3,1.8-2.3Z"/>
      <path class="cls-2" d="M3.4,9.2c0-1.6,3.1-5,3.1-5-1.3,1.4-2.8,2.5-3.9,4.1-.3.4-.5,1-.4,1.5.2,1,1,1.6,2.4,1.8.7,0,2.8,0,2.8,0l1.1-1.3c-1.3,0-5.2.2-5.1-1.1Z"/>
      <path class="cls-2" d="M5.8,8.5c-.5-.3-.9-.8-.6-1.7.3-1,.7-1.8,1.3-2.7,0,0-3,3.4-3.1,5,0,1.4,3.9,1.2,5.1,1.1l1.3-1.5c-1.7,0-2.9.3-4.1-.3Z"/>
      <path class="cls-2" d="M26.6,9.2c0-1.6-3.1-5-3.1-5,1.3,1.4,2.8,2.5,3.9,4.1.3.4.5,1,.4,1.5-.2,1-1,1.6-2.4,1.8-.7,0-2.8,0-2.8,0l-1.1-1.3c1.3,0,5.2.2,5.1-1.1Z"/>
      <path class="cls-2" d="M24.2,8.5c.5-.3.9-.8.6-1.7-.3-1-.7-1.8-1.3-2.7,0,0,3,3.4,3.1,5,0,1.4-3.9,1.2-5.1,1.1l-1.3-1.5c1.7,0,2.9.3,4.1-.3Z"/>
    </g>
  </g>
</svg>