<?xml version="1.0" encoding="utf-8"?>
<!-- Generator: Adobe Illustrator 28.4.1, SVG Export Plug-In . SVG Version: 6.00 Build 0)  -->
<svg version="1.1" id="Calque_1" xmlns="http://www.w3.org/2000/svg" xmlns:xlink="http://www.w3.org/1999/xlink" x="0px" y="0px"
	 viewBox="0 0 1115.5 89.8" style="enable-background:new 0 0 1115.5 89.8;" xml:space="preserve">
<style type="text/css">
	.st0{fill:#D71925;}
</style>
<path class="st0" d="M1093,2c-30.6,6.6-53.5,29.4-53.6,53.2c-13.3-14.3-39.8-20.9-61.9-15.4s-38.1,22.7-37.2,40.1
	c-3.3-20-25.5-37.4-52.1-40.8c-26.5-3.4-55.2,7.5-67.2,25.5c1.1-20.9-23.4-40.6-51.3-41.3c-27.9-0.7-54.2,17.7-55,38.6
	c-3.2-17.1-25.7-31-48.7-30c-23.1,1-43.4,16.6-43.9,33.9c0.2-18.2-11.9-36.6-32.2-46.7c-9.5-4.7-20.7-7.5-32.1-8.1
	c-11.4,0.6-22.6,3.4-32.1,8.1c-20.3,10.1-32.4,28.4-32.2,46.7c-0.6-17.3-20.9-32.9-43.9-33.9c-23.1-1-45.6,12.9-48.7,30
	c-0.8-20.9-27-39.3-55-38.6C318,24,293.5,43.7,294.6,64.6c-12-18-40.7-28.9-67.2-25.5s-48.7,20.8-52.1,40.8
	c0.8-17.4-15.1-34.6-37.2-40.1s-48.8,1-62.1,15.4C76,31.4,53.1,8.6,22.5,2C15.2,0.4,7.6-0.2,0,0v89.8h1115.6V0
	c-7.6-0.3-15.2,0.3-22.6,1.9V2z"/>
</svg>
