<?xml version="1.0" encoding="utf-8"?>
<!-- Generator: Adobe Illustrator 28.4.1, SVG Export Plug-In . SVG Version: 6.00 Build 0)  -->
<svg version="1.1" id="Calque_1" xmlns="http://www.w3.org/2000/svg" xmlns:xlink="http://www.w3.org/1999/xlink" x="0px" y="0px"
	 viewBox="0 0 2782.9 382.6" style="enable-background:new 0 0 2782.9 382.6;" xml:space="preserve">
<style type="text/css">
	.st0{fill:#D71925;stroke:#000000;stroke-width:5;stroke-miterlimit:10;}
</style>
<path class="st0" d="M2778.9,350.4c-19.7-4.2-33.3-17.3-37.3-36c-1.3-6.2-2.3-12-3.3-17.7c-2.9-17.4-5.7-33.8-17.5-50.4
	c-9.8-13.7-25.6-22.5-43.3-23.9c-15.8-1.3-31,3.5-42.3,13.1c3.5-82.2-39.6-124.2-84.7-129.5c-18.8-2.2-37.2,2.1-51.8,11.9
	c-14.3,9.6-23.6,23.7-27.2,40.8c-31.1-48.1-84.5-67.9-137.5-50.3c-52.9,17.5-86.9,66-87.9,124.5c-17.9-20.3-44.1-27.4-69.5-18.3
	c-11.5,4.1-21.3,10.9-28.9,19.7c-15.8-52.4-79.2-66.6-104.5-23.2c39.6-232.8-297.7-285.9-311.5-47.4c-20.1-19.1-41.8-30.2-63.4-34.6
	c-17.5-46.2-53-70.8-89.6-75.1c-22.4-2.6-44.2,2.4-61.5,14.1c-16.9,11.5-28,28.1-32.3,48.5c-36.9-57.2-100.4-80.7-163.4-59.8
	c-62.9,20.8-103.3,78.4-104.5,147.9c-21.3-24.1-52.4-32.5-82.6-21.7c-3.2,1.2-6.4,2.5-9.4,4c13.2-212-301-253.2-314.3-23.1
	c-76.4-72.6-175-28.7-210.7,49c-23.3-5.8-46.7,1.6-63.1,20.2c-1-58.5-35-106.9-87.9-124.5c-53-17.5-106.4,2.2-137.5,50.3
	c-3.6-17.1-12.9-31.1-27.2-40.8c-14.6-9.8-32.9-14.1-51.8-11.9c-45.1,5.3-88.3,47.4-84.7,129.5c-11.3-9.6-26.5-14.4-42.3-13.1
	c-17.7,1.4-33.4,10.2-43.3,23.9c-11.8,16.5-14.6,33-17.5,50.4c-1,5.7-1.9,11.7-3.3,17.7c-4.1,18.6-17.7,31.8-37.3,36
	c-1.3,0.3-2.7,0.5-4,0.8v31.4H2783v-31.5C2781.6,350.9,2780.2,350.7,2778.9,350.4L2778.9,350.4z"/>
<g>
	<path d="M1393,288.4c-28.5,0-53.8-15-70.4-36c-24.7-31-35.6-81.2-4.3-123.6c28.3-38.3,64.8-36.6,88.4-17.9
		c24.1,19,37.9,57.3,17.5,93.4c-11.9,21.1-31.6,24-44.9,17.7c-12.7-6-18.7-19-15.4-33.3c0.3-1.4,1.7-2.3,3-2
		c1.3,0.3,2.1,1.9,1.8,3.3c-3.2,13.9,4.8,23.2,12.6,27c11.4,5.4,28.4,2.9,38.8-15.6c18.7-33.3,6-68.5-16.2-86.2
		c-20.2-15.9-53.7-21.1-81.8,16.9c-29.4,39.9-19.1,87.3,4.2,116.5c25.1,31.5,70.9,49,116.8,17.3c51.6-35.7,57.3-101.8,40.9-148
		c-0.5-1.4,0-3,1.4-3.5c1.4-0.6,2.7,0,3.2,1.5c17.2,48.4,11.1,117.3-42.8,154.6C1427.8,283.2,1409.8,288.4,1393,288.4L1393,288.4z"
		/>
	<g>
		<path d="M1482.7,382.6c-7.7-11.5-10.2-29.8,1-46.8c17.5-26.6,47.9-28.9,67.7-17.5c16.4,9.5,30.4,31.2,22.5,64.3h5
			c7.9-35.4-7.4-58.8-25.3-69c-21.6-12.4-54.8-10-73.9,19c-11.7,17.8-10.1,36.8-2.9,50L1482.7,382.6L1482.7,382.6z"/>
		<path d="M1528.5,382.6c0.6-2,0.9-4.1,0.9-6.2c0-6.5-2.7-12.1-7.4-14.8c-3.6-2.1-11.5-4.3-23.8,4.9c-1.1,0.9-1.4,2.5-0.6,3.8
			c0.8,1.2,2.3,1.5,3.4,0.7c7.5-5.6,14.2-7.3,18.8-4.6c3.1,1.8,4.9,5.5,4.8,10c0,2.2-0.5,4.2-1.3,6.2h5.2V382.6z"/>
	</g>
	<path d="M1328,382.6c6.1-13.2,20.4-32.2,50.9-27c17.1,2.9,27.3,11.9,29.5,26.2c0,0.2,0,0.6,0,0.8h4.9c0-0.6,0-1.1-0.2-1.7
		c-1.5-9.6-7.8-26.3-33.6-30.8c-35.2-5.9-50.8,17.5-56.9,32c0,0.1,0,0.2,0,0.3L1328,382.6L1328,382.6z"/>
	<path d="M1667.1,382.6c3.8-1.7,7.9-2.9,12.3-3.4c8.2-1,16.5,0.2,24.2,3.4h11.4c-11-7-23.5-10.3-36.1-8.7c-8.3,1-15.8,4-22.3,8.7
		H1667.1z"/>
	<g>
		<path d="M1211.1,371.1c-9.2-2.7-19.7,0-28.1,7c-1.6,1.3-3.2,2.9-4.5,4.4h6.8c0.2-0.1,0.3-0.3,0.5-0.4c7.3-6.1,16.4-8.4,24.2-6.1
			c1.2,0.3,2.5-0.4,2.8-1.8C1213,372.9,1212.3,371.5,1211.1,371.1L1211.1,371.1z"/>
		<path d="M1116.5,382.6c13.5-36.7,43.3-63.2,69.2-68.9c18.9-4.2,34,2.7,42.4,19.3c8.8,17.4,11.9,34.6,11.6,49.7h4.6
			c0.2-17.4-3.9-35.6-12.2-52.1c-9.3-18.4-26.5-26.3-47.3-21.7c-27.7,6.1-59.4,34.6-73.2,73.9L1116.5,382.6L1116.5,382.6z"/>
	</g>
	<path d="M737.6,360.2c-17.7,0-36.2-7.2-54.4-21.5c-19.3-15.3-30.6-41.3-30.2-69.8c0.4-27.6,11.9-52.1,30.7-65.9
		c19.1-14.1,42.8-14.1,60.3,0c15.2,12.2,21.7,31.4,17.1,50.3c-2.6,10.6-9.5,19.9-18.8,25.6c-8.8,5.3-18.3,6.5-27,3.5
		c-1.2-0.4-1.9-1.9-1.5-3.2c0.4-1.3,1.7-2.1,2.9-1.7c7.4,2.5,15.7,1.4,23.4-3.2c8.3-5,14.3-13.2,16.6-22.5
		c4.1-16.8-1.8-34.1-15.4-44.9c-12.7-10.2-33.8-15.4-55.1,0.1c-17.5,12.8-28.2,36-28.6,61.7c-0.4,26.8,10.2,51.3,28.3,65.6
		c35.7,28.1,72.7,27.2,101.3-2.7c35.4-36.8,53-116.6,21.7-172.3c-0.7-1.2-0.3-2.8,0.7-3.4c1.1-0.8,2.5-0.3,3.2,0.8
		C827.6,183.2,833,217,828,252c-4.7,33.2-18.5,63.6-37.6,83.5C774.5,352.1,756.5,360.2,737.6,360.2L737.6,360.2z"/>
	<path d="M1031,289.1c-1.2,0-2.4,0-3.6-0.1c-48.9-1.8-90.7-38.9-101.6-90.4c-7.6-35.6,1.3-71.5,23.7-95.9
		c19.6-21.4,46.6-29.8,72.2-22.6c32.3,9.1,50.7,31.3,51.8,62.6c1.3,37.1-22.7,80.3-50.4,90.6c-14.7,5.5-28,0.3-37.4-14.6
		c-6.9-10.8-6.8-24.9,0-35.7c6.9-11,18.8-15.7,30.3-12.3c1.2,0.3,1.9,1.8,1.6,3.1c-0.3,1.3-1.6,2.1-2.8,1.8
		c-11.7-3.5-20.8,3-25.4,10.3c-4.6,7.3-7.1,19,0,30c8.3,13.1,19.5,17.5,32.2,12.7c23-8.6,48.6-47.9,47.3-85.6
		c-0.7-20.5-9.7-47-48.3-57.9c-24-6.7-49.4,1.2-67.8,21.4c-21.3,23.1-29.7,57.2-22.4,91.2c10.5,49.2,50.5,84.8,97.3,86.4
		c44,1.7,78.6-27.4,92.5-77.8c0.4-1.3,1.6-2.1,2.9-1.7c1.2,0.4,1.9,1.8,1.5,3.2C1110.2,258.9,1075.4,289.1,1031,289.1L1031,289.1z"
		/>
	<path d="M1200.7,253c-1.2,0-2.1-1-2.3-2.2c-0.9-9.2-5.8-17.9-13.4-24s-16.6-8.4-24.8-6.4c-1.2,0.3-2.5-0.6-2.7-2
		c-0.3-1.3,0.5-2.8,1.8-3c9.5-2.2,19.8,0.3,28.4,7.2s14.2,16.9,15.2,27.6c0,1.4-0.8,2.7-2,2.8C1200.9,253,1200.9,253,1200.7,253z"/>
	<path d="M1915.1,382.6c6.8-18.7,18.1-33,30.3-39.5c12-6.4,23.3-4.5,31.9,5.3c6.9,8,9.7,21.1,7.4,34.2h4.6c2.2-14.3-1-28.8-8.7-37.7
		c-9.9-11.5-23.4-13.8-37.2-6.4c-13.4,7.2-26,23.3-33.1,44h4.8L1915.1,382.6z"/>
	<path d="M1658.6,360.2c-17.7,0-36.2-7.2-54.4-21.5c-19.3-15.3-30.6-41.3-30.2-69.8c0.4-27.6,11.9-52.1,30.7-65.9
		c19.1-14.1,42.8-14.1,60.3,0c15.2,12.2,21.7,31.4,17.1,50.3c-2.6,10.6-9.5,19.9-18.8,25.6c-8.8,5.3-18.3,6.5-27,3.5
		c-1.2-0.4-1.9-1.9-1.5-3.2c0.4-1.3,1.7-2.1,2.9-1.7c7.4,2.5,15.7,1.4,23.4-3.2c8.3-5,14.3-13.2,16.6-22.5
		c4.1-16.8-1.8-34.1-15.4-44.9c-12.7-10.2-33.8-15.4-55.1,0.1c-17.5,12.8-28.2,36-28.6,61.7c-0.4,26.8,10.2,51.3,28.3,65.6
		c35.7,28.1,72.7,27.2,101.3-2.7c35.4-36.8,53-116.6,21.7-172.3c-0.7-1.2-0.3-2.8,0.7-3.4c1.1-0.8,2.5-0.3,3.1,0.8
		c14.8,26.3,20.2,60.1,15.2,95.2c-4.8,33.2-18.5,63.6-37.6,83.5C1695.5,352.1,1677.5,360.2,1658.6,360.2z"/>
	<path d="M1952,289.1c-1.2,0-2.4,0-3.6-0.1c-48.9-1.8-90.7-38.9-101.6-90.4c-7.6-35.6,1.3-71.5,23.7-95.9
		c19.6-21.4,46.6-29.8,72.2-22.6c32.3,9.1,50.7,31.3,51.8,62.6c1.3,37.1-22.7,80.3-50.4,90.6c-14.7,5.5-28,0.3-37.4-14.6
		c-6.9-10.8-6.8-24.9,0-35.7c6.9-11,18.8-15.7,30.3-12.3c1.2,0.3,1.9,1.8,1.6,3.1s-1.6,2.1-2.8,1.8c-11.7-3.5-20.8,3-25.4,10.3
		s-7.1,19,0,30c8.3,13.1,19.4,17.5,32.2,12.7c23-8.6,48.6-47.9,47.3-85.6c-0.7-20.5-9.7-47-48.3-57.9c-24-6.7-49.4,1.2-67.8,21.4
		c-21.3,23.1-29.7,57.2-22.4,91.2c10.5,49.2,50.5,84.8,97.3,86.4c44,1.7,78.6-27.4,92.5-77.8c0.4-1.3,1.7-2.1,2.9-1.7
		c1.2,0.4,1.9,1.8,1.5,3.2C2031.2,258.9,1996.5,289.1,1952,289.1L1952,289.1z"/>
	<path d="M2121.8,253c-1.2,0-2.1-1-2.3-2.2c-0.9-9.2-5.8-17.9-13.4-24c-7.6-6.1-16.6-8.4-24.8-6.4c-1.2,0.3-2.5-0.6-2.7-2
		c-0.3-1.3,0.5-2.8,1.8-3c9.5-2.2,19.8,0.3,28.4,7.2c8.6,6.9,14.2,16.9,15.2,27.6c0.1,1.4-0.8,2.7-2,2.8
		C2121.9,253,2121.8,253,2121.8,253z"/>
	<g>
		<path d="M2037.5,382.6c13.5-36.7,43.3-63.2,69.2-68.9c18.9-4.2,34,2.7,42.4,19.3c8.8,17.4,11.9,34.6,11.6,49.7h4.6
			c0.2-17.4-3.9-35.6-12.2-52.1c-9.3-18.4-26.5-26.3-47.3-21.7c-27.7,6.1-59.4,34.6-73.2,73.9L2037.5,382.6L2037.5,382.6z"/>
		<path d="M2132.1,371.1c-9.2-2.7-19.7,0-28.1,7c-1.6,1.3-3.2,2.9-4.5,4.4h6.8c0.2-0.1,0.3-0.3,0.5-0.4c7.3-6.1,16.4-8.4,24.2-6.1
			c1.2,0.3,2.5-0.4,2.8-1.8C2134,372.9,2133.3,371.5,2132.1,371.1z"/>
	</g>
	<path d="M803.3,382.6c19.3-18.5,47.2-27.4,70.6-20.6c11.7,3.4,20.8,10.4,27,20.6h5.3c-6.9-12.6-17.5-21.4-31.2-25.4
		c-26.3-7.7-58,3.3-78.5,25.4H803.3L803.3,382.6z"/>
	<path d="M994.1,382.6c6.8-18.7,18.1-33,30.3-39.5c12-6.4,23.3-4.5,31.9,5.3c6.9,8,9.7,21.1,7.4,34.2h4.6c2.2-14.3-1-28.8-8.7-37.7
		c-9.9-11.5-23.4-13.8-37.2-6.4c-13.4,7.2-26,23.3-33.1,44h4.8L994.1,382.6z"/>
	<path d="M1724.3,382.6c19.3-18.5,47.2-27.4,70.6-20.6c11.7,3.4,20.8,10.4,27,20.6h5.3c-6.9-12.6-17.5-21.4-31.2-25.4
		c-26.3-7.7-58,3.3-78.5,25.4H1724.3L1724.3,382.6z"/>
	<path d="M2394.2,303.4c-24,0-45.2-12.7-59.2-30.2c-20.8-26.1-29.9-68.3-3.6-103.9c23.8-32.2,54.5-30.8,74.4-15
		c20.3,16,31.9,48.2,14.8,78.6c-10,17.8-26.6,20.1-37.8,14.9c-10.7-5.1-15.8-16-13-28c0.3-1.2,1.4-2,2.5-1.7s1.8,1.5,1.5,2.8
		c-2.7,11.7,4,19.6,10.6,22.7c9.6,4.5,23.9,2.3,32.7-13.2c15.8-28,5.1-57.6-13.7-72.5c-17-13.4-45.2-17.8-68.8,14.3
		c-24.8,33.5-16.1,73.5,3.5,98c21.1,26.4,59.7,41.3,98.3,14.6c43.4-30,48.2-85.6,34.4-124.6c-0.4-1.2,0.1-2.4,1.2-3
		c1.1-0.4,2.2,0.1,2.7,1.3c14.5,40.6,9.4,98.7-36,130.1C2423.4,298.9,2408.3,303.4,2394.2,303.4L2394.2,303.4z"/>
	<path d="M2580.2,289.8c-6.2,0-11.8-1.4-16.3-3.2c-30.7-12.3-52.6-53.4-47.1-76.5c5.3-22,32.1-45,57.4-40.6
		c12.9,2.2,24.1,11.9,28.6,24.7c4.4,12.4,1.9,25.9-6.8,38.2c-7.3,10.2-16.8,15.3-25.3,13.4c-5.7-1.2-10-5.4-11.6-11.3
		c-0.3-1.2,0.3-2.4,1.4-2.8c1.1-0.3,2.2,0.3,2.5,1.5c1.1,4.2,4.2,7.2,8.4,8.1c7,1.5,15-2.9,21.3-11.7c7.8-11,10-22.9,6.2-33.7
		c-4-11.3-14-19.8-25.5-21.8c-24.4-4.3-48.5,19.4-52.8,37.3c-5,20.8,16.1,59.7,44.5,71c25.8,10.3,49.2-6,65.8-45.8
		c0.5-1.1,1.7-1.7,2.7-1.1c1,0.6,1.5,1.9,1,3C2617.5,279.6,2596.6,289.8,2580.2,289.8L2580.2,289.8z"/>
	<g>
		<path d="M2469.6,382.6c-6.5-9.6-8.6-25.1,0.8-39.4c14.7-22.4,40.3-24.2,56.9-14.7c13.8,8,25.5,26.2,19,54.1h4.2
			c6.6-29.8-6.2-49.5-21.3-58.1c-18.1-10.4-46.1-8.4-62.2,16c-9.8,14.9-8.5,31-2.4,42H2469.6z"/>
		<path d="M2508.2,382.6c0.5-1.7,0.8-3.4,0.8-5.2c0.1-5.4-2.3-10.2-6.2-12.5c-3.1-1.8-9.7-3.7-20,4.1c-0.9,0.7-1.2,2.1-0.5,3.2
			c0.6,1,1.9,1.3,2.9,0.6c6.3-4.8,11.9-6.2,15.8-3.9c2.6,1.5,4.1,4.6,4.1,8.4s-0.4,3.5-1.1,5.2L2508.2,382.6L2508.2,382.6z"/>
	</g>
	<path d="M2663.9,341.1c-13.8,0-27.4-7.7-35.9-20.8c-8-12.3-18.1-39.4,3-84.1c0.5-1.1,1.8-1.5,2.8-1c1,0.6,1.4,2,0.9,3.1
		c-20.1,42.5-10.7,67.9-3.3,79.3c8.9,13.7,23.9,20.9,38.2,18.4c13.4-2.3,23.7-12.8,28.2-28.7c5.2-18.1-2.8-33.5-13-40.7
		c-7.3-5.1-18-7.5-26.3,1c-3.7,3.9-5.3,10.4-4,16.6c1.1,5.2,3.9,9,7.8,10.2c1.1,0.3,1.7,1.7,1.4,2.9s-1.5,1.9-2.6,1.5
		c-5.3-1.8-9.2-6.7-10.6-13.6c-1.6-7.9,0.4-16,5.2-20.9c8.2-8.4,20.5-9.1,31.3-1.4c11.6,8.1,20.6,25.4,14.7,45.9
		c-5,17.6-16.5,29.2-31.5,31.9C2668.2,340.9,2666,341.1,2663.9,341.1L2663.9,341.1z"/>
	<path d="M2339.5,382.6c5.1-11.1,17.2-27.1,42.8-22.8c14.4,2.4,23,10.1,24.8,22.1c0,0.2,0,0.4,0.1,0.7h4.1c-0.1-0.4-0.1-1-0.2-1.4
		c-1.2-8.1-6.5-22.2-28.2-25.9c-29.6-5-42.7,14.7-47.9,27c0,0.1-0.1,0.2-0.1,0.3H2339.5L2339.5,382.6z"/>
	<path d="M2624.8,382.6c3.2-1.4,6.7-2.4,10.3-2.9c6.9-0.9,13.9,0.2,20.3,2.9h9.6c-9.2-5.9-19.8-8.7-30.4-7.4
		c-7,0.9-13.3,3.4-18.8,7.4H2624.8L2624.8,382.6z"/>
	<path d="M2209.9,319.1c-3.4,0-6.9-0.4-10.3-1.2c-15.4-3.7-26.5-14.8-30.4-30.8c-5.2-21.1,5.2-35.1,17.1-39.3
		c10-3.4,22.3-0.1,26.6,13.1c2.4,7.4,0.8,15.7-4.1,21.6c-4.9,5.9-12.3,8.1-19.2,5.9c-1.1-0.3-1.7-1.5-1.4-2.8
		c0.3-1.2,1.4-1.9,2.5-1.5c5.5,1.8,11.1,0,15-4.6c3.9-4.6,5.1-11,3.2-16.9c-3.5-11-13.6-13.1-21.5-10.3
		c-10.4,3.7-18.8,15.4-14.4,33.7c3.5,14.2,13.4,24.2,27.3,27.4c16.3,3.9,33.9-2.7,43.8-16c11-14.9,11.7-36.6,1.9-61.3
		c-0.5-1.1,0-2.5,1.1-3c1-0.6,2.2,0,2.7,1.2c10.4,26.2,9.5,49.7-2.5,65.9C2238.7,312.2,2224.4,319.1,2209.9,319.1L2209.9,319.1z"/>
	<path d="M388.8,303.4c24,0,45.2-12.7,59.2-30.2c20.8-26.1,29.9-68.3,3.6-103.9c-23.8-32.2-54.5-30.8-74.4-15
		c-20.3,16-31.9,48.2-14.8,78.6c10,17.8,26.6,20.1,37.8,14.9c10.7-5.1,15.8-16,13-28c-0.3-1.2-1.4-2-2.5-1.7s-1.8,1.5-1.5,2.8
		c2.7,11.7-4,19.6-10.6,22.7c-9.6,4.5-23.9,2.3-32.7-13.2c-15.8-28-5.1-57.6,13.7-72.5c17-13.4,45.2-17.8,68.8,14.3
		c24.8,33.5,16.1,73.5-3.5,98c-21.1,26.4-59.7,41.3-98.3,14.6c-43.4-30-48.2-85.6-34.4-124.6c0.4-1.2-0.1-2.4-1.2-3
		c-1.1-0.4-2.2,0.1-2.7,1.3c-14.5,40.6-9.4,98.7,36,130.1C359.5,298.9,374.6,303.4,388.8,303.4L388.8,303.4z"/>
	<path d="M202.8,289.8c6.2,0,11.8-1.4,16.3-3.2c30.7-12.3,52.6-53.4,47.1-76.5c-5.3-22-32.1-45-57.4-40.6
		c-12.9,2.2-24.1,11.9-28.6,24.7c-4.4,12.4-1.9,25.9,6.8,38.2c7.3,10.2,16.8,15.3,25.3,13.4c5.7-1.2,10-5.4,11.6-11.3
		c0.3-1.2-0.3-2.4-1.4-2.8c-1.1-0.3-2.2,0.3-2.5,1.5c-1.1,4.2-4.2,7.2-8.4,8.1c-7,1.5-15-2.9-21.3-11.7c-7.8-11-10-22.9-6.2-33.7
		c4-11.3,14-19.8,25.5-21.8c24.4-4.3,48.5,19.4,52.8,37.3c5,20.8-16.1,59.7-44.5,71c-25.8,10.3-49.2-6-65.8-45.8
		c-0.5-1.1-1.7-1.7-2.7-1.1c-1,0.6-1.5,1.9-1,3C165.4,279.6,186.4,289.8,202.8,289.8L202.8,289.8z"/>
	<g>
		<path d="M313.3,382.6c6.5-9.6,8.6-25.1-0.8-39.4c-14.7-22.4-40.3-24.2-56.9-14.7c-13.8,8-25.5,26.2-19,54.1h-4.2
			c-6.6-29.8,6.2-49.5,21.3-58.1c18.1-10.4,46.1-8.4,62.2,16c9.8,14.9,8.5,31,2.4,42H313.3L313.3,382.6z"/>
		<path d="M274.7,382.6c-0.5-1.7-0.8-3.4-0.8-5.2c-0.1-5.4,2.3-10.2,6.2-12.5c3.1-1.8,9.7-3.7,20,4.1c0.9,0.7,1.2,2.1,0.5,3.2
			c-0.6,1-1.9,1.3-2.9,0.6c-6.3-4.8-11.9-6.2-15.8-3.9c-2.6,1.5-4.1,4.6-4.1,8.4s0.4,3.5,1.1,5.2L274.7,382.6L274.7,382.6z"/>
	</g>
	<path d="M119,341.1c13.8,0,27.4-7.7,35.9-20.8c8-12.3,18.1-39.4-3-84.1c-0.5-1.1-1.8-1.5-2.8-1c-1,0.6-1.4,2-0.9,3.1
		c20.1,42.5,10.7,67.9,3.3,79.3c-8.9,13.7-23.9,20.9-38.2,18.4c-13.4-2.3-23.7-12.8-28.2-28.7c-5.2-18.1,2.8-33.5,13-40.7
		c7.3-5.1,18-7.5,26.3,1c3.7,3.9,5.3,10.4,4,16.6c-1.1,5.2-3.9,9-7.8,10.2c-1.1,0.3-1.7,1.7-1.4,2.9c0.3,1.2,1.5,1.9,2.6,1.5
		c5.3-1.8,9.2-6.7,10.6-13.6c1.6-7.9-0.4-16-5.2-20.9c-8.2-8.4-20.5-9.1-31.3-1.4c-11.6,8.1-20.6,25.4-14.7,45.9
		c5,17.6,16.5,29.2,31.5,31.9C114.8,340.9,116.9,341.1,119,341.1L119,341.1z"/>
	<path d="M443.5,382.6c-5.1-11.1-17.2-27.1-42.8-22.8c-14.4,2.4-23,10.1-24.8,22.1c0,0.2,0,0.4-0.1,0.7h-4.1c0.1-0.4,0.1-1,0.2-1.4
		c1.2-8.1,6.5-22.2,28.2-25.9c29.6-5,42.7,14.7,47.9,27c0,0.1,0.1,0.2,0.1,0.3H443.5L443.5,382.6z"/>
	<path d="M158.1,382.6c-3.2-1.4-6.7-2.4-10.3-2.9c-6.9-0.9-13.9,0.2-20.3,2.9h-9.6c9.2-5.9,19.8-8.7,30.4-7.4
		c7,0.9,13.3,3.4,18.8,7.4H158.1z"/>
	<path d="M573,319.1c3.4,0,6.9-0.4,10.3-1.2c15.4-3.7,26.5-14.8,30.4-30.8c5.2-21.1-5.2-35.1-17.1-39.3c-10-3.4-22.3-0.1-26.6,13.1
		c-2.4,7.4-0.8,15.7,4.1,21.6c4.9,5.9,12.3,8.1,19.2,5.9c1.1-0.3,1.7-1.5,1.4-2.8c-0.3-1.2-1.4-1.9-2.5-1.5c-5.5,1.8-11.1,0-15-4.6
		c-3.9-4.6-5.1-11-3.2-16.9c3.5-11,13.6-13.1,21.5-10.3c10.4,3.7,18.8,15.4,14.4,33.7c-3.5,14.2-13.4,24.2-27.3,27.4
		c-16.3,3.9-33.9-2.7-43.8-16c-11-14.9-11.7-36.6-1.9-61.3c0.5-1.1,0-2.5-1.1-3c-1-0.6-2.2,0-2.7,1.2c-10.4,26.2-9.5,49.7,2.5,65.9
		C544.2,312.2,558.5,319.1,573,319.1L573,319.1z"/>
</g>
</svg>
