<?xml version="1.0" encoding="utf-8"?>
<!-- Generator: Adobe Illustrator 27.9.5, SVG Export Plug-In . SVG Version: 9.03 Build 54986)  -->
<svg version="1.1" xmlns="http://www.w3.org/2000/svg" xmlns:xlink="http://www.w3.org/1999/xlink" x="0px" y="0px"
	 viewBox="0 0 593.6 315" style="enable-background:new 0 0 593.6 315;" xml:space="preserve">
<style type="text/css">
	.st0{fill:#C1272D;}
	.st1{fill:url(#SVGID_1_);}
	.st2{fill:#D80720;}
	.st3{fill:url(#SVGID_00000022531355976096903300000001020525106768634548_);}
	.st4{fill:#FF5158;}
	.st5{fill:#DD0F24;}
	.st6{fill:#ED1C24;}
	.st7{fill:#FEB323;}
	.st8{fill:url(#SVGID_00000131351150807346466550000007341794784609238699_);}
	.st9{fill:url(#SVGID_00000173853350131804396510000006121370083766155403_);}
	.st10{fill:url(#SVGID_00000094591786533142807510000013854698500414134657_);}
	.st11{fill:url(#SVGID_00000085211095265629446780000009405587962071381636_);}
</style>
<g id="BG">
</g>
<g id="Object">
</g>
<g id="Calque_3">
	<g>
		<g>
			<path class="st0" d="M52.6,230.4c-0.8,0-1.5-0.7-1.5-1.5v-29.5c0-0.8,0.7-1.5,1.5-1.5c0.8,0,1.5,0.7,1.5,1.5v29.5
				C54.1,229.7,53.4,230.4,52.6,230.4z"/>
		</g>
		<linearGradient id="SVGID_1_" gradientUnits="userSpaceOnUse" x1="8.523" y1="131.1043" x2="88.8892" y2="131.1043">
			<stop  offset="0" style="stop-color:#FB1A28"/>
			<stop  offset="2.173722e-02" style="stop-color:#FB2831"/>
			<stop  offset="7.964350e-02" style="stop-color:#FB4747"/>
			<stop  offset="0.136" style="stop-color:#FB5D56"/>
			<stop  offset="0.1897" style="stop-color:#FB6A60"/>
			<stop  offset="0.2378" style="stop-color:#FB6F63"/>
			<stop  offset="0.412" style="stop-color:#FB5954"/>
			<stop  offset="0.803" style="stop-color:#FB2B34"/>
			<stop  offset="1" style="stop-color:#FB1A28"/>
		</linearGradient>
		<path class="st1" d="M107,63.7c0.9-6-21.7-12-54-12c-32.3,0-54.9,6-54,12c0.3,2.2,5.7,6.9,5.7,6.9l-3.4,4.1
			C0,76.4,0,78.7,1.4,80.3L4.7,84l-3.3,3.8c-1.4,1.6-1.4,4.1,0.1,5.7l3.2,3.4l-3.9,4c-1.7,1.7-1.6,4.5,0.2,6.1l3.7,3.3l-3.8,3.5
			c-1.8,1.6-1.8,4.4-0.2,6.1l3.9,4l-4.2,4.6c-1.5,1.7-1.5,4.3,0.1,5.9l4.1,4l-3.4,3c-1.9,1.7-1.9,4.7,0.1,6.4l3.3,2.8L1,154.1
			c-1.8,1.7-1.8,4.5-0.1,6.2l3.7,3.6l-3.4,3c-1.9,1.7-1.9,4.7,0.1,6.4l3.3,2.8l-4,3.7c-1.7,1.6-1.8,4.2-0.3,5.9l4.3,5l-5.2,5.5
			c-2.8,6.9,17.5,14.3,53.5,14.3s56.3-7.4,53.5-14.3l-5.2-5.5l4.3-5c1.5-1.7,1.4-4.3-0.3-5.9l-4-3.7l3.3-2.8c1.9-1.7,2-4.7,0.1-6.4
			l-3.4-3l3.7-3.6c1.8-1.7,1.7-4.5-0.1-6.2l-3.7-3.4l3.3-2.8c1.9-1.7,2-4.7,0.1-6.4l-3.4-3l4.1-4c1.6-1.6,1.7-4.2,0.1-5.9l-4.2-4.6
			l3.9-4c1.7-1.7,1.6-4.5-0.2-6.1l-3.8-3.5l3.7-3.3c1.8-1.6,1.9-4.4,0.2-6.1l-3.9-4l3.2-3.4c1.5-1.6,1.6-4.1,0.1-5.7l-3.3-3.8
			l3.3-3.8c1.4-1.6,1.4-3.9,0.1-5.5l-3.4-4.1C101.4,70.6,106.7,65.9,107,63.7z"/>
		<g>
			<path class="st2" d="M104.7,147.9c0.8-0.7,1.3-1.6,1.4-2.6c-5.5,2.9-19.6,7.5-53.6,7.5c-33.3,0-47.1-4.5-52.5-7.3
				c0.2,0.9,0.6,1.8,1.4,2.4l3.3,2.8l-0.4,0.3c4.5,2.3,18.1,7.8,47.7,7.8c31.6,0,45.3-5.5,49.7-7.8l-0.3-0.3L104.7,147.9z"/>
			<path class="st2" d="M105.1,160.3c0.5-0.5,0.9-1.1,1.1-1.7c-5.4,2.9-19.5,7.5-53.7,7.5c-33.3,0-47.1-4.5-52.5-7.3
				c0.2,0.5,0.5,1,1,1.4l3.7,3.6l-0.5,0.5c4.3,2.3,17.9,7.8,47.9,7.8c32,0,45.7-5.6,49.8-7.9l-0.5-0.4L105.1,160.3z"/>
			<path class="st2" d="M101.4,70.6c0,0,5.3-4.7,5.7-6.9c0,0-7.4,9.7-54.4,9.7S-1,63.7-1,63.7c0.3,2.2,5.7,6.9,5.7,6.9
				s11.4,8.8,47.4,8.8C90.5,79.4,101.4,70.6,101.4,70.6z"/>
			<path class="st2" d="M1.4,173.3l3.3,2.8l-0.4,0.3c4.5,2.3,18.1,7.8,47.7,7.8c31.6,0,45.3-5.5,49.7-7.8l-0.3-0.3l3.3-2.8
				c0.8-0.7,1.3-1.6,1.4-2.6c-5.5,2.9-19.6,7.5-53.6,7.5c-33.3,0-47.1-4.5-52.5-7.3C0.2,171.8,0.6,172.6,1.4,173.3z"/>
			<path class="st2" d="M105.5,134.4c0.5-0.5,0.9-1.2,1.1-1.9c-5.1,2.8-19.1,7.7-54,7.7c-34.1,0-47.8-4.7-52.9-7.5
				c0.2,0.6,0.5,1.2,1,1.6l4.1,4l-0.2,0.2c4.6,2.4,18.3,7.7,47.5,7.7c31.2,0,45-5.4,49.5-7.7l-0.2-0.2L105.5,134.4z"/>
			<path class="st2" d="M105.3,119.9c0.3-0.3,0.5-0.6,0.6-0.9c-5.6,2.9-19.8,7.4-53.4,7.4c-32.7,0-46.6-4.3-52.2-7.2
				c0.1,0.2,0.3,0.4,0.5,0.6l3.9,4l-0.6,0.7c4.2,2.2,17.8,7.9,47.9,7.9c32.2,0,45.8-5.7,49.9-7.9l-0.6-0.6L105.3,119.9z"/>
			<path class="st2" d="M52,199.4c32.6,0,46.2-5.8,50.1-8l-0.7-0.8l3.6-4.2c-6.2,2.9-20.6,7-52.5,7c-30.8,0-45-3.8-51.2-6.7l3.4,3.9
				l-0.8,0.8C8,193.6,21.5,199.4,52,199.4z"/>
			<path class="st2" d="M52.1,105.3c38.3,0,49.3-8.8,49.3-8.8l0.5-0.1l2.7-2.9c0.8-0.8,1.1-1.8,1.2-2.9c-3.6,2.5-16,8.6-53.2,8.6
				c-36.8,0-48.8-5.9-52.3-8.5c0,1,0.4,2,1.2,2.8l2.6,2.8l0.6,0.2C4.7,96.5,16.1,105.3,52.1,105.3z"/>
			<path class="st2" d="M105.1,107.1c0.5-0.4,0.8-0.9,1.1-1.5c-5.5,2.9-19.6,7.5-53.6,7.5c-33.1,0-46.9-4.4-52.4-7.3
				c0.2,0.5,0.5,0.9,0.9,1.2l3.7,3.3l-0.8,0.8c3.9,2.1,17.5,8,48.2,8c32.8,0,46.4-5.9,50.1-8l-0.8-0.7L105.1,107.1z"/>
			<path class="st2" d="M52.1,92.8c38.3,0,49.3-8.8,49.3-8.8h0l3.3-3.8c0.5-0.6,0.8-1.3,1-2c-3.7,2.6-16.3,8.5-53.1,8.5
				c-36.3,0-48.5-5.8-52.1-8.4c0.1,0.7,0.5,1.3,0.9,1.9L4.7,84h0C4.7,84,16.1,92.8,52.1,92.8z"/>
		</g>
		
			<linearGradient id="SVGID_00000148655361950052807750000016587438389094113190_" gradientUnits="userSpaceOnUse" x1="5.9699" y1="61.9907" x2="99.6899" y2="61.9907">
			<stop  offset="0" style="stop-color:#FBB03B"/>
			<stop  offset="0.5946" style="stop-color:#FCEE21"/>
			<stop  offset="1" style="stop-color:#FBB03B"/>
		</linearGradient>
		<ellipse style="fill:url(#SVGID_00000148655361950052807750000016587438389094113190_);" cx="52.8" cy="62" rx="46.9" ry="7.8"/>
		<ellipse class="st4" cx="52.8" cy="62" rx="25.8" ry="4.3"/>
		<path class="st5" d="M52.8,57.7c-14.2,0-25.8,2.3-25.8,4.3c0,0.8,1.7,1.6,4.7,2.3c2.6-1.4,11.1-2.7,21.1-2.7s18.4,1.3,21.1,2.7
			c3-0.7,4.7-1.5,4.7-2.3C78.6,60,67.1,57.7,52.8,57.7z"/>
		<g>
			<path class="st0" d="M27.5,62.4c-0.1,0-0.2,0-0.3-0.1c-0.2-0.2-0.2-0.5,0-0.6L53.1,33l25.4,28.7c0.2,0.2,0.1,0.5,0,0.6
				c-0.2,0.2-0.5,0.1-0.6,0L53.1,34.4L27.9,62.3C27.8,62.4,27.7,62.4,27.5,62.4z"/>
		</g>
		<g>
			<path class="st0" d="M53.1,34.1c-0.2,0-0.5-0.2-0.5-0.5V0.5c0-0.2,0.2-0.5,0.5-0.5s0.5,0.2,0.5,0.5v33.2
				C53.5,33.9,53.3,34.1,53.1,34.1z"/>
		</g>
		<path class="st6" d="M56.8,227.3h-7.9c-0.2,0-0.3-0.2-0.3-0.3V221c0-0.4,0.4-0.8,0.8-0.8h7c0.4,0,0.8,0.4,0.8,0.8v5.9
			C57.1,227.1,57,227.3,56.8,227.3z"/>
		<path class="st6" d="M48.8,236.3h7.9c0.2,0,0.3,0.2,0.3,0.3v5.9c0,0.4-0.4,0.8-0.8,0.8h-7c-0.4,0-0.8-0.4-0.8-0.8v-5.9
			C48.5,236.5,48.7,236.3,48.8,236.3z"/>
		<g>
			<g>
				<path class="st7" d="M50.2,308.8C50.2,308.8,50.1,308.8,50.2,308.8c-0.8,0-1.4-0.6-1.4-1.4l0.6-66c0-0.8,0.6-1.4,1.4-1.4
					c0,0,0,0,0,0c0.8,0,1.4,0.6,1.4,1.4l-0.6,66C51.5,308.2,50.9,308.8,50.2,308.8z"/>
			</g>
			<g>
				<path class="st7" d="M51.1,308.8C51.1,308.8,51.1,308.8,51.1,308.8c-0.8,0-1.4-0.6-1.4-1.4l0.2-66c0-0.8,0.6-1.4,1.4-1.4
					c0,0,0,0,0,0c0.8,0,1.4,0.6,1.4,1.4l-0.2,66C52.5,308.2,51.9,308.8,51.1,308.8z"/>
			</g>
			<g>
				<path class="st7" d="M52.1,308.8c-0.8,0-1.4-0.6-1.4-1.4l-0.1-66c0-0.8,0.6-1.4,1.4-1.4c0,0,0,0,0,0c0.8,0,1.4,0.6,1.4,1.4
					l0.1,66C53.4,308.2,52.8,308.8,52.1,308.8C52.1,308.8,52.1,308.8,52.1,308.8z"/>
			</g>
			<g>
				<path class="st7" d="M53,308.8c-0.8,0-1.4-0.6-1.4-1.4l-0.4-66c0-0.8,0.6-1.4,1.4-1.4c0,0,0,0,0,0c0.8,0,1.4,0.6,1.4,1.4l0.4,66
					C54.4,308.2,53.8,308.8,53,308.8C53,308.8,53,308.8,53,308.8z"/>
			</g>
			<g>
				<path class="st7" d="M54,308.8c-0.8,0-1.4-0.6-1.4-1.4l-0.7-66c0-0.8,0.6-1.4,1.4-1.4c0,0,0,0,0,0c0.8,0,1.4,0.6,1.4,1.4l0.7,66
					C55.3,308.2,54.7,308.8,54,308.8C54,308.8,54,308.8,54,308.8z"/>
			</g>
			<g>
				<path class="st7" d="M54.9,308.8c-0.7,0-1.4-0.6-1.4-1.4l-1-66c0-0.8,0.6-1.4,1.4-1.4c0,0,0,0,0,0c0.7,0,1.4,0.6,1.4,1.4l1,66
					C56.3,308.2,55.7,308.8,54.9,308.8C54.9,308.8,54.9,308.8,54.9,308.8z"/>
			</g>
			<g>
				<path class="st7" d="M55.9,308.8c-0.7,0-1.4-0.6-1.4-1.3l-1.3-66c0-0.8,0.6-1.4,1.3-1.4c0,0,0,0,0,0c0.7,0,1.4,0.6,1.4,1.3
					l1.3,66C57.2,308.2,56.6,308.8,55.9,308.8C55.9,308.8,55.9,308.8,55.9,308.8z"/>
			</g>
			<g>
				<path class="st7" d="M56.8,308.8c-0.7,0-1.4-0.6-1.4-1.3l-1.7-66c0-0.8,0.6-1.4,1.3-1.4c0.8,0,1.4,0.6,1.4,1.3l1.7,66
					C58.2,308.2,57.6,308.8,56.8,308.8C56.8,308.8,56.8,308.8,56.8,308.8z"/>
			</g>
		</g>
		
			<linearGradient id="SVGID_00000081618451283152203460000007374514677342265752_" gradientUnits="userSpaceOnUse" x1="48.4982" y1="232.0173" x2="57.118" y2="232.0173">
			<stop  offset="0" style="stop-color:#FBB03B"/>
			<stop  offset="0.5946" style="stop-color:#FCEE21"/>
			<stop  offset="1" style="stop-color:#FBB03B"/>
		</linearGradient>
		<path style="fill:url(#SVGID_00000081618451283152203460000007374514677342265752_);" d="M56.3,237.3h-7c-0.4,0-0.8-0.4-0.8-0.8
			v-9c0-0.4,0.4-0.8,0.8-0.8h7c0.4,0,0.8,0.4,0.8,0.8v9C57.1,237,56.8,237.3,56.3,237.3z"/>
	</g>
	<g>
		<g>
			<path class="st0" d="M349.9,179c-0.6,0-1.2-0.5-1.2-1.2v-22.9c0-0.6,0.5-1.2,1.2-1.2c0.6,0,1.2,0.5,1.2,1.2v22.9
				C351.1,178.4,350.6,179,349.9,179z"/>
		</g>
		
			<linearGradient id="SVGID_00000090980584248259053490000001074690036122660020_" gradientUnits="userSpaceOnUse" x1="315.7378" y1="101.8291" x2="378.1584" y2="101.8291">
			<stop  offset="0" style="stop-color:#FB1A28"/>
			<stop  offset="2.173722e-02" style="stop-color:#FB2831"/>
			<stop  offset="7.964350e-02" style="stop-color:#FB4747"/>
			<stop  offset="0.136" style="stop-color:#FB5D56"/>
			<stop  offset="0.1897" style="stop-color:#FB6A60"/>
			<stop  offset="0.2378" style="stop-color:#FB6F63"/>
			<stop  offset="0.412" style="stop-color:#FB5954"/>
			<stop  offset="0.803" style="stop-color:#FB2B34"/>
			<stop  offset="1" style="stop-color:#FB1A28"/>
		</linearGradient>
		<path style="fill:url(#SVGID_00000090980584248259053490000001074690036122660020_);" d="M392.3,49.5c0.7-4.7-16.8-9.3-41.9-9.3
			c-25.1,0-42.7,4.7-41.9,9.3c0.3,1.7,4.4,5.4,4.4,5.4l-2.6,3.2c-1,1.2-1,3,0.1,4.3l2.6,2.9l-2.6,2.9c-1.1,1.3-1.1,3.2,0.1,4.4
			l2.5,2.7l-3,3.1c-1.3,1.3-1.2,3.5,0.2,4.8l2.8,2.5l-2.9,2.7c-1.4,1.3-1.4,3.4-0.1,4.7l3.1,3.1l-3.3,3.6c-1.2,1.3-1.1,3.3,0.1,4.6
			l3.2,3.1l-2.6,2.3c-1.5,1.3-1.5,3.7,0,5l2.6,2.2l-2.9,2.6c-1.4,1.3-1.4,3.5,0,4.8l2.9,2.8l-2.6,2.3c-1.5,1.3-1.5,3.7,0,5l2.6,2.2
			l-3.1,2.9c-1.3,1.2-1.4,3.2-0.3,4.6l3.3,3.9l-4,4.3c-2.2,5.4,13.6,11.1,41.6,11.1s43.7-5.7,41.6-11.1l-4-4.3l3.3-3.9
			c1.2-1.3,1.1-3.4-0.3-4.6l-3.1-2.9l2.6-2.2c1.5-1.3,1.5-3.6,0-5l-2.6-2.3l2.9-2.8c1.4-1.3,1.4-3.5,0-4.8l-2.9-2.6l2.6-2.2
			c1.5-1.3,1.5-3.6,0-5l-2.6-2.3l3.2-3.1c1.3-1.2,1.3-3.3,0.1-4.6l-3.3-3.6l3.1-3.1c1.3-1.3,1.2-3.5-0.1-4.7l-2.9-2.7l2.8-2.5
			c1.4-1.3,1.5-3.4,0.2-4.8l-3-3.1l2.5-2.7c1.2-1.2,1.2-3.2,0.1-4.4l-2.6-2.9l2.6-2.9c1.1-1.2,1.1-3,0.1-4.3l-2.6-3.2
			C387.9,54.9,392,51.2,392.3,49.5z"/>
		<g>
			<path class="st2" d="M390.4,114.9c0.6-0.5,1-1.3,1.1-2c-4.2,2.2-15.2,5.8-41.6,5.8c-25.8,0-36.6-3.5-40.8-5.7
				c0.1,0.7,0.5,1.4,1.1,1.9l2.6,2.2l-0.3,0.3c3.5,1.8,14.1,6,37,6c24.5,0,35.2-4.3,38.6-6l-0.3-0.2L390.4,114.9z"/>
			<path class="st2" d="M390.8,124.5c0.4-0.4,0.7-0.8,0.8-1.3c-4.2,2.2-15.2,5.9-41.7,5.9c-25.9,0-36.6-3.5-40.8-5.7
				c0.2,0.4,0.4,0.8,0.8,1.1l2.9,2.8l-0.4,0.4c3.3,1.8,13.9,6.1,37.2,6.1c24.8,0,35.5-4.4,38.7-6.1l-0.4-0.3L390.8,124.5z"/>
			<path class="st2" d="M387.9,54.9c0,0,4.1-3.7,4.4-5.4c0,0-5.7,7.5-42.3,7.5s-41.6-7.5-41.6-7.5c0.3,1.7,4.4,5.4,4.4,5.4
				s8.9,6.8,36.8,6.8C379.4,61.7,387.9,54.9,387.9,54.9z"/>
			<path class="st2" d="M310.2,134.6l2.6,2.2l-0.3,0.3c3.5,1.8,14.1,6,37,6c24.5,0,35.2-4.3,38.6-6l-0.3-0.2l2.6-2.2
				c0.6-0.5,1-1.3,1.1-2c-4.2,2.2-15.2,5.8-41.6,5.8c-25.8,0-36.6-3.5-40.8-5.7C309.3,133.4,309.6,134.1,310.2,134.6z"/>
			<path class="st2" d="M391,104.4c0.4-0.4,0.7-0.9,0.8-1.4c-4,2.2-14.8,6-42,6c-26.5,0-37.1-3.6-41.1-5.9c0.2,0.5,0.4,0.9,0.8,1.3
				l3.2,3.1l-0.2,0.1c3.6,1.8,14.2,6,36.9,6c24.2,0,34.9-4.2,38.5-6l-0.1-0.1L391,104.4z"/>
			<path class="st2" d="M390.9,93.1c0.2-0.2,0.4-0.4,0.5-0.7c-4.3,2.2-15.3,5.8-41.5,5.8c-25.4,0-36.2-3.3-40.6-5.6
				c0.1,0.2,0.2,0.3,0.4,0.5l3.1,3.1l-0.5,0.5c3.3,1.7,13.8,6.1,37.2,6.1c25,0,35.6-4.4,38.8-6.1l-0.4-0.5L390.9,93.1z"/>
			<path class="st2" d="M349.5,154.9c25.3,0,35.9-4.5,38.9-6.2l-0.6-0.6l2.8-3.3c-4.8,2.2-16,5.4-40.8,5.4c-24,0-34.9-3-39.8-5.2
				l2.6,3l-0.6,0.6C315.3,150.4,325.8,154.9,349.5,154.9z"/>
			<path class="st2" d="M349.6,81.7c29.8,0,38.3-6.8,38.3-6.8l0.4,0l2.1-2.2c0.6-0.6,0.9-1.4,0.9-2.2c-2.8,2-12.4,6.7-41.3,6.7
				c-28.6,0-37.9-4.6-40.6-6.6c0,0.8,0.3,1.6,0.9,2.2l2.1,2.2l0.5,0.1C312.8,74.9,321.6,81.7,349.6,81.7z"/>
			<path class="st2" d="M390.7,83.1c0.4-0.3,0.6-0.7,0.8-1.1c-4.3,2.2-15.2,5.8-41.6,5.8c-25.7,0-36.5-3.4-40.7-5.7
				c0.2,0.4,0.4,0.7,0.7,1l2.8,2.5l-0.6,0.6c3,1.7,13.6,6.2,37.4,6.2c25.5,0,36-4.6,39-6.2l-0.6-0.6L390.7,83.1z"/>
			<path class="st2" d="M349.6,72.1c29.8,0,38.3-6.8,38.3-6.8h0l2.6-2.9c0.4-0.5,0.6-1,0.8-1.5c-2.9,2-12.6,6.6-41.2,6.6
				c-28.2,0-37.7-4.5-40.5-6.5c0.1,0.5,0.4,1,0.7,1.5l2.6,2.9l0,0C312.8,65.3,321.6,72.1,349.6,72.1z"/>
		</g>
		
			<linearGradient id="SVGID_00000081610437838046050470000005546090693234264732_" gradientUnits="userSpaceOnUse" x1="313.7547" y1="48.1484" x2="386.5473" y2="48.1484">
			<stop  offset="0" style="stop-color:#FBB03B"/>
			<stop  offset="0.5946" style="stop-color:#FCEE21"/>
			<stop  offset="1" style="stop-color:#FBB03B"/>
		</linearGradient>
		
			<ellipse style="fill:url(#SVGID_00000081610437838046050470000005546090693234264732_);" cx="350.2" cy="48.1" rx="36.4" ry="6.1"/>
		<ellipse class="st4" cx="350.2" cy="48.1" rx="20" ry="3.3"/>
		<path class="st5" d="M350.2,44.8c-11.1,0-20,1.8-20,3.3c0,0.6,1.4,1.3,3.7,1.8c2-1.1,8.6-2.1,16.4-2.1c7.8,0,14.3,1,16.4,2.1
			c2.3-0.6,3.7-1.2,3.7-1.8C370.2,46.6,361.2,44.8,350.2,44.8z"/>
		<g>
			<path class="st0" d="M330.5,48.5c-0.1,0-0.2,0-0.2-0.1c-0.1-0.1-0.2-0.4,0-0.5l20.1-22.3L370,47.9c0.1,0.1,0.1,0.4,0,0.5
				c-0.1,0.1-0.4,0.1-0.5,0l-19.2-21.7l-19.6,21.7C330.7,48.5,330.6,48.5,330.5,48.5z"/>
		</g>
		<g>
			<path class="st0" d="M350.3,26.5c-0.2,0-0.4-0.2-0.4-0.4V0.4c0-0.2,0.2-0.4,0.4-0.4s0.4,0.2,0.4,0.4v25.8
				C350.7,26.4,350.5,26.5,350.3,26.5z"/>
		</g>
		<path class="st6" d="M353.2,176.5h-6.2c-0.1,0-0.3-0.1-0.3-0.3v-4.6c0-0.3,0.3-0.6,0.6-0.6h5.4c0.3,0,0.6,0.3,0.6,0.6v4.6
			C353.5,176.4,353.4,176.5,353.2,176.5z"/>
		<path class="st6" d="M347.1,183.6h6.2c0.1,0,0.3,0.1,0.3,0.3v4.6c0,0.3-0.3,0.6-0.6,0.6h-5.4c-0.3,0-0.6-0.3-0.6-0.6v-4.6
			C346.8,183.7,346.9,183.6,347.1,183.6z"/>
		<g>
			<g>
				<path class="st7" d="M348.1,239.8C348.1,239.8,348.1,239.8,348.1,239.8c-0.6,0-1.1-0.5-1.1-1.1l0.4-51.3c0-0.6,0.5-1.1,1.1-1.1
					c0,0,0,0,0,0c0.6,0,1.1,0.5,1.1,1.1l-0.4,51.3C349.1,239.4,348.7,239.8,348.1,239.8z"/>
			</g>
			<g>
				<path class="st7" d="M348.8,239.8C348.8,239.8,348.8,239.8,348.8,239.8c-0.6,0-1.1-0.5-1.1-1.1l0.2-51.3c0-0.6,0.5-1.1,1.1-1.1
					c0,0,0,0,0,0c0.6,0,1.1,0.5,1.1,1.1l-0.2,51.3C349.9,239.4,349.4,239.8,348.8,239.8z"/>
			</g>
			<g>
				<path class="st7" d="M349.6,239.8c-0.6,0-1.1-0.5-1.1-1.1l-0.1-51.3c0-0.6,0.5-1.1,1.1-1.1c0,0,0,0,0,0c0.6,0,1.1,0.5,1.1,1.1
					l0.1,51.3C350.6,239.4,350.1,239.8,349.6,239.8C349.6,239.8,349.6,239.8,349.6,239.8z"/>
			</g>
			<g>
				<path class="st7" d="M350.3,239.8c-0.6,0-1.1-0.5-1.1-1.1l-0.3-51.3c0-0.6,0.5-1.1,1.1-1.1c0,0,0,0,0,0c0.6,0,1.1,0.5,1.1,1.1
					l0.3,51.3C351.4,239.4,350.9,239.8,350.3,239.8C350.3,239.8,350.3,239.8,350.3,239.8z"/>
			</g>
			<g>
				<path class="st7" d="M351,239.8c-0.6,0-1.1-0.5-1.1-1.1l-0.6-51.3c0-0.6,0.5-1.1,1.1-1.1c0,0,0,0,0,0c0.6,0,1.1,0.5,1.1,1.1
					l0.6,51.3C352.1,239.4,351.6,239.8,351,239.8C351,239.8,351,239.8,351,239.8z"/>
			</g>
			<g>
				<path class="st7" d="M351.8,239.8c-0.6,0-1.1-0.5-1.1-1l-0.8-51.3c0-0.6,0.5-1.1,1-1.1c0,0,0,0,0,0c0.6,0,1.1,0.5,1.1,1
					l0.8,51.3C352.8,239.4,352.4,239.8,351.8,239.8C351.8,239.8,351.8,239.8,351.8,239.8z"/>
			</g>
			<g>
				<path class="st7" d="M352.5,239.8c-0.6,0-1.1-0.5-1.1-1l-1-51.3c0-0.6,0.5-1.1,1-1.1c0,0,0,0,0,0c0.6,0,1.1,0.5,1.1,1l1,51.3
					C353.6,239.3,353.1,239.8,352.5,239.8C352.5,239.8,352.5,239.8,352.5,239.8z"/>
			</g>
			<g>
				<path class="st7" d="M353.2,239.8c-0.6,0-1.1-0.5-1.1-1l-1.3-51.3c0-0.6,0.5-1.1,1-1.1c0.6,0,1.1,0.5,1.1,1l1.3,51.3
					C354.3,239.3,353.9,239.8,353.2,239.8C353.3,239.8,353.3,239.8,353.2,239.8z"/>
			</g>
		</g>
		
			<linearGradient id="SVGID_00000008122017845952680940000007299893216715717796_" gradientUnits="userSpaceOnUse" x1="346.7866" y1="180.2086" x2="353.4816" y2="180.2086">
			<stop  offset="0" style="stop-color:#FBB03B"/>
			<stop  offset="0.5946" style="stop-color:#FCEE21"/>
			<stop  offset="1" style="stop-color:#FBB03B"/>
		</linearGradient>
		<path style="fill:url(#SVGID_00000008122017845952680940000007299893216715717796_);" d="M352.9,184.3h-5.4
			c-0.3,0-0.6-0.3-0.6-0.6v-7c0-0.3,0.3-0.6,0.6-0.6h5.4c0.3,0,0.6,0.3,0.6,0.6v7C353.5,184.1,353.2,184.3,352.9,184.3z"/>
	</g>
</g>
</svg>
