<?xml version="1.0" encoding="utf-8"?>
<!-- Generator: Adobe Illustrator 28.4.1, SVG Export Plug-In . SVG Version: 6.00 Build 0)  -->
<svg version="1.1" id="a" xmlns="http://www.w3.org/2000/svg" xmlns:xlink="http://www.w3.org/1999/xlink" x="0px" y="0px"
	 viewBox="0 0 1280 954" style="enable-background:new 0 0 1280 954;" xml:space="preserve">
<style type="text/css">
	.st0{fill:#EF242F;stroke:#000000;stroke-width:6;stroke-miterlimit:10;}
	.st1{fill:#EF242F;stroke:#020202;stroke-width:6;stroke-miterlimit:10;}
	.st2{fill:#F5C785;}
	.st3{fill:#FFFFFF;}
	.st4{fill:#DE3C31;}
	.st5{fill:#F5C941;}
	.st6{fill:#B2272C;stroke:#000000;stroke-width:2;stroke-miterlimit:10;}
	.st7{fill:#EABE42;}
	.st8{fill:#E5414D;stroke:#020202;stroke-width:5;stroke-miterlimit:10;}
	.st9{fill:#BA3138;}
</style>
<path class="st0" d="M676.5,868.4c24.2,1.8,58.4,3.3,99.4,1.7c15.8-0.6,44.5-1.8,72.3-5.9c10.9-1.6,171-26.7,178.8-91
	c2.1-17.5-6.9-38.3-21.4-48.1c-27.4-18.4-60.7,12.5-95.1-8.9c-2.3-1.4-24.9-15.9-23-33c1.2-11.5,12.8-18.8,18.5-22.4
	c32-19.8,96.8-25.7,142.6,13.4c6.1,5.2,38.9,34.3,42.1,81.6c4.2,61-44.2,101.1-54.8,109.8c-24.4,20.2-50.7,26.7-101.9,39.1
	c-45.2,11-79.6,14.4-110.2,17.6c-36.9,3.8-94.2,9.8-177.2,18.7"/>
<path class="st1" d="M81.6,175.2c-29.2,21.8-35.1,83.4,5.8,136.2c0.3,23.9,4,149.4,96.6,226.2c14.2,11.7,66.4,55,141.1,63.5
	c50.4,5.7,70.1-9.1,99.1,8.9c43.9,27.2,49.9,93,52.8,124.5c2.3,24.8,5.4,59.1-12,94.7c-9,18.5-19.3,28.5-66.2,69.2
	c-81,70.2-89.8,74.4-95.3,90.3c-8.7,25.3-4.3,66.4,56.3,135.2c2.8,37.9,8.3,57.4,16.5,58.6c10.3,1.5,24.8-25.5,43.6-81.2
	c-4-3.1-37.7-29.7-33.1-61.6c3-21,21.1-32.1,57.1-54.1c28.3-17.3,64.5-39.5,87.2-25.6c4.7,2.9,10.6,8.4,15,21
	c20.2,57.6-13.5,195.2-19.5,219.5c-38.6,31.8-55.6,51.9-51.1,60.1c5.3,9.7,40.4,3.2,105.2-19.5c45.7-99.7,88.9-178,120.3-231.5
	c79.6-135.9,98.6-139.3,129.3-218c51.7-132.4,22.8-186.5,81.2-231.5c40.4-31.1,95.7-37.3,178.9-46.6c43.4-4.8,79.8-5.2,105.2-4.5
	c23.6-7.4,41.6-25.2,45.1-46.6c5.7-34.6-27.8-71.8-55.6-67.7c-17.9,2.6-28.7,21.6-31.6,27.1c-35.9,2.1-91.8,4.3-160.9,1.5
	c-53.7-2.1-76.8-3.9-101.1-2.5c-6.1,0.4-14.3,1.1-25.2,2.5c-74.2,9.7-86.8,32.4-123.7,25.8c-24-4.3-21-14.3-53.6-21.2
	c-12.3-2.6-37.1-7.5-64.9,0c-28.1,7.5-32.6,20.5-64.9,36.7c-24,12-43.4,16-67.6,20.8c-59,11.9-143.6,27.7-213-17.1
	c-54.2-35-74.4-98.5-82.7-139.8c1.7-2.4,38.7-56.8,13.5-108.3c-11.9-24.3-32-36.3-38.1-39.8C146.4,166,105.7,157.2,81.6,175.2z"/>
<g>
	<g>
		<path class="st0" d="M814.4,450c-20,24.2-48.4,28.2-101,35.7c-11.4,1.6-116.9,15.3-207.2-32c-22.1-11.6-38.2-24.2-60.4-41.5
			c-25.8-20.1-30.5-27.7-33.9-35.7c-9.5-22.7-0.6-49.3,7.4-58.5c11.2-12.9,23.7-29.4,26.8-34.8c0,0-12.6-1.6-20.6-12.4
			c-8-10.9,0.5-10.4-11.7-14.5c-20.4-6.9-15.8-14.9-17.2-24.9c-1.4-9.9,0-32.9,10-39.2c2.7-1.7,5.1-4.2,5.1-4.2
			c4.1-3.2,4.6-3.1,6.5-4.9c3.3-3,2.8-4.1,6.1-7.5c1.8-1.9,2.8-2.2,4.5-3.4c1.2-0.9,2-1.6,2.4-2c9.4-8.7,22.3-12.3,22.3-12.3
			c2.9-0.8,7.1-1.7,12.4-1.8c2.4-4.4,25.2-44.7,56.2-55.8c5-1.8,14.6-4.9,27.1-3.8c6.1,0.5,12.7,2.7,22,7.6
			c21.5,11.4,39.1,30.8,39.1,30.8s20.8-24.5,52.2-31.3c31.4-6.8,56.7,18.1,71.6,32.8c22.1,21.9,34,46.4,39,57.9
			c3.9,8.8,6.5,16.5,8.2,22.2c1.2,0.2,2.8,0.4,4.8,0.8c20,3.7,33.9,12.2,37.9,14.7c13.8,8.8,22.2,14.2,25.8,24.6
			c6.5,19-8.7,38.1-10.9,40.9c0,0-0.7-0.7-1.3-0.5c-1.7,0.7,1,10.4,1.3,11.6C841.4,319.3,850.3,406.6,814.4,450z"/>
	</g>
	<g>
		<path d="M420.7,321c0.7,0,1.4-0.3,1.9-0.8c7-7.6,17.5-21.6,25.3-35.5c0.7-1.3,0.2-2.8-1-3.5c-1.3-0.7-2.8-0.2-3.5,1
			c-7.6,13.6-17.8,27.2-24.6,34.6c-1,1.1-0.9,2.7,0.2,3.7C419.4,320.8,420,321,420.7,321z"/>
	</g>
	<g>
		<g>
			<path class="st2" d="M730.8,199.4l-10.6,108c0,0,25.2,33.4,15.7,76.7c-9.5,43.3-28.1,53.3-47.8,56.1
				c-19.7,2.8-202.2,5.3-221.4-8.8c-19.2-14.2-12.2-13.4-12.2-13.4S395.5,366.1,421,320l37.8-26.9l-0.5-7.1c0,0-27.8,0.8-37.3-26.5
				c0,0-23.6,3.6-21.3-25.3c1.2-15.7-2.4-23.7,1.4-32c2.8-6,6.7-10.1,9.5-12.5c4.5-3.6,11.6-9.2,20.3-16.3
				c7.7-6.3,9.9-7.9,13.3-10.2c4.9-3.3,12.8-6,28.8-6.4c34.4-0.9,77.9-2.4,109.8,13.6C582.7,170.3,674.8,129.6,730.8,199.4z"/>
		</g>
		<g>
			<path class="st3" d="M542.8,233.7c0,0-29.2-31.2-71.3-33.2c-42.1-2-75.8,11.4-79.2,18.4c-3.4,7,3.3,11.1,11,17.2
				c7.7,6.1,67.2,33.5,137.9,23l3.6-2.9c0,0,17.6,18.7,69.1,16.8c51.5-1.9,71.3-14.7,71.3-14.7s-11.3-39.5-64-41.4
				c-52.7-1.9-60.1-0.9-66.9,2C547.5,221.7,542.8,233.7,542.8,233.7z"/>
		</g>
		<g>
			<path class="st4" d="M448.4,357.6c0,0,29.6,14,81.5,12.9c51.9-1.1,59,12.3,89.7-11.5c30.7-23.8,47-36.2,62.6-19.9
				c4.1,4.3,6.7,9,7.7,13.8c2.8,13.1-9.1,30.3-21.2,41.3c-24.6,22.3-56.5,25.5-119.4,31.1c-24,2.1-35.4,1.9-41.4,1.6
				c-27.2-1.1-56.2-3-76.5-22.5c-5.4-5.2-7.6-10.7-12.1-16.2c-12.5-15.3-17.5-30.7-12.9-41.5c4.6-10.8,3.7-27.9,10.4-27.6
				C423.4,319.4,442.6,333.3,448.4,357.6z"/>
		</g>
		<g>
			<path d="M503.7,428.2c3.7,0,7.3-0.1,10.8-0.1c2.5,0,4.9-0.1,7.3-0.1c3.4,0,6.8,0,10.3-0.1c38.6-0.2,82.4-0.4,117.9-16.5
				c8.5-3.9,18.8-12.4,27.6-22.8c13-15.4,16.2-26.7,17-32.1c1-6.7-1.3-12.7-6.4-17.4c-8.6-7.7-23.8-10-32.8-7.7
				c-11.1,2.8-18.7,10.1-26.1,17.2c-5.8,5.6-11.3,10.8-18.3,14c-20.2,9.2-45.8,7.8-68.4,6.6c-2-0.1-4-0.2-6-0.3
				c-33.5-1.6-45-3.2-48.4-3.8c-12.1-2.1-24.1-5-35.7-8.8c-5.5-14.1-13-25.2-21.7-32.1c-4.8-3.8-11.9-8.6-17.4-6
				c-1.6,0.8-3,2.1-4,3.9c-3.4,6-3.8,11.4-2.7,16.4c-0.5,0.2-1,0.6-1.4,1.3c-2.7,4.1-5.4,25,8.1,43.1c15.2,20.5,27.1,32.3,49.9,40.1
				C476,427.5,490.2,428.2,503.7,428.2z M662.9,335.8c7.4,0,16.5,2.4,21.9,7.2c3.9,3.4,5.5,7.7,4.7,12.8c-1.2,8.3-6.9,19-15.8,29.5
				c-8.2,9.7-18.1,17.9-25.8,21.4c-34.5,15.7-77.7,15.9-115.8,16.1c-3.5,0-6.9,0-10.3,0.1c-2.4,0-4.9,0.1-7.3,0.1
				c-16.8,0.3-34.2,0.5-49.4-4.6c-21.5-7.3-32.8-18.6-47.4-38.2c-10.2-13.8-9.8-28.9-8.7-34.9c0.8,1.7,1.6,3.3,2.5,4.9
				c10,18.2,33.7,36,49.9,41.9c22.3,8.3,43.6,12.5,65.3,13c20.4,0.5,41.4-2.3,66.2-8.6c22.9-5.8,50.9-14.6,64.1-30.9
				c0.9-1.1,0.7-2.7-0.4-3.6c-1.1-0.9-2.8-0.7-3.7,0.4c-12.2,15.1-39.2,23.5-61.4,29.1c-24.4,6.2-45,8.8-64.8,8.4
				c-21.1-0.5-41.9-4.6-63.6-12.7c-15.4-5.7-38-23-47.1-39.6c-4.9-8.9-6.6-14.8-2.1-22.7c0.5-0.9,1.1-1.5,1.7-1.8
				c1.2-0.6,4.3-0.6,11.8,5.3c8.2,6.5,15.3,17.3,20.6,31.1c0.3,0.7,0.9,1.3,1.6,1.5c12.3,4,24.9,7.1,37.6,9.3
				c7.3,1.3,25.2,2.7,49,3.8c2,0.1,3.9,0.2,6,0.3c23.2,1.2,49.5,2.6,70.9-7.1c7.9-3.6,13.9-9.4,19.8-15c7.2-6.9,14-13.4,23.7-15.9
				C658.5,336,660.6,335.8,662.9,335.8z M407.5,343.6C407.5,343.6,407.5,343.6,407.5,343.6C407.5,343.6,407.5,343.6,407.5,343.6z"/>
		</g>
		<g>
			<path d="M637.9,447.5c26.7,0,55.4-1.9,68.5-10c12.7-7.9,21.2-17.2,26.6-29.1c4.9-10.8,7.3-24.1,7.8-42.1
				c0.2-8.3-2.5-22.3-6.8-34.8c-3-8.7-9.2-23.8-17.4-27.5c-1.3-0.6-2.9,0-3.4,1.3c-0.6,1.3,0,2.8,1.3,3.4
				c4.6,2.1,10.1,11.2,14.6,24.5c4.1,11.9,6.7,25.2,6.5,33c-0.8,34.8-9.5,53-31.9,67c-18.7,11.6-76.2,9.4-103.8,8.3
				c-2.5-0.1-4.8-0.2-6.9-0.3c-31.7-1.1-50.3-2-79.4-3.8c-3.8-0.2-7.2-0.3-10.1-0.4c-10.6-0.3-17.7-0.6-28.8-5.6
				c-5.8-2.6-18.7-13.5-22.9-18.4c-0.9-1.1-2.6-1.2-3.7-0.3c-1.1,0.9-1.2,2.6-0.3,3.7c4.6,5.3,18,16.7,24.7,19.7
				c12.1,5.5,19.9,5.7,30.8,6.1c3.1,0.1,6.3,0.2,10,0.4c29.1,1.8,47.7,2.7,79.5,3.9c2,0.1,4.3,0.2,6.9,0.3
				C610.1,447,623.7,447.5,637.9,447.5z"/>
		</g>
		<g>
			<path d="M720.4,311.4c1,0,1.9-0.5,2.4-1.5c2.6-5.4,4.7-29.9,7.7-66.7c1.4-16.9,2.7-32.8,3.8-42.1c0.2-1.4-0.8-2.7-2.3-2.9
				c-1.4-0.2-2.7,0.8-2.9,2.2c-1.2,9.4-2.5,25.4-3.9,42.3c-2.2,26.7-4.8,59.9-7.2,64.8c-0.6,1.3-0.1,2.8,1.2,3.5
				C719.6,311.3,720,311.4,720.4,311.4z"/>
		</g>
		<g>
			<path d="M731.8,204.3c0.2,0,0.3,0,0.5-0.1c1.4-0.3,2.3-1.6,2-3c-1.8-8.8-27.1-28.8-28.2-29.6c-20.9-16.3-60.1-22.3-93.2-14.2
				c-22.8,5.6-39.2,17.2-46.2,32.7c-0.6,1.3,0,2.8,1.3,3.4c1.3,0.6,2.9,0,3.4-1.3c6.3-14,21.4-24.5,42.7-29.8
				c15.1-3.7,32.3-4.4,48.4-2.1c16.4,2.4,30.7,7.8,40.3,15.3c10.4,8.2,25.4,21.9,26.3,26.5C729.5,203.5,730.6,204.3,731.8,204.3z"/>
		</g>
		<g>
			<path d="M584,174.4c0.6,0,1.1-0.2,1.6-0.5c1.1-0.9,1.3-2.5,0.5-3.6c-2.5-3.2-17-7.8-25.4-10.2c-2.3-0.7-56.7-16.5-83.9-3.2
				c-1.3,0.6-1.8,2.2-1.2,3.5c0.6,1.3,2.2,1.8,3.5,1.2c25.3-12.4,79.6,3.4,80.1,3.5c9.7,2.8,21.2,6.8,22.8,8.4
				C582.5,174,583.2,174.4,584,174.4z M581.9,173.4C581.9,173.4,581.9,173.4,581.9,173.4C581.9,173.4,581.9,173.4,581.9,173.4z"/>
		</g>
		<g>
			<path d="M420.6,183.3c0.7,0,1.4-0.3,1.9-0.8c9.8-10.7,28.3-22.6,41.3-23.2c1.8-0.1,8.4,1.2,12.5,2.2c1.4,0.3,2.8-0.5,3.1-1.9
				c0.3-1.4-0.5-2.8-1.9-3.1c-1.8-0.4-10.8-2.5-13.9-2.3c-8.9,0.4-18.3,5.1-24.7,8.9c-7.6,4.5-15.1,10.5-20.2,16.1
				c-1,1.1-0.9,2.7,0.2,3.7C419.3,183.1,419.9,183.3,420.6,183.3z"/>
		</g>
		<g>
			<path d="M397.9,214.6c1.3,0,2.4-0.9,2.6-2.2c0-0.1,1.9-10.7,9.4-19.9c6.2-7.6,24.2-10.5,30.1-11.5l0.3,0
				c21.5-3.5,41.5-2,61.1,4.7c21.6,7.3,34.6,18.6,40.9,24c1.3,1.1,2.3,2,3.2,2.7c1.1,0.9,2.8,0.7,3.7-0.5c0.9-1.1,0.7-2.8-0.5-3.6
				c-0.7-0.6-1.7-1.4-2.9-2.5c-6.5-5.6-20-17.3-42.6-25c-20.5-7-41.3-8.6-63.6-4.9l-0.3,0c-7.1,1.2-25.8,4.2-33.3,13.3
				c-8.5,10.3-10.5,21.8-10.6,22.3c-0.2,1.4,0.7,2.7,2.1,3C397.6,214.6,397.7,214.6,397.9,214.6z"/>
		</g>
		<g>
			<path d="M503.4,263.9c13.2,0,26.4-1.2,39.1-3.6c1.4-0.3,2.3-1.6,2.1-3c-0.3-1.4-1.6-2.3-3-2.1c-40.1,7.7-84.4,2.8-118.4-13.1
				c-25.4-11.9-28.8-18.6-29.2-20.6c0.2-0.4,1.1-2.2,6.6-6.2c3.6-2.6,7.4-4.8,8.6-5.4c19.4-9.4,43.3-11.2,71.1-5.4
				c16.4,3.4,20.1,4.6,34.7,12.5c14.4,7.8,24.1,19.2,24.2,19.3c0.9,1.1,2.6,1.3,3.7,0.3c1.1-0.9,1.3-2.5,0.3-3.6
				c-0.4-0.5-10.3-12.3-25.7-20.6c-15.1-8.2-19.3-9.5-36.1-13c-28.9-6.1-54-4.1-74.4,5.8c-1.8,0.8-6.2,3.5-10,6.3
				c-6,4.4-8.4,7.5-8.1,10.4c0.6,4.3,4.6,8.9,12.5,14.1c5.1,3.4,11.7,7,19.7,10.7C445.1,258,474.2,263.9,503.4,263.9z M394,221.5
				L394,221.5L394,221.5z"/>
		</g>
		<g>
			<path d="M423.2,264.3c1.5,0,3.1-0.1,4.7-0.2c1.4-0.1,2.5-1.4,2.3-2.8c-0.1-1.4-1.4-2.5-2.9-2.3c-9.6,1-16.7-1.3-22.5-7
				c-7.4-7.4-4.2-17.7-3.9-18.5c0-0.1,0.1-0.2,0.1-0.3c0.4-1.2-0.2-2.5-1.4-3.1c-1.1-0.6-2.5-0.2-3.3,0.8c-0.1,0.1-0.2,0.4-0.4,0.8
				l0,0c0,0.1,0,0.2-0.1,0.2c-1.2,3.5-3.5,15.1,5.1,23.7C407.3,261.4,414.3,264.3,423.2,264.3z"/>
		</g>
		<g>
			<path d="M531,300.8c1.3,0,2.4-0.9,2.6-2.2c0.2-1.4-0.8-2.7-2.2-2.9c-4-0.6-9.1-1.2-15.1-1.8c-19.2-2.1-45.5-5-66.4-12.4
				c-21.3-7.5-26.3-16.9-27.3-19.1c0-0.5-0.1-1-0.3-1.5c-0.8-1.4-2.1-1.6-3-1.4c-1.2,0.3-2,1.3-2,2.5c-0.1,2.6,4.9,15.2,30.9,24.4
				c21.6,7.6,48.2,10.5,67.6,12.7c5.9,0.7,11,1.2,14.9,1.8C530.7,300.8,530.8,300.8,531,300.8z"/>
		</g>
		<g>
			<path d="M423.1,320.7c0.7,0,1.4-0.3,1.9-0.8c7.1-7.7,16.8-12.8,26.2-17.8c2.6-1.4,5.3-2.8,7.8-4.2c0,0,0.1,0,0.1,0
				c1-0.6,1.2-1.5,1.3-2.1c0.2-1,0.8-4,2-5.8c0.8-1.2,0.5-2.8-0.7-3.6c-1.2-0.8-2.8-0.5-3.6,0.7c-1.4,2.1-2.1,4.7-2.6,6.8
				c-2.2,1.2-4.4,2.4-6.7,3.6c-9.8,5.2-20,10.5-27.6,18.9c-1,1.1-0.9,2.7,0.2,3.7C421.8,320.5,422.4,320.7,423.1,320.7z"/>
		</g>
		<g>
			<path d="M618.6,276c9.2,0,19.6-0.5,29.8-1.8c16.7-2.2,22.5-5.1,28.7-8.1c3-1.5,6.1-3,10.8-4.6c0.3,0.1,0.8,0.2,1.2,0.3
				c2.3,0.6,5.8,1.4,9,1.2c8.2-0.6,17-3.4,17.3-3.6c1.4-0.4,2.1-1.9,1.7-3.3c-0.5-1.4-1.9-2.1-3.3-1.6c-0.1,0-8.5,2.8-16.1,3.3
				c-2.4,0.2-5.4-0.5-7.4-1c-0.1,0-0.1,0-0.2,0c-1.9-6.4-14.2-24.5-38.2-34.5c-23.7-9.9-37-9.6-61.2-9.2l-3,0.1c-1.1,0-2.3,0-3.5,0
				c-11.9,0.1-28.2,0.3-34.9,5.3c-7.4,5.5-10.9,16.5-10.1,32c0.6,11.5,17.4,19.5,49.9,24C593.9,275,605,276,618.6,276z M684.8,257.1
				c-4.2,1.5-7.2,3-9.9,4.3c-6.1,3-11.3,5.5-27.1,7.6c-24.7,3.3-50.1,1.2-57.9,0.2c-40.4-5.5-45.2-15.2-45.4-19.1
				c-0.5-9.5,0.5-22,8-27.5c5.3-3.9,21.9-4.1,31.8-4.2c1.2,0,2.4,0,3.5,0l3.1-0.1c24.2-0.4,36.4-0.7,59.1,8.8
				c13.1,5.4,21.8,13.1,26.8,18.6C681.4,250.7,683.9,255,684.8,257.1z M688.4,261.4C688.4,261.4,688.4,261.4,688.4,261.4
				C688.4,261.4,688.4,261.4,688.4,261.4z M686.5,256.3C686.5,256.3,686.5,256.3,686.5,256.3C686.5,256.3,686.5,256.3,686.5,256.3z
				 M686.5,256.3C686.5,256.3,686.5,256.3,686.5,256.3C686.5,256.3,686.5,256.3,686.5,256.3z M686.5,256.3
				C686.5,256.3,686.5,256.3,686.5,256.3C686.5,256.3,686.5,256.3,686.5,256.3z M686.5,256.3C686.5,256.3,686.5,256.3,686.5,256.3
				C686.5,256.3,686.5,256.3,686.5,256.3z M686.5,256.3C686.5,256.3,686.5,256.3,686.5,256.3C686.5,256.3,686.5,256.3,686.5,256.3z"
				/>
		</g>
		<g>
			<path d="M615.8,291.8c31.8,0,57-4.5,63.1-7.6c1.3-0.6,1.8-2.2,1.1-3.5c-0.7-1.3-2.2-1.8-3.5-1.1c-7.9,4-52.7,10.6-99.8,4.7
				c-12.7-1.6-24.4-7.8-29.3-15.4c-2.2-3.4-2.8-6.8-1.7-10.1c0.4-1.4-0.3-2.8-1.7-3.3c-1.4-0.4-2.8,0.3-3.3,1.7
				c-1.6,4.7-0.8,9.8,2.2,14.5c5.7,9,18.7,16,33,17.8C589.9,291.1,603.4,291.8,615.8,291.8z"/>
		</g>
		<g>
			<path d="M624.9,321.9c1.1,0,2.1-0.7,2.5-1.8c0.4-1.4-0.3-2.8-1.7-3.3c-17.1-5.6-49.5-31.7-49.8-32c-1.1-0.9-2.8-0.7-3.7,0.4
				c-0.9,1.1-0.7,2.7,0.4,3.6c1.4,1.1,33.4,27,51.5,32.9C624.4,321.9,624.7,321.9,624.9,321.9z"/>
		</g>
		<g>
			<path d="M714.7,241.1c0.6,0,1.2-0.2,1.7-0.7c1.1-1,1.2-2.6,0.2-3.7c-0.9-1-23.4-25.7-48.9-38.5c-25.1-12.6-52.4-13.3-54.6-13.3
				c-2.4-0.2-33.5-2.7-49.8,6.3c-15.4,8.5-21.1,18-17.8,29.9c0.4,1.4,1.8,2.2,3.2,1.8c1.4-0.4,2.2-1.8,1.8-3.2
				c-1.8-6.7-1.5-14.8,15.3-24c15.2-8.4,46.6-5.7,46.9-5.7c0.1,0,0.1,0,0.2,0c0.3,0,27.8,0.5,52.4,12.8
				c24.7,12.4,47.2,37.1,47.4,37.3C713.3,240.8,714,241.1,714.7,241.1z"/>
		</g>
		<g>
			<path d="M480.9,320.2c1,0,1.9-0.5,2.4-1.5c1.5-3,8-8,17.7-11.6c1.3-0.5,2-2,1.5-3.3s-2-2-3.3-1.5c-10.2,3.8-18.3,9.4-20.6,14.3
				c-0.6,1.3-0.1,2.8,1.2,3.5C480.1,320.1,480.5,320.2,480.9,320.2z"/>
		</g>
		<g>
			<path d="M508.8,341.9C508.8,341.9,508.8,341.9,508.8,341.9c1.5,0,2.6-1.2,2.6-2.6c-0.1-2.8,3.7-8.7,6.3-11.4c1-1,1-2.7-0.1-3.7
				c-1-1-2.7-1-3.7,0.1c-1.6,1.6-3.5,4.2-4.9,6.7c-1.9,3.4-2.9,6.2-2.9,8.4C506.2,340.7,507.4,341.9,508.8,341.9z"/>
		</g>
		<g>
			<path d="M542.7,347.3c0.9,0,1.7-0.4,2.2-1.2c2-3.1,2.1-12.5,0.9-15.5c-0.5-1.3-2-2-3.4-1.5c-1.3,0.5-2,2-1.5,3.3
				c0.7,1.9,0.4,9.4-0.4,10.9c-0.8,1.2-0.4,2.8,0.8,3.6C541.8,347.1,542.3,347.3,542.7,347.3z"/>
		</g>
		<g>
			<path d="M498.7,207.9c1.6,0.2,2.8,5.6,3.1,6.8c1.6,7,1.6,12.8,0.9,20c-2.2,20.6-15.3,28.5-34.2,23.8c-5.4-1.4-12.7-2.9-16.8-7
				c-12.6-12.4-13.8-41.1,2.6-50.9c3.8-2.2,10.6,0.1,14.4,0.9c10.5,2.3,21.6,3,30.8,8.8"/>
		</g>
		<g>
			<path d="M478.3,262.5c5.9,0,11.1-1.5,15.3-4.4c6.6-4.6,10.6-12.4,11.7-23.1c0.9-8.1,0.6-14-0.9-20.9c-1.1-5.2-2.5-8.7-5.5-9
				c-0.8-0.1-1.6,0.2-2.1,0.7c-6.4-3.1-13.5-4.3-20.3-5.6c-2.5-0.4-5-0.9-7.4-1.4c-0.6-0.1-1.3-0.3-2.1-0.5
				c-4.3-1.1-10.2-2.6-14.3-0.1c-7.3,4.3-12,12.3-13.2,22.4c-1.5,12.2,2.6,25.4,10.1,32.8c4.4,4.3,11.4,6.1,16.9,7.4l1.2,0.3
				C471.4,262,475,262.5,478.3,262.5z M498.5,212.9c0.2,0.6,0.4,1.4,0.6,2.3c1.4,6.3,1.6,11.7,0.8,19.2c-1,9.1-4.1,15.6-9.4,19.2
				c-5.2,3.6-12.6,4.4-21.5,2.2l-1.2-0.3c-4.9-1.2-11.1-2.7-14.4-6c-6.4-6.3-9.8-17.6-8.5-28.2c1-8.4,4.8-14.9,10.6-18.4
				c2.2-1.3,7-0.1,10.2,0.7c0.8,0.2,1.5,0.4,2.2,0.5c2.5,0.6,5.1,1,7.6,1.5c8.1,1.5,15.7,2.8,22.3,7
				C498.1,212.7,498.3,212.8,498.5,212.9z"/>
		</g>
		<g>
			<path class="st3" d="M492.2,210.6c2.9,0.3,4.9,1.7,6.4,5.1c2,4.6,2.3,12-4.6,12.2c-5.7,0.2-10.7-8.4-8.8-13.6
				C487.1,209.8,488.7,210.5,492.2,210.6z"/>
		</g>
		<g>
			<path d="M648,225.7c-0.2,0.3,4.2,5,4.5,5.6c3,5.9,4.3,10.3,3.2,17c-4,24.3-16.4,24.3-37.7,22.4c-7.5-0.7-16.5-1-21.3-7.9
				c-8.4-12-5.4-26.8,2.2-37.7c1.9-2.7,4.9-5.8,8.4-6.2c8.9-0.9,18.2,0.2,27,1.3c3.1,0.4,6.4,4.2,9.4,4.5
				C644.9,224.9,648,225.7,648,225.7z"/>
			<path d="M630.8,274.3c5.2,0,9.8-0.6,13.7-2.3c7.5-3.3,11.9-10.7,13.9-23.1c1.2-7.5-0.3-12.6-3.5-18.7c-0.3-0.5-0.6-1-2.2-2.7
				c-0.7-0.8-1.8-2.1-2.2-2.6c0-0.1-0.1-0.2-0.1-0.2c-0.6-1.2-1.5-1.4-3.6-1.9c-0.6-0.1-2-0.4-2.8-0.5c-0.8-0.1-2.2-1-3.5-1.8
				c-1.8-1.2-3.8-2.4-5.9-2.7c-9.1-1.1-18.4-2.2-27.6-1.3c-5,0.5-8.7,4.8-10.4,7.4c-7.4,10.7-11.9,27-2.2,40.8
				c5.2,7.4,14.4,8.2,21.8,8.9c0.5,0,1.1,0.1,1.6,0.1C622.5,273.9,626.8,274.3,630.8,274.3z M650.1,232.7c2.7,5.3,3.9,9.2,2.9,15.2
				c-3.6,22-13.8,22-34.7,20.1c-0.5,0-1.1-0.1-1.6-0.1c-6.9-0.6-14-1.2-17.7-6.6c-8.1-11.5-4.1-25.4,2.2-34.6c2.1-3,4.4-4.8,6.5-5
				c8.6-0.9,17.7,0.2,26.4,1.2c0.9,0.1,2.4,1,3.6,1.9c1.8,1.2,3.7,2.4,5.8,2.7c0.6,0.1,1.9,0.3,2.8,0.5c0.2,0.2,0.3,0.4,0.5,0.6
				c0.6,0.7,1.3,1.5,1.9,2.3C649.2,231.6,649.9,232.4,650.1,232.7z M650,232.6C650,232.6,650.1,232.6,650,232.6
				C650.1,232.6,650,232.6,650,232.6z M650.3,227.2C650.3,227.2,650.3,227.2,650.3,227.2C650.3,227.2,650.3,227.2,650.3,227.2z
				 M650.4,227.1C650.4,227.1,650.4,227.1,650.4,227.1C650.4,227.1,650.4,227.1,650.4,227.1z M650.7,226.4c-0.1,0.3-0.2,0.5-0.3,0.8
				c0,0,0,0,0,0C650.5,226.9,650.6,226.6,650.7,226.4z"/>
		</g>
		<g>
			<path class="st3" d="M636.1,224.7c8.1-2.9,16.9,9.4,8.6,14.4c-9.1,5.5-19.8-10.4-10-13.9"/>
		</g>
	</g>
	<g>
		<path d="M788.2,332.8c7.4,0,16.9-3.3,26-9.5c8.9-6,18.1-16.6,21.6-20.6l0.6-0.7c5.8-6.6,11.2-13.2,14.6-20.6
			c3.7-8.1,4.4-16.2,2.4-25.5c-1.2-5.6-7-12-17-19c-7.9-5.5-18-11.1-28.5-15.8c-5.8-2.6-11.2-4.6-15.5-5.9c-6.8-2-9-1.5-10.3-0.8
			c-13.7,7.7-15.3,22.9-16.6,35.1c-0.2,1.4,0.9,2.7,2.3,2.9c1.4,0.2,2.7-0.9,2.9-2.3c1.5-13.9,3.4-25.1,13.9-31
			c3.3-0.7,23.7,6.5,42.4,17.9c12.4,7.6,20.2,15,21.4,20.1c3.8,17.4-3.8,27.7-15.8,41.6l-0.7,0.8c-3.3,3.8-12.2,14.1-20.5,19.7
			c-12.9,8.7-24.5,10.2-29.2,7.2c-1.2-0.8-2.8-0.4-3.6,0.8c-0.8,1.2-0.4,2.8,0.8,3.6C781.6,332.1,784.7,332.8,788.2,332.8z"/>
	</g>
	<g>
		<path d="M785.8,301.8c0.3,0,0.6-0.1,0.9-0.2c1.3-0.5,2-2,1.5-3.3c-1.4-3.7-3.3-13.7-4-23.4c-0.9-12.8,0.7-19,2.6-20.4
			c4.6-3.7,13.6-4.9,26.2-3.6c1.4,0.2,2.7-0.9,2.9-2.3c0.2-1.4-0.9-2.7-2.3-2.9c-14.2-1.5-24.2,0.1-30,4.7
			c-3.9,3.2-5.4,11.5-4.5,24.8c0.7,10.3,2.8,20.7,4.3,24.8C783.7,301.2,784.7,301.8,785.8,301.8z"/>
	</g>
	<g>
		<path d="M694.2,415.2c0.5,0,1.1-0.2,1.5-0.5c18.2-12.9,20.6-18.3,23.5-37.4c3-19.4-6.2-36.8-12.1-41.1c-1.2-0.8-2.8-0.6-3.6,0.6
			c-0.8,1.2-0.6,2.8,0.6,3.6c3.9,2.8,12.8,18.2,10.1,36.2c-2.7,17.9-4.6,22.1-21.4,34c-1.2,0.8-1.4,2.5-0.6,3.6
			C692.6,414.8,693.4,415.2,694.2,415.2z"/>
	</g>
	<g>
		<g>
			<g>
				<path class="st5" d="M864.4,201.7C717.7,13.1,632.3,6.7,632.3,6.7c-63.7-4.8-124,40-244.4,129.5c-4.4,3.3-15.1,11.8-13.2,18.2
					c1.2,4.1,6.9,6,18.4,9.6c8.6,2.7,15.9,4.3,20.8,5.1c8-7.8,16.1-15.6,24.1-23.4c-5.7,8.4-11.4,16.8-17.1,25.1
					c54,14.3,114.4,27.2,180.7,36.5c40,5.6,78.1,9.3,114.1,11.6c-0.1-7.3-0.1-14.5-0.2-21.8c2.1,7.5,4.2,14.9,6.3,22.4
					c44.8,3,79.3,5.7,102.7,7.6c19.6,1.6,42.5,3.6,46.9-5.9C874.4,215.1,867.9,206.3,864.4,201.7z"/>
			</g>
			<g>
				<path d="M848.5,230.8c12,0,21.8-1.8,24.9-8.5c3.3-7-2.6-15.9-7.3-21.9c-33.5-43.1-66.6-80.2-98.4-110.3
					c-25.4-24.1-50.1-43.8-73.3-58.4c-38.4-24.3-60-26.9-62.1-27.1l0,0c-64.6-4.8-125.2,40.2-245.9,129.9c-10.9,8.1-15.6,15-14,20.6
					c1.5,5.3,8,7.3,19.8,11.1c6.9,2.2,14,4,21.1,5.2l1.1,0.2l9.6-9.3l-6.8,10l2.9,0.8c59.4,15.8,120.2,28.1,181,36.6
					c37.8,5.3,76.2,9.2,114.3,11.6l2.3,0.1l-0.1-7.9l2.3,8.3l1.5,0.1c35.8,2.4,70.4,5,102.7,7.6l0.6,0
					C833,230.2,841.2,230.8,848.5,230.8z M864.4,201.7l-1.7,1.3c2.3,3,9.3,12,6.8,17.5c-3.7,8-26.1,6.2-44.2,4.7l-0.6,0
					c-31.9-2.6-65.9-5.2-101.2-7.5l-10.3-36.5l0.3,35.7c-37.2-2.4-74.7-6.3-111.6-11.4c-59.6-8.3-119.3-20.3-177.5-35.7l27.4-40.3
					l-38.6,37.6c-6.5-1.2-13.1-2.8-19.5-4.9c-10.6-3.4-16.1-5.3-17-8.2c-1-3.4,3.6-9.4,12.4-15.9C509,48.9,569.1,4.2,632.1,8.9
					c0.2,0,5.5,0.5,15.5,4c9.3,3.2,24.7,9.8,45.1,22.8c22.9,14.6,47.3,34.1,72.5,58c31.5,29.9,64.3,66.7,97.6,109.4L864.4,201.7z"/>
			</g>
		</g>
		<g>
			<path d="M736.9,80.7c8.9,10,18,20.3,26.5,30.6c15.5,18.7,29.9,38.2,43.4,58.4c2.2,3.2,4.6,6.8,6.7,10.1c0,0,2.2,3.4,2.2,3.4
				C795.5,145.9,767.8,109.9,736.9,80.7L736.9,80.7z"/>
		</g>
		<g>
			<path d="M652.3,16.9c11.6,10.7,22.9,21.9,33.2,33.9c9.5,11.1,18.4,22.9,26.5,35.1c1.8,2.7,3.8,5.8,5.6,8.5
				c0.9,1.4,2.7,4.4,3.6,5.8c0,0,0.2-0.1,0.2-0.1c-8.3-16.2-18.3-31.4-29.8-45.5c-11.6-14-24.7-26.7-39.1-37.9
				C652.5,16.7,652.3,16.9,652.3,16.9L652.3,16.9z"/>
		</g>
		<g>
			<path d="M603.6,17.5c-9.3,8.5-17.4,18.3-24.9,28.4c-7.3,10.3-14,21-19.2,32.5c0,0,0.2,0.1,0.2,0.1c6.4-10.7,13.4-21.2,20.7-31.4
				c7.3-10.2,15.1-20,23.3-29.5L603.6,17.5L603.6,17.5z"/>
		</g>
		<g>
			<path d="M638.2,28.7c-0.2,6.9,0.2,16.6,0.2,23.5c0.2,7,0.1,16.6,0.6,23.5c0,0,0.2,0,0.2,0c1.6-11.7,1.8-23.6,0.7-35.4
				c-0.4-3.9-0.9-7.8-1.5-11.7C638.4,28.7,638.2,28.7,638.2,28.7L638.2,28.7z"/>
		</g>
		<g>
			<path d="M586,20.1c-15.4,7.5-30,16.8-44,26.8C528,57,514.6,67.8,502.5,80c13.1-10.2,26.7-21.6,40.7-31.3
				C556.9,38.5,572.1,29.2,586,20.1L586,20.1z"/>
		</g>
		<g>
			<path d="M535.8,138.5c-12.7,16.2-24.2,33.5-34.3,51.6l1.9,1C512.8,172.8,523.6,155.2,535.8,138.5
				C535.8,138.5,523.6,155.2,535.8,138.5z"/>
		</g>
		<g>
			<path d="M761.3,164.9c7.2,19.3,12.5,39.3,15.9,59.6l2.1-0.4C775.2,203.8,769.2,183.9,761.3,164.9
				C761.3,164.9,769.2,183.9,761.3,164.9z"/>
		</g>
		<g>
			<path d="M839.9,194.4c6.2,10.8,10.9,22.4,14,34.3l2.1-0.6C852.1,216.2,846.7,204.8,839.9,194.4
				C839.9,194.4,846.7,204.8,839.9,194.4z"/>
		</g>
		<g>
			<path d="M699.1,157.1c0.6,20.6,0.1,41.2-1.5,61.7l2.2,0.1C700.6,198.3,700.4,177.7,699.1,157.1
				C699.1,157.1,700.4,177.7,699.1,157.1z"/>
		</g>
		<g>
			<path d="M482.4,79.4c-12.4,6.8-24.3,14.6-35.7,22.9c-17.1,12.5-33.5,26.1-48.3,41.3c0,0-2.5,2.5-2.5,2.5l-2.4,2.6
				C421.1,123.9,451.7,100.2,482.4,79.4L482.4,79.4z"/>
		</g>
	</g>
</g>
<g>
	<path class="st6" d="M556.5,68.6c-4.3,11-8.6,24-12,38.8c-2.8,12.4-4.6,23.8-5.6,34.1c21.5,4.3,45.9,7.9,72.8,9.8
		c20.1,1.4,38.9,1.6,56.1,1.2c1.8-8.6,3.4-18,4.7-28.2c1.2-9.7,1.8-18.8,2.2-27.3c-14.7-6.4-32.3-12.9-52.6-18
		C597.3,72.6,575,69.8,556.5,68.6z"/>
	<g>
		<path class="st7" d="M574.1,91.4L576,99c0.2,0.7-0.6,1.2-1.2,0.7l-6-5.1c-0.2-0.2-0.6-0.2-0.8-0.1l-6.7,4.1
			c-0.6,0.4-1.3-0.2-1-0.9l3-7.3c0.1-0.3,0-0.6-0.2-0.8l-6-5.1c-0.5-0.5-0.2-1.3,0.5-1.3l7.8,0.6c0.3,0,0.6-0.2,0.7-0.4l3-7.3
			c0.3-0.6,1.2-0.6,1.4,0.1l1.9,7.6c0.1,0.3,0.3,0.5,0.6,0.5l7.8,0.6c0.7,0.1,0.9,1,0.3,1.3l-6.7,4.1
			C574.2,90.7,574.1,91.1,574.1,91.4L574.1,91.4z"/>
		<path class="st7" d="M600.6,83.1l-3.2-0.2c-0.2,0-0.4,0.1-0.5,0.3l-1.1,2.9l-0.8-3c-0.1-0.2-0.3-0.4-0.5-0.4l-3.2-0.2l2.6-1.7
			c0.2-0.1,0.3-0.4,0.2-0.6l-0.8-3.1l2.5,2c0.2,0.1,0.4,0.2,0.6,0l2.6-1.7l-1.1,3c-0.1,0.2,0,0.5,0.2,0.6L600.6,83.1L600.6,83.1z"/>
		<path class="st7" d="M606.2,96.8l-2.9-1.4c-0.2-0.1-0.4-0.1-0.6,0.1l-2.2,2.3l0.4-3.1c0-0.2-0.1-0.4-0.3-0.5l-2.8-1.4l3.1-0.6
			c0.2,0,0.4-0.2,0.4-0.4l0.4-3.1l1.5,2.8c0.1,0.2,0.3,0.3,0.6,0.3l3.1-0.6l-2.2,2.3c-0.2,0.2-0.2,0.4-0.1,0.6L606.2,96.8
			L606.2,96.8z"/>
		<path class="st7" d="M600.6,108.3c-0.2,0.1-0.3,0.3-0.3,0.5l0.2,3.1l-2-2.4c-0.1-0.2-0.4-0.2-0.6-0.1l-2.9,1.2l1.7-2.7
			c0.1-0.2,0.1-0.4,0-0.6l-2-2.4l3.1,0.8c0.2,0.1,0.5,0,0.6-0.2l1.7-2.7l0.2,3.1c0,0.2,0.2,0.4,0.4,0.5l3.1,0.8L600.6,108.3
			L600.6,108.3z"/>
		<path class="st7" d="M591.3,115.7l-3.2,0c-0.2,0-0.4,0.1-0.5,0.4l-1,3l-0.9-3c-0.1-0.2-0.3-0.4-0.5-0.4l-3.2,0l2.6-1.8
			c0.2-0.1,0.3-0.4,0.2-0.6l-1-3l2.5,1.9c0.2,0.1,0.4,0.1,0.6,0l2.6-1.8l-1,3c-0.1,0.2,0,0.5,0.2,0.6L591.3,115.7L591.3,115.7z"/>
	</g>
</g>
<g>
	<circle class="st8" cx="150.2" cy="148.6" r="130"/>
	<circle class="st9" cx="150.2" cy="148.6" r="117"/>
	<g id="b">
		<path class="st3" d="M232.5,128.4c-7.3-6.7-17.4-17.1-25.7-24.4l-0.5-0.3c-0.8-0.6-1.7-1.2-2.7-1.5l0,0
			c-19.9-3.7-112.3-21-114.1-20.8c-0.5,0-1,0.3-1.4,0.5l-0.5,0.4c-0.6,0.6-1,1.3-1.3,2v0.3c-0.1,0-0.1,2-0.1,2
			c10.4,29,51.5,123.9,59.6,146.2c0.5,1.5,1.4,4.4,3.1,4.5h0.4c0.9,0,4.9-5.2,4.9-5.2s70.6-85.6,77.7-94.7c0.9-1.1,1.7-2.3,2.4-3.6
			c0.4-2-0.4-4.1-1.9-5.5l0,0L232.5,128.4z M172.4,138.4l30.1-25l17.7,16.3L172.4,138.4L172.4,138.4z M160.7,136.7l-51.9-42.5
			l83.9,15.5l-32.1,27l0,0H160.7z M165.4,147.9l53.1-8.6l-60.7,73.1L165.4,147.9L165.4,147.9z M101.8,98.4l54.6,46.3l-7.9,67.7
			L101.8,98.4z"/>
	</g>
</g>
</svg>
