<?xml version="1.0" encoding="UTF-8"?><svg id="a" xmlns="http://www.w3.org/2000/svg" viewBox="0 0 1280 1280"><defs><style>.b{fill:none;}.b,.c,.d,.e,.f,.g,.h,.i,.j{stroke-miterlimit:10;}.b,.c,.g{stroke:#020202;}.b,.d,.e,.f,.h,.j{stroke-width:4px;}.c{fill:#cb762b;}.c,.g{stroke-width:5px;}.d,.e{fill:#fff;}.d,.f,.h,.i,.j{stroke:#000;}.e{stroke:#231f20;}.k{fill:#020202;}.k,.l{stroke-width:0px;}.l{fill:#000;}.f{fill:#c93939;}.g{fill:#fb0;}.h{fill:#c13838;}.i{fill:#ffd400;stroke-width:3px;}.j{fill:#ffbbbb;}</style></defs><path class="f" d="M588.11,385.13c31.07-8.14,36.29-16.77,70.27-23.38,18.06-3.51,27.67-5.38,40.3-3.23,22.16,3.79,28.67,15.72,52.47,28.71,23.8,12.99,42.8,14.99,56.04,18.86,69.95,20.48,80,123.1,136.41,233.04,13.47,26.26,16.66,56.85,38.72,79.29,3.17,3.23,14.1,13.75,11.56,25.58-1.65,7.69-8.25,12.45-9.97,13.66-13.57,9.52-37.04,8.96-47.54.81-8.26-6.42-7.37-16.66-7.23-19.35,2.24-45.57-100.55-198.7-128.14-191.92-11.2,2.75-9.73,33.07-6.78,93.69.7,14.4,1.39,27.74,4.31,48.72,8.51,61.16,23.25,95.74,35.54,141.43,26.47,98.41,25.97,190.38,54.77,192.72,4.71.38,9.23-1.71,18.6,0,22.02,4.02,32.32,22.02,33.07,23.38,3.16,5.75,9.17,16.69,3.1,22.58-6.86,6.66-22.74.62-65.1-3.23-34.39-3.12-36.62-.28-45.53-3.95-23.22-9.54-24.45-35.51-30.89-72.79-.5-2.87-12.99-73.14-40.35-133.73-14.01-31.04-31.07-68.81-52.7-68.54-20.6.26-35.49,34.88-46.5,60.48-9.54,22.18-20.58,55.21-27.9,124.99-6.02,57.38-4.05,87.41-31,100.8-6.52,3.24-15.45,4.58-33.3,7.28-25.56,3.86-74.01,11.16-84.5-3.24-7.01-9.63,3.64-27.95,19.49-35.04,13.61-6.08,22.68-.14,33.21-2.86,34.88-9.01,14.85-94.74,33.95-207.49,7.58-44.74,12-38.64,15.07-70.56,1.26-13.05,3.73-47.45-23.68-167.99-10.14-44.6-14.08-63.13-23.68-63.84-18.24-1.35-20.43,63.82-84.33,96.21-7.94,4.02-44.12,22.36-81.64,14.51-10.25-2.14-34.45-9.14-90.94-104.83-41.95-71.06-39.88-86.32-31.58-96.61,12.74-15.78,43.59-24.13,58.13-16.8,11.67,5.88,5.98,18.42,11.69,51.32,2.71,15.64,7.91,43.83,27.9,70.96,11.69,15.86,27.53,37.36,47.54,37.09,27.27-.36,47.43-40.94,59.94-66.12,14.03-28.24,9.59-33.6,26.87-67.73,21.13-41.75,35.88-49.77,41.34-52.41,20.08-9.74,25.65-.68,63.04-10.48Z"/><path class="c" d="M49.4,579.12c-5.03-26.47-10.06-52.94-15.09-79.41,184.16-90.2,396.3-178.76,635.16-253.5,202.56-63.38,393.31-107.1,567.7-137.2,6.22,11.84,12.44,23.67,18.66,35.51-173.7,30.75-367.73,77.74-575.3,149.66-243.14,84.25-453.95,185.08-631.12,284.94Z"/><path class="g" d="M309.01,444.15c-89.96,50.83-179.92,101.65-269.89,152.48-3.62-36.24-7.23-72.47-10.85-108.71,83.49-33.05,166.99-66.09,250.48-99.14,1.76.28,16.77,3.04,25.91,20.07,8.92,16.64,4.89,33.2,4.34,35.29Z"/><path class="g" d="M1266.07,116.47c3.8,10.29,2.51,22.1-3.3,30.4-65.82,12.17-131.63,24.33-197.45,36.5.21-3.52.27-11.31-3.2-20.13-4-10.15-10.31-15.62-12.82-17.58,63.91-16.06,127.82-32.11,191.73-48.17,10.62-.41,20.74,7.32,25.04,18.98Z"/><path class="l" d="M58.42,530.61c-4.64-22.34-20.64-47.1-32.7-45.14-12.78,2.07-19.2,33.83-17.1,57.54,2.29,25.92,16.1,57.32,28.94,56.61,13.62-.75,27.37-37.65,20.86-69.01Z"/><path class="f" d="M533.89,168.25c-18.09-16.63-27.68-15.05-31.45-13.65-17.87,6.6-24.18,52.83-6.66,83.64,5.41,9.52,12.22,16.02,17.59,20.23-.48,4.97-.79,11.96.05,20.21,0,0,1.87,18.31,10.66,36.19,21.03,42.8,97.97,68.3,105.46,70.72,37.22,11.98,61.03,10.7,72.04,9.51,21.06-2.27,34.13-8.38,37.41-9.97,4.28-2.08,21.34-10.72,36.33-28.81,5.37-6.49,9.51-13.01,14.33-20.61,9.23-14.56,9.02-17.06,15.67-25.59,9.28-11.9,12.9-11.17,15.79-18.82,4.05-10.73.47-21.55-1.59-27.74-5.47-16.5-16.91-26.19-22.62-30.35,3.11-2.21,6.77-5.19,10.47-9.14,3.59-3.83,6.3-7.58,8.32-10.78,2.75-1.52,12.18-7.2,15.55-18.75,2.35-8.05.62-15.06-.49-19.58-2.27-9.21-6.77-15.59-9.48-18.89-.39-1.73-1.36-4.93-3.9-7.98-3.76-4.52-8.5-5.78-10.13-6.13-.8-2.82-2.37-7.08-5.64-11.35-5.24-6.87-11.74-9.73-14.72-10.81-2.72-5.92-8.63-16.76-20.13-25.9-4.05-3.22-21.75-16.55-46.42-14.28-15.03,1.38-25.85,7.91-31.02,11.55-4.14-2.4-10.16-5.68-17.68-9.01-9.53-4.22-17.95-7.95-26.75-9.04-13.58-1.69-24.31,3.36-34.72,8.43-22.09,10.75-35.31,26.19-45.83,38.75-8.79,10.49-20.32,26.31-30.45,47.98Z"/><path class="j" d="M805.33,310.12c1.69-2.7,3.11-4.53,5.39-6.99,4.88-5.25,8.36-6.42,10.4-11.83,4.05-10.73.47-21.55-1.59-27.74-5.47-16.5-16.91-26.19-22.62-30.35,3.33-1.9,7.77-4.92,12.19-9.57,4.24-4.46,7.03-8.91,8.81-12.29,2.36-1.88,11.08-9.31,13.36-22.47,3.15-18.16-8.72-31.44-9.99-32.81-.49-1.75-1.4-4.12-3.14-6.52-3.77-5.2-8.91-7.01-10.9-7.59-.87-3-2.48-7.22-5.64-11.35-15.06-19.66-47.75-14.15-54.17-13.06-7.66,1.29-20.74,4.67-34.9,14.93-6.88-5.04-17.64-11.5-31.75-14.39-43.63-8.93-95.15,21.3-101.05,57.34-2.2,13.44,2.1,26.69,2.8,28.76,5.93,17.65,17.86,27.56,22.7,31.16-5.11,3.19-20.81,13.89-24.84,33.16-4.22,20.22,7.01,37.4,11.92,44.9,45.48,69.52,182.66,43.25,195.22,25.61,5.82-8.17,11.01-16.95,11.01-16.95.65-1.13,1.63-2.83,2.8-4.92,2.46-4.37,2.95-5.39,3.97-7.02Z"/><path class="e" d="M744.82,168.04c21.5-12.51,41.08-9.02,52.95-6.91,14.01,2.5,39.58,10.31,39.06,20.69-.31,6.28-10.03,10.93-20.37,15.89-13.37,6.41-45.64,21.87-77.93,5.94-8.11-4-14.21-8.99-18.42-13.03,4.51-6.09,12.59-15.53,24.71-22.58Z"/><path class="d" d="M732.72,180.26c-4.65-16.78-41-19.65-61.21-18.38-25.97,1.63-60.57,12.28-60.33,23.96.3,14.31,52.73,21.83,72.79,23.54,25.18,2.15,35.6-1.76,41.99-8.93.87-.98,9.37-10.77,6.75-20.19Z"/><path class="l" d="M716.39,192c-2.7,13.16-22.63,22.65-37.13,17.38-12.93-4.7-23.93-22.01-19.68-34.44,4.18-12.22,21.8-15.92,33.54-12.6,12.58,3.55,25.81,17.24,23.27,29.66Z"/><path class="l" d="M804.56,189.72c-2.58,13.94-20.92,22.92-34.72,19.2-14.61-3.95-26.25-22.71-21.49-36.08,4.52-12.69,22.53-16.94,34.96-12.73,11.26,3.81,23.68,16.49,21.25,29.61Z"/><path class="h" d="M598.15,255.65c9.61-4.19,21.05,13.35,38.47,25.69,15.62,11.07,41.39,13.2,92.93,17.47,0,0,49.57,4.1,71.49-5.83,14.75-6.68,16.62-8.11,16.62-8.11,2.69-2.06,4.3-3.77,6.06-3.23,3.29,1.02,4.99,9.25,2.98,15.37-2.97,9.07-13.75,11.47-14.84,11.7.5,1.69,1.41,5.55.27,10.15-.13.52-2.02,7.71-8.35,11.33-4.79,2.74-9.45,1.91-14.33,1.42-9-.91-18.06.78-27.09.62-23.76-.44-28.84.36-42.5.03-27.68-.67-48.15-1.17-70.76-9.47-22.93-8.41-59.29-28.96-58.63-51.94.16-5.62,2.59-12.98,7.68-15.2Z"/><path class="b" d="M608.65,275.63c4.27,5.22,11.25,12.75,21.32,19.53,19.1,12.87,37.34,15.01,67.12,18.13,7.83.82,29.3,2.82,58.65,1.45,22.13-1.03,40.81-3.61,54.85-6.08"/><path class="k" d="M613.75,173.35c9.94-8.74,21.78-15.29,34.09-20.1,12.58-4.75,26.16-6.66,39.58-6.04,14.71.54,31.92,2.88,41.45,15.55,3.61,5.02,5.04,11.22,4.43,17.28,0,0-.4.01-.4.01-.14-5.74-1.93-11.54-5.66-15.95-11.37-13.12-32.5-13.16-48.58-12.94-23.22.58-45.53,9.8-64.69,22.53,0,0-.23-.33-.23-.33h0Z"/><path class="k" d="M620.19,150.72c17.78-15.01,41.76-22.74,64.98-20.76,4.9.55,10.06,1.49,14.75,3.07,4.79,1.42,9.44,3.86,13.78,6.33,5.38,3.33,10.32,7.4,14.52,12.13l-4.54-.62,6.53-3.74-.65.45c.14-.12.29-.23.44-.33.22-.13.51-.28.73-.4,21.25-11.29,46.84-13.38,69.99-7.33,5.02,1.5,10.96,4.08,15.95,6.8.83,1.63,1.68,3.25,2.48,4.91l2.31,4.73-.35.2-5.32-9.06c-4.16-1.83-9.62-4.05-14.49-5.29-21.64-4.86-45.22-3.01-65.28,6.74-.98.47-2.94,1.47-3.91,1.97l-.07.05-6.26,3.65-.28.17-.21-.23c-3.22-3.52-6.79-6.72-10.68-9.48-19.96-14.21-46.17-14.26-68.73-6.68-9.1,2.98-17.69,7.46-25.45,13.06l-.23-.32h0Z"/><path class="k" d="M730.26,194.67c-12.16,30.37-45.1,38.21-74.16,28.28-9.12-3.03-17.79-7.29-25.31-13.12l.2-.34c8.16,4.54,16.93,7.98,25.93,10.43,17.79,4.8,38.06,4.96,54.01-5.3,7.93-4.91,14.3-12.1,18.99-20.15l.35.2h0Z"/><path class="k" d="M693.15,121.51c9.71,2.71,19.31,7.06,26.5,14.38,4.26,4.63,6.86,10.7,8.01,16.79,0,0-.33-.68-.33-.68,3.66,4.54,5.38,10.57,4.63,16.34,0,0-.04-.41-.04-.41,1.15,4.43,1.51,9.03,1.22,13.55-.3,4.52-1.29,8.96-2.87,13.16l-.38-.13c2.45-8.47,2.56-17.6-.1-25.98-.07-.18-.05-.24-.04-.41.39-5.12-1.37-10.33-4.79-14.13,0,0-.23-.26-.23-.26l-.1-.42c-2.44-11.55-12.1-19.13-21.58-25.17-3.28-2.14-6.66-4.18-10.07-6.27l.15-.37h0Z"/><path class="k" d="M654.58,243.45c8.25-3.26,19.61-6.95,27.95-9.93,9.16-3.27,16.69-8.71,24.4-14.96,0,0,.33.23.33.23-2.87,4.13-6.29,7.88-10.24,11.02-5.86,4.83-12.98,7.83-20.28,9.71-7.22,2.09-14.62,3.66-22.12,4.33,0,0-.04-.4-.04-.4h0Z"/><path class="k" d="M750.29,214.85c10.61,3.83,21.98,5.93,33.23,4.86,5.55-.52,11.24-1.32,16.6-2.73,7.31-1.96,14.33-5.68,20.83-9.5-2.71,5.33-5.66,11.29-9.96,15.53-8.34,8.67-20.78,13.67-32.77,12.08,0,0,0-.4,0-.4,3.87-.42,7.63-1.21,11.19-2.47,7.1-2.43,13.42-6.71,18.57-12.09,2.55-2.68,4.83-5.64,6.75-8.83l2.51,2.58c-5.24,2.57-10.74,4.57-16.39,5.94-14.15,3-28.95,3.16-42.71-1.55-2.72-.89-5.39-1.93-8.01-3.05l.15-.37h0Z"/><path class="k" d="M681,86.39c15.06,4.56,25.6,17.14,30.16,31.89,1.56,4.81,2.5,9.79,2.83,14.8l-.44-.77c6.23,4.75,10.5,11.93,11.76,19.6l-.39.08c-1.87-7.29-6.4-13.8-12.62-17.95,0,0-.38-.26-.38-.26l-.06-.51c-.6-4.8-1.78-9.52-3.53-13.99-3.46-8.98-9.48-16.56-16.2-23.33-3.45-3.33-7.22-6.36-11.29-9.2l.17-.36h0Z"/><path class="k" d="M724.41,146.73c3.04,4.74,5.46,9.84,7.6,15.05,0,0-2.04-.72-2.04-.72,26.67-19.19,63.99-19.42,92.65-4.51,0,0,.21.11.21.11l.11.17,13.45,21.95-.34.22-14.46-21.29.32.29c-29.9-13.99-62.09-10.52-90.47,5.39,0,0-1.55.88-1.55.88l-.49-1.6c-.72-2.32-1.7-5.65-2.49-7.91-.89-2.63-1.86-5.23-2.85-7.85l.36-.18h0Z"/><path class="l" d="M518.54,235.03c-7.65-7.92-12.88-18.45-14.3-29.47-.87-6.94-2.8-26.04,8.08-25.41,8.92,1.58,15.92,13.99,18.84,21.71,0,0-.35.19-.35.19-3.38-4.3-6.64-8.54-10.53-12.29-2.24-2.16-5.1-4.63-7.96-5.38-6.47-1.48-5.96,16.83-5.49,20.88.85,10.81,5.15,21.05,12.02,29.5,0,0-.3.26-.3.26h0Z"/><path class="l" d="M526.4,163.41c14.96,3.15,24.32,21.86,18.28,35.81,0,0-.4-.02-.4-.02.06-1.74,0-3.48-.17-5.2-.86-10.36-5.86-20.34-13.78-27.09-1.3-1.14-2.68-2.2-4.14-3.16l.21-.34h0Z"/><path class="k" d="M710.5,256.32c-3.01-5.53-.15-13.14,5.82-15.36,5.22-2.09,11.3-.2,14.45,4.14.87,1.28,1.53,2.64,1.76,4.14l-.32.24c-1.64-2-3.73-3.62-6.1-4.58-6.48-2.65-13.23.64-14.67,7.59-.32,1.24-.52,2.54-.53,3.82h-.4Z"/><path class="k" d="M766.04,256.55c-3.1-6.77-6.31-12.6-14.48-11.05-1.12.18-2.24.57-3.61.98l-.3-.26c5.31-6.73,15.48-5.48,18.08,2.98.79,2.39,1,4.92.72,7.4l-.4-.04h0Z"/><path class="i" d="M534.18,164.91c9.53-3.66,24.16-8.83,42.39-13.5,62.62-16.01,129.2-17.57,134.22-32.57.52-1.57.01-7.73-.29-18.82-.12-4.6-.19-6.91-.26-7.86-.68-9.16-6.57-22.98-18.73-29.45-12.03-6.4-31.9-6.65-38.25,5.95-4.85,9.62-2.25,21.67-1.86,23.24,4.34,17.79,20.4,21.1,21.14,21.24-20.45,2.49-42.49,6.02-65.82,10.98-22.92,4.87-44.16,10.48-63.59,16.4-2.98,8.13-5.96,16.26-8.95,24.39Z"/><path class="l" d="M660.81,107.29c6.67,3.39,14.18,5.72,21.6,4.47,6.89-1.16,13.73-6.34,13.38-13.88-.2-8.6-7.37-19.32-15.61-22.25-6.45-2.01-14.97,3.08-13.86,10.41.5,4.65,4.25,9.14,9.06,9.74,2.42.29,4.96-.42,7.12-1.74-4.15,3.54-10.49,3.38-14.36-.63-3.97-3.78-5.4-10.41-2.1-15.14,3.28-4.66,9.43-6.81,14.93-5.36,2.75.76,5.09,2.35,7.09,4.11,5.96,5.23,10.47,12.75,10.57,20.88.04,8.98-7.59,14.82-15.93,15.81-7.8.86-15.61-2.1-21.89-6.4h0Z"/><path class="i" d="M803.03,131.94c-33.33.43-88.96-.57-91.37-13.22-.15-.79-.16-6.11-.22-16.75-.04-7.91-.06-11.86.1-13.12,1.31-10.2,8.92-19.93,18.01-24.9,10.53-5.75,29.83-8.99,35.69,2.18,4.54,8.65,2.13,20.27,1.77,21.79-4.02,17.2-19,21.77-19.69,21.97,14.2.92,28.4,1.83,42.61,2.75,4.37,6.43,8.73,12.86,13.1,19.3Z"/><path class="l" d="M756.94,105.72c-6.01,4.07-13.86,6.47-21.15,4.55-7.7-1.94-13.1-9.86-12.28-17.75.75-7.8,5.65-14.84,12.45-18.53,4.5-2.33,10.3-4.15,15.15-1.7,7.51,3.94,7.14,15.4,1.05,20.47-4.19,3.81-10.04,2.7-13.34-1.56,3.47,3.45,8.88,4.25,12.34.48,6.67-6.64,3.37-20.11-7.46-17.49-8.83,1.72-16.42,9.6-17.37,18.58-.85,6.78,3.52,13.53,10.03,15.63,6.82,2.22,14.21.45,20.58-2.68h0Z"/><path class="f" d="M220.89,411.69c.42,5.84,5.34,12.21,10.8,13.06,5.11.79,6.67-3.86,13.41-6,10.15-3.22,16.26,2.98,31.66,5.73,8.29,1.48,23.29,4.15,32.48-3.11,11.94-9.43,13.17-34.93,2.12-46.07-17.43-17.56-59.17,6.86-68.02,12.04-8.5,4.98-23.22,13.58-22.45,24.36Z"/></svg>
