<?xml version="1.0" encoding="utf-8"?>
<!-- Generator: Adobe Illustrator 28.4.1, SVG Export Plug-In . SVG Version: 6.00 Build 0)  -->
<svg version="1.1" id="a" xmlns="http://www.w3.org/2000/svg" xmlns:xlink="http://www.w3.org/1999/xlink" x="0px" y="0px"
	 viewBox="0 0 1280 1280" style="enable-background:new 0 0 1280 1280;" xml:space="preserve">
<style type="text/css">
	.st0{fill:#C93939;stroke:#000000;stroke-width:3;stroke-miterlimit:10;}
	.st1{fill:#CB762B;stroke:#020202;stroke-width:5;stroke-miterlimit:10;}
	.st2{fill:#FFBB00;stroke:#020202;stroke-width:5;stroke-miterlimit:10;}
	.st3{fill:#FFBB00;stroke:#020202;stroke-width:4;stroke-miterlimit:10;}
	.st4{fill:none;stroke:#000000;stroke-width:3;stroke-miterlimit:10;}
	.st5{fill:#ffbbbb;stroke:#000000;stroke-width:3;stroke-miterlimit:10;}
	.st6{fill:#FFFFFF;stroke:#231F20;stroke-width:3;stroke-miterlimit:10;}
	.st7{fill:#FFFFFF;stroke:#000000;stroke-width:3;stroke-miterlimit:10;}
	.st8{fill:#C13838;stroke:#000000;stroke-width:3;stroke-miterlimit:10;}
	.st9{fill:none;stroke:#020202;stroke-width:3;stroke-miterlimit:10;}
	.st10{fill:#020202;}
	.st11{fill:#FFD400;stroke:#000000;stroke-width:3;stroke-miterlimit:10;}
</style>
<path class="st0" d="M713.1,685.7c-0.2,15.6-3,42.7-19.7,71.8c-15.8,27.5-36.4,43.3-41.6,47.2c-19,14.2-36.1,20-46.5,24.1l0,0
	c0,0-60.2,24.1-99,72.3c-34.3,42.7-38.6,162.9,34.3,281.9c-2.9,7.6-6.5,19.9-5.9,34.9c0.5,10.8,1.1,25.9,7.8,28.2
	c11.8,4.1,33.4-35.3,42.3-51.5c0,0,16.5-30.2,9-39.6c-0.3-0.3-0.6-0.7-0.6-0.7c-5.2-5.8-12.6-8.8-12.6-8.8
	c-4.5-1.9-8.6-2.5-11.4-2.8c-5-15.7-11.5-39.7-14.3-69.5c-4.2-44.4-8.5-89.3,21.3-121c7.4-7.9,23.4-15.6,55.2-31
	c24.6-11.9,57.4-27.5,103.4-37.9c5.5-1.2,27-6,56.9-8.8c25.7-2.5,99-9.5,104.3,6c2,5.8-26.1,25.2-82.5,63.9
	c-4.9,3.4-12.9,8.8-24.6,14.3c-20.4,9.5-39.1,13.2-51.4,14.8c-5.3-1.5-18.2-4.5-26.8,1.5c-12.6,8.7-6.3,31.8-3.3,43.8
	c4.4,17.2,15.4,39.7,24.6,38.5c5.6-0.8,9-10.3,12.3-19.8c3.7-10.8,4.3-20.3,4.2-26.8c32-9,75.1-22.5,123-41.5
	c23.9-9.5,59.1-24.3,87.5-54.1c0.3-0.3,0.5-0.6,0.9-1c21.4-22.8,44.1-63.7,33-86.1c-16-32.3-93.2-8.7-121.4-46.7
	c-12.6-16.9-9.1-39.9-5.5-55.1"/>
<path class="st0" d="M749.6,464.1c5.4-7,15.2-18.2,10.9-24.9c-4-6.3-18.7-5.9-27.7-3.9c-19.3,4.1-30.4,18.6-35.6,25.7
	c-6,8-10.6,17.1-18.6,53.2c-13.3,60.7-8.2,71.6-5.5,76.2c10.6,17.9,21.9,28,21.9,28c5.2,4.6,8.3,7.5,12,12.8
	c6.6,9.4,8.4,19.1,8.9,25.7c-24-5.8-41.3-14.5-52.1-20.8c-15.9-9.3-24.2-14.3-28.4-24.1c-6.8-15.9,5.4-25.7-2.7-37.9
	c-6.5-9.8-21.2-12.9-30.6-12.8c-10.3,0.2-17.4,4.7-31.7,13.8c-12.8,8.1-22.9,14.7-22.4,23.6c0,0.8,0.4,6.5,4.9,9.3
	c10.4,6.6,27.7-10.8,37.7-5.4c8.3,4.5,0.7,18.9,8.8,36.4c5.4,11.8,15,18.4,25.7,25.6c52.2,35,78.4,52.6,99,63
	c40.3,20.3,61,30.5,91.9,35.9c22.7,4,41.2,7.2,62.5,0.9c42.7-12.5,78.7-57.4,67.6-92.4c-7.3-23.2-33.6-36.3-43.8-41.3
	c-21.8-10.8-53.2-17.1-68.9-20.2c-7.3-1.5-19.1-5.6-32.3-9.8c-49.9-16.2-74.7-24.6-81.5-36.9C705.4,537.8,730.7,488.5,749.6,464.1
	L749.6,464.1z"/>
<path class="st1" d="M100.6,1176.2c-18.4-20.1-36.9-40.2-55.4-60.3C209.7,926,406.7,720.6,640.4,511.2
	c198.2-177.6,392.6-330.9,575.1-462.4c12.7,6.6,25.5,13.2,38.2,19.8C1072.3,200.2,875.8,358.4,676,546.5
	C442,766.8,252.5,982.1,100.6,1176.2L100.6,1176.2z"/>
<path class="st2" d="M328.7,901.7c-77.1,98.7-154.2,197.4-231.3,296c-21.6-29.5-43.1-58.9-64.7-88.4
	c78.4-79.2,156.8-158.5,235.1-237.8c2.1-0.8,20.4-7.5,39,1.9C324.9,882.6,328.3,899.5,328.7,901.7L328.7,901.7z"/>
<path class="st3" d="M1251.8,37.9c9.3,6.7,13.5,17.8,10.9,28.5c-68.5,50.3-137,100.7-205.4,151c-1.5-3.2-5.2-10.1-13.3-15.6
	c-9.4-6.4-19.2-7.4-23-7.6c64.5-52.6,128.9-105.2,193.3-157.8C1226.1,29.6,1241.3,30.3,1251.8,37.9z"/>
<path d="M87.4,1128.4c-15.6-17.7-45.2-30.5-58.7-19.7c-14,11.1-6.9,43.8,6.8,63.5c15.6,22.4,47.3,39,61.6,29.1
	C112.1,1190.8,107.6,1151.3,87.4,1128.4L87.4,1128.4z"/>
<path class="st4" d="M716,656.9c26.1,6.3,46.2,13.9,60.2,20c19.7,8.6,30.4,15.5,44.8,13.4c15.1-2.1,25.8-12.8,32.5-21.3"/>
<path class="st0" d="M596.5,630.3c0-3.1-0.5-8-3.1-13.5c-2-4.1-9.5-14.3-21.3-18.7c-20.2-7.5-39.3,7.4-40.2,8
	c-1.2-2-2.7-5.3-3.2-9.6c0,0-0.4-6,1.8-13.2c7.6-25.1,36-34,38.3-34.7c4.9-1.4,23-6.2,42.4,1.7c20,8.2,36.8,28.1,33.1,42.8
	c-1.4,5.5-5.2,8.5-4.9,15.7c0.3,7.3,4.7,13.2,8.3,16.9"/>
<path class="st0" d="M696.8,458.8c-0.2-0.4-0.5-1.1-0.8-1.9c-5.1-14.3,2.5-28.9,4-31.5c7.4-13,22.8-22.1,39.2-23.6
	c14.5-1.3,25.4,3.7,30.7,6.2c6.6,3.1,26.9,12.8,26.2,28c-0.5,11.5-12.5,18.7-13.5,19.2c-1.2,0.7-12.1,6.8-23.3,3.5
	c-6.3-1.9-4.9-4.4-18.6-14.4c-5.3-3.5-10.7-7.1-16-10.6"/>
<path class="st0" d="M794.3,479.6c-9.3-14-16-14.5-18.7-14.2c-13,1.5-24.6,31.2-17.9,54.6c2.1,7.2,5.5,12.6,8.4,16.3
	c-1.1,3.2-2.5,7.8-3.2,13.5c0,0-1.7,12.5,1.2,25.8c7.1,31.9,54.2,61.3,58.8,64.1c22.8,14,38.9,17,46.4,18
	c14.4,1.9,24.1-0.1,26.5-0.6c3.2-0.7,15.9-3.7,28.8-13.3c4.6-3.5,8.4-7.1,12.9-11.4c8.5-8.2,8.8-9.9,14.6-14.5
	c8.1-6.4,10.4-5.3,13.5-10c4.4-6.5,3.8-14.3,3.4-18.7c-1-11.9-7-20.2-10.2-23.8c2.4-1,5.3-2.4,8.4-4.4c3-2,5.4-4,7.3-5.8
	c2.1-0.6,9.3-2.8,13.4-10c2.9-5,2.8-9.9,2.8-13.1c0-6.5-2-11.5-3.3-14.1c0-1.2-0.1-3.5-1.3-5.9c-1.8-3.6-4.7-5.2-5.8-5.7
	c-0.1-2-0.4-5.1-1.9-8.5c-2.4-5.4-6.2-8.4-8-9.6c-0.9-4.4-3-12.5-9.2-20.5c-2.2-2.8-11.8-14.5-28.6-17c-10.2-1.5-18.5,1.1-22.5,2.7
	c-2.4-2.3-5.8-5.4-10.3-8.9c-5.7-4.3-10.7-8.2-16.3-10.3c-8.8-3.3-16.7-1.7-24.5,0c-16.4,3.6-27.7,11.7-36.8,18.4
	C814.8,458.1,804.5,466.8,794.3,479.6L794.3,479.6z"/>
<path class="st5" d="M952,617.8c1.6-1.5,2.8-2.5,4.7-3.8c4.1-2.7,6.6-2.9,8.8-6.2c4.4-6.5,3.8-14.3,3.4-18.7
	c-1-11.9-7-20.2-10.2-23.8c2.5-0.7,6-2,9.7-4.4c3.5-2.3,6.1-4.8,7.8-6.8c1.9-0.9,8.9-4.4,12.5-12.8c5-11.6-0.7-22.3-1.4-23.5
	c0-1.2-0.3-3-1-4.8c-1.7-4.1-4.8-6.1-6-6.8c-0.1-2.1-0.5-5.2-1.9-8.5c-6.8-15.5-29.5-17.1-33.9-17.4c-5.3-0.4-14.5-0.2-25.6,4.3
	c-3.8-4.5-9.9-10.5-18.8-14.7c-27.6-13-66.8-1.2-76.5,21.9c-3.6,8.6-2.9,18.1-2.8,19.6c1.1,12.7,7.4,21.2,10.1,24.4
	c-3.9,1.3-16.1,5.9-21.9,18.1c-6.1,12.8-1.4,26,0.7,31.8c19,53.6,114.6,58.2,125.8,48.5c5.2-4.5,10.1-9.5,10.1-9.5
	c0.6-0.7,1.5-1.6,2.7-2.8C950.6,619.3,951.1,618.7,952,617.8L952,617.8z"/>
<path class="st6" d="M934.7,513.5c16.3-4.9,28.8,0.6,36.3,4c8.9,3.9,24.7,13.2,22.7,20.1c-1.2,4.1-8.4,5.7-16.1,7.3
	c-9.9,2.1-33.9,7.2-52.8-8.6c-4.8-4-8-8.3-10.2-11.6C918.6,521.2,925.5,516.2,934.7,513.5L934.7,513.5z"/>
<path class="st7" d="M924.7,519.6c-0.4-11.9-24.1-19.7-37.8-22.1c-17.5-3.1-42.3-1.6-44,6.2c-2.1,9.6,31.6,23,44.6,27.4
	c16.4,5.5,24,4.6,29.4,0.8C917.6,531.5,924.9,526.3,924.7,519.6L924.7,519.6z"/>
<path d="M911.9,524.8c-3.9,8.3-18.7,11.4-27.5,5.6c-7.8-5.2-12.4-18.5-7.5-26.1c4.8-7.5,17.1-7.1,24.3-3
	C909,505.7,915.6,516.9,911.9,524.8L911.9,524.8z"/>
<path d="M971,537.5c-4,8.9-17.6,11.9-26.2,7.2c-9.1-5-13.8-19.3-8.5-27.5c5-7.7,17.7-7.6,25.3-2.8
	C968.5,518.7,974.7,529.2,971,537.5z"/>
<path class="st8" d="M823,548.1c7.1-1.2,11.9,12.3,21.5,23.3c8.6,9.9,25.4,15.5,59,26.6c0,0,32.3,10.7,48.5,7.7
	c10.9-2.1,12.4-2.7,12.4-2.7c2.1-0.9,3.5-1.8,4.6-1.2c2,1.2,1.8,7-0.5,10.7c-3.4,5.5-11,5.4-11.8,5.4c0.1,1.2,0,3.9-1.5,6.8
	c-0.2,0.3-2.6,4.8-7.4,6.2c-3.6,1-6.6-0.2-9.8-1.4c-5.8-2.1-12.1-2.4-18.1-4c-15.7-4.1-19.2-4.4-28.3-6.8
	c-18.3-4.9-31.8-8.5-45.6-17.7c-13.9-9.3-34.8-28.8-30.6-44C816.4,553.2,819.2,548.8,823,548.1L823,548.1z"/>
<path class="st9" d="M826.7,563.1c2,4.2,5.4,10.3,11,16.4c10.6,11.6,22.4,16,41.7,22.9c5.1,1.8,19,6.6,38.8,10.4
	c14.9,2.9,27.7,4.2,37.5,4.8"/>
<path class="st10" d="M846.6,495.8c16.2-8.5,35.7-11.1,53.3-5.7c9.8,2.8,20.8,7.2,25.1,17.2c1.7,4,1.5,8.5,0.1,12.3l-0.3-0.1
	c0.8-3.8,0.6-8-1.2-11.5c-5.8-10.8-19.1-13.8-30.2-16.4c-15.5-3.4-31.9-0.8-46.7,4.5L846.6,495.8L846.6,495.8L846.6,495.8z"/>
<path class="st10" d="M854.6,481.8c15-7.6,33.4-8.7,49.1-2.6c9.7,3.8,18,11.2,22.9,20.4l-3.2-1.3l5-1.4l-0.5,0.2
	c0.2-0.1,0.4-0.2,0.7-0.2c3-0.8,6.2-1.4,9.3-1.6c13.5-1.4,28.1,2.1,39.6,8.5c3.2,2,6.1,4.3,8.8,6.8c0.3,1.2,0.6,2.4,0.8,3.7l0.8,3.5
	l-0.3,0.1l-2.1-6.9c-2.4-1.9-5.7-4.2-8.8-5.8c-14.1-7-30.7-9.5-46-5.7c-1,0.2-5.2,1.5-6.2,1.8l-0.2,0.1l-0.1-0.2
	c-9.8-18.4-30.4-25.4-50.2-23.6c-6.5,0.5-13,2.1-19,4.6L854.6,481.8L854.6,481.8L854.6,481.8z"/>
<path class="st10" d="M920.7,528.8c-12.7,18.5-36.4,18.4-54,7c-5.6-3.5-10.6-7.8-14.7-13l0.2-0.2c4.7,4.3,10,8,15.6,11.1
	c11.1,6,24.5,9.4,36.8,5.2c6.1-2,11.5-5.7,15.9-10.3L920.7,528.8L920.7,528.8L920.7,528.8z"/>
<path class="st10" d="M907.8,474.1c4.9,2.6,9.3,6,13,10.3c3.8,4.3,5.4,10.4,5.1,16l-0.1-0.5c1.7,3.7,1.9,8,0.4,11.7l0-0.3
	c0,3.1-0.5,6.3-1.4,9.2c-0.9,3-2.3,5.8-4.1,8.3l-0.2-0.2c3-5.2,4.5-11.3,4.1-17.3c1-3.5,0.9-7.3-0.9-10.4l-0.1-0.2v-0.3
	c0.2-8-5-14.6-10.3-20.2c-1.8-2-3.7-3.9-5.6-5.9L907.8,474.1L907.8,474.1L907.8,474.1z"/>
<path class="st10" d="M862.5,549.1c8.4-1.5,16.6-1.5,24.8-3.1c4.9-1.1,9.2-2.9,14-5l0.2,0.2c-6.4,5.9-15,9-23.7,8.9
	c-5.1,0.2-10.3,0.1-15.4-0.7L862.5,549.1L862.5,549.1L862.5,549.1z"/>
<path class="st10" d="M930.8,545.5c3.3,2.1,6.7,4,10.2,5.5c7.1,3,15,3.9,22.5,3.9c5.3-0.1,10.7-1.6,15.7-3.1l-3.1,3.6
	c-7.1,8.5-19.7,12.3-30.1,8.1l0.1-0.3c2.7,0.3,5.3,0.4,7.8,0.1c5.1-0.5,10-2.3,14.2-5.1c2.1-1.3,4.1-3,5.9-4.8l1.4,2.3
	c-3.9,0.8-7.9,1.3-11.9,1.3c-8-0.3-15.9-1.7-23-5.2c-3.6-1.7-6.9-3.8-10-6.2L930.8,545.5L930.8,545.5L930.8,545.5z"/>
<path class="st10" d="M905.4,448.8c12.6,7,17,23,14.5,36.4l-0.2-0.6c1.7,2.1,3,4.6,3.8,7.1c0.8,2.6,1.1,5.2,0.9,7.9H924
	c-0.1-2.6-0.6-5.2-1.5-7.5c-1-2.5-2.5-4.7-4.3-6.6l0-0.4c1.3-9.9-2-19.6-7.1-27.9c-1.7-2.8-3.7-5.4-6-8L905.4,448.8L905.4,448.8
	L905.4,448.8z"/>
<path class="st10" d="M924.6,496c1.3,3.6,2.1,7.4,2.7,11.2l-1.4-0.9c20.8-8.6,46.2-2.6,62.6,12.3l5.4,16.8l-0.3,0.1l-6.2-16.5
	l0.2,0.3c-17.6-14.1-39.6-16.9-61-11l-1.3,0.4l-0.1-1.2c0-1.7-0.2-4-0.3-5.7c-0.1-1.9-0.4-3.8-0.6-5.7L924.6,496L924.6,496
	L924.6,496z"/>
<path d="M773.3,521.5c-3.8-6.5-5.7-14.4-4.8-21.9c0.5-4.9,2.3-17.9,9.6-15.7c5.8,2.7,8.3,11.8,9,17.6l-0.3,0.1
	c-1.6-3.4-3.1-6.7-5.1-9.8c-1.1-1.8-2.6-3.9-4.4-4.8c-3.9-1.9-6.5,10.2-6.9,12.9c-1.2,7.3,0,14.8,3.2,21.6L773.3,521.5L773.3,521.5
	L773.3,521.5z"/>
<path d="M790.1,475.1c9.7,4.3,13,18.6,6.4,26.8l-0.3-0.1c2.6-9.2,0.2-19.5-6.3-26.5L790.1,475.1L790.1,475.1L790.1,475.1z"/>
<path class="st10" d="M897.6,566.7c-1.4-4.5,2.5-9.7,7.3-9.6c4.7-0.1,9,3.8,8.6,8.4l-0.3,0.1c-2-4.8-8.8-7.8-12.8-3.5
	c-1.2,1.3-2,2.9-2.5,4.6L897.6,566.7L897.6,566.7L897.6,566.7z"/>
<path class="st10" d="M934.5,575.8c-1.4-6.3-3.2-10.1-10.4-9.6l-0.2-0.2c4.5-3.7,11.3-1.1,11.6,4.9c0.1,1.7-0.1,3.4-0.7,5
	L934.5,575.8L934.5,575.8L934.5,575.8z"/>
<path class="st11" d="M795,477.4c6.9-0.9,17.5-2,30.4-2.1c44.2-0.5,88.8,9.1,94.6,0c0.6-1,1.3-5.1,2.8-12.6c0.7-3.1,1-4.6,1.1-5.3
	c1-6.2-0.7-16.4-7.7-22.6c-7-6.2-20.2-9.6-26.4-2.2c-4.8,5.6-5,14.1-5,15.2c0,12.5,10.2,17.3,10.6,17.5c-14-1.6-29.2-2.9-45.6-3.3
	c-16-0.5-31.1-0.1-45,0.6C801.6,467.5,798.3,472.5,795,477.4L795,477.4z"/>
<path d="M888.6,459.5c2.7,2.2,5.7,4.1,8.8,5.2c5.7,2.2,14.1,0.9,15.5-5.9c1.1-5.7-1.7-13.4-6.6-16.8c-2.4-1.5-6.1-1.2-8.3,0.6
	c-2.3,1.8-2.8,5.5-1.3,8.3c1.4,3.1,5.1,4.4,8.4,3.4c-3.2,1.8-7.7,0.7-9.7-2.6c-6.5-11.7,10.1-18.5,16.5-8.1c3.2,4.5,5,10.4,3.7,16
	c-1.4,6.1-7.8,9-13.6,8.1C896.7,466.8,892,463.5,888.6,459.5L888.6,459.5L888.6,459.5z"/>
<path class="st11" d="M979.3,498.8c-22.2-5.1-59.1-14.7-58.7-23.5c0-0.5,0.9-4.1,2.6-11.2c1.2-5.3,1.9-7.9,2.2-8.7
	c2.5-6.6,9.2-11.8,16-13.7c7.9-2.1,21.3-1.2,23.4,7.2c1.6,6.5-1.8,13.8-2.3,14.8c-5.5,10.8-16.2,11.4-16.6,11.4
	c9.3,2.9,18.6,5.8,27.9,8.7C975.5,488.9,977.4,493.8,979.3,498.8L979.3,498.8z"/>
<path d="M952.8,473.9c-6.2,2.6-14.8,2.3-19-3.7c-4.7-6.5-1.1-15.1,5.1-19c5-3.3,14.3-4.8,17.5,1.6c1.9,4.4-0.3,9.8-4.5,11.9
	c-3.5,1.9-7.3,0.1-8.7-3.4c1.8,2.7,5.3,4.1,8,2.1c5.1-3.1,5.2-12.3-2-12.2c-5.9-0.2-12.1,3.7-14.1,9.3c-1.6,4.2,0.1,9.2,3.9,11.6
	C943,474.8,948.1,474.9,952.8,473.9L952.8,473.9L952.8,473.9z"/>
</svg>
