<?xml version="1.0" encoding="utf-8"?>
<!-- Generator: Adobe Illustrator 28.4.1, SVG Export Plug-In . SVG Version: 6.00 Build 0)  -->
<svg version="1.1" id="a" xmlns="http://www.w3.org/2000/svg" xmlns:xlink="http://www.w3.org/1999/xlink" x="0px" y="0px"
	 viewBox="0 0 411.9 1074.6" style="enable-background:new 0 0 411.9 1074.6;" xml:space="preserve">
<style type="text/css">
	.st0{fill:#FFD400;stroke:#000000;stroke-width:5;stroke-miterlimit:10;}
	.st1{fill:none;stroke:#000000;stroke-width:5;stroke-miterlimit:10;}
	.st2{fill:#34A328;stroke:#000000;stroke-width:5;stroke-miterlimit:10;}
	.st3{fill:#FF3B3B;stroke:#000000;stroke-width:5;stroke-miterlimit:10;}
	.st4{fill:#FFF039;}
	.st5{fill:#FFFFFF;}
	.st6{fill-rule:evenodd;clip-rule:evenodd;fill:#FFFFFF;}
	.st7{fill:#01C1AE;}
	.st8{fill:#FE9D51;}
	.st9{fill:#FE9A54;}
</style>
<g>
	<path class="st0" d="M45.2,874.4c-3.3-28.6-6.9-51.8-9.5-67.7c-7-42.5-12.1-61.8-13.5-96.7c-1-24.5-1.6-36.9,2.1-49.5
		c11.5-40.7,50.3-62.7,69.6-71.8c7.3,42.3,14.5,84.6,21.8,127C92.2,768.5,68.7,821.4,45.2,874.4z"/>
	<path class="st0" d="M371,887.9c0.3-30.8,1.5-55.8,2.5-73c2.7-45.7,5.9-66.4,3.5-104.1c-1.7-26.6-2.6-39.9-8-53.9
		c-17.1-44.8-61.8-70.7-83.8-81.7c-3,45.5-5.9,91-8.9,136.5C307.8,770.4,339.4,829.1,371,887.9z"/>
	<path class="st0" d="M115.6,715.6c-7.6-21.5-16.2-48.5-23.9-80.2c-13.4-55.4-18-99.6-19.5-117.8c-2.4-28-6.6-94.6,5.7-179.7
		c6.3-42.8,13.5-91.1,37.2-150.5c21.6-54.1,47.8-94.7,63.2-118.4c17-26.1,32.9-47.1,45-62.2c14.4,18.7,33.8,46.7,51.5,83.3
		c35.8,74.4,42.1,138.6,48.6,211.4c2.6,28.8,8.4,108.8-3.7,213.6c-9.3,81-26.2,148.4-41.5,198c-11.6,8.1-33.9,21.2-64.7,25.1
		C164.3,744.4,127,722.8,115.6,715.6z"/>
	<g>
		<path d="M216.3,504.9c0-2.3-1.2-3.4-3.5-3.5l-2.2,0c-2.3,0-3.4,1.2-3.5,3.5l0,6.6c0,4.4-1.6,8.2-4.6,11.2l-3.3,3.4
			c-2.7,2.8-6.1,4.1-10.3,4.2l-8.6,0c-4.5,0-8.2-1.3-10.5-3.9c-2.5-2.6-3.7-6.2-3.7-10.7l-0.1-29.9c0-2.3,1.2-3.5,3.5-3.5l10.9-0.1
			c2.3,0,3.5,1.2,3.5,3.5l0,19.6c0,2.3,1.2,3.4,3.5,3.5l1.3,0c2.3,0,3.4-1.2,3.5-3.5l0-5.5c0-4.1,1-7.5,2.9-10l1.6-2.1
			c2.1-2.7,5.3-4.1,9.6-4l13.9-0.1c4.3,0,7.6,1.6,10.1,4.8c2.4,3.2,3.7,7,3.7,11.4l0.1,28.6c0,1.2-0.5,1.8-1.7,1.8l-14.3,0
			c-1.2,0-1.8-0.5-1.8-1.7L216.3,504.9z"/>
		<path d="M167.1,445.8c-2.3,0-3.5-1.2-3.5-3.5l0-12.2c0-2.2,1.2-3.5,3.4-3.4l50.1-1.5c0.1,0,0.4,0,0.5,0c4,0,7.8,1.4,11.1,4.1
			l0.5,0.4c3.4,2.8,5.1,6.4,5.1,10.8l0,18.5c0,4.5-1.4,8.6-4,12l-0.5,0.6c-2.6,3.3-6.1,4.9-10.4,4.9c-0.1,0-0.4,0-0.5,0l-56.4-1.4
			c-1.1,0-1.7-0.6-1.7-1.8l0-11.7c0-1.1,0.5-1.8,1.7-1.7l49.2-1.8c1.8,0,2.7-1,2.7-2.5c0-0.4-0.1-0.7-0.1-1.1l-1.2-5.9
			c-0.4-1.9-1.5-2.8-3.3-2.7L167.1,445.8z"/>
		<path d="M206.9,401.4l24.3,2.6c1.9,0.2,2.9,1.2,2.9,3.2l0,8.5c0,2.1-1,3.1-3,3.1l0,0l-63.8-0.6c-2.1,0-3-1.1-3.1-3l0-9.9
			c-0.1-0.6,0.3-1.1,0.6-1.4l20.1-16.2l-30.3-6.7c-1.7-0.4-2.6-1.5-2.7-3.2l0-7.5c0-2,0.9-2.9,2.6-3c0.1,0,0.4,0,0.5,0l75.1,6.8
			c1.9,0.2,2.9,1.2,2.9,3.1l0,7.9c0,0.6-0.3,1.2-0.8,1.5L206.9,401.4z"/>
		<path d="M232.9,361.8c0,1.2-0.5,1.8-1.7,1.8l-63.6,0.2c-2.3,0-3.5-1.2-3.5-3.4l-0.4-14.3l0-0.1c0-2.2,1-3.3,3.1-3.3
			c0.1,0,0.2,0.1,0.4,0l23.1,1.3l-31.9-20.6c-0.5-0.3-0.8-0.8-0.8-1.4l0-12.6c0-1.3,0.6-1.8,1.7-1.9c0.4,0,0.7,0.1,1,0.3l35.6,20
			l35.1-15.1c1-0.4,1.6-0.6,2.3-0.6c1.4,0,2.2,1.1,2.2,3.1l0,13c0,1.8-0.7,3.2-2.2,3.9l-29,14.7l27.1,2.1c1.1,0.1,1.6,0.7,1.7,1.8
			L232.9,361.8z"/>
		<path d="M222.1,265.1l8.7,0.1c2.1,0,3,1.1,3.1,3l0,32.8c0,3.1-1.6,4.8-4.7,4.8l-59.8,0.5c-2.9,0.1-4.3-1.4-4.3-4.3l-0.2-32.7
			c0-2.6,1.3-3.9,3.9-3.9l0,0l13.6,0c2.6,0,4,1.3,3.9,3.9l0,19.6c0,1.1,0.6,1.8,1.8,1.7l5.6,0c1.1,0,1.6-0.6,1.8-1.5l2.2-18.8
			c0.1-1.1,0.6-1.6,1.6-1.5l0,0l6.1,0.1c2.1,0,3,1.1,3.1,3l-0.1,16.4c0,2.1,1,3,3.1,3l5.5,0c1.2,0,1.8-0.6,1.7-1.8l0.1-21.2
			C219,266.2,219.9,265.2,222.1,265.1L222.1,265.1z"/>
	</g>
	<path class="st1" d="M106.7,688.7c24.4,3.2,55.7,5,91.7,1.6c36.9-3.5,68-11.2,91.8-19.1"/>
	<path class="st1" d="M122.7,169.2c14.9,9,45.1,24.4,86.4,27.3c45.9,3.2,81.1-11,96.9-18.6"/>
	<path class="st2" d="M163.5,735.6c0.3-14.4,0.6-28.9,1-43.4"/>
	<path class="st2" d="M204.2,689.7c1.7,16.3,3.5,32.5,5.2,48.8"/>
	<path class="st2" d="M246.3,683.6c2.8,14.3,5.7,28.5,8.5,42.8"/>
	<path class="st3" d="M137.6,758.2c-18.6,24.6-33.1,47.9-26.9,55c3.1,3.6,8.9,0,12.9,3.4c14.1,12.2-33.1,79.2-19.2,92.2
		c6.8,6.5,21.6-7.1,31.5-0.4c18.7,12.7-10.8,75.8,2.5,83.5c7.3,4.2,22.7-24.1,33.7-20.7c17.6,5.4,5.6,84.5,13.4,85.9
		c9.1,1.6,30.4-106.6,48.7-105.2c9.7,0.8,13.1,32.1,17.8,31.6c9.9-1.1-3.4-135.9,15.5-139.8c10-2,23.4,33,27.3,31.4
		c3.3-1.3-2.3-27.6-33.6-121.1"/>
	<path class="st4" d="M156.6,757.5c-9.3,15.1-16.2,32.7-10.7,48.9c2.5,7.2,5.2,7.6,7,14.7c5.9,23.1-17.6,41.8-11.3,50
		c4.3,5.6,15.4-2.6,23.9,2.9c17.8,11.7-1.8,69.5,4.9,71.6c4.1,1.3,11.8-19.6,18.6-18.3c8.4,1.5,7.6,34.7,11.3,34.9
		c4.9,0.2,8.4-60.5,19.2-61.3c4.1-0.3,6.1,8.3,9.2,7.8c10.5-1.5,1.9-99.8,14.2-101.9c2.9-0.5,5.2,4.6,7.4,3.8
		c4.8-1.9-1.5-29.9-8.1-55.4"/>
	<g>
		<g>
			<g>
				
					<rect x="204.7" y="85" transform="matrix(5.521955e-02 -0.9985 0.9985 5.521955e-02 120.6971 298.8971)" class="st5" width="27.1" height="1.4"/>
			</g>
			<g>
				
					<rect x="200.8" y="84.7" transform="matrix(5.521955e-02 -0.9985 0.9985 5.521955e-02 117.2007 294.6783)" class="st5" width="27.1" height="1.4"/>
			</g>
			<g>
				
					<rect x="210" y="85.2" transform="matrix(5.521955e-02 -0.9985 0.9985 5.521955e-02 125.4327 304.4234)" class="st5" width="27.1" height="1.4"/>
			</g>
			<g>
				<polygon class="st5" points="209,93.6 201.1,76.7 202.3,76.1 209.1,90.5 210,74.6 211.4,74.7 210.3,93.3 				"/>
			</g>
			<g>
				<polygon class="st5" points="227.9,94.1 226.6,93.6 227.7,75 229,75.1 228.2,91.1 236.4,77.5 237.6,78.2 				"/>
			</g>
			<g>
				
					<rect x="202.1" y="157.8" transform="matrix(5.521955e-02 -0.9985 0.9985 5.521955e-02 45.5279 365.0547)" class="st5" width="27.1" height="1.4"/>
			</g>
			<g>
				
					<rect x="206.2" y="157.9" transform="matrix(5.521955e-02 -0.9985 0.9985 5.521955e-02 49.218 369.2896)" class="st5" width="27.1" height="1.4"/>
			</g>
			<g>
				
					<rect x="196.8" y="157.5" transform="matrix(5.521955e-02 -0.9985 0.9985 5.521955e-02 40.7923 359.5284)" class="st5" width="27.1" height="1.4"/>
			</g>
			<g>
				<polygon class="st5" points="224.3,169.8 223,169.7 223.9,151 225.3,150.8 233.2,167.7 231.9,168.2 225.1,153.9 				"/>
			</g>
			<g>
				<polygon class="st5" points="206.2,169.1 204.8,169 205.7,153 197.4,166.7 196.2,165.9 205.9,150 207.2,150.4 				"/>
			</g>
			<g>
				
					<rect x="179.8" y="107.1" transform="matrix(5.521955e-02 -0.9985 0.9985 5.521955e-02 50.0436 294.2462)" class="st5" width="1.4" height="27.2"/>
			</g>
			<g>
				
					<rect x="179.6" y="111.1" transform="matrix(5.521955e-02 -0.9985 0.9985 5.521955e-02 45.835 297.7483)" class="st5" width="1.4" height="27.2"/>
			</g>
			<g>
				
					<rect x="180.1" y="101.8" transform="matrix(5.521955e-02 -0.9985 0.9985 5.521955e-02 55.5549 289.5022)" class="st5" width="1.4" height="27.2"/>
			</g>
			<g>
				<polygon class="st5" points="170.9,137.9 170.3,136.7 184.8,129.9 168.8,129.1 168.8,127.7 187.6,128.8 187.9,130 				"/>
			</g>
			<g>
				<polygon class="st5" points="190.2,113.2 171.6,112.1 171.6,110.8 187.6,111.7 174,103.3 174.7,102.2 190.6,111.9 				"/>
			</g>
			<g>
				
					<rect x="252.9" y="109.8" transform="matrix(5.521955e-02 -0.9985 0.9985 5.521955e-02 116.3751 369.7216)" class="st5" width="1.4" height="27.2"/>
			</g>
			<g>
				
					<rect x="253" y="105.7" transform="matrix(5.521955e-02 -0.9985 0.9985 5.521955e-02 120.5997 366.0257)" class="st5" width="1.4" height="27.2"/>
			</g>
			<g>
				
					<rect x="252.5" y="115" transform="matrix(5.521955e-02 -0.9985 0.9985 5.521955e-02 110.7735 374.3598)" class="st5" width="1.4" height="27.2"/>
			</g>
			<g>
				<polygon class="st5" points="264.3,116.2 245.6,115.2 245.3,113.9 262.3,106 262.8,107.2 248.3,114 264.3,114.8 				"/>
			</g>
			<g>
				<polygon class="st5" points="261.1,142.7 245.2,133 245.6,131.7 264.4,132.7 264.3,134.1 248.3,133.3 261.9,141.5 				"/>
			</g>
			<g>
				<polygon class="st5" points="180.6,156.4 179.7,155.3 200,137.3 200.8,138.3 				"/>
			</g>
			<g>
				<polygon class="st5" points="183.3,159.4 182.3,158.3 202.6,140.3 203.6,141.3 				"/>
			</g>
			<g>
				<polygon class="st5" points="177.1,152.4 176.1,151.4 196.4,133.3 197.4,134.3 				"/>
			</g>
			<g>
				<polygon class="st5" points="196.7,165.9 195.4,165.4 200.9,150.4 189,161.1 188,160.1 202,147.6 203.1,148.4 				"/>
			</g>
			<g>
				<polygon class="st5" points="176.1,147 175.1,145.9 187.1,135.4 171.6,139.1 171.3,137.7 189.4,133.3 190,134.5 				"/>
			</g>
			<g>
				<polygon class="st5" points="234.1,106.8 233.2,105.7 253.5,87.6 254.4,88.6 				"/>
			</g>
			<g>
				<polygon class="st5" points="231.4,103.7 230.5,102.7 250.8,84.6 251.7,85.6 				"/>
			</g>
			<g>
				<polygon class="st5" points="237.6,110.7 236.7,109.7 256.9,91.5 257.9,92.6 				"/>
			</g>
			<g>
				<polygon class="st5" points="232.6,97 231.5,96.3 237.9,78.8 239.1,79.2 233.7,94.2 245.6,83.5 246.6,84.6 				"/>
			</g>
			<g>
				<polygon class="st5" points="244.5,110.3 243.9,109.1 257.9,96.6 258.7,97.6 246.9,108.3 262.3,104.5 262.6,105.8 				"/>
			</g>
			<g>
				<polygon class="st5" points="250.5,159.3 232.4,139 233.4,138.2 251.6,158.3 				"/>
			</g>
			<g>
				<polygon class="st5" points="253.5,156.6 235.4,136.4 236.4,135.4 254.6,155.7 				"/>
			</g>
			<g>
				<polygon class="st5" points="246.5,162.8 228.4,142.6 229.4,141.6 247.6,161.8 				"/>
			</g>
			<g>
				<polygon class="st5" points="255.3,151.4 242.8,137.5 243.6,136.4 261.1,142.7 260.7,144 245.7,138.5 256.4,150.5 				"/>
			</g>
			<g>
				<polygon class="st5" points="233.2,167.7 228.8,149.5 229.9,148.9 242.4,162.8 241.5,163.7 230.8,151.9 234.5,167.3 				"/>
			</g>
			<g>
				<polygon class="st5" points="200.7,105.9 182.5,85.7 183.6,84.8 201.7,105 				"/>
			</g>
			<g>
				<polygon class="st5" points="197.7,108.6 179.5,88.4 180.6,87.4 198.7,107.7 				"/>
			</g>
			<g>
				<polygon class="st5" points="204.6,102.4 186.4,82.1 187.5,81.2 205.7,101.5 				"/>
			</g>
			<g>
				<polygon class="st5" points="192,108.5 174.4,102.2 174.9,100.9 189.9,106.4 179.2,94.5 180.2,93.5 192.8,107.5 				"/>
			</g>
			<g>
				<polygon class="st5" points="204.6,96.3 192.1,82.3 193.1,81.4 203.8,93.2 200.1,77.8 201.4,77.5 205.8,95.6 				"/>
			</g>
		</g>
		<g>
			<g>
				<path class="st6" d="M220.1,92.8l-5.1,28.1l3.5,0.2l-2.8,25.9l25.9-3.2l6.7-35.5l-10.8-10.6L220.1,92.8z"/>
			</g>
		</g>
		<g>
			<path class="st7" d="M192.7,115.5c0.4,4.9,3.3,10.3,8.2,9.9c16.8-1.1,15.1-12,15.1-15.4c0.7,10,7.9,13.9,20.6,13.1
				c3.7-0.3,5.7-7.4,5.5-10.8c-0.3-4.2-11.4-5.5-25.4-4.6C202.7,108.6,192.2,109.3,192.7,115.5z"/>
			<path class="st7" d="M200,126.5c-2.3-0.1-4.3-1.3-5.9-3.4c-1.4-2-2.4-4.7-2.6-7.5c-0.4-5.1,5.5-6.5,7.4-7
				c4.4-1.1,10.5-1.5,17.6-1.9c9.7-0.6,26.2-0.8,26.5,5.5c0.3,3.5-1.7,11.7-6.5,12c-10.4,0.7-17.1-1.8-20.1-7.5
				c-1.1,4.3-4.7,9.2-15.7,9.9C200.6,126.5,200.4,126.5,200,126.5z M229.4,108.5c-3.4-0.2-7.6-0.2-12.7,0.1c-7,0.5-13,0.9-17.2,1.9
				c-5.3,1.3-5.9,3.2-5.7,4.8l0,0c0.2,2.4,1,4.7,2.2,6.4c0.9,1.3,2.5,2.7,4.9,2.5c14.6-0.9,14.3-9.4,14.1-13.5
				c0-0.3-0.1-0.6-0.1-0.9c0-0.6,0.5-1.1,1-1.1c0.6,0,1.1,0.5,1.1,1c0.6,9,7,12.9,19.5,12.1c2.8-0.2,4.6-6.5,4.5-9.7
				C240.9,110.5,237.1,109,229.4,108.5z"/>
		</g>
		<g>
			<path class="st5" d="M216.6,137.2c5.9-0.2,10.5-4.6,10.4-10l-21.3,0.5C205.8,133.2,210.7,137.4,216.6,137.2z"/>
			<path class="st8" d="M215.6,137.8c-5.7-0.3-10.2-4.6-10.3-9.9c0-0.1,0.1-0.2,0.1-0.3s0.2-0.2,0.3-0.1L227,127
				c0.3,0,0.5,0.2,0.5,0.5c0,2.7-1,5.3-3.1,7.3c-2,1.9-4.8,3.1-7.8,3.2C216.3,137.8,215.9,137.7,215.6,137.8z M206.3,128.3
				c0.4,4.9,4.9,8.6,10.3,8.5l0,0c2.7,0,5.2-1.1,7.1-2.9c1.7-1.7,2.7-3.8,2.8-6.1L206.3,128.3z"/>
		</g>
		<g>
			<path class="st9" d="M225.4,132.4l-5.8-0.3c-0.2-0.1-0.4-0.2-0.4-0.4c0.1-0.2,0.2-0.4,0.4-0.4l5.8,0.3c0.2,0.1,0.4,0.2,0.4,0.4
				C225.9,132.2,225.6,132.5,225.4,132.4z"/>
		</g>
		<g>
			<path d="M223.4,119.9c-4.4-1.9-6-6.6-6.2-8.7c0.2-2.8,3.3-3,11-2.6c7.6,0.4,12.3,1.3,12.5,3.3c0.2,3.5-1.3,8.7-3.2,9.5
				C235.8,122.4,229,122.4,223.4,119.9z"/>
			<path d="M232.6,122.1c-2.8-0.2-6.2-0.8-9.2-2.1c-4.4-1.9-6-6.6-6.3-8.7c0.2-2.9,3.7-3.1,11.1-2.6c8.6,0.4,12.4,1.4,12.6,3.5
				c0.2,3.5-1.3,8.9-3.2,9.7C236.8,122.1,234.9,122.3,232.6,122.1z M223.5,119.9c5.5,2.4,12.3,2.4,14.1,1.7c1.8-0.8,3.3-6,3.1-9.4
				c-0.2-1.8-4.1-2.8-12.4-3.3c-3.8-0.2-6.5-0.3-8.3,0.1c-1.8,0.4-2.5,1-2.6,2.4C217.5,113.4,219.1,118,223.5,119.9L223.5,119.9z"/>
		</g>
		<g>
			<path d="M210,121.6c3.8-2.2,5.9-6.7,5-10.6c-0.5-2.3-4.1-1.9-10.8-1.2c-6,0.6-10.6,2.9-10.2,5.3c0.1,3.7,2.7,7.7,4.4,8.6
				C199.9,124.3,205.3,124.3,210,121.6z"/>
			<path d="M200.5,124c-1.1-0.1-1.8-0.2-2.3-0.5c-1.7-0.8-4.3-4.9-4.4-8.6c-0.1-0.5,0.1-1.1,0.5-1.6c1.3-1.8,5.3-3.3,9.8-3.7
				c6.6-0.7,10.4-1.1,10.8,1.3c0.9,3.9-1.1,8.5-5,10.8l-0.1-0.1l0.1,0.1C206.7,123.6,202.9,124.1,200.5,124z M211.8,109.4
				c-1.8-0.1-4.3,0.1-7.6,0.5c-4.4,0.4-8.4,1.9-9.7,3.7c-0.3,0.5-0.6,1-0.5,1.5c0,3.6,2.6,7.7,4.3,8.5c1.6,0.8,7,0.8,11.6-2
				c3.8-2.2,5.8-6.6,4.9-10.5C214.7,109.9,213.6,109.4,211.8,109.4z"/>
		</g>
		<g>
			<path class="st5" d="M242.7,100.8l1.9,6l5.9,2.5l-6.1,1.9l-2.6,5.8l-1.9-6.1l-5.9-2.5l6.1-1.9L242.7,100.8z"/>
		</g>
	</g>
</g>
</svg>
