<?xml version="1.0" encoding="utf-8"?>
<!-- Generator: Adobe Illustrator 28.4.1, SVG Export Plug-In . SVG Version: 6.00 Build 0)  -->
<svg version="1.1" id="a" xmlns="http://www.w3.org/2000/svg" xmlns:xlink="http://www.w3.org/1999/xlink" x="0px" y="0px"
	 viewBox="0 0 828 921.2" style="enable-background:new 0 0 828 921.2;" xml:space="preserve">
<style type="text/css">
	.st0{fill:#EF242F;stroke:#000000;stroke-width:4;stroke-miterlimit:10;}
	.st1{fill:#FFD400;stroke:#000000;stroke-width:5;stroke-miterlimit:10;}
	.st2{fill:none;stroke:#000000;stroke-width:5;stroke-miterlimit:10;}
	.st3{fill:#34A328;stroke:#000000;stroke-width:5;stroke-miterlimit:10;}
	.st4{fill:#FF3B3B;stroke:#000000;stroke-width:5;stroke-miterlimit:10;}
	.st5{fill:#FFF039;}
	.st6{fill:#FFFFFF;filter:url(#Adobe_OpacityMaskFilter);}
	.st7{mask:url(#mask0_00000054236959440068693890000016436831439499054238_);}
	.st8{fill:#FFFFFF;}
	
		.st9{fill:#FFFFFF;filter:url(#Adobe_OpacityMaskFilter_00000159449900529742459780000014798847265215251850_);stroke:#FFFFFF;stroke-width:0.677;}
	.st10{mask:url(#mask1_00000113311548518973946810000013427162346677460366_);}
	.st11{fill-rule:evenodd;clip-rule:evenodd;fill:#FFFFFF;}
	.st12{fill:#01C1AE;}
	.st13{fill:#FE9D51;}
	.st14{fill:#FE9A54;}
	.st15{fill:#F5C785;stroke:#000000;stroke-width:4;stroke-miterlimit:10;}
	.st16{fill:#DE3C31;}
	.st17{fill:#F5C941;}
	.st18{fill:#B2272C;stroke:#000000;stroke-width:5;stroke-miterlimit:10;}
	.st19{fill:#EABE42;}
</style>
<g>
	<path class="st0" d="M314.6,438.8c-7.1,12.1-2.3,21.2-9.2,24.7c-10.5,5.4-33.6-9.5-45.7-30.9c-0.4-0.7-0.6-1.1-0.8-1.5
		c-24.7-45.6-15.9-91.3-7.8-133.4c3.1-16.2,6.7-28.1,16.9-34.6c12.9-8.2,29-2.9,43.8,1.4c82.6,23.9,105.3,9.5,136.9,38.8
		c6.6,6.1,24.8,23,19.8,36c-3.5,9-17.3,13.7-33.9,13.4c0,0-13.2,4.6-25.4,9.9c-14.8,6.5-22.1,31.8-45.9,50.1
		C341.6,429.4,324.7,421.6,314.6,438.8z"/>
	<g>
		<path class="st1" d="M289.9,892c14.1-69,28.2-137.9,42.3-206.9c41-24.7,82-49.3,123-74c3.2,20,6.6,49.7,4.9,86
			c-0.8,17.7-1.3,26.5-3.4,35.6c-5.6,23.4-19.8,46.9-86.9,100.7C350.2,849,323.4,869.5,289.9,892z"/>
		<path class="st1" d="M56.1,646.1c18.2-22.3,32.4-41,42-54c25.6-34.6,36-51.7,60-77c16.9-17.8,25.4-26.8,37-33
			c37.2-20.1,80-7.5,100,0c-25.3,34.7-50.7,69.3-76,104C164.8,606.1,110.5,626.1,56.1,646.1z"/>
		<path class="st1" d="M219.1,586.1c10.1-20.4,23.6-45.4,41-73c30.5-48.2,59-82.2,71-96c18.4-21.2,63.3-70.6,133-121
			c35.1-25.3,74.8-53.7,134-78c53.9-22.1,101.3-31.6,129-37c30.6-6,56.7-9.2,76-11c-3.4,23.4-10,56.8-24,95
			c-28.5,77.5-70.2,126.7-118,182c-18.9,21.9-72.3,81.8-156,146c-64.7,49.7-124.8,84.4-171,108c-13.9-2.7-38.8-9.6-63-29
			C232.3,641.1,221.9,599.3,219.1,586.1z"/>
		<g>
			<path d="M426.2,498.3c1.8-1.5,1.9-3.1,0.5-4.9l-1.4-1.7c-1.5-1.8-3.1-1.9-4.9-0.5l-5.1,4.2c-3.4,2.8-7.3,4-11.6,3.6l-4.7-0.4
				c-3.9-0.3-7.1-2.1-9.8-5.3l-5.5-6.6c-2.9-3.5-4.2-7.1-3.7-10.6c0.4-3.6,2.4-6.8,5.9-9.7l23-19.1c1.8-1.5,3.4-1.3,4.9,0.5l7,8.4
				c1.5,1.8,1.3,3.4-0.5,4.9l-15.1,12.5c-1.8,1.5-1.9,3.1-0.5,4.9l0.8,1c1.5,1.8,3.1,1.9,4.9,0.5l4.3-3.5c3.2-2.6,6.4-4,9.6-4.1
				l2.6-0.1c3.4-0.1,6.5,1.5,9.2,4.9l8.9,10.7c2.7,3.3,3.6,6.9,2.7,10.9c-0.9,3.9-3.1,7.3-6.5,10.1l-22,18.2
				c-0.9,0.8-1.7,0.7-2.5-0.2l-9.1-11c-0.8-0.9-0.7-1.7,0.2-2.5L426.2,498.3z"/>
			<path d="M440.5,422.7c-1.5-1.8-1.3-3.4,0.5-4.9l9.4-7.7c1.7-1.4,3.4-1.3,4.8,0.4l33,37.7c0.1,0.1,0.2,0.3,0.3,0.4
				c2.6,3.1,3.9,6.9,3.9,11.2l0,0.6c0,4.4-1.7,8-5.1,10.8l-14.3,11.8c-3.5,2.9-7.5,4.4-11.8,4.5l-0.8,0c-4.2,0.1-7.7-1.6-10.4-4.9
				c-0.1-0.1-0.2-0.3-0.3-0.4l-34.8-44.4c-0.7-0.9-0.6-1.7,0.3-2.4l9-7.4c0.9-0.7,1.7-0.7,2.4,0.2l32.7,36.8
				c1.2,1.4,2.5,1.5,3.7,0.5c0.3-0.2,0.5-0.5,0.8-0.8l3.8-4.7c1.2-1.5,1.2-2.9,0-4.3L440.5,422.7z"/>
			<path d="M500.1,425.2l13.5,20.4c1.1,1.6,0.9,3-0.6,4.3l-6.6,5.4c-1.6,1.3-3,1.2-4.3-0.4l0,0L462,405.3c-1.3-1.6-1.1-3,0.4-4.3
				l7.6-6.3c0.4-0.4,1-0.5,1.5-0.4l25.3,5.2l-14.1-27.7c-0.8-1.6-0.5-3,0.8-4.1l5.8-4.8c1.5-1.3,2.8-1.2,4,0.1
				c0.1,0.1,0.2,0.3,0.3,0.4l42.5,62.3c1.1,1.6,0.9,3-0.6,4.2l-6.1,5c-0.5,0.4-1.1,0.5-1.7,0.3L500.1,425.2z"/>
			<path d="M547.2,420.1c-0.9,0.8-1.7,0.7-2.5-0.2l-40.6-49c-1.5-1.8-1.3-3.4,0.4-4.9l10.8-9.4c0,0,0.1-0.1,0.1-0.1
				c1.7-1.4,3.2-1.3,4.5,0.3c0.1,0.1,0.1,0.2,0.2,0.3l13.7,18.6l-4.4-37.7c-0.1-0.6,0.1-1.1,0.6-1.5l9.7-8c1-0.8,1.8-0.7,2.5,0.1
				c0.2,0.3,0.4,0.6,0.4,1l7.2,40.2l34,17.5c0.9,0.5,1.5,0.9,1.9,1.4c0.9,1.1,0.6,2.4-1,3.7l-10,8.3c-1.4,1.2-2.9,1.5-4.4,0.8
				l-29.8-13l15.6,22.3c0.6,0.9,0.5,1.7-0.3,2.4L547.2,420.1z"/>
			<path d="M614.9,350.2l5.5,6.8c1.3,1.6,1.1,3-0.4,4.3l-25.3,20.9c-2.4,2-4.7,1.8-6.7-0.6l-38.4-45.8c-1.9-2.2-1.7-4.2,0.6-6.1
				l25.1-21c2-1.7,3.8-1.5,5.5,0.5l0,0l8.6,10.5c1.6,2,1.5,3.9-0.5,5.5l-15.1,12.5c-0.9,0.7-1,1.6-0.2,2.5l3.6,4.3
				c0.7,0.8,1.5,0.9,2.3,0.4l15.9-10.2c0.9-0.6,1.6-0.5,2.2,0.3l0,0l3.8,4.8c1.3,1.6,1.1,3-0.4,4.3l-12.7,10.4
				c-1.6,1.3-1.7,2.7-0.4,4.3l3.5,4.2c0.8,0.9,1.6,1,2.5,0.2l16.4-13.4C612.1,348.5,613.5,348.6,614.9,350.2L614.9,350.2z"/>
		</g>
		<path class="st2" d="M232.2,561c14.7,19.7,35.2,43.5,62.7,67c28.2,24.1,55.4,41,77.6,52.6"/>
		<path class="st2" d="M616.4,211c3.9,17,13.9,49.4,40.5,81c29.7,35.2,64.3,50.6,80.8,56.7"/>
		<path class="st3" d="M238.1,634.4c10.6-9.8,21.2-19.7,31.9-29.5"/>
		<path class="st3" d="M299.3,631.7c-10.5,12.6-20.9,25.1-31.4,37.7"/>
		<path class="st3" d="M333,657.7c-8.3,12-16.5,23.9-24.8,35.9"/>
		<path class="st4" d="M197.4,629.4c-30.4,5.3-56.8,12.5-57.2,21.9c-0.2,4.8,6.5,6.1,7.1,11.3c2,18.5-78.2,35.4-76.9,54.4
			c0.6,9.4,20.6,9.5,23.3,21.2c5,22-59.6,48.1-55.1,62.8c2.5,8.1,33-2.2,38.8,7.8c9.2,16-53.5,65.7-48.7,72
			c5.6,7.4,94.9-57.3,107.3-43.8c6.6,7.2-12.3,32.4-8.5,35.3c8,6,90.1-101.8,106.6-91.8c8.7,5.3-5.3,40.1-1.4,41.6
			c3.3,1.3,17.1-21.8,57.9-111.5"/>
		<path class="st5" d="M211.8,641.9c-17.1,4.7-34.2,12.9-41.2,28.5c-3.1,7-1.4,9.1-4.9,15.5c-11.4,20.9-41.3,18.6-42.4,28.9
			c-0.7,7,13.1,8.6,15.5,18.4c5.1,20.7-48.7,49.6-45.2,55.8c2.1,3.7,22-6.3,26.1-0.7c5.1,6.8-18.1,30.6-15.5,33.2
			c3.5,3.5,47.4-38.6,55.8-31.8c3.2,2.6-1.2,10.2,1.4,12c8.7,6,69.4-71.8,79.8-64.9c2.5,1.6,0.7,6.9,2.8,7.8
			c4.8,1.9,19.3-22.9,31.8-46.1"/>
		<g>
			<defs>
				<filter id="Adobe_OpacityMaskFilter" filterUnits="userSpaceOnUse" x="665.6" y="195.5" width="100.6" height="100.7">
					<feColorMatrix  type="matrix" values="1 0 0 0 0  0 1 0 0 0  0 0 1 0 0  0 0 0 1 0"/>
				</filter>
			</defs>
			
				<mask maskUnits="userSpaceOnUse" x="665.6" y="195.5" width="100.6" height="100.7" id="mask0_00000054236959440068693890000016436831439499054238_">
				
					<ellipse transform="matrix(0.7554 -0.6552 0.6552 0.7554 15.0638 529.8851)" class="st6" cx="717.4" cy="244.8" rx="38.9" ry="39.1"/>
			</mask>
			<g class="st7">
				<g>
					
						<rect x="729.4" y="220.7" transform="matrix(0.7554 -0.6552 0.6552 0.7554 36.6313 540.9851)" class="st8" width="27.1" height="1.4"/>
				</g>
				<g>
					
						<rect x="726.8" y="217.7" transform="matrix(0.7554 -0.6552 0.6552 0.7554 37.9809 538.5093)" class="st8" width="27.1" height="1.4"/>
				</g>
				<g>
					
						<rect x="732.9" y="224.7" transform="matrix(0.7554 -0.6552 0.6552 0.7554 34.8595 544.2355)" class="st8" width="27.1" height="1.4"/>
				</g>
				<g>
					<polygon class="st8" points="730.8,220.3 737.4,202.9 738.7,203.3 733.1,218.2 745.1,207.8 746,208.8 731.9,221 					"/>
				</g>
				<g>
					<polygon class="st8" points="743.6,234.2 743,233 757.1,220.8 758,221.8 745.9,232.3 761.4,228.8 761.7,230.1 					"/>
				</g>
				<g>
					
						<rect x="675.3" y="269.5" transform="matrix(0.7554 -0.6552 0.6552 0.7554 -8.5798 517.4538)" class="st8" width="27.1" height="1.4"/>
				</g>
				<g>
					
						<rect x="678" y="272.6" transform="matrix(0.7554 -0.6552 0.6552 0.7554 -9.9294 519.9296)" class="st8" width="27.1" height="1.4"/>
				</g>
				<g>
					
						<rect x="671.8" y="265.5" transform="matrix(0.7554 -0.6552 0.6552 0.7554 -6.808 514.2034)" class="st8" width="27.1" height="1.4"/>
				</g>
				<g>
					<polygon class="st8" points="686.7,284.3 685.8,283.3 699.9,271 701,271.8 694.4,289.2 693.1,288.7 698.7,273.8 					"/>
				</g>
				<g>
					<polygon class="st8" points="674.6,270.8 673.7,269.7 685.8,259.3 670.2,262.8 669.9,261.4 688.1,257.3 688.7,258.5 					"/>
				</g>
				<g>
					
						<rect x="690.8" y="205.1" transform="matrix(0.7554 -0.6552 0.6552 0.7554 25.8301 506.546)" class="st8" width="1.4" height="27.2"/>
				</g>
				<g>
					
						<rect x="687.8" y="207.7" transform="matrix(0.7554 -0.6552 0.6552 0.7554 23.3618 505.2005)" class="st8" width="1.4" height="27.2"/>
				</g>
				<g>
					
						<rect x="694.8" y="201.6" transform="matrix(0.7554 -0.6552 0.6552 0.7554 29.0695 508.3119)" class="st8" width="1.4" height="27.2"/>
				</g>
				<g>
					<polygon class="st8" points="672.4,223.8 672.9,222.5 687.8,228.2 677.3,216.1 678.3,215.2 690.6,229.4 689.9,230.5 					"/>
				</g>
				<g>
					<polygon class="st8" points="703.6,220.4 691.4,206.3 692.4,205.4 702.9,217.5 699.4,201.9 700.7,201.6 704.8,219.8 					"/>
				</g>
				<g>
					
						<rect x="739.7" y="259.4" transform="matrix(0.7554 -0.6552 0.6552 0.7554 2.2214 551.8928)" class="st8" width="1.4" height="27.2"/>
				</g>
				<g>
					
						<rect x="742.8" y="256.7" transform="matrix(0.7554 -0.6552 0.6552 0.7554 4.6896 553.2383)" class="st8" width="1.4" height="27.2"/>
				</g>
				<g>
					
						<rect x="735.7" y="262.8" transform="matrix(0.7554 -0.6552 0.6552 0.7554 -1.0191 550.1264)" class="st8" width="1.4" height="27.2"/>
				</g>
				<g>
					<polygon class="st8" points="753,275.7 740.7,261.6 741.4,260.5 758.9,267.2 758.4,268.4 743.5,262.7 754,274.8 					"/>
				</g>
				<g>
					<polygon class="st8" points="731.8,291.9 727.7,273.7 728.9,273.1 741.2,287.3 740.1,288.2 729.6,276.1 733.2,291.6 					"/>
				</g>
				<g>
					<polygon class="st8" points="665.9,243.6 666,242.2 693.1,244.2 693,245.5 					"/>
				</g>
				<g>
					<polygon class="st8" points="665.6,247.6 665.7,246.2 692.8,248.2 692.7,249.6 					"/>
				</g>
				<g>
					<polygon class="st8" points="666.3,238.3 666.4,236.9 693.5,238.9 693.4,240.3 					"/>
				</g>
				<g>
					<polygon class="st8" points="670.3,261.8 669.8,260.5 684.3,254 668.4,252.9 668.4,251.5 687.1,252.9 687.3,254.2 					"/>
				</g>
				<g>
					<polygon class="st8" points="669.5,233.8 669.6,232.4 685.5,233.6 672.1,225.1 672.8,223.9 688.6,233.9 688.2,235.1 					"/>
				</g>
				<g>
					<polygon class="st8" points="738.8,247.5 738.9,246.1 766,248.1 765.9,249.4 					"/>
				</g>
				<g>
					<polygon class="st8" points="739.1,243.4 739.2,242.1 766.3,244.1 766.2,245.4 					"/>
				</g>
				<g>
					<polygon class="st8" points="738.4,252.7 738.5,251.4 765.6,253.3 765.5,254.7 					"/>
				</g>
				<g>
					<polygon class="st8" points="744.7,239.6 744.5,238.3 761.5,230.7 762.1,231.9 747.5,238.4 763.5,239.6 763.4,241 					"/>
				</g>
				<g>
					<polygon class="st8" points="743.5,257.4 743.9,256.1 762.6,257.5 762.5,258.8 746.6,257.7 760,266.2 759.3,267.3 					"/>
				</g>
				<g>
					<polygon class="st8" points="712.5,295.8 714.4,268.7 715.7,268.8 713.9,295.9 					"/>
				</g>
				<g>
					<polygon class="st8" points="716.5,296.1 718.4,269 719.8,269.1 717.9,296.2 					"/>
				</g>
				<g>
					<polygon class="st8" points="707.2,295.4 709.1,268.3 710.5,268.4 708.6,295.5 					"/>
				</g>
				<g>
					<polygon class="st8" points="721.5,293.8 722.8,275.1 724.1,274.9 731.8,291.9 730.5,292.5 724,277.9 722.9,293.9 					"/>
				</g>
				<g>
					<polygon class="st8" points="694.4,289.2 704.4,273.4 705.6,273.8 704.3,292.5 703,292.4 704.1,276.5 695.6,289.9 					"/>
				</g>
				<g>
					<polygon class="st8" points="716.2,222.9 718,195.8 719.4,195.9 717.5,223 					"/>
				</g>
				<g>
					<polygon class="st8" points="712.1,222.6 714,195.5 715.4,195.6 713.5,222.7 					"/>
				</g>
				<g>
					<polygon class="st8" points="721.4,223.3 723.3,196.1 724.7,196.2 722.8,223.4 					"/>
				</g>
				<g>
					<polygon class="st8" points="708.2,218.5 700.5,201.5 701.8,200.9 708.3,215.5 709.4,199.5 710.8,199.6 709.5,218.3 					"/>
				</g>
				<g>
					<polygon class="st8" points="725.8,219 727.1,200.3 728.5,200.4 727.4,216.3 735.9,202.9 737,203.6 727.1,219.4 					"/>
				</g>
			</g>
			<defs>
				
					<filter id="Adobe_OpacityMaskFilter_00000075150954937819840760000011083161537816048541_" filterUnits="userSpaceOnUse" x="697.2" y="227.7" width="50.5" height="51">
					<feColorMatrix  type="matrix" values="1 0 0 0 0  0 1 0 0 0  0 0 1 0 0  0 0 0 1 0"/>
				</filter>
			</defs>
			
				<mask maskUnits="userSpaceOnUse" x="697.2" y="227.7" width="50.5" height="51" id="mask1_00000113311548518973946810000013427162346677460366_">
				
					<ellipse transform="matrix(0.7554 -0.6552 0.6552 0.7554 14.945 529.9227)" style="fill:#FFFFFF;filter:url(#Adobe_OpacityMaskFilter_00000075150954937819840760000011083161537816048541_);stroke:#FFFFFF;stroke-width:0.677;" cx="717.3" cy="244.9" rx="26.6" ry="26.7"/>
			</mask>
			<g class="st10">
				<g>
					<path class="st11" d="M739.1,227.7l-23.7,15.9l2.3,2.7l-20.6,16l20.3,16.4l30.1-19.9l0.1-15.1L739.1,227.7z"/>
				</g>
			</g>
			<g>
				<path class="st12" d="M703.7,223.8c-3.3,3.7-5.1,9.5-1.4,12.8c12.5,11.3,19.1,2.5,21.6,0.1c-6.7,7.4-4.5,15.4,4.9,23.9
					c2.8,2.5,9.3-1.1,11.6-3.6c2.8-3.1-4-12-14.4-21.4C715.6,226.2,707.8,219.2,703.7,223.8z"/>
				<path class="st12" d="M700.9,236.7c-1.5-1.7-2.1-4-1.6-6.6c0.4-2.4,1.7-5,3.6-7.1c3.4-3.8,8.5-0.6,10.2,0.4
					c3.8,2.4,8.4,6.5,13.6,11.3c7.2,6.5,18.8,18.2,14.5,22.9c-2.3,2.6-9.6,6.9-13.1,3.7c-7.7-7-10.6-13.5-8.6-19.6
					c-3.9,2.2-9.9,3-18-4.4C701.3,237.2,701.1,237,700.9,236.7z M734.2,245.3c-2.2-2.6-5.2-5.6-8.9-9c-5.2-4.7-9.7-8.7-13.3-11
					c-4.6-2.9-6.4-2-7.4-0.8c0,0,0,0,0,0c-1.6,1.8-2.7,4-3.1,6c-0.3,1.5-0.2,3.7,1.6,5.3c10.8,9.8,16.7,3.7,19.5,0.7
					c0.2-0.2,0.4-0.5,0.6-0.7c0.4-0.4,1.1-0.4,1.5,0c0.4,0.4,0.4,1.1,0.1,1.5c-6,6.7-4.4,14,4.9,22.4c2.1,1.9,7.9-1.2,10.1-3.5
					C740.8,255,739.3,251.2,734.2,245.3z"/>
			</g>
			<g>
				<path class="st8" d="M704.7,256.1c4.2,4.1,10.6,4.3,14.4,0.5l-15.2-14.9C700.1,245.6,700.5,252,704.7,256.1z"/>
				<path class="st13" d="M703.6,255.8c-3.7-4.3-3.8-10.5-0.1-14.3c0.1-0.1,0.2-0.1,0.3-0.1c0.1,0,0.3,0,0.3,0.1l15.2,14.9
					c0.2,0.2,0.2,0.5,0,0.7c-1.9,1.9-4.5,3-7.4,2.9c-2.8-0.1-5.6-1.3-7.7-3.4C704.1,256.3,703.9,256,703.6,255.8z M703.9,242.5
					c-3.2,3.7-2.7,9.5,1.1,13.3l0,0c1.9,1.9,4.4,3,7,3.1c2.4,0.1,4.6-0.7,6.3-2.2L703.9,242.5z"/>
			</g>
			<g>
				<path class="st14" d="M714.3,259.1l-3.8-4.4c-0.1-0.2-0.1-0.4,0-0.6c0.2-0.1,0.4-0.1,0.6,0l3.8,4.4c0.1,0.2,0.1,0.4,0,0.6
					S714.4,259.3,714.3,259.1z"/>
			</g>
			<g>
				<path d="M721.9,249c-1.7-4.5,0.6-8.9,1.9-10.5c2.1-1.8,4.4,0.3,9.5,6.1c5,5.8,7.6,9.7,6.3,11.3c-2.4,2.6-7.2,5.1-9,4.3
					C728.7,259.6,724,254.7,721.9,249z"/>
				<path d="M726.7,257.1c-1.8-2.1-3.7-5-4.9-8.1c-1.7-4.5,0.5-8.9,1.9-10.6c2.2-1.9,4.8,0.5,9.6,6.1c5.7,6.5,7.6,9.9,6.3,11.5
					c-2.4,2.6-7.3,5.2-9.2,4.4C729.6,260.1,728.2,258.9,726.7,257.1z M722,249c2.1,5.6,6.8,10.5,8.6,11.3c1.8,0.7,6.6-1.8,8.9-4.3
					c1.1-1.4-0.8-4.9-6.3-11.2c-2.5-2.9-4.3-4.9-5.8-5.9c-1.5-1-2.5-1.1-3.5-0.2C722.5,240.2,720.3,244.5,722,249L722,249z"/>
			</g>
			<g>
				<path d="M711.4,240.5c4.2,1.2,8.9-0.4,11.1-3.8c1.3-1.9-1.5-4.3-6.6-8.6c-4.6-3.9-9.5-5.6-10.9-3.7c-2.6,2.6-3.7,7.3-3.1,9.1
					C702.4,235.1,706.1,239,711.4,240.5z"/>
				<path d="M703,235.4c-0.7-0.8-1.1-1.4-1.3-2c-0.6-1.8,0.5-6.5,3.1-9.2c0.3-0.4,0.8-0.7,1.5-0.8c2.2-0.3,6.1,1.5,9.5,4.5
					c5.1,4.3,8,6.7,6.6,8.7c-2.2,3.4-6.9,5.1-11.2,3.9l0-0.1l0,0.1C707.6,239.5,704.6,237.2,703,235.4z M721.4,233.3
					c-1.2-1.4-3.1-3-5.7-5.1c-3.4-2.9-7.2-4.7-9.4-4.4c-0.6,0.1-1.1,0.3-1.4,0.7c-2.6,2.5-3.7,7.2-3.1,9c0.6,1.7,4.3,5.6,9.5,7
					c4.2,1.2,8.8-0.4,11-3.8C723,235.7,722.6,234.6,721.4,233.3z"/>
			</g>
			<g>
				<path class="st8" d="M749,249.5L746,255l2.3,6l-5.6-3.1l-6,2.2l3.1-5.6l-2.3-6l5.6,3.1L749,249.5z"/>
			</g>
		</g>
	</g>
	<path class="st0" d="M274.4,407.1c7.1-3.4,17.7-7.6,31.1-9.9c17.3-3,31.8-5.6,43.1,1.4c16.9,10.5,17.9,37.5,19.1,69.9
		c0.7,18.7-0.8,33.9-2.1,43.8c9.2,5.3,44.6,26.9,48.7,63.5c0.2,1.7,3.1,30.5-9.9,36.7c-11.7,5.6-29.6-10.3-40.2-19.8
		c-12.5-11.2-30.8-31.3-43.8-64.9c2.5-12.3,5.1-30.6,4.2-52.9c-0.1-2.1-1.7-35.3-8.5-36c-2.5-0.3-3.9,4.2-12.4,13.4
		c-3.9,4.3-7.5,7.5-10.2,9.9"/>
	<path class="st0" d="M265.2,296.2c16.6,53.4,42,79.9,62.8,94.2c28.1,19.4,78,37.4,77.6,62.5c-0.1,5.1-2.3,20.1,3.1,22.6
		c1,0.5,2.9,0.7,4.5,0c2.4-1.1,2.9-4,4-7.5c1.9-6.5,3.6-12.1,5.4-12.2c2.4-0.2,5,8.7,13.4,28.2c2.8,6.5,5.9,13.3,10.6,13.6
		c0.3,0,2,0.1,3.5-0.9c3.4-2.4,2.6-8.7,2.1-12.7c-2-17.5-3-26.3-0.6-27.6c4.2-2.3,21.3,13.3,24.6,16.3c1.2,1.1,4.7,4.3,8.9,4
		c0.7-0.1,3.2-0.2,4.5-1.9c2.6-3.4-1.9-10.8-5.6-16.9c-6.4-10.3-14-18.2-15.5-19.8c-6.1-6.2-9-8-8.5-9.2c1.2-2.5,17.8-0.1,32.5,5.6
		c4.6,1.8,11.5,4.9,16.2,1.9c0.6-0.4,2.2-1.4,2.8-3.3c1.8-5.5-6.7-14.4-15.5-19.1c-7.2-3.8-9.9-2.2-26.1-7.8
		c-9.2-3.1-10.4-4.3-10.6-5.6c-0.9-5.2,14.6-7.6,21.2-21.2c2.2-4.6,4.8-13.3,1.4-16.2c-4.7-4.1-17,6.6-47.3,17.6
		c-13,4.7-16.7,5-19.1,4.9c-13.4-0.1-23.8-8-34.6-17.6c-12.3-11-29.3-27.9-47.3-52.2"/>
	<g>
		<g>
			<path class="st0" d="M262.2,268.8c9.7,17.1,27.6,23.1,60.8,34.1c7.2,2.4,73.8,23.8,138.9,6.5c15.9-4.2,28.1-9.8,44.9-17.5
				c19.5-8.9,23.6-12.9,26.8-17.3c9.2-12.5,7.1-29.7,3.1-36.2c-5.5-9.2-11.4-20.7-12.7-24.4c0,0,8.4,0.6,15-4.9
				c6.7-5.6,1.1-6.3,9.6-7.3c14.2-1.6,12.3-7,14.5-12.9c2.2-5.8,4.4-19.9-1.2-24.9c-1.5-1.4-2.7-3.2-2.7-3.2
				c-2.2-2.4-2.5-2.4-3.6-3.7c-1.7-2.2-1.2-2.8-2.9-5.3c-0.9-1.4-1.5-1.7-2.5-2.6c-0.7-0.7-1.1-1.2-1.3-1.5
				c-4.9-6.4-12.8-10.2-12.8-10.2c-1.8-0.8-4.4-1.9-7.8-2.6c-1-2.9-10.3-30.1-28.9-40.7c-3-1.7-8.8-4.8-17.1-5.7
				c-4-0.4-8.6,0.1-15.3,1.9c-15.5,4.2-29.5,13.7-29.5,13.7S427.4,86.7,408,78.7c-19.5-8-39.3,3.8-50.9,10.9
				c-17.3,10.4-28.4,23.8-33.2,30.1c-3.7,4.8-6.4,9.2-8.3,12.4c-0.8,0-1.9-0.1-3.2-0.1c-13.5-0.3-23.7,3.1-26.6,4.1
				c-10.1,3.6-16.4,5.8-20.1,11.7c-6.8,10.6,0.5,24.1,1.6,26c0,0,0.6-0.3,0.9-0.1c1,0.6-2,6.2-2.4,6.9
				C262.4,186.6,244.8,238.2,262.2,268.8z"/>
		</g>
		<g>
			<path d="M535.4,240.2c-0.5-0.1-0.9-0.3-1.1-0.8c-3.5-5.5-8.4-15.2-11.6-24.6c-0.3-0.8,0.2-1.7,1.1-2c0.9-0.3,1.9,0.2,2.2,1.1
				c3.1,9.1,7.9,18.6,11.3,23.9c0.5,0.8,0.2,1.7-0.6,2.2C536.2,240.2,535.8,240.3,535.4,240.2z"/>
		</g>
		<g>
			<g>
				<path class="st15" d="M350.5,128.1l-7.7,66.5c0,0-20.9,17-20.5,44.3c0.3,27.3,11,35.7,23.5,39.9c12.4,4.2,130.6,28.5,145,22.3
					c14.4-6.2,9.8-6.6,9.8-6.6s45.3-24,34.9-55l-20.9-20.9l1.3-4.2c0,0,18,4,27.8-11.4c2.6,0.1,11.1,0.3,16.1-5
					c1.6-1.7,2.3-3.6,3.6-7.4c2.2-6.4,4.8-14,1.6-21.9c-1.1-2.7-2.4-4.4-4.5-7.2c-4.4-5.7-6.8-6-11.5-11.8c-0.7-0.9-2.7-3.3-5.8-6.4
					c-0.5-0.5-0.9-0.9-1.4-1.4c-2.8-2.6-7.5-5.2-17.8-7.5c-22.2-4.8-50.2-11.2-73.2-5.5C450.5,129,396.3,92.9,350.5,128.1z"/>
			</g>
			<g>
				<path class="st8" d="M467.9,172.2c0,0,23.2-15.2,50.8-11.1c27.6,4.1,47.7,16.4,48.9,21c1.2,4.6-3.7,6.3-9.5,9
					c-5.8,2.7-48.2,11.8-92.7-3.3l-2-2.2c0,0-14,9.1-47.1,1.5c-33.2-7.6-44.3-17.8-44.3-17.8s12.7-22.4,47.1-17
					c34.5,5.4,39.1,7,43.2,9.5C466.5,164.4,467.9,172.2,467.9,172.2z"/>
			</g>
			<g>
				<path class="st16" d="M512.4,258.8c0,0-21.1,4.8-54.7-2.4c-33.6-7.1-40,0-56.7-18.1c-16.7-18.2-25.6-27.7-38-19.8
					c-3.3,2.1-5.5,4.6-6.9,7.4c-3.6,7.6,1.8,19.4,8.1,27.6c13,16.5,33.3,22.4,73.3,33.6c15.3,4.3,22.7,5.5,26.6,6.1
					c17.8,2.7,36.9,5.2,52.7-4.1c4.2-2.5,6.4-5.5,10.1-8.2c10.2-7.7,15.5-16.3,14-23.4c-1.5-7.1,1.4-17.3-3-18
					C533.8,238.8,519.4,244.8,512.4,258.8z"/>
			</g>
			<g>
				<path d="M466.9,294.5c-2.4-0.5-4.7-0.9-7-1.4c-1.6-0.3-3.2-0.7-4.7-1c-2.2-0.4-4.4-0.9-6.7-1.3c-25.1-4.9-53.5-10.5-74.3-24.7
					c-5-3.4-10.5-9.8-14.8-17.2c-6.3-10.9-6.9-18.1-6.7-21.5c0.3-4.2,2.5-7.5,6.5-9.7c6.6-3.6,16.8-3.1,22.4-0.5
					c6.8,3.1,10.8,8.4,14.6,13.6c3,4.1,5.8,7.9,10,10.7c11.9,8.1,28.7,10.4,43.5,12.5c1.3,0.2,2.6,0.4,3.9,0.6
					c22,3.2,29.6,3.7,31.9,3.8c8.1,0.3,16.3,0,24.4-0.8c5.5-7.8,11.9-13.6,18.5-16.7c3.7-1.7,8.9-3.7,12.1-1.4
					c1,0.7,1.6,1.6,2.1,2.9c1.4,4.1,0.9,7.4-0.5,10.2c0.3,0.2,0.5,0.5,0.7,1c1.2,2.8,0.1,15.8-11.1,25c-12.7,10.5-22,16.1-37.8,18
					C485,297.5,475.7,296.2,466.9,294.5z M376.1,218.9c-4.8-0.9-11.1-0.6-15.2,1.6c-3,1.6-4.6,4-4.8,7.1c-0.4,5.1,1.9,12.3,6.3,19.8
					c4,6.9,9.3,13.1,13.8,16.1c20.3,13.8,48.3,19.3,73,24.1c2.3,0.4,4.5,0.9,6.7,1.3c1.6,0.3,3.1,0.6,4.8,1
					c10.9,2.3,22.2,4.6,32.7,3.4c14.9-1.7,23.8-7.1,36-17.2c8.5-7,10.3-16.2,10.3-20c-0.7,0.9-1.5,1.8-2.3,2.6
					c-9,9.7-26.7,17.5-38.1,19.1c-15.6,2.2-30,2.1-44.2-0.3c-13.3-2.3-26.6-6.5-41.9-13.4c-14.1-6.4-31.1-15.2-37.5-26.7
					c-0.4-0.8-0.1-1.7,0.7-2.2c0.8-0.4,1.9-0.1,2.3,0.7c5.9,10.7,22.3,19.1,35.9,25.2c15,6.8,28,11,41,13.2
					c13.8,2.3,27.8,2.4,43,0.3c10.7-1.5,27.8-9.1,36-18c4.4-4.8,6.3-8.1,4.4-13.5c-0.2-0.6-0.5-1-0.9-1.3c-0.7-0.5-2.7-0.9-8.4,1.8
					c-6.2,2.9-12.3,8.5-17.6,16.2c-0.3,0.4-0.7,0.7-1.3,0.7c-8.5,0.9-17.2,1.2-25.7,0.9c-4.9-0.2-16.7-1.5-32.3-3.8
					c-1.3-0.2-2.6-0.4-3.9-0.6c-15.2-2.2-32.5-4.6-45-13.1c-4.6-3.1-7.8-7.4-10.8-11.5c-3.7-5.1-7.3-9.8-13.3-12.5
					C378.9,219.6,377.6,219.2,376.1,218.9z M540.9,255.4C540.9,255.4,540.8,255.4,540.9,255.4C540.8,255.4,540.9,255.4,540.9,255.4z
					"/>
			</g>
			<g>
				<path d="M564.6,178.8c-0.8-0.2-1.4-0.8-1.4-1.6c0-0.1,0.2-6.7-3.4-13.2c-3-5.4-14.3-9.4-18-10.7l-0.2-0.1
					c-13.5-4.8-26.7-6.4-40.3-4.8c-15,1.7-25,6.9-29.8,9.4c-1,0.5-1.8,0.9-2.4,1.2c-0.9,0.4-1.9,0.1-2.3-0.7
					c-0.4-0.8-0.1-1.8,0.8-2.1c0.5-0.2,1.3-0.6,2.2-1.1c5-2.6,15.4-8,31-9.8c14.2-1.6,28,0,42,5l0.2,0.1c4.4,1.6,16.2,5.8,19.8,12.2
					c4.1,7.3,3.8,14.5,3.8,14.8c0,0.9-0.8,1.6-1.8,1.5C564.8,178.8,564.7,178.8,564.6,178.8z"/>
			</g>
			<g>
				<path d="M489.4,195.4c-8.6-1.6-17-4-24.9-7.1c-0.9-0.3-1.3-1.3-0.9-2.1c0.4-0.8,1.4-1.2,2.3-0.9c25,9.6,54.4,12.2,78.7,6.8
					c18.1-4,21.2-7.6,21.7-8.8c-0.1-0.2-0.4-1.5-3.4-4.5c-2-2-4.2-3.8-4.8-4.3c-11.3-8.1-26.6-12.2-45.4-12.1
					c-11.1,0-13.7,0.2-24.2,3.2c-10.4,2.9-18.2,8.6-18.3,8.7c-0.7,0.5-1.8,0.4-2.4-0.3c-0.6-0.7-0.5-1.7,0.3-2.2
					c0.3-0.2,8.4-6.1,19.5-9.2c10.9-3.1,13.8-3.3,25.2-3.3c19.6,0,35.6,4.3,47.5,12.8c1,0.7,3.6,2.9,5.6,5.1
					c3.3,3.4,4.5,5.6,3.8,7.3c-0.9,2.5-4.2,4.8-10,6.9c-3.8,1.4-8.6,2.8-14.2,4C528,199.1,508.3,199,489.4,195.4z M566.2,183.4
					L566.2,183.4L566.2,183.4z"/>
			</g>
			<g>
				<path d="M466.1,213.2c-0.8-0.2-1.4-0.9-1.4-1.7c0.1-0.9,0.9-1.6,1.8-1.5c2.7,0.1,6.1,0.4,10,0.8c12.7,1.1,30.2,2.6,44.8,0.8
					c14.9-1.9,19.4-6.9,20.3-8.1c0-0.3,0.2-0.6,0.4-0.9c0.7-0.7,1.6-0.7,2.1-0.5c0.7,0.3,1.1,1,1,1.7c-0.3,1.6-5.2,8.6-23.4,10.9
					c-15,1.9-32.7,0.3-45.6-0.8c-3.9-0.3-7.3-0.6-9.9-0.8C466.2,213.2,466.1,213.2,466.1,213.2z"/>
			</g>
			<g>
				<path d="M412.9,188.3c-6-1.2-12.7-2.7-19.1-4.8c-10.5-3.4-13.9-5.9-17.6-8.5c-1.8-1.3-3.6-2.6-6.4-4.1c-0.2,0-0.5,0-0.8,0
					c-1.6,0-3.9,0.1-6-0.4c-5.2-1.4-10.5-4.2-10.8-4.3c-0.8-0.4-1.1-1.4-0.6-2.2c0.5-0.8,1.5-1,2.4-0.6c0.1,0,5.2,2.7,10,4
					c1.6,0.4,3.6,0.3,5,0.3c0,0,0.1,0,0.1,0c2.1-3.6,12.6-13,29.5-16.1c16.7-3,25.3-1.2,41,2.1l2,0.4c0.7,0.1,1.5,0.3,2.2,0.5
					c7.7,1.6,18.3,3.7,21.9,7.5c4.1,4.2,4.8,11.3,2.2,20.6c-1.9,6.8-13.9,9.6-35.7,8.3C429.1,190.8,421.7,190,412.9,188.3z
					 M372.5,168.6c2.5,1.4,4.3,2.7,5.9,3.9c3.5,2.5,6.6,4.7,16.6,8c15.6,5,32.4,7,37.6,7.3c27,1.7,31.4-3.5,32.1-5.9
					c1.6-5.7,2.7-13.3-1.4-17.6c-2.9-3-13.7-5.2-20.1-6.5c-0.8-0.2-1.6-0.3-2.3-0.5l-2-0.4c-15.7-3.3-23.5-4.9-39.6-2.1
					c-9.2,1.7-15.9,5.2-19.9,7.9C375.6,165.2,373.4,167.5,372.5,168.6z M369.6,170.7C369.6,170.7,369.6,170.7,369.6,170.7
					C369.6,170.7,369.6,170.7,369.6,170.7z M371.5,167.9C371.5,167.9,371.5,167.9,371.5,167.9C371.5,167.9,371.5,167.9,371.5,167.9z
					 M371.5,167.9C371.5,167.9,371.5,167.9,371.5,167.9C371.5,167.9,371.5,167.9,371.5,167.9z M371.5,167.9
					C371.5,167.9,371.5,167.9,371.5,167.9C371.5,167.9,371.5,167.9,371.5,167.9z M371.5,167.9C371.5,167.9,371.5,167.9,371.5,167.9
					C371.5,167.9,371.5,167.9,371.5,167.9z M371.5,167.9C371.5,167.9,371.5,167.9,371.5,167.9C371.5,167.9,371.5,167.9,371.5,167.9z
					"/>
			</g>
			<g>
				<path d="M412.6,198.1c-20.7-4-36.4-9.8-40-12.5c-0.7-0.6-0.9-1.6-0.3-2.2c0.6-0.7,1.7-0.8,2.4-0.3c4.6,3.4,32.8,13,64.2,15.3
					c8.4,0.6,16.9-1.6,21.1-5.6c1.9-1.8,2.7-3.8,2.5-5.9c-0.1-0.9,0.6-1.7,1.5-1.8c0.9-0.1,1.8,0.5,1.9,1.4c0.4,3.1-0.8,6-3.4,8.5
					c-4.9,4.7-14.3,7.3-23.8,6.6C429.5,201,420.7,199.7,412.6,198.1z"/>
			</g>
			<g>
				<path d="M402.6,215.2c-0.7-0.1-1.3-0.7-1.4-1.4c-0.1-0.9,0.6-1.7,1.5-1.8c11.9-1.2,36.4-13,36.7-13.1c0.8-0.4,1.9-0.1,2.3,0.7
					c0.4,0.8,0.1,1.7-0.7,2.2c-1,0.5-25.4,12.1-37.9,13.4C403,215.3,402.8,215.3,402.6,215.2z"/>
			</g>
			<g>
				<path d="M355.2,155.2c-0.4-0.1-0.8-0.3-1-0.6c-0.6-0.7-0.4-1.7,0.4-2.2c0.8-0.5,18.6-12.6,37-17.1c18-4.5,35.8-1.5,37.2-1.2
					c1.6,0.2,22.1,2.6,31.5,10c8.9,7,11.2,13.5,7.5,20.3c-0.4,0.8-1.5,1.1-2.3,0.7c-0.9-0.4-1.2-1.4-0.8-2.1c2.1-3.8,3-8.8-6.7-16.4
					c-8.7-6.9-29.5-9.2-29.7-9.3c0,0-0.1,0-0.1,0c-0.2,0-18.1-3.2-35.7,1.2c-17.7,4.4-35.7,16.5-35.8,16.6
					C356.2,155.2,355.7,155.3,355.2,155.2z"/>
			</g>
			<g>
				<path d="M496.4,232.1c-0.6-0.1-1.2-0.6-1.3-1.2c-0.5-2-4.1-5.8-9.9-9.2c-0.8-0.5-1.1-1.5-0.5-2.2c0.5-0.7,1.6-1,2.4-0.5
					c6.1,3.6,10.6,7.9,11.5,11.2c0.2,0.9-0.3,1.7-1.3,1.9C496.9,232.2,496.6,232.2,496.4,232.1z"/>
			</g>
			<g>
				<path d="M475.3,241.7C475.3,241.7,475.3,241.7,475.3,241.7c-1-0.2-1.5-1.1-1.3-1.9c0.4-1.7-1.2-5.7-2.6-7.7
					c-0.5-0.7-0.3-1.7,0.5-2.2c0.8-0.5,1.9-0.2,2.4,0.5c0.8,1.2,1.7,3,2.3,4.6c0.8,2.3,1.1,4.1,0.7,5.4
					C477.1,241.4,476.2,241.9,475.3,241.7z"/>
			</g>
			<g>
				<path d="M452.5,240.8c-0.6-0.1-1-0.5-1.3-1c-0.9-2.1,0.4-7.8,1.5-9.5c0.5-0.7,1.6-1,2.4-0.5c0.8,0.5,1,1.5,0.5,2.2
					c-0.7,1.1-1.6,5.7-1.2,6.6c0.3,0.8-0.1,1.7-1,2.1C453.2,240.8,452.9,240.8,452.5,240.8z"/>
			</g>
			<g>
				<path d="M500,162.1c-1.1-0.1-2.6,3-2.9,3.7c-2,4.1-2.8,7.5-3.3,12c-1.4,12.7,6.1,19.1,19,18.6c3.7-0.1,8.6-0.2,11.9-2.1
					c9.8-5.9,14.5-23.1,5.2-31c-2.1-1.8-6.9-1.3-9.5-1.2c-7.2,0.1-14.4-0.9-21.2,1.5"/>
			</g>
			<g>
				<path d="M505.8,197.7c-3.8-0.7-7-2.3-9.3-4.6c-3.7-3.6-5.2-8.8-4.5-15.4c0.5-5,1.5-8.5,3.4-12.5c1.4-3,2.8-4.9,4.8-4.7
					c0.5,0,1,0.3,1.3,0.7c4.6-1.1,9.3-0.9,13.9-0.8c1.7,0,3.4,0.1,5,0.1c0.4,0,0.9,0,1.4,0c2.9-0.1,7-0.3,9.3,1.7
					c4.2,3.5,6.1,8.9,5.6,15.2c-0.7,7.6-5.1,15-11,18.5c-3.5,2.1-8.2,2.2-12,2.4l-0.8,0C510.4,198.2,508,198.1,505.8,197.7z
					 M499.5,165.2c-0.2,0.4-0.4,0.8-0.7,1.3c-1.8,3.6-2.6,6.8-3.1,11.5c-0.6,5.6,0.6,9.9,3.5,12.8c2.9,2.8,7.6,4.2,13.6,4l0.8,0
					c3.4-0.1,7.6-0.3,10.2-1.8c5-3,8.7-9.4,9.3-16c0.5-5.2-1.1-9.6-4.4-12.4c-1.2-1-4.5-0.9-6.7-0.8c-0.5,0-1.1,0-1.5,0
					c-1.7,0-3.5,0-5.2-0.1c-5.4-0.1-10.6-0.3-15.4,1.4C499.8,165.2,499.6,165.2,499.5,165.2z"/>
			</g>
			<g>
				<path class="st8" d="M503.9,164.6c-1.9-0.2-3.4,0.4-4.9,2.3c-1.9,2.5-3.1,6.9,1.3,8c3.7,0.8,8.1-3.7,7.6-7.1
					C507.3,164.8,506.1,164.9,503.9,164.6z"/>
			</g>
			<g>
				<path d="M400.6,154.3c0.1,0.2-3.4,2.5-3.7,2.8c-2.8,3.2-4.2,5.7-4.4,9.9c-0.7,15.2,7.3,16.7,21.4,18.2c5,0.5,10.8,1.5,14.9-2.1
					c7.1-6.2,7.1-15.5,3.7-23c-0.8-1.9-2.4-4.1-4.6-4.8c-5.7-1.7-11.9-2.1-17.7-2.6c-2-0.2-4.7,1.7-6.7,1.6
					C402.8,154.2,400.6,154.2,400.6,154.3z"/>
				<path d="M405.3,185.7c-3.4-0.7-6.3-1.6-8.6-3.1c-4.4-2.9-6.3-7.9-5.9-15.7c0.2-4.7,1.9-7.5,4.8-10.9c0.2-0.3,0.5-0.5,1.8-1.4
					c0.6-0.4,1.4-1,1.8-1.3c0,0,0.1-0.1,0.1-0.1c0.6-0.7,1.2-0.7,2.6-0.7c0.4,0,1.3,0,1.9,0c0.6,0,1.6-0.3,2.5-0.7
					c1.4-0.5,2.8-1,4.2-0.9c6,0.5,12.2,1,18.1,2.7c3.2,0.9,5,4,5.8,5.7c3.4,7.4,4.1,17.8-4.1,24.9c-4.4,3.8-10.5,3.2-15.3,2.6
					c-0.4,0-0.7-0.1-1-0.1C410.7,186.5,407.8,186.2,405.3,185.7z M398.3,158.2c-2.5,2.9-3.8,5-3.9,8.8c-0.6,13.7,6,15,19.8,16.5
					c0.4,0,0.7,0.1,1.1,0.1c4.5,0.5,9.2,1,12.4-1.8c6.8-5.9,6.1-14.8,3.2-21.1c-0.9-2.1-2.2-3.5-3.5-3.8c-5.5-1.6-11.5-2.1-17.3-2.5
					c-0.6,0-1.7,0.3-2.6,0.7c-1.3,0.5-2.7,1-4.1,0.9c-0.4,0-1.3,0-1.9,0c-0.1,0.1-0.3,0.2-0.4,0.3c-0.5,0.3-1,0.7-1.6,1.1
					C399.1,157.7,398.5,158.1,398.3,158.2z M398.4,158.2C398.4,158.2,398.4,158.2,398.4,158.2C398.4,158.2,398.4,158.2,398.4,158.2z
					 M398.9,154.8C398.9,154.8,398.9,154.8,398.9,154.8C398.9,154.8,398.9,154.8,398.9,154.8z M398.9,154.8
					C398.9,154.8,398.9,154.8,398.9,154.8C398.9,154.8,398.9,154.8,398.9,154.8z M398.8,154.3c0,0.2,0,0.3,0.1,0.5c0,0,0,0,0,0
					C398.9,154.7,398.8,154.5,398.8,154.3z"/>
			</g>
			<g>
				<path class="st8" d="M408.5,155.2c-4.9-2.8-12.2,3.6-7.5,7.6c5.2,4.4,14.3-3.8,8.4-7.1"/>
			</g>
			<g>
				<path d="M345,262.8c-0.3-0.1-0.7-0.2-0.9-0.5c-10.1-10.1-10.9-13.6-10.2-25.5c0.7-12.1,9-21.5,13.4-23.3c0.9-0.4,1.9,0,2.3,0.8
					c0.4,0.8,0,1.8-0.9,2.1c-2.9,1.2-10.8,9.4-11.4,20.6c-0.7,11.2,0,13.9,9.3,23.2c0.6,0.6,0.6,1.7-0.1,2.3
					C346.1,262.8,345.5,263,345,262.8z"/>
			</g>
		</g>
		<g>
			<path d="M295.1,201.4c-4.8-0.9-10.5-4.1-15.6-9c-5-4.7-9.5-12.3-11.2-15.1l-0.3-0.5c-2.9-4.7-5.5-9.4-6.7-14.2
				c-1.3-5.3-0.7-10.3,1.9-15.7c1.6-3.2,6.1-6.4,13.6-9.4c5.9-2.3,13.2-4.5,20.7-6c4.1-0.8,7.9-1.4,10.9-1.6c4.7-0.3,6,0.2,6.8,0.8
				c7.9,6.4,6.9,15.7,6,23.2c-0.1,0.9-0.9,1.5-1.9,1.4c-0.9-0.1-1.6-0.9-1.5-1.7c0.9-8.6,1.2-15.5-4.8-20.5
				c-2.1-0.8-16.3,0.9-30,5.5c-9.1,3-15.2,6.5-16.6,9.5c-4.8,10-1.3,17.2,4.7,27.1l0.3,0.5c1.6,2.7,6,10,10.7,14.5
				c7.2,6.9,14.5,9.2,18,8c0.9-0.3,1.9,0.1,2.2,0.9c0.3,0.8-0.1,1.7-1,2.1C299.5,201.8,297.4,201.9,295.1,201.4z"/>
		</g>
		<g>
			<path d="M300.9,183c-0.2,0-0.4-0.1-0.6-0.2c-0.8-0.5-1-1.5-0.5-2.2c1.4-2.1,4-7.9,5.8-13.6c2.3-7.6,2.1-11.5,1.1-12.7
				c-2.5-2.8-8.2-4.7-16.5-5.4c-0.9-0.1-1.6-0.9-1.5-1.7c0.1-0.9,0.9-1.5,1.9-1.4c9.4,0.9,15.7,3.1,18.8,6.6c2.1,2.4,2,7.6-0.4,15.5
				c-1.9,6.1-4.6,12.1-6.2,14.4C302.3,182.9,301.6,183.1,300.9,183z"/>
		</g>
		<g>
			<g>
				<g>
					<path class="st17" d="M263.4,112.8c120.8-95.5,177.2-88.7,177.2-88.7c42,5.1,75.1,39.6,141.2,108.7c2.4,2.5,8.2,9,6.1,12.7
						c-1.3,2.3-5.3,2.7-13.3,3.5c-6,0.6-10.9,0.6-14.2,0.5c-4.2-5.7-8.3-11.4-12.5-17.2c2.6,5.8,5.1,11.5,7.7,17.3
						c-37,1.9-78,2.2-122.3-0.5c-26.7-1.6-52-4.1-75.7-7.2c1-4.4,2.1-8.7,3.1-13.1c-2.4,4.2-4.8,8.5-7.1,12.7
						c-29.5-3.8-52.3-6.5-67.7-8.2c-13-1.5-28.1-3.1-29.6-9.4C255.1,119.6,260.5,115.1,263.4,112.8z"/>
				</g>
				<g>
					<path d="M269.8,132.3c-7.8-1.5-13.9-3.8-15-8.2c-1.2-4.7,3.8-9.3,7.7-12.3c27.6-21.8,54.1-40.1,78.8-54.3
						c19.8-11.4,38.4-20.2,55.5-26.1c28.2-9.9,42.6-8.8,44-8.6l0,0c42.6,5.1,75.8,39.9,142.1,109.1c6,6.2,8.1,11,6.3,14.2
						c-1.7,3-6.2,3.4-14.4,4.2c-4.8,0.5-9.6,0.6-14.4,0.5l-0.7,0l-5-6.8l3.1,6.9l-2,0.1c-40.7,2.1-81.9,1.9-122.5-0.5
						c-25.2-1.5-50.7-4-75.8-7.2l-1.5-0.2l1.1-4.8l-2.6,4.7l-1-0.1c-23.6-3-46.4-5.8-67.7-8.2l-0.4,0
						C279.9,133.9,274.5,133.2,269.8,132.3z M263.4,112.8l0.9,1c-1.9,1.5-7.7,6.1-6.8,9.7c1.3,5.3,16.1,7,28,8.3l0.4,0
						c21.1,2.4,43.5,5.1,66.8,8.1l11.7-20.8l-5,21.5c24.5,3.2,49.4,5.5,74,7c39.8,2.4,80.2,2.6,120.1,0.6l-12.3-27.7l20,27.5
						c4.4,0.1,8.9-0.1,13.3-0.5c7.3-0.7,11.2-1.2,12.1-2.8c1.1-2-1.1-6.1-5.9-11.2C514.9,64.9,481.9,30.4,440.4,25.4
						c-0.1,0-3.7-0.4-10.6,0.5c-6.5,0.8-17.4,2.8-32.4,8.1c-16.8,5.9-35.3,14.7-54.9,25.9C318,74,291.7,92.1,264.3,113.8
						L263.4,112.8z"/>
				</g>
			</g>
			<g>
				<path d="M362.6,55.6c-7.2,4.9-14.4,10-21.4,15.2c-12.6,9.3-24.6,19.3-36.1,29.8c-1.9,1.7-3.9,3.5-5.7,5.3c0,0-1.9,1.8-1.9,1.8
					C315.7,87.7,338.5,69.4,362.6,55.6L362.6,55.6z"/>
			</g>
			<g>
				<path d="M426.1,27.7c-9,5-17.8,10.4-26.1,16.3c-7.7,5.5-15,11.5-21.9,17.9c-1.5,1.4-3.3,3-4.8,4.5c-0.8,0.7-2.4,2.3-3.1,3
					c0,0-0.1-0.1-0.1-0.1c7.6-8.7,16.1-16.7,25.5-23.7c9.4-7,19.7-13,30.5-18C426.1,27.6,426.1,27.7,426.1,27.7L426.1,27.7z"/>
			</g>
			<g>
				<path d="M457.7,34.1c4.9,6.3,8.8,13.2,12.3,20.3c3.4,7.1,6.3,14.4,8,22c0,0-0.1,0-0.1,0c-2.7-7.3-5.8-14.5-9.2-21.5
					c-3.4-7.1-7.1-14-11.1-20.7L457.7,34.1L457.7,34.1z"/>
			</g>
			<g>
				<path d="M433.7,36.6c-0.8,4.2-2.3,10-3.3,14.2c-1.1,4.2-2.3,10-3.6,14.1c0,0-0.1,0-0.1,0c0.6-7.3,2-14.5,4.3-21.4
					c0.8-2.3,1.6-4.6,2.6-6.9C433.6,36.6,433.7,36.6,433.7,36.6L433.7,36.6z"/>
			</g>
			<g>
				<path d="M468.8,37.9c9,6.5,17.2,13.9,25,21.6c7.7,7.8,14.9,16,21.1,24.9c-7.1-7.8-14.4-16.4-22.2-24
					C485.2,52.7,476.5,45.2,468.8,37.9L468.8,37.9z"/>
			</g>
			<g>
				<path d="M485.3,115.7c6.1,11.4,11.2,23.2,15.3,35.4l-1.4,0.4C495.6,139.2,491,127.2,485.3,115.7
					C485.3,115.7,491,127.2,485.3,115.7z"/>
			</g>
			<g>
				<path d="M335.3,103.4c-7.3,10.8-13.5,22.2-18.4,34l-1.3-0.5C321,125.2,327.6,113.9,335.3,103.4
					C335.3,103.4,327.6,113.9,335.3,103.4z"/>
			</g>
			<g>
				<path d="M280.3,111.4c-5.5,5.7-10.1,12.1-13.7,19l-1.3-0.6C269.4,123.1,274.5,116.9,280.3,111.4
					C280.3,111.4,274.5,116.9,280.3,111.4z"/>
			</g>
			<g>
				<path d="M376.7,106.5c-3.1,12.4-5.6,24.8-7.4,37.4l-1.4-0.2C370.2,131.2,373.1,118.7,376.7,106.5
					C376.7,106.5,373.1,118.7,376.7,106.5z"/>
			</g>
			<g>
				<path d="M528,86.6c7.1,5.7,13.8,11.8,20.1,18.3c9.4,9.7,18.2,19.9,25.8,30.9c0,0,1.3,1.8,1.3,1.8l1.2,1.9
					C561.8,121.1,545.1,103,528,86.6L528,86.6z"/>
			</g>
			<g>
				<path class="st18" d="M386,51.7c-3.8,9.5-7.4,20.8-10.2,33.5c-2.3,10.7-3.6,20.5-4.3,29.3c20,3.2,42.7,5.8,67.6,6.8
					c18.6,0.7,36,0.5,52-0.3c1.5-7.4,2.7-15.6,3.6-24.3c0.8-8.3,1.2-16.2,1.3-23.4c-13.8-5.2-30.3-10.3-49.1-14.3
					C423.9,54.2,403.2,52.3,386,51.7z"/>
				<g>
					<path class="st19" d="M403,70.8l1.9,6.5c0.2,0.6-0.6,1-1.1,0.6l-5.7-4.2c-0.2-0.2-0.5-0.2-0.8,0l-6.1,3.7
						c-0.5,0.3-1.2-0.2-1-0.7l2.6-6.3c0.1-0.3,0-0.5-0.2-0.7l-5.7-4.2c-0.5-0.4-0.2-1.1,0.5-1.1l7.3,0.3c0.3,0,0.6-0.1,0.7-0.4
						l2.6-6.3c0.2-0.6,1.1-0.5,1.3,0.1l1.9,6.5c0.1,0.3,0.3,0.4,0.6,0.5l7.3,0.3c0.6,0,0.9,0.8,0.3,1.1l-6.1,3.7
						C403,70.3,402.9,70.6,403,70.8L403,70.8z"/>
					<path class="st19" d="M427.2,63.1l-2.9-0.1c-0.2,0-0.4,0.1-0.5,0.3l-1,2.5l-0.8-2.6c-0.1-0.2-0.2-0.3-0.5-0.3l-2.9-0.1l2.4-1.5
						c0.2-0.1,0.3-0.3,0.2-0.5l-0.8-2.6l2.3,1.6c0.2,0.1,0.4,0.1,0.6,0l2.4-1.5l-1,2.6c-0.1,0.2,0,0.4,0.2,0.5L427.2,63.1
						L427.2,63.1z"/>
					<path class="st19" d="M432.8,74.7l-2.7-1.1c-0.2-0.1-0.4,0-0.6,0.1l-2,2l0.3-2.7c0-0.2-0.1-0.4-0.3-0.5l-2.7-1.1l2.9-0.5
						c0.2,0,0.4-0.2,0.4-0.4l0.3-2.7l1.5,2.3c0.1,0.2,0.3,0.3,0.5,0.2l2.9-0.5l-2,2c-0.1,0.1-0.2,0.4-0.1,0.5L432.8,74.7L432.8,74.7
						z"/>
					<path class="st19" d="M427.9,84.7c-0.2,0.1-0.3,0.3-0.3,0.5l0.3,2.7l-1.9-2c-0.1-0.1-0.4-0.2-0.6-0.1l-2.7,1.1l1.5-2.3
						c0.1-0.2,0.1-0.4-0.1-0.5l-1.9-2l2.9,0.6c0.2,0,0.4,0,0.5-0.2l1.5-2.3l0.3,2.7c0,0.2,0.2,0.4,0.4,0.4l2.9,0.6L427.9,84.7
						L427.9,84.7z"/>
					<path class="st19" d="M419.4,91.3l-2.9,0c-0.2,0-0.4,0.1-0.5,0.3l-0.9,2.6l-0.9-2.6c-0.1-0.2-0.3-0.3-0.5-0.3l-2.9,0l2.3-1.6
						c0.2-0.1,0.2-0.3,0.2-0.5l-1-2.6l2.4,1.6c0.2,0.1,0.4,0.1,0.6,0l2.3-1.6l-0.9,2.6c-0.1,0.2,0,0.4,0.2,0.5L419.4,91.3
						L419.4,91.3z"/>
				</g>
			</g>
		</g>
	</g>
</g>
</svg>
