<?xml version="1.0" encoding="utf-8"?>
<!-- Generator: Adobe Illustrator 28.4.1, SVG Export Plug-In . SVG Version: 6.00 Build 0)  -->
<svg version="1.1" id="a" xmlns="http://www.w3.org/2000/svg" xmlns:xlink="http://www.w3.org/1999/xlink" x="0px" y="0px"
	 viewBox="0 0 1280 798.9" style="enable-background:new 0 0 1280 798.9;" xml:space="preserve">
<style type="text/css">
	.st0{fill:#CB762B;stroke:#020202;stroke-width:6;stroke-miterlimit:10;}
	.st1{fill:#FFBB00;stroke:#020202;stroke-width:6;stroke-miterlimit:10;}
	.st2{fill:none;stroke:#020202;stroke-width:6;stroke-miterlimit:10;}
	.st3{fill:#C93939;stroke:#000000;stroke-width:6;stroke-miterlimit:10;}
	.st4{fill:#C93939;stroke:#020202;stroke-width:6;stroke-miterlimit:10;}
	.st5{fill:#FFBBBB;stroke:#000000;stroke-width:6;stroke-miterlimit:10;}
	.st6{fill:#FFFFFF;stroke:#231F20;stroke-width:6;stroke-miterlimit:10;}
	.st7{fill:#FFFFFF;stroke:#000000;stroke-width:6;stroke-miterlimit:10;}
	.st8{fill:#C13838;stroke:#000000;stroke-width:6;stroke-miterlimit:10;}
	.st9{fill:#020202;}
	.st10{fill:#FFD400;stroke:#000000;stroke-width:6;stroke-miterlimit:10;}
	.st11{fill:#E5414D;}
	.st12{fill:#BA3138;}
	.st13{fill:#FFFFFF;}
</style>
<path class="st0" d="M21.8,669.6c-1.4,2.2-15.4,24.8-5.1,49.7c7.1,17,21.3,24.7,25.5,26.7C211,665.2,440,576.8,720.9,524.4
	c201.6-37.5,382.4-47.6,532.2-45.8c8.2-4.3,13.2-12.8,12.7-21.6c-0.5-11-9.1-17.1-10.2-17.8c-154.4-7.4-344.2-3.4-557.7,30.6
	c-279,44.3-507.6,125.3-676.1,199.9l0,0L21.8,669.6z"/>
<path class="st1" d="M276.5,570.9c-96.8,31.7-182.8,65.8-257,98.7c-1.4,2.2-15.4,24.8-5.1,49.7c7.1,17,21.3,24.7,25.5,26.7
	c73.8-35.3,159.2-72.2,255.5-106.8c-6.3-22.8-11.5-45.9-18.8-68.3l0,0L276.5,570.9z"/>
<path class="st1" d="M1263.5,456.9c-0.5-11-9.1-17.1-10.2-17.8c-54.4-2.6-113.2-3.8-175.8-2.8c-0.5,15.3-2.1,30.6-4.1,45.8
	c63-3.3,122.3-4.3,177.4-3.6C1259,474.2,1264,465.7,1263.5,456.9L1263.5,456.9z"/>
<path class="st2" d="M21.5,669.6c21.7,4.9,36.9,22.6,37.4,41.8c0.6,20-15,33-17,34.6"/>
<path class="st3" d="M803.5,795.4c41.3-82.2,96.3-135.6,135.7-133.2c14.4,0.9,33.2,9.6,38.4,23.8c8.9,24.5-30.1,47-20.4,77.5
	c0.7,2,7.3,22.1,23.8,23c11,0.6,21.4-7.6,26.5-11.7c28.2-22.9,53.3-74.1,30.6-116.2c-3-5.6-20.2-35.9-63.4-45
	c-55.7-11.8-107.7,21.5-119,28.8c-26.2,16.8-40.2,36.9-67.3,76.3c-23.8,34.6-39.6,64.7-49.8,86"/>
<path class="st4" d="M62.5,174.1c-29.2,21.8-35.1,83.4,5.9,136.2c0.3,23.9,3.9,149.4,96.6,226.2c14.2,11.7,66.4,55,141.1,63.5
	c50.4,5.7,70.1-9.1,99.1,8.9c43.9,27.2,49.9,93,52.8,124.5c2.3,24.8,5.4,59-12,94.7c-9,18.5-19.3,28.5-66.1,69.2
	c-81,70.2-89.9,74.4-95.4,90.3c-8.8,25.3-4.2,66.4,56.3,135.2c2.8,37.9,8.3,57.4,16.5,58.6c10.3,1.5,24.8-25.5,43.6-81.2
	c-4-3.1-37.7-29.7-33.1-61.6c3-21,21.1-32.1,57.1-54.1c28.3-17.3,64.5-39.5,87.2-25.6c4.7,2.9,10.6,8.4,15,21
	c20.2,57.6-13.5,195.2-19.5,219.5c-38.6,31.8-55.6,51.9-51.1,60.1c5.3,9.7,40.4,3.2,105.2-19.6c45.7-99.7,88.9-178,120.3-231.5
	c79.6-135.9,98.6-139.3,129.3-218C863,658,834.1,603.9,892.5,558.9c40.3-31.1,95.7-37.3,178.9-46.6c43.4-4.8,79.8-5.2,105.2-4.5
	c23.6-7.5,41.6-25.2,45.1-46.6c5.7-34.6-27.8-71.8-55.6-67.7c-17.9,2.6-28.7,21.6-31.6,27.1c-35.9,2.1-91.8,4.3-160.9,1.5
	c-53.7-2.1-76.8-3.9-101.1-2.5c-6.1,0.4-14.3,1.1-25.2,2.5c-74.2,9.7-86.8,32.4-123.7,25.8c-24-4.3-21-14.3-53.7-21.2
	c-12.3-2.6-37.1-7.5-64.9,0c-28.1,7.5-32.6,20.5-64.9,36.7c-24,12-43.4,16-67.6,20.8c-59,11.9-143.6,27.7-213-17.1
	c-54.2-35-74.4-98.5-82.7-139.8c1.7-2.4,38.7-56.8,13.5-108.2c-11.9-24.3-31.9-36.3-38.1-39.8C127.3,164.9,86.6,156,62.5,174.1
	L62.5,174.1L62.5,174.1z"/>
<path class="st3" d="M821.5,204.8c28.4-18.9,41.6-14.9,46.7-12.3c24,12.3,24.9,75.5-5.1,113.5c-9.3,11.7-20,19.2-28.3,23.8
	c-0.2,6.8-1,16.2-3.6,27.1c0,0-5.8,24.2-21.3,46.5C772.8,456.8,660,476.3,649,478.1c-54.5,9-87.9,2.7-103.2-1
	c-29.3-7.1-46.6-17.8-51-20.5c-5.7-3.6-28.2-18.5-46.2-45.6c-6.5-9.7-11.1-19.3-16.6-30.4c-10.5-21.3-9.8-24.6-17.7-37.3
	c-11-17.8-16.2-17.5-19-28.3c-3.9-15.2,3.1-29,7-36.9c10.6-21.1,28.4-31.9,37.1-36.4c-4-3.6-8.6-8.3-13.2-14.3
	c-4.4-5.8-7.6-11.4-9.9-16.1c-3.6-2.6-15.9-12-18.7-28.1c-1.9-11.2,1.7-20.3,4.1-26.2c4.8-11.9,12.2-19.6,16.6-23.5
	c0.9-2.2,2.8-6.3,6.9-10c6.1-5.3,13-6.1,15.4-6.3c1.6-3.6,4.6-9,9.9-14.2c8.6-8.2,18.2-10.8,22.6-11.7c4.9-7.4,15.1-20.8,32.9-30.9
	c6.3-3.5,33.5-18,67.9-10.3c21,4.7,35.1,15.6,41.7,21.4c6.2-2.4,15.3-5.7,26.5-8.7c14.2-3.8,26.7-7.2,39.3-7
	c19.4,0.3,33.7,9.2,47.5,18c29.3,18.7,45.2,41.9,57.9,60.8C797.4,150.4,810.9,173.8,821.5,204.8L821.5,204.8L821.5,204.8z"/>
<path class="st5" d="M414.3,343.2c-1.9-3.9-3.6-6.7-6.4-10.4c-6-8-10.7-10.2-12.6-17.9c-3.9-15.2,3.1-29,7-36.9
	c10.6-21.1,28.4-31.9,37.1-36.4c-4.4-3.2-10.1-8.1-15.5-15.2c-5.2-6.8-8.4-13.3-10.3-18.2c-3-3-14-14.6-14.9-32.7
	c-1.3-25,17.8-40.5,19.8-42.1c1-2.2,2.7-5.3,5.5-8.2c6.2-6.3,13.8-7.7,16.7-8.1c1.8-3.9,4.8-9.2,9.9-14.2
	c24.6-23.5,69.8-9.8,78.6-7.2c10.6,3.2,28.4,10.2,46.6,26.7c10.6-5.4,26.9-12.1,47.2-13.2c63-3.6,130.4,46.8,132.5,96.3
	c0.8,18.4-7.6,35.4-8.9,38.1c-11.4,22.5-30,33.6-37.4,37.5c6.7,5.2,26.9,22.6,29.3,49.2c2.5,27.9-16.4,48.9-24.6,58
	c-76.2,84.6-265,23.1-279.6-3c-6.8-12.1-12.6-24.9-12.6-24.9c-0.7-1.6-1.8-4.1-3.1-7.1c-2.7-6.3-3.2-7.8-4.4-10.2l0,0L414.3,343.2z"
	/>
<path class="st6" d="M524.2,164.1c-28.1-20.9-56.4-20-73.4-19.4c-20.2,0.7-57.6,6.3-58.6,20.3c-0.6,8.5,12.2,16.6,26,25.2
	c17.7,11.2,60.5,38.1,108.8,22.9c12.1-3.8,21.6-9.4,28.2-14C549.9,190.1,540.2,175.9,524.2,164.1L524.2,164.1L524.2,164.1z"/>
<path class="st7" d="M539.1,182.8c9.5-21.6,61.2-18.5,89.5-12.9c36.3,7.1,83.2,28.1,80.9,43.7c-2.9,19.1-78.1,19.2-106.7,17.7
	c-35.9-1.9-49.9-9.2-57.6-20c-1.1-1.5-11.3-16.2-6-28.4l0,0L539.1,182.8z"/>
<path d="M560.1,201.7c1.5,18.2,28,34.7,49.3,30.4c19-3.8,37.6-24.9,33.7-42.4c-3.8-17.2-28-25.5-45.1-23.3
	C579.7,168.8,558.6,184.6,560.1,201.7L560.1,201.7L560.1,201.7z"/>
<path d="M436.2,181.8c1.2,19.2,25.5,34.8,45.6,32.4c21.3-2.5,40.9-25.4,36.6-44.3c-4.2-17.9-28.8-27-47.1-23.8
	C454.8,149.1,435.1,163.7,436.2,181.8L436.2,181.8z"/>
<path class="st8" d="M715.7,309.7c-12.8-7.5-32,13.9-58.7,27.1c-23.9,11.9-60.6,9.8-134,5.7c0,0-70.6-4-99.8-21.5
	c-19.6-11.8-22-14.1-22-14.1c-3.4-3.3-5.4-5.9-8-5.5c-4.8,0.7-8.6,11.5-6.9,20c2.6,12.7,17.4,18,18.9,18.5c-1,2.2-3,7.2-2.1,13.6
	c0,0.7,1.5,10.7,9.8,16.8c6.3,4.6,13,4.4,20,4.6c12.8,0.5,25.3,4.5,38.1,6c33.6,4,40.6,6,59.9,8.2c39.1,4.4,68.1,7.6,101.4,0.8
	c33.8-6.9,88.6-27.5,91.7-58.5c0.8-7.6-1.4-17.9-8.2-21.9l0,0L715.7,309.7z"/>
<path class="st2" d="M697.5,334.5c-6.9,6.2-18.1,15-33.5,22.1c-29.2,13.6-55.2,13-97.8,11.5c-11.2-0.4-41.8-1.8-82.9-9.3
	c-31-5.6-56.9-12.6-76.3-18.7"/>
<path class="st9" d="M707.7,196.7c-20.3-13.1-41.6-24.9-64.6-32.2c-13.2-4.3-26.9-6.5-40.8-8c-16.9-1.6-36-2.9-50.5,7
	c-6.4,4.4-10.8,11.5-12.9,19h-0.6c1.2-8.2,5.1-16.1,11.5-21.4c16.1-13.1,39.7-11.7,59.2-9.7c20.4,2,40.3,7.9,58.5,17.5
	c14.5,7.7,28.2,16.6,40.6,27.4L707.7,196.7L707.7,196.7z"/>
<path class="st9" d="M702.5,165.1c-34.9-26.8-87.9-42.8-129.3-22.4c-7,3.4-13.4,8-19.4,12.9c-2.7-2.1-9.5-7-12.2-9.3
	c0.2,0.3,0.6,0.6,0.8,0.7c-0.7-0.5-1.8-1.2-2.5-1.7c-2.5-1.6-5.3-3.4-7.8-4.9c-1.9-1-6.2-3.4-8-4.3c-2-0.9-4.9-2.3-6.9-3.2
	c-19.5-8.1-40.6-12.3-61.7-12.6c-5.7,0-11.3,0.4-16.9,1.3c-3.6,0.6-7.1,1.2-10.7,2l0.7-0.4c-3.2,3.5-6.6,7-9.9,10.5l-0.5-0.4l9-11.2
	c7-2.3,14.4-3.7,21.7-4.6c21.1-1.8,42.7,1,62.8,7.6c2.1,0.8,7,2.5,8.9,3.4c1.5,0.6,4.4,1.9,5.8,2.6c2.8,1.4,5.7,2.9,8.5,4.4
	c3.5,2,7.1,4.3,10.5,6.6h0.2c0,0.1,0,0.2,0.3,0.3c-0.5-0.4,8.3,6.1,8.2,6h-0.7c21.2-17.6,50.3-23.3,77.1-18.6
	c26.8,4.5,52.4,16.6,72.4,34.9L702.5,165.1L702.5,165.1L702.5,165.1z"/>
<path class="st9" d="M540.6,202.4c9.9,15.3,22.1,27.5,38.1,35c31,14.3,66,10.2,98.7,4.1l0.2,0.6c-6.2,2.4-12.5,4.2-19,5.8
	c-31.6,7.6-68.5,7.6-95-13.7c-10.5-8.2-18.4-19.3-23.7-31.4l0.5-0.2l0,0L540.6,202.4z"/>
<path class="st9" d="M605.2,112.1c-9.4,4.1-18.8,7.9-27.7,12.9c-9.9,5.4-18.2,12.5-22.3,23.3l-0.2,0.6l-0.4,0.3
	c-4,3.2-6.9,7.8-8.3,12.7c-0.5,1.8-0.8,3.6-0.9,5.5v0.2c-5.4,10.6-6.8,23.1-4.8,34.8H540c-1.5-5.8-2.1-11.9-1.8-18.1
	c0.4-6.1,1.7-12.3,4-18.1v0.6c-0.2-8,3.3-15.9,9.3-21.2l-0.7,1c6.3-18.7,19.5-27.1,37.7-32.1c5.4-1.5,10.9-2.6,16.4-3.1L605.2,112.1
	L605.2,112.1L605.2,112.1z"/>
<path class="st9" d="M638.2,283.1c-11,0.6-21.8-2-32-5.7c-17.8-5.9-33.5-19.3-37.9-38l0.5-0.3c3.6,6.1,7.9,11.7,12.9,16.6
	c7.5,7.5,16.9,12.5,26.7,16.5c6.5,2.8,13,5.4,19.8,7.4c3.3,1.1,6.7,2,10.2,2.9v0.6h-0.1l0,0H638.2z"/>
<path class="st9" d="M508.5,226.4c-25.3,6.9-47.6,5.1-72.3-3.3c-7.7-2.9-15.1-6.6-22.1-11.1l4.2-3.4c3.3,7.1,7.8,13.5,13.2,19.1
	c5.4,5.7,11.8,10.4,18.9,13.9c4.8,2.4,9.8,4.2,15.1,5.5v0.6c-22.9,0-44.6-15.6-52.5-36.9l-3.5-9l7.7,5.6c9.6,7,20.3,12.3,31.8,15.5
	c11.5,3.4,23.3,5.8,35.4,5.5c8,0,16-1,24-2.5v0.6h0.1l0,0L508.5,226.4z"/>
<path class="st9" d="M628.5,67.3c-14.2,7.1-26.7,16.3-37.2,28.2c-6.9,8.2-11.7,18-14.6,28.3l-0.2,0.8l-0.6,0.3
	c-9.3,4.2-16.9,12-20.9,21.5l-0.6-0.2c3.2-10.3,10.5-19,20-24.2l-0.8,1.1c2.6-13.7,9.2-26.6,18.3-37.1c7-7.9,16.3-13.7,26.2-17
	c3.3-1.1,6.7-1.9,10.1-2.3L628.5,67.3L628.5,67.3L628.5,67.3z"/>
<path class="st9" d="M557.1,139.7c-4.1,7.2-7.8,14.9-11.2,22.3c-21.8-15.8-47.8-27.6-74.7-30.7c-6.9-0.8-13.9-1-20.9-0.8
	c-11.2,0.5-22.3,2.3-33.1,5.3l0.5-0.3c-6,6.4-18.1,19.4-24.1,25.8l-0.5-0.4l11.4-13.5l11.4-13.4l0.2-0.2h0.3
	c43.3-14.7,95.4-7.6,129.8,23.6l-3.1,0.7c3.9-6.6,8.2-12.9,13.4-18.7l0.5,0.4l0,0L557.1,139.7z"/>
<path d="M831.2,296.9c11.1-10,19-23,22-37.5c1.5-7.7,3.8-20.4-0.5-27.1c-2.3-2.9-6.7-0.7-9.7,0.6c-8.5,4.4-15.8,11.4-23,17.9
	l-0.5-0.4c5.4-10,16.7-24,28.7-25.7c17.2-1,11.5,25.6,8.8,35.7c-4,14.7-13.4,28-25.5,37l-0.4-0.5l0,0H831.2z"/>
<path d="M833.1,200.2c-6.6,7.1-12.4,13-17.8,20.6c-5.5,7.5-9.2,14.9-13.8,23.5h-0.6c0.7-14.5,8.1-28.5,19.5-37.4
	c3.8-3,8-5.4,12.5-7.2l0.2,0.6l0,0L833.1,200.2z"/>
<path class="st9" d="M556.7,289c-1.6-3.8-3.2-6.8-5-8.9c-5.2-6-13.4-6.2-20.9-4.9c-1,0.1-1.9,0.4-2.9,0.6l-0.4-0.4
	c7.8-8.3,23.7-8.8,28.6,2.8c1.5,3.5,1.8,7.3,1.2,11h-0.6c0-0.1,0,0,0,0L556.7,289z"/>
<path class="st9" d="M478.4,278.8c-4-7.1-0.8-17.2,6.7-20.9c6.5-3.6,15.7-1.5,19.7,4.7c1.1,1.7,1.8,3.7,1.9,5.8l-0.5,0.3
	c-2-2.7-4.7-4.9-7.8-6c-8.6-3.2-16.6,2.6-18.6,11.1c-0.5,1.6-0.8,3.3-0.9,4.9h-0.6L478.4,278.8z"/>
<path class="st10" d="M821.7,200.2c-12.8-6.7-32.5-16.5-57.4-26.2c-85.5-33.5-179.1-48.3-183.6-69.4c-0.5-2.2,1.3-10.4,3.7-25.2
	c1-6.2,1.5-9.2,1.7-10.5c2.5-12.2,13.2-29.6,31.5-35.9c18.1-6.3,46.1-2.8,52.9,15.3c5.2,13.8-0.6,29.5-1.4,31.5
	c-9.2,23-32.4,24.4-33.5,24.4c28.4,7.3,58.8,16.2,90.9,27.3c31.5,10.9,60.4,22.5,86.8,34.2c2.8,11.5,5.6,23,8.4,34.4l0,0V200.2z"/>
<path d="M653.2,98.7c-9.6,5.1-20.9,7.7-31.7,5.5c-17.9-4.3-27-19.3-17.7-36.3c3.7-6.8,9.2-12.3,15.7-16.4c6.9-4.5,15.8-6,23.3-1.9
	c3.6,1.8,6.9,4.5,8.9,8.3c8.3,16.6-14,32.9-26.8,18.8c2.9,2,6.3,3.3,9.6,3.3c9.3,0.2,17.7-11.1,12.4-19.4c-3.1-4.7-9.8-7.7-15.4-6.8
	c-8.8,1.7-17.3,9.7-21.7,17.3c-7.7,13.3-0.6,23.9,12.8,28.6c9.9,3.1,20.7,1.7,30.5-1.1l0,0L653.2,98.7z"/>
<path class="st10" d="M448.4,104.5c46.9,6.9,125.5,16.2,131.1-0.3c0.3-1,1.3-8.2,3.2-22.4c1.4-10.6,2.2-15.9,2.1-17.6
	c0-13.9-9.1-28.5-21.1-36.8c-13.8-9.7-40.5-17.8-50.7-3.9c-7.9,10.7-6.5,26.8-6.3,28.9c2.7,23.8,23,32.8,23.9,33.2
	c-20.2-1.5-40.4-3-60.5-4.5C462.8,88.9,455.6,96.7,448.4,104.5L448.4,104.5L448.4,104.5z"/>
<path d="M517.9,78.2c10.7,6.3,25.5,10.6,36.2,3.3c10.8-7.6,9.4-21.7,2-31.2c-5.5-7.6-21.9-17.8-28.4-6.6c-3,5-2.2,11.8,1.3,16.5
	c4,5.6,11.2,5.7,16.8,2.1c-9.6,9.4-22.2,2.5-24.6-9.6c-1.1-5.8,0.7-12.2,5.1-16.3c7.8-7.2,19.6-3.1,27.2,2.1
	c6.2,4.2,10.8,10.5,13.3,17.6c4.1,11.1,0.7,24.1-9.9,30.2c-12.8,7.5-29.2,1.5-39.2-7.9l0,0L517.9,78.2z"/>
<g>
	<circle class="st11" cx="140.6" cy="132.4" r="130"/>
	<circle class="st12" cx="140.6" cy="132.4" r="117"/>
	<g id="b">
		<path class="st13" d="M222.9,112.2c-7.3-6.7-17.4-17.1-25.7-24.4l-0.5-0.3c-0.8-0.6-1.7-1.2-2.7-1.5l0,0
			C174.1,82.3,81.7,65,79.9,65.2c-0.5,0-1,0.3-1.4,0.5L78,66.1c-0.6,0.6-1,1.3-1.3,2v0.3c-0.1,0-0.1,2-0.1,2
			c10.4,29,51.5,123.9,59.6,146.2c0.5,1.5,1.4,4.4,3.1,4.5h0.4c0.9,0,4.9-5.2,4.9-5.2s70.6-85.6,77.7-94.7c0.9-1.1,1.7-2.3,2.4-3.6
			c0.4-2-0.4-4.1-1.9-5.5l0,0L222.9,112.2z M162.8,122.2l30.1-25l17.7,16.3L162.8,122.2L162.8,122.2z M151.1,120.5L99.2,78
			l83.9,15.5l-32.1,27l0,0H151.1z M155.8,131.7l53.1-8.6l-60.7,73.1L155.8,131.7L155.8,131.7z M92.2,82.2l54.6,46.3l-7.9,67.7
			L92.2,82.2z"/>
	</g>
</g>
</svg>
