<?xml version="1.0" encoding="utf-8"?>
<!-- Generator: Adobe Illustrator 28.4.1, SVG Export Plug-In . SVG Version: 6.00 Build 0)  -->
<svg version="1.1" id="a" xmlns="http://www.w3.org/2000/svg" xmlns:xlink="http://www.w3.org/1999/xlink" x="0px" y="0px"
	 viewBox="0 0 581.6 1133.7" style="enable-background:new 0 0 581.6 1133.7;" xml:space="preserve">
<style type="text/css">
	.st0{fill:#EF242F;stroke:#000000;stroke-width:5;stroke-miterlimit:10;}
	.st1{fill:#F5C785;stroke:#000000;stroke-width:5;stroke-miterlimit:10;}
	.st2{fill:#FFFFFF;}
	.st3{display:none;}
	.st4{display:inline;fill:#DE3C31;}
	.st5{display:inline;}
	.st6{fill:#DE3C31;stroke:#000000;stroke-width:5;stroke-miterlimit:10;}
	.st7{fill:#FFFFFF;stroke:#000000;stroke-width:4;stroke-miterlimit:10;}
	.st8{fill:none;stroke:#000000;stroke-width:4;stroke-miterlimit:10;}
	.st9{fill:#F5C941;}
	.st10{fill:#B2272C;stroke:#000000;stroke-width:2;stroke-miterlimit:10;}
	.st11{fill:#EABE42;}
</style>
<g>
	<path class="st0" d="M41.6,596.2c-9.2-7.2-13.9-22.9-8-33c6.9-11.8,25.5-10.6,35-10c4.6,0.3,20.4,1.5,35,13
		c21.3,16.7,24.3,42.9,26,57c0.6,5.2,3.1,29.6-8,59c-12.5,33-27.5,33.9-33,62c-1.7,8.6-5.4,29,6,49c1.5,2.7,13.4,22.9,37,29
		c10.2,2.6,20,0.8,39-3c15.3-3.1,34.8-6.9,59-18c25-11.4,30.7-19.4,39-16c11.9,4.9,18.7,29,11,45c-8.4,17.5-33.1,20.9-82,27
		c-39.7,4.9-62,7.5-90-2c-13.3-4.5-31.8-11-47-29c-19.4-23-20.7-49.4-21-57c-0.7-21,5.8-37.4,10-48c6.2-15.5,9.6-16.2,20-39
		c8.4-18.4,12.5-27.8,13-40c0.3-6.7,1.1-28.5-12-38C60.3,596.8,51.5,604,41.6,596.2z"/>
	<g>
		<g>
			<path class="st0" d="M78.2,382.7c15,22.7,39.1,28.8,83.8,40c9.6,2.4,99.3,23.9,181.4-8.9c20.1-8,35.2-17.5,55.9-30.4
				c24.1-15.1,28.8-21.2,32.4-27.8c10.2-18.8,5-42.6-1-51.3c-8.4-12.2-17.7-27.5-19.9-32.6c0,0,11-0.2,18.9-8.9
				c7.9-8.7,0.5-9.1,11.4-11.5c18.2-4.1,15-11.5,17.1-20c2.1-8.5,3-28.5-5-34.9c-2.2-1.7-4-4.1-4-4.1c-3.2-3.1-3.7-3.1-5.2-4.8
				c-2.5-2.9-2-3.8-4.5-7.1c-1.4-1.8-2.2-2.1-3.5-3.3c-1-0.9-1.5-1.6-1.9-1.9c-7.3-8.4-18.1-12.6-18.1-12.6c-2.4-1-6-2.1-10.5-2.7
				c-1.7-4-17.7-40.9-43.4-53.4c-4.2-2-12.2-5.6-23-5.8c-5.3-0.1-11.2,1.2-19.6,4.6c-19.6,7.9-36.5,23.1-36.5,23.1
				s-15.7-23.1-42.1-31.8c-26.4-8.7-50.5,10.5-64.7,21.9c-21,16.9-33.5,37.1-38.9,46.6c-4.1,7.3-7.1,13.7-9,18.4
				c-1,0-2.5,0.1-4.2,0.2c-17.5,1.4-30.3,7.4-34,9.3c-12.7,6.4-20.5,10.3-24.5,19c-7.3,15.8,4,33.8,5.7,36.3c0,0,0.7-0.6,1.1-0.3
				c1.4,0.7-1.8,8.9-2.1,9.9C66.9,267.2,51.3,341.9,78.2,382.7z"/>
		</g>
		<g>
			<path d="M429.2,306.9c-0.6-0.1-1.2-0.4-1.6-0.9c-5.3-7.2-13.1-20.3-18.5-33c-0.5-1.1,0-2.5,1.2-3c1.1-0.5,2.5,0,3,1.2
				c5.3,12.4,12.8,25.1,18,32.1c0.7,1,0.5,2.4-0.5,3.2C430.3,306.8,429.7,306.9,429.2,306.9z"/>
		</g>
		<g>
			<g>
				<path class="st1" d="M173.1,173.5l-0.7,94.4c0,0-24.7,26.6-20.5,64.9c4.3,38.3,19.3,48.7,36.1,52.9
					c16.8,4.2,173.7,23,191.5,12.4c17.8-10.5,11.8-10.5,11.8-10.5s55.4-39.6,37.7-81.8l-30.1-26.7l1.1-6.1c0,0,23.9,3.3,34.6-19.6
					c3.4-0.1,14.4-1,20.2-9.1c1.9-2.7,2.5-5.4,3.6-10.8c1.9-9.3,4.2-20.3-0.9-30.9c-1.8-3.6-3.7-5.9-6.9-9.6
					c-6.5-7.5-9.6-7.6-16.7-15.1c-1.1-1.1-4-4.3-8.5-8.3c-0.7-0.6-1.3-1.1-2-1.7c-4-3.3-10.5-6.4-24.2-8.2
					c-29.6-3.9-66.9-9.1-95.9,1.8C303.3,161.8,227.7,118.2,173.1,173.5z"/>
			</g>
			<g>
				<path class="st2" d="M331.9,220.2c0,0,28-24.4,64.5-22.3c36.5,2.1,64.3,16.8,66.6,23.1c2.3,6.3-3.9,9.3-11.1,13.8
					c-7.2,4.6-61,22.9-120.9,7.4l-2.9-2.8c0,0-16.9,14.5-61,8.2c-44.2-6.3-60.1-19.2-60.1-19.2s13.3-33.1,58.9-30
					c45.5,3.1,51.8,4.7,57.5,7.8C329,209.5,331.9,220.2,331.9,220.2z"/>
			</g>
			<g class="st3">
				<path class="st4" d="M396,336c0,0-26.7,9.5-71.4,3.8c-44.6-5.7-52,5.3-76.2-18.1c-24.2-23.4-37.2-35.6-52.2-22.9
					c-4,3.3-6.5,7.1-7.9,11.3c-3.6,11.1,5,27.1,14.5,37.6c19.2,21.5,46.4,27.2,100.1,37.7c20.5,4,30.3,4.8,35.5,5.2
					c23.6,1.5,48.7,2.5,68-12.6c5.1-4,7.5-8.5,11.9-12.9c12.2-12.1,17.9-25,14.9-34.7c-3-9.8-0.6-24.5-6.4-24.8
					C421,305.1,403.2,315.4,396,336z"/>
			</g>
			<g class="st3">
				<path class="st5" d="M341.9,392.1c-3.2-0.3-6.3-0.7-9.3-1.1c-2.1-0.3-4.2-0.5-6.3-0.7c-2.9-0.3-5.9-0.7-8.9-1
					c-33.3-3.6-70.9-7.8-100.1-25c-6.9-4.1-15.1-12.4-21.7-22.2c-9.8-14.5-11.5-24.6-11.7-29.3c-0.2-5.9,2.2-10.9,7.1-14.4
					c8.1-5.9,21.4-6.5,29-3.7c9.3,3.4,15.2,10.4,20.9,17.2c4.5,5.3,8.7,10.4,14.5,13.8c16.5,9.8,38.7,10.9,58.3,12
					c1.7,0.1,3.5,0.2,5.2,0.3c29,1.6,39.1,1.3,42,1.1c10.6-0.7,21.2-2.2,31.6-4.3c6-11.7,13.5-20.6,21.7-25.8
					c4.5-2.9,11-6.4,15.5-3.6c1.3,0.8,2.4,2.1,3.1,3.7c2.4,5.5,2.2,10.2,0.8,14.4c0.4,0.2,0.8,0.6,1.1,1.2
					c1.9,3.8,2.3,22.1-10.9,36.6c-15,16.3-26.3,25.5-46.6,30.1C365.9,393.9,353.5,393.3,341.9,392.1z M213.2,297.7
					c-6.4-0.7-14.5,0.6-19.5,4.2c-3.6,2.6-5.4,6.2-5.2,10.6c0.3,7.2,4.2,17.1,10.9,27c6.2,9.1,13.9,17.1,20.2,20.9
					c28.3,16.7,65.5,20.8,98.3,24.4c3,0.3,6,0.7,8.9,1c2.1,0.2,4.2,0.5,6.3,0.7c14.5,1.7,29.5,3.6,43,0.5
					c19.2-4.4,30-13.1,44.3-28.8c10.1-11,11.1-24.1,10.6-29.4c-0.8,1.4-1.7,2.7-2.6,4c-10.3,14.8-32.3,28.1-46.8,31.8
					c-19.9,5.1-38.7,6.9-57.5,5.3c-17.6-1.4-35.5-5.7-56.3-13.4c-19.2-7.1-42.6-17.2-52.5-32.6c-0.7-1-0.4-2.4,0.7-3.1
					c1-0.7,2.4-0.4,3.1,0.7c9.2,14.2,31.7,23.9,50.2,30.8c20.4,7.6,37.9,11.7,55.1,13.1c18.2,1.5,36.5-0.2,56-5.2
					c13.8-3.5,34.8-16.4,44.2-30c5-7.2,7-12.2,3.9-19.5c-0.3-0.8-0.8-1.4-1.3-1.7c-1-0.6-3.6-0.9-10.7,3.6
					c-7.7,4.9-14.8,13.5-20.5,25c-0.3,0.6-0.9,1-1.5,1.2c-10.9,2.4-22.1,3.9-33.3,4.6c-6.4,0.4-22,0-42.6-1.1
					c-1.7-0.1-3.4-0.2-5.2-0.3c-20.1-1-42.9-2.2-60.4-12.6c-6.4-3.8-11.1-9.4-15.7-14.8c-5.6-6.6-10.8-12.9-19-15.9
					C216.9,298.3,215.1,297.9,213.2,297.7z M432.5,327.5C432.5,327.5,432.5,327.5,432.5,327.5C432.5,327.5,432.5,327.5,432.5,327.5z
					"/>
			</g>
			<g>
				<path class="st6" d="M212.9,295.4c-5.7-4.1-16.3-12.1-24.3-8.7c-10.6,4.6-10,26.3-9.9,29.5c0.5,17.6,9.1,37.8,26.8,51.2
					c7.4,5.6,21.9,8.2,50.4,13.9c17,3.4,27.8,5.6,43.5,7c7.1,0.6,9.1,0.6,47.5,0.8c26.1,0.1,40.6,0.2,58.9-5
					c9.4-2.7,16.8-5.9,20.6-13.1c3.6-6.8,2.1-14.2,1.1-17.9c2.6-0.9,6.8-2.7,10.6-6.5c2.5-2.4,9.2-9,7.7-17.5
					c-0.9-5.2-5-11.6-10.2-12.1c-6.2-0.6-9,7.5-18.5,14.6c-7.5,5.7-14.6,7.2-27,9.8c-35.8,7.5-65.3,2.4-65.3,2.4
					C293.6,338.6,248.1,320.8,212.9,295.4z"/>
				<path class="st7" d="M199.6,309.7c-5.2,3.7-3.2,16.8,1.4,25.2c4.9,9,13,13.3,17.3,15.4c37.5,18.6,84.8,20,95.4,20.3
					c9.9,0.2,23.7,0.1,40.3-1.1c-24.9-4.6-44.6-10.8-58.3-15.8c-15-5.5-32.8-12-54.9-24.2C216.1,315.8,205.3,305.6,199.6,309.7z"/>
				<path class="st8" d="M354,369.5c11.2-0.5,24.8-1.9,39.9-5.4c13-3,24.3-7,33.6-10.8"/>
				<g>
					<path d="M196.8,321.2c10.2,4.9,21.2,10.6,31.2,15.9c0,0-0.2,0.4-0.2,0.4c-6.2-0.2-11.7-2.3-17.1-4.9c-5.3-2.8-10.2-6.1-14.1-11
						C196.6,321.5,196.8,321.2,196.8,321.2L196.8,321.2z"/>
				</g>
			</g>
			<g>
				<path d="M458.5,216.8c-1.1-0.1-1.9-1-2-2.1c0-0.1-0.6-9.4-6.3-18.1c-4.7-7.1-19.9-11.3-24.9-12.7l-0.2-0.1
					c-18.2-5-35.6-5.5-53.1-1.5c-19.3,4.4-31.5,12.9-37.4,17.1c-1.2,0.8-2.2,1.5-3,2c-1.1,0.7-2.5,0.3-3.1-0.7
					c-0.7-1.1-0.3-2.5,0.7-3.1c0.7-0.4,1.6-1.1,2.7-1.9c6.1-4.3,18.8-13.2,39-17.8c18.3-4.2,36.3-3.7,55.3,1.5l0.2,0.1
					c6,1.6,21.9,6,27.5,14.5c6.4,9.7,7,19.8,7.1,20.3c0.1,1.2-0.9,2.3-2.1,2.4C458.8,216.9,458.7,216.9,458.5,216.8z"/>
			</g>
			<g>
				<path d="M363.1,249.9c-11.3-1.2-22.6-3.4-33.4-6.7c-1.2-0.4-1.9-1.6-1.5-2.8c0.4-1.2,1.6-1.9,2.8-1.5
					c33.9,10.3,72.4,10,103.2-0.6c23-8,26.5-13.5,27-15.2c-0.1-0.3-0.8-2-5.1-5.9c-2.9-2.6-6-4.8-6.9-5.4
					c-15.8-9.9-36.3-13.6-60.7-11.1c-14.4,1.5-17.7,2.1-31,7.6c-13.1,5.5-22.5,14.5-22.6,14.5c-0.9,0.9-2.3,0.9-3.2,0
					c-0.9-0.9-0.9-2.3,0-3.2c0.4-0.4,10-9.7,24-15.5c13.8-5.7,17.5-6.5,32.3-8c25.5-2.6,46.9,1.3,63.6,11.8c1.4,0.9,5,3.6,8,6.4
					c4.8,4.4,6.6,7.3,6,9.7c-0.9,3.6-4.8,7.2-12,11c-4.7,2.5-10.7,5-17.9,7.5C413.9,250.1,388.3,252.6,363.1,249.9z M461.3,223.2
					L461.3,223.2L461.3,223.2z"/>
			</g>
			<g>
				<path d="M335.3,278c-1.1-0.1-2-1-2-2.1c-0.1-1.2,0.9-2.3,2.2-2.4c3.5-0.2,8-0.2,13.1-0.2c16.7-0.1,39.6-0.2,58.4-4.7
					c19-4.6,24.2-12.2,25.2-14c0-0.4,0.1-0.9,0.4-1.3c0.8-1.1,1.9-1.2,2.7-0.9c1,0.3,1.6,1.3,1.5,2.3c-0.1,2.3-5.6,12.7-28.8,18.3
					c-19.3,4.6-42.5,4.7-59.4,4.8c-5.1,0-9.6,0.1-13,0.2C335.5,278,335.4,278,335.3,278z"/>
			</g>
			<g>
				<path d="M262.8,250c-8-0.8-16.8-2.2-25.5-4.3c-14.2-3.4-18.9-6.4-24-9.6c-2.5-1.6-5-3.2-8.9-5c-0.3,0-0.7,0.1-1.1,0.1
					c-2,0.3-5.1,0.7-7.9,0.2c-7-1.2-14.3-4.5-14.6-4.7c-1.1-0.5-1.6-1.8-1.1-3c0.5-1.1,1.8-1.6,3-1.1c0.1,0,7.1,3.2,13.5,4.3
					c2.1,0.4,4.7,0,6.5-0.2c0.1,0,0.1,0,0.2,0c2.2-5.4,14.5-19.9,36.1-26.4c21.3-6.4,32.8-5,53.6-2.4l2.6,0.3c0.9,0.1,1.9,0.2,3,0.4
					c10.3,1.2,24.3,2.9,29.6,7.7c5.9,5.4,7.9,15.3,5.7,28.6c-1.6,9.9-16.8,15.3-45.2,16.2C284.1,251.4,274.5,251.2,262.8,250z
					 M207.4,227.6c3.5,1.7,6,3.3,8.2,4.7c4.9,3.1,9.2,5.8,22.7,9c21,5.1,43.1,5.6,49.8,5.4c35.3-1.1,40.3-9.1,40.9-12.4
					c1.3-8.2,1.6-19.1-4.3-24.6c-4.2-3.9-18.5-5.6-27.1-6.6c-1.1-0.1-2.1-0.2-3-0.4l-2.6-0.3c-20.8-2.6-31.3-3.9-51.7,2.2
					c-11.8,3.5-19.9,9.4-24.7,13.6C211,222.4,208.4,225.9,207.4,227.6z M204,230.9C204,230.9,204,230.9,204,230.9
					C204,230.9,204,230.9,204,230.9z M206.1,226.7C206.1,226.7,206.1,226.7,206.1,226.7C206.1,226.7,206.1,226.7,206.1,226.7z
					 M206.1,226.7C206.1,226.7,206.1,226.7,206.1,226.7C206.1,226.7,206.1,226.7,206.1,226.7z M206.1,226.7
					C206.1,226.7,206.1,226.7,206.1,226.7C206.1,226.7,206.1,226.7,206.1,226.7z M206.1,226.7C206.1,226.7,206.1,226.7,206.1,226.7
					C206.1,226.7,206.1,226.7,206.1,226.7z M206.1,226.7C206.1,226.7,206.1,226.7,206.1,226.7C206.1,226.7,206.1,226.7,206.1,226.7z
					"/>
			</g>
			<g>
				<path d="M263.7,263.8c-27.4-2.9-48.7-9.1-53.7-12.3c-1-0.7-1.3-2.1-0.7-3.1c0.7-1,2.1-1.3,3.1-0.7c6.5,4.2,44.4,13.9,85.5,13.1
					c11.1-0.2,21.7-4.5,26.6-10.7c2.2-2.8,3-5.7,2.4-8.6c-0.3-1.2,0.5-2.4,1.7-2.7c1.2-0.3,2.4,0.5,2.7,1.7
					c0.9,4.2-0.2,8.5-3.2,12.3c-5.7,7.3-17.5,12.1-30.1,12.4C286.1,265.6,274.5,264.9,263.7,263.8z"/>
			</g>
			<g>
				<path d="M253.1,289.1c-0.9-0.1-1.8-0.8-2-1.8c-0.3-1.2,0.5-2.4,1.7-2.7c15.2-3.3,45.5-23,45.8-23.2c1-0.7,2.4-0.4,3.1,0.7
					c0.7,1,0.4,2.4-0.7,3.1c-1.3,0.8-31.3,20.3-47.3,23.8C253.6,289.1,253.4,289.1,253.1,289.1z"/>
			</g>
			<g>
				<path d="M183.1,211c-0.5-0.1-1.1-0.3-1.4-0.7c-0.8-0.9-0.8-2.4,0.2-3.2c0.9-0.8,22.5-20.1,45.7-28.9c22.8-8.6,46.3-6.7,48.2-6.6
					c2.1,0,29.1,0.7,42.3,10c12.5,8.7,16.5,17.5,12.6,27.5c-0.5,1.2-1.8,1.7-2.9,1.3c-1.2-0.5-1.7-1.8-1.3-2.9
					c2.2-5.7,2.6-12.7-11-22.2c-12.3-8.6-39.6-9.1-39.9-9.1c-0.1,0-0.1,0-0.2,0c-0.2,0-24-2.1-46.3,6.3c-22.4,8.5-44,27.8-44.2,28
					C184.4,210.9,183.7,211.1,183.1,211z"/>
			</g>
			<g>
				<path d="M377.4,300.6c-0.8-0.1-1.6-0.6-1.9-1.5c-1-2.8-6.2-7.7-14.2-11.7c-1.1-0.6-1.6-1.9-1-3c0.6-1.1,1.9-1.6,3-1
					c8.4,4.2,14.9,9.8,16.5,14.2c0.4,1.2-0.2,2.5-1.4,2.9C378.1,300.6,377.7,300.7,377.4,300.6z"/>
			</g>
			<g>
				<path d="M351.4,316.9C351.4,316.9,351.3,316.9,351.4,316.9c-1.3-0.2-2.2-1.3-2-2.5c0.3-2.4-2.4-7.9-4.4-10.4
					c-0.8-1-0.6-2.4,0.4-3.2c1-0.8,2.4-0.6,3.2,0.4c1.2,1.6,2.6,4,3.6,6.2c1.4,3.1,1.9,5.6,1.7,7.5
					C353.7,316.1,352.6,317,351.4,316.9z"/>
			</g>
			<g>
				<path d="M321.6,318.5c-0.7-0.1-1.4-0.5-1.8-1.2c-1.4-2.8-0.6-11,0.6-13.5c0.6-1.1,1.9-1.6,3-1c1.1,0.6,1.6,1.9,1,3
					c-0.8,1.6-1.2,8.1-0.6,9.5c0.6,1.1,0.1,2.5-1,3C322.5,318.4,322.1,318.5,321.6,318.5z"/>
			</g>
			<g>
				<path d="M372.3,201.9c-1.4,0-2.9,4.6-3.3,5.6c-2,5.9-2.6,10.9-2.6,17.2c0,18,10.6,26.1,27.3,23.7c4.8-0.7,11.2-1.4,15.2-4.6
					c11.9-9.6,15.6-34.3,2.4-44.3c-3.1-2.3-9.1-0.9-12.5-0.5c-9.3,1-18.9,0.6-27.3,4.9"/>
			</g>
			<g>
				<path d="M384.9,251c-5.1-0.5-9.4-2.3-12.8-5.2c-5.3-4.6-8-11.7-8-21.1c0-7.1,0.8-12.2,2.7-18c1.4-4.4,2.9-7.3,5.5-7.3
					c0.7,0,1.3,0.3,1.8,0.8c5.8-2.1,12-2.5,18-3c2.2-0.2,4.4-0.3,6.5-0.6c0.5-0.1,1.2-0.1,1.8-0.2c3.8-0.5,9-1.3,12.3,1.2
					c5.9,4.4,9.2,11.7,9.4,20.6c0.2,10.7-4.5,21.7-11.7,27.4c-4.2,3.4-10.3,4.2-15.3,4.9l-1,0.1C390.8,251.2,387.7,251.3,384.9,251z
					 M372,206.3c-0.2,0.5-0.4,1.2-0.7,2c-1.8,5.3-2.5,9.9-2.5,16.5c0,8,2.1,13.8,6.3,17.5c4.2,3.6,10.5,4.9,18.3,3.8l1-0.1
					c4.4-0.6,9.8-1.4,13-3.9c6.1-4.8,10-14.4,9.9-23.7c-0.1-7.3-2.8-13.3-7.5-16.9c-1.8-1.3-6-0.7-8.8-0.3c-0.7,0.1-1.4,0.2-2,0.3
					c-2.2,0.2-4.5,0.4-6.7,0.6c-7.1,0.5-13.8,1-19.8,4C372.4,206.2,372.2,206.2,372,206.3z"/>
			</g>
			<g>
				<path class="st2" d="M377.6,204.8c-2.5,0-4.3,1-6,3.9c-2.2,3.8-3.1,10.1,2.9,11c4.9,0.7,10-6.3,8.8-11
					C382.1,204.6,380.6,205,377.6,204.8z"/>
			</g>
			<g>
				<path d="M242,203.8c0.1,0.3-4,3.9-4.4,4.4c-3.1,4.8-4.7,8.5-4.3,14.5c1.2,21.4,11.9,22.5,30.4,22.8c6.5,0.1,14.3,0.7,19.1-4.9
					c8.4-9.6,7.1-22.7,1.5-32.8c-1.4-2.5-3.7-5.5-6.7-6.1c-7.6-1.6-15.7-1.5-23.4-1.4c-2.7,0-5.9,3-8.5,3.1
					C244.8,203.4,242,203.7,242,203.8z"/>
				<path d="M252.4,247.3c-4.5-0.5-8.4-1.4-11.6-3.3c-6.1-3.6-9.3-10.3-9.9-21.2c-0.4-6.6,1.4-10.8,4.7-15.9
					c0.3-0.4,0.6-0.8,2.1-2.2c0.7-0.6,1.7-1.6,2.1-2.1c0-0.1,0.1-0.1,0.1-0.2c0.6-1,1.5-1.1,3.3-1.3c0.5-0.1,1.7-0.2,2.5-0.2
					c0.7,0,2-0.7,3.1-1.3c1.7-0.9,3.5-1.8,5.4-1.8c7.9-0.1,16-0.2,23.9,1.4c4.2,0.9,7,5,8.3,7.3c5.4,9.9,7.8,24.4-1.8,35.5
					c-5.2,6-13.2,5.8-19.5,5.7c-0.5,0-0.9,0-1.4,0C259.6,247.8,255.9,247.7,252.4,247.3z M239.6,209.6c-2.8,4.4-4.2,7.6-3.9,12.9
					c1.1,19.3,9.9,20.3,28.1,20.5c0.5,0,0.9,0,1.4,0c6,0.1,12.1,0.2,15.9-4.1c8-9.2,5.9-21.6,1.2-30.1c-1.5-2.8-3.4-4.6-5.1-4.9
					c-7.4-1.5-15.2-1.4-22.8-1.3c-0.8,0-2.1,0.7-3.3,1.3c-1.7,0.9-3.4,1.7-5.3,1.8c-0.5,0-1.6,0.1-2.5,0.2c-0.2,0.2-0.3,0.3-0.5,0.5
					c-0.5,0.5-1.2,1.2-1.9,1.8C240.5,208.7,239.8,209.4,239.6,209.6z M239.6,209.5C239.6,209.5,239.6,209.5,239.6,209.5
					C239.6,209.5,239.6,209.5,239.6,209.5z M239.9,204.8C239.9,204.8,239.9,204.8,239.9,204.8C239.9,204.8,239.9,204.8,239.9,204.8z
					 M239.9,204.8C239.9,204.8,239.9,204.8,239.9,204.8C239.9,204.8,239.9,204.8,239.9,204.8z M239.7,204.1c0,0.2,0.1,0.5,0.2,0.7
					c0,0,0,0,0,0C239.8,204.6,239.7,204.3,239.7,204.1z"/>
			</g>
			<g>
				<path class="st2" d="M252.4,204c-6.7-3.3-15.4,6.6-8.7,11.7c7.3,5.6,18-7.2,9.9-11.1"/>
			</g>
			<g>
				<path d="M175.7,342.8c-0.4-0.1-0.8-0.4-1.2-0.7c-12.4-14.9-13.1-19.9-11.3-36.7c1.9-17,13.4-29.6,19.4-31.9
					c1.2-0.5,2.5,0.1,2.9,1.3c0.5,1.2-0.1,2.5-1.3,2.9c-3.9,1.5-14.8,12.4-16.5,28.2c-1.7,15.7-1.1,19.6,10.3,33.3
					c0.8,1,0.7,2.4-0.3,3.2C177.2,342.9,176.4,343,175.7,342.8z"/>
			</g>
		</g>
		<g>
			<path d="M111.5,283.7c-6.4-0.7-14.2-4.4-21.6-10.6c-7.1-6-14.1-16-16.7-19.8l-0.5-0.7c-4.4-6.3-8.5-12.4-10.7-19.1
				c-2.4-7.3-2.4-14.4,0.3-22.3c1.6-4.7,7.1-9.8,16.4-14.9c7.3-4,16.5-8,26-11.1c5.2-1.7,10-3,13.9-3.7c6-1.1,7.9-0.5,8.9,0.3
				c11.1,7.9,11.1,21.2,11.1,31.8c0,1.2-1,2.3-2.3,2.3c-1.2,0-2.3-1-2.3-2.3c0-12.2-0.7-22-9.1-28.1c-2.8-0.9-21,3.4-38.2,11.6
				c-11.4,5.5-18.8,11.1-20.2,15.5c-4.9,14.7,0.7,24.3,9.9,37.4l0.5,0.7c2.5,3.6,9.2,13.3,15.9,18.9c10.3,8.7,20.2,11,24.5,8.8
				c1.1-0.6,2.5-0.1,3,1c0.6,1.1,0.1,2.5-1,3C117.2,283.7,114.5,284,111.5,283.7z"/>
		</g>
		<g>
			<path d="M116.4,257.1c-0.3,0-0.5-0.1-0.8-0.2c-1.1-0.6-1.6-1.9-1-3c1.5-3.1,4.1-11.6,5.6-19.9c1.9-11,1.1-16.5-0.4-17.9
				c-3.6-3.6-11.3-5.5-22.2-5.5c-1.2,0-2.3-1-2.3-2.3c0-1.2,1-2.3,2.3-2.3c12.3,0,20.9,2.3,25.4,6.8c3.1,3.1,3.6,10.4,1.6,21.9
				c-1.6,8.8-4.3,17.7-6,21.1C118.2,256.8,117.3,257.2,116.4,257.1z"/>
		</g>
		<g>
			<g>
				<g>
					<path class="st9" d="M57.8,163.4C201.3,13.5,275.5,15.7,275.5,15.7c55.4,1.7,103.2,45.8,198.8,134.2c3.5,3.2,11.9,11.5,9.7,17
						c-1.4,3.4-6.5,4.5-16.7,6.7c-7.7,1.6-14.1,2.3-18.4,2.6c-6.2-7.5-12.4-15-18.6-22.5c4.1,7.8,8.3,15.5,12.4,23.3
						c-47.8,7.5-101,13.2-159,15.2c-35,1.2-68.1,1-99.4-0.3c0.7-6.3,1.4-12.5,2.2-18.8c-2.5,6.3-5,12.5-7.5,18.8
						c-38.9-1.5-68.8-2.3-89.2-2.7c-17.1-0.4-36.9-0.7-39.8-9.3C48,174.1,54.3,167,57.8,163.4z"/>
				</g>
				<g>
					<path d="M68.8,190c-10.4-1.1-18.6-3.6-20.7-9.6c-2.2-6.4,3.7-13.5,8.3-18.3c32.8-34.3,64.7-63.4,94.8-86.5
						c24.1-18.5,47.1-33.3,68.4-43.9c35.3-17.6,54.2-17.8,55.9-17.8l0,0c56.1,1.7,104.2,46.1,200,134.7c8.6,8,12.1,14.4,10.2,19.1
						c-1.8,4.4-7.6,5.6-18.1,7.8c-6.2,1.3-12.5,2.2-18.7,2.6l-1,0.1l-7.4-8.9l4.9,9.3l-2.6,0.4c-52.6,8.3-106.1,13.4-159.2,15.2
						c-33,1.1-66.5,1-99.5-0.3l-2-0.1l0.8-6.8l-2.8,6.9l-1.3,0c-31.1-1.2-61.1-2.1-89.2-2.7l-0.5,0C82.2,190.8,75.1,190.7,68.8,190z
						 M57.8,163.4l1.4,1.3c-2.3,2.4-9.1,9.5-7.4,14.5c2.5,7.3,22,7.7,37.6,8.1l0.5,0c27.7,0.6,57.3,1.5,87.9,2.7l12.2-30.7
						l-3.5,30.8c32.3,1.3,65,1.3,97.2,0.2c52.1-1.8,104.6-6.8,156.2-14.8l-19.9-37.3l29.9,36c5.7-0.4,11.5-1.3,17.2-2.5
						c9.4-2,14.4-3.1,15.4-5.5c1.2-2.9-2.3-8.5-9.2-14.9C377.9,63.4,330.2,19.2,275.5,17.6c-0.2,0-4.8-0.1-13.7,2
						c-8.3,2-22.2,6.3-40.9,15.6c-21.1,10.5-43.8,25.2-67.7,43.6c-29.8,23-61.5,51.9-94,85.8L57.8,163.4z"/>
				</g>
			</g>
			<g>
				<path d="M178.6,70.2C170,78,161.3,86.1,153,94.3c-15,14.8-29.2,30.4-42.7,46.6c-2.2,2.6-4.6,5.5-6.7,8.2c0,0-2.2,2.7-2.2,2.7
					C122.2,121.3,149.3,92.7,178.6,70.2L178.6,70.2z"/>
			</g>
			<g>
				<path d="M257.3,22.7c-11,8.2-21.7,16.9-31.7,26.3c-9.2,8.7-17.9,18.1-26,27.9c-1.8,2.2-3.8,4.7-5.6,6.9
					c-0.9,1.1-2.7,3.5-3.6,4.7c0,0-0.2-0.1-0.2-0.1c8.6-13.2,18.6-25.6,29.9-36.6c11.3-11.1,23.7-20.9,37.1-29.3
					C257.2,22.5,257.3,22.7,257.3,22.7L257.3,22.7z"/>
			</g>
			<g>
				<path d="M299.2,27.6c7.3,8.2,13.3,17.4,18.8,26.9c5.4,9.5,10.2,19.4,13.5,29.9c0,0-0.2,0.1-0.2,0.1c-4.6-9.9-9.6-19.6-15-29
					C311,46,305.2,36.7,299,27.7L299.2,27.6L299.2,27.6z"/>
			</g>
			<g>
				<path d="M268.4,34.2c-0.4,6-1.6,14.3-2.3,20.3c-0.8,6-1.6,14.3-2.6,20.3c0,0-0.2,0-0.2,0c-0.3-10.3,0.6-20.6,2.6-30.7
					c0.7-3.4,1.5-6.7,2.4-10C268.2,34.2,268.4,34.2,268.4,34.2L268.4,34.2z"/>
			</g>
			<g>
				<path d="M314.2,31.5c12.6,7.9,24.4,17.3,35.5,27.1c11.1,10,21.6,20.6,31,32.2c-10.3-10-21.1-21.1-32.2-30.8
					C337.6,50.1,325.3,40.7,314.2,31.5L314.2,31.5z"/>
			</g>
			<g>
				<path d="M346.7,138.5c9.5,15.2,17.8,31.2,24.8,47.7l-1.7,0.7C363.3,170.2,355.6,154,346.7,138.5
					C346.7,138.5,355.6,154,346.7,138.5z"/>
			</g>
			<g>
				<path d="M150,140.8c-8,16.1-14.4,32.9-19.1,50.1l-1.8-0.5C134.4,173.2,141.4,156.6,150,140.8C150,140.8,141.4,156.6,150,140.8z"
					/>
			</g>
			<g>
				<path d="M79.6,159.3c-6.3,8.8-11.4,18.4-15.2,28.4l-1.7-0.7C67.1,177,72.8,167.7,79.6,159.3C79.6,159.3,72.8,167.7,79.6,159.3z"
					/>
			</g>
			<g>
				<path d="M204.2,139.8c-2.4,17.8-3.8,35.6-4.3,53.5l-1.9-0.1C199.2,175.3,201.3,157.5,204.2,139.8
					C204.2,139.8,201.3,157.5,204.2,139.8z"/>
			</g>
			<g>
				<path d="M398,92.2c10,7,19.6,14.8,28.7,23c13.6,12.4,26.5,25.6,37.9,40.1c0,0,1.9,2.4,1.9,2.4l1.8,2.5
					C446.8,136.3,422.6,112.9,398,92.2L398,92.2z"/>
			</g>
			<g>
				<path class="st10" d="M218.1,73.5c-1.7,11.7-2.9,25.3-2.8,40.5c0.1,12.7,1,24.3,2.4,34.4c21.9-0.7,46.5-2.8,73.1-7.1
					c19.9-3.2,38.2-7.3,54.8-11.7c-0.2-8.8-0.8-18.4-1.9-28.5c-1.1-9.7-2.5-18.7-4.1-27c-15.8-2.9-34.4-5.1-55.3-5.5
					C258.8,68,236.4,70.4,218.1,73.5L218.1,73.5z"/>
				<g>
					<path class="st11" d="M240.5,91.6l3.6,7c0.3,0.6-0.4,1.3-1,1l-7-3.6c-0.3-0.1-0.6-0.1-0.8,0.1l-5.6,5.6
						c-0.5,0.5-1.3,0.1-1.2-0.6l1.2-7.8c0-0.3-0.1-0.6-0.4-0.8l-7-3.6c-0.6-0.3-0.5-1.3,0.2-1.4l7.8-1.2c0.3,0,0.6-0.3,0.6-0.6
						l1.2-7.8c0.1-0.7,1-0.8,1.4-0.2l3.6,7c0.1,0.3,0.4,0.4,0.8,0.4l7.8-1.2c0.7-0.1,1.1,0.7,0.6,1.2l-5.6,5.5
						C240.4,91,240.4,91.3,240.5,91.6L240.5,91.6z"/>
					<path class="st11" d="M264.4,77.5l-3.1,0.6c-0.2,0-0.4,0.2-0.4,0.4l-0.4,3.1l-1.5-2.8c-0.1-0.2-0.3-0.3-0.6-0.3l-3.1,0.6
						l2.2-2.3c0.2-0.2,0.2-0.4,0.1-0.6l-1.5-2.8l2.8,1.4c0.2,0.1,0.4,0.1,0.6-0.1l2.2-2.3l-0.4,3.1c0,0.2,0.1,0.4,0.3,0.5
						L264.4,77.5L264.4,77.5z"/>
					<path class="st11" d="M273,89.5l-3.1-0.7c-0.2,0-0.4,0-0.6,0.2l-1.6,2.7l-0.3-3.1c0-0.2-0.2-0.4-0.4-0.5l-3.1-0.7l2.9-1.2
						c0.2-0.1,0.3-0.3,0.3-0.5l-0.3-3.1l2.1,2.4c0.1,0.2,0.4,0.2,0.6,0.1l2.9-1.3l-1.6,2.7c-0.1,0.2-0.1,0.4,0.1,0.6L273,89.5
						L273,89.5z"/>
					<path class="st11" d="M270.2,102c-0.2,0.1-0.3,0.4-0.2,0.6l0.9,3l-2.5-1.9c-0.2-0.1-0.4-0.1-0.6,0l-2.6,1.8l1-3
						c0.1-0.2,0-0.5-0.2-0.6l-2.5-1.9l3.2,0c0.2,0,0.4-0.1,0.5-0.4l1-3l0.9,3c0.1,0.2,0.3,0.4,0.5,0.4l3.2,0L270.2,102L270.2,102z"
						/>
					<path class="st11" d="M262.8,111.3l-3.1,0.7c-0.2,0-0.4,0.2-0.4,0.5l-0.3,3.1l-1.6-2.7c-0.1-0.2-0.3-0.3-0.6-0.2l-3.1,0.7
						l2.1-2.4c0.1-0.2,0.2-0.4,0.1-0.6l-1.6-2.7l2.9,1.3c0.2,0.1,0.5,0,0.6-0.1l2.1-2.4l-0.3,3.1c0,0.2,0.1,0.4,0.3,0.5L262.8,111.3
						L262.8,111.3z"/>
				</g>
			</g>
		</g>
	</g>
	<path class="st0" d="M226.6,400.7c-1.7-2.1-4.7-5.9-9.2-9.7c-21.2-17.9-56.3-23.2-83-8.4c-4.7,2.6-12.5,7.7-20,17
		c0,0-15,18.4-18,47c-6.3,60.4,64,182,64,182c62.8,108.7,77.5,119.5,94,172c14.1,44.7,17.2,80.4,20,112
		c4.2,48.1,5.4,120.4-13.5,208.2c6.5,2.7,16.1,6.1,28.2,7.8c14.2,2,25.1,3.5,34.3-3c6.2-4.4,14.1-14.2,10.9-23.8
		c-2.9-8.7-14.2-14.8-26.8-12.3c8.8-37.3,17.2-68.8,23.9-92.8c14.3-51.1,7.2-19,31-95c10.4-33.3,14.4-47.8,29-58
		c18-12.5,40.4-10.5,53.7-8c14.2,45.8,20.9,83.3,24.3,109c2.7,20.3,3.4,32.9,10,103c2.5,26.5,4.6,48.1,5.9,61.9
		c12.6,3.8,23.3,5.8,31.1,7.1c18.7,2.9,22.8,1.2,25.4-0.7c6.4-4.7,9.5-14.9,6.4-23.3c-3.8-10.1-16-16.2-28.2-12.7
		c2.7-32.9,5.9-79.8,7.1-136.2c1.6-76.7,2.4-115.1-3.6-152c-7.2-44.2-10.8-27.4-73-192c-18.9-50.1-48.5-95.6-69-145
		c-2.7-6.6-7.6-24.3-23.4-33.4c-12.2-7-25.6-6.1-33.6-4.8"/>
	<path class="st0" d="M146.3,484.7c19.1,15.4,43.7,32.6,74,48c50.3,25.7,91.5,34.4,119,40c24.8,5,47.2,7.6,73,3
		c13.3-2.4,25.7-4.7,38-14c17.4-13.2,23.3-31.8,30-53c3.9-12.5,1.8-9.9,12-61c4.7-23.8,6.9-33,9-41c6.1-23.7,9.1-28.5,12-40
		c7.5-29.7,8.1-78.3-18-108c-12.7-14.4-18.9-9.9-29-25c-17.5-26.1-9.5-55.5-20-58c-5.5-1.3-12.2,5.7-15,11c-2.1,4-4.4,11.3,4,35
		c3.5,9.7,9,23,18,38c8.3,32.4,7.2,42.2,3.7,43.8c-2.2,1-8.7-3.6-21.7-12.8c-10.4-7.4-13.1-9.9-19-11c-2.5-0.5-12.1-2.2-18,4
		c-2.9,3-5.1,8.1-4,13c1.9,8.1,11.2,7.2,21,17c7.7,7.8,5.9,12.5,15,27c5.4,8.7,11.1,15,15,19c-0.4,4-1,9.5-2,16
		c-2.9,18.5-7.1,33.2-13,51c-11.4,34.4-17.1,51.7-23,55c-11.8,6.7-22.1-1.3-64-17c-67.7-25.5-81.9-20.3-99-41
		c-0.1-0.1-0.1-0.2-0.2-0.2c-1.8-2.2-3.1-3.7-3.3-3.9c-0.9-1.1-4.8-6.2-15.9-21"/>
</g>
</svg>
