<?xml version="1.0" encoding="UTF-8"?><svg id="a" xmlns="http://www.w3.org/2000/svg" viewBox="0 0 1280 1280"><defs><style>.b{fill:#ffbbbb;}.b,.c,.d,.e,.f,.g,.h{stroke-miterlimit:10;}.b,.c,.d,.f,.g,.h{stroke-width:10px;}.b,.c,.e,.f,.g{stroke:#000;}.c,.d{fill:#fff;}.d{stroke:#231f20;}.e{fill:#ffd400;stroke-width:8px;}.i{fill:#020202;}.i,.j{stroke-width:0px;}.j{fill:#000;}.f{fill:#c93939;}.g{fill:#c13838;}.h{fill:none;stroke:#020202;}</style></defs><path class="f" d="M861.43,1357.75c122.8-135.84,213.07-260.76,275.24-354.78,102.45-154.93,119.04-229.8,126.17-290,13.25-111.83-5.96-271.49-74.55-293.04-2.91-.91-26.34-7.92-42.35,4.24-38.1,28.93,25.42,121.13,15.38,234.99-6.76,76.71-43.82,128.15-105.19,213.32-37.46,52-102.47,129.21-206.3,200.44"/><path class="f" d="M20.4,1398.64c5.54-75.62,36.39-415,232.94-489.18,30.39-11.47,68.26-12.59,144-14.82,199.14-5.88,317.93-16.72,421.41,52.94,44.79,30.15,69.97,63.1,92.52,92.61,106.11,138.85,116.47,293.79,115.95,368.15"/><path class="f" d="M157,419.26c-62.51-44.58-92.45-36.43-104.01-30.86-54.71,26.37-60.59,169.89,4.44,258.01,20.09,27.22,43.69,44.74,62.03,55.76,0,15.38,1.14,36.83,6.35,61.78,0,0,11.55,55.34,44.9,106.95,79.85,123.58,331.84,174.92,356.37,179.71,121.8,23.75,196.98,11.6,231.57,4.16,66.15-14.23,105.75-37.44,115.68-43.44,12.96-7.83,64.45-40.16,106.51-100.65,15.08-21.69,26.21-43.07,39.17-67.96,24.85-47.71,23.42-55.27,41.92-83.66,25.82-39.6,37.54-38.62,44.37-63.01,9.58-34.22-5.12-66.06-13.52-84.27-22.41-48.55-61.68-74.22-81.07-84.98,9.2-7.83,19.89-18.22,30.44-31.58,10.22-12.94,17.69-25.35,23.11-35.84,8.27-5.61,36.46-26.24,43.63-62.69,5-25.42-2.63-46.24-7.56-59.69-10.03-27.38-26.27-45.31-35.87-54.48-1.78-5.16-5.82-14.59-14.83-23.05-13.32-12.52-28.76-14.72-34.04-15.23-3.39-8.36-9.7-20.81-21.36-32.74-18.74-19.18-40.24-25.67-50.02-27.97-10.44-17.15-32.53-48.27-71.81-72.23-13.82-8.44-74.1-43.06-151.72-27.58-47.29,9.43-79.61,33.14-94.93,46.06-13.88-5.92-34-13.86-58.87-21.43-31.53-9.6-59.4-18.09-87.68-18.39-43.62-.46-76.12,18.69-107.62,37.77-66.82,40.5-104.05,92.3-133.62,134.33-24.69,35.1-56.45,87.46-81.97,157.22Z"/><path class="b" d="M1061.93,759.06c4.53-8.84,8.48-14.94,14.98-23.24,13.89-17.75,24.56-22.53,29.38-39.76,9.58-34.22-5.12-66.06-13.52-84.27-22.41-48.55-61.68-74.22-81.07-84.98,9.98-6.97,23.16-17.74,35.76-33.47,12.09-15.1,19.59-29.67,24.22-40.64,6.91-6.57,32.32-32.31,35.53-73.32,4.43-56.62-37.3-93.09-41.76-96.86-2.1-5.17-5.71-12.12-11.95-18.85-13.55-14.6-30.41-18.35-36.92-19.44-3.68-8.88-10.08-21.23-21.36-32.74-53.8-54.89-155.89-26.72-175.92-21.2-23.91,6.6-64.39,21.45-106.21,57.73-23.38-13.03-59.52-29.07-105.17-33.01-141.22-12.19-295.49,98.04-303.2,210.28-2.87,41.85,14.84,80.86,17.68,86.95,24.23,51.89,65.13,78.07,81.58,87.42-15.25,11.51-61.8,49.68-68.68,109.99-7.22,63.28,33.71,111.92,51.58,133.16,165.61,196.81,592.98,69.02,627.47,10.75,15.98-27,29.75-55.64,29.75-55.64,1.72-3.68,4.3-9.23,7.38-16,6.46-14.21,7.71-17.5,10.45-22.85Z"/><path class="d" d="M826.42,345.61c64.4-45.69,127.63-41.8,165.96-39.44,45.23,2.78,128.77,17.82,130.31,49.75.93,19.3-28.48,36.9-59.78,55.63-40.48,24.22-138.16,82.66-245.54,45.12-26.97-9.43-47.87-22.58-62.46-33.47,12.44-20.18,35.2-51.83,71.52-77.59Z"/><path class="c" d="M791.75,387.17c-19.91-49.7-136.14-45.88-199.91-35.01-81.92,13.96-188.49,58.51-184.15,94.13,5.32,43.65,174.04,48.49,238.25,46.78,80.58-2.14,112.45-17.69,130.55-41.84,2.47-3.29,26.44-36.15,15.26-64.06Z"/><path class="j" d="M743.52,428.71c-4.54,41.16-64.89,77.07-112.53,65.98-42.48-9.89-82.7-59-73-98.48,9.53-38.81,64.33-56.21,102.6-50.14,41.01,6.5,87.21,43.77,82.92,82.64Z"/><path class="j" d="M1022.66,391.22c-3.93,43.5-59.39,77.32-104.34,70.7-47.58-7.01-90.26-60.34-79.25-102.86,10.45-40.36,66.33-59.58,107.08-51.01,36.89,7.75,80.2,42.23,76.51,83.17Z"/><path class="g" d="M387.7,664.22c29.23-16.12,70.9,33.52,129.98,65.23,52.98,28.44,135.41,26.04,300.29,21.25,0,0,158.6-4.61,225.14-42.56,44.78-25.54,50.26-30.54,50.26-30.54,7.91-7.22,12.49-13.03,18.26-11.97,10.75,1.97,18.66,26.55,14.17,45.96-6.65,28.74-40.13,39.84-43.53,40.91,2.12,5,6.18,16.49,3.98,30.93-.25,1.62-4.04,24.26-23.04,37.52-14.35,10.02-29.41,9.12-45.06,9.3-28.84.32-57.08,8.64-85.8,11.26-75.56,6.89-91.42,11.08-134.9,14.79-88.08,7.52-153.19,13.08-227.48-4.45-75.34-17.78-197.06-68.03-201.98-138.51-1.2-17.25,4.25-40.59,19.71-49.12Z"/><path class="h" d="M427.13,721.68c15.15,14.47,39.61,35.07,73.65,52.33,64.55,32.73,123.1,32.96,218.58,32.22,25.1-.19,93.85-1.51,186.6-15.85,69.94-10.81,128.43-25.15,172.22-37.58"/><path class="i" d="M412.12,407.3c22.84-22.99,49.66-42.05,77.63-58.41,7.96-4.53,16.57-9.19,24.76-13.18,12.58-5.97,25.96-11.33,39.16-15.84,26.67-9.03,54.83-13.77,82.8-15.99,28.1-2.27,57-2.55,84.6,4.13,22.25,5.29,44.38,16.09,58.06,34.99,6.36,8.71,10.69,18.88,12.75,29.39.88,4.62,1.42,9.27,1.53,13.91,0,0-.99.13-.99.13-2.79-23.07-14.95-43.78-34.85-56.05-41.2-25.43-101.27-19.46-147.51-13.53-45.45,6.22-89.13,22.57-128.89,45.23-24,13.46-47.11,28.54-68.41,46.01,0,0-.64-.77-.64-.77h0Z"/><path class="i" d="M425.63,335.87c41.33-40.73,95.34-67.69,152.08-79.14,33.71-6.78,68.96-7.09,102.52.79,31.8,7.89,61.94,23.08,86.6,44.71,0,0-11.23-.34-11.23-.34,6.31-4.76,12.79-9.3,19.41-13.62l-1.49,1.23c.87-.9,2.01-1.58,3.06-2.25.94-.61,3.64-2.29,4.64-2.91,22.72-14.36,47.46-25.55,73.21-33.2,45.36-13.41,93.57-17.24,140.41-11.01,8.65,1.34,18.69,3.75,28.07,6.37,8.02,2.23,15.9,4.97,23.67,7.93,0,0,.77.29.77.29l.34.5c2.22,3.29,6.93,10.13,9.12,13.46,0,0,9.04,13.52,9.04,13.52l-.8.6-19.64-25.87c-14.18-4.36-31.81-9.05-47.7-11.23-65.54-7.01-134.76,4.62-192.97,36.02-8.2,4.5-16.53,9.55-24.38,14.67-6.41,4.24-12.67,8.69-18.78,13.35l-.63.48-.6-.52c-84.75-74.08-208.03-56.48-297.55-.36-12.82,8.17-25,17.34-36.53,27.26,0,0-.66-.76-.66-.76h0Z"/><path class="i" d="M788.23,432.05c-15.91,48.41-53.22,86.05-101.12,103.35-54.09,19.71-114.95,13.84-168.62-4.46-10.52-3.73-21.21-7.99-31.23-12.91-3.35-1.7-6.7-3.37-9.94-5.29,0,0,.4-.92.4-.92,6.82,2.85,13.82,5.32,20.86,7.63,7.05,2.29,14.15,4.41,21.31,6.28,76.83,21,169.81,19.75,229.42-39.88,15.77-15.63,28.46-34.19,38.01-54.23,0,0,.91.42.91.42h0Z"/><path class="i" d="M648.12,221.34c29.14,4.92,63.8,16.35,86.99,35.14,15,12.48,25.35,29.95,31.11,48.42,0,0-1.04-1.63-1.04-1.63,9.62,9.27,16.39,21.46,18.75,34.61.8,4.35,1.14,8.77,1.02,13.16l-.21-1.06c7.51,19.54,9.85,40.92,7.44,61.65-.82,6.87-2.16,13.66-3.92,20.31,0,0-.97-.23-.97-.23,1.34-6.71,2.2-13.49,2.62-20.29,1.28-20.42-2.24-41.09-10.5-59.79-.09-16.16-7.38-32.06-19.46-42.73,0,0-.69-.61-.69-.61l-.35-1.02c-5.75-16.81-16.43-31.78-30.33-42.78-14.24-11.16-30.43-19.63-46.8-27.3-11.11-5.22-22.45-10.05-33.93-14.89,0,0,.27-.96.27-.96h0Z"/><path class="i" d="M563.08,607.51c28.66-12.92,58.06-25.03,86.33-38.16,20.73-9.78,39.02-23.31,55.57-39.14,5.71-5.34,11.06-11.13,16.73-16.97l.86.51c-4.02,6.88-8.48,13.51-13.37,19.82-12.37,15.66-27.56,29.17-44.86,39.18-10.35,6.02-21.49,10.6-32.61,14.92-14.79,5.85-29.84,11.17-45.21,15.34-7.69,2.06-15.44,3.88-23.24,5.48l-.21-.98h0Z"/><path class="i" d="M856.24,490.41c26.59,3.73,53.64,5.6,80.36,2.98,24.18-2.51,47.87-8.63,71.01-15.86,14.48-4.87,28.29-11.33,41.61-18.77,8.2-4.44,28.04-17.27,36.18-22.29-5.59,11.77-14.39,33.08-21.68,43.57-15.69,24.47-39.22,43.78-66.33,54.24-14.75,5.51-30.53,8.52-46.25,8.15,0,0-.1-1-.1-1,24.39-2.45,47.98-11.57,67.74-26.05,19.78-14.4,35.67-34.03,45.63-56.37,0,0,1.36,1.17,1.36,1.17-15.27,9.93-31.62,18.22-48.72,24.53-17.25,5.97-35.01,9.97-52.94,13.17-26.92,4.81-54.64,4.12-81.51-.57-8.96-1.59-17.83-3.61-26.61-5.92l.26-.97h0Z"/><path class="i" d="M598.83,118.17c30.59,6.3,59.06,23.4,79.29,47.21,19.94,24.04,33.77,53.34,39.03,84.14,0,0-1.35-1.84-1.35-1.84,20.94,12.09,36.97,32.18,43.63,55.39,0,0-.95.31-.95.31-8-21.93-24.46-40.46-45.26-50.98,0,0-1.05-.54-1.05-.54l-.3-1.29c-5.07-21.97-14.1-42.96-27.11-61.31-13.18-18.01-29.51-33.57-47.36-46.92-12.08-8.81-25.1-16.45-38.9-23.23l.32-.95h0Z"/><path class="i" d="M755.01,287.58c10.72,13.61,19.72,28.43,27.91,43.68,0,0-5.14-1.24-5.14-1.24,22.3-18.53,47.63-33.6,74.57-44.35,17.9-7.06,36.99-12.17,55.92-15.52,53.9-9.64,110.54-4.93,161.88,14.07,12.53,15.68,37.61,46.89,50.1,62.62,0,0-.77.64-.77.64-13.09-15.02-39.05-45.26-52.06-60.33,0,0,.88.61.88.61-6.01-1.96-12.07-3.71-18.18-5.32-42.58-11.08-87.63-13.34-130.95-5.46-10.53,1.76-21.76,4.58-31.99,7.53-38.78,11.79-75.77,29.5-108.72,53.35-5.83-12.89-11.48-25.9-18.18-38.39-2-3.79-4.02-7.58-6.1-11.35l.83-.55h0Z"/><path class="j" d="M128.8,628.64c-36.28-29.45-56.58-73.33-59-119.85-.49-13.44-.7-33.34,12.03-41.67,19.36-11.23,45.57,13.98,57.17,27.66,7.48,8.76,14.02,18.21,19.49,28.23l-.81.59c-7.77-8.3-15.54-16.42-23.74-23.93-9.6-8.66-32.39-28.4-45.67-24.37-6.26,2.62-8.11,10.78-9.36,17.07-2.51,16.31-.46,32.94,2.58,49.15,3.14,16.39,8.76,32.27,16.95,46.81,5.44,9.77,12,18.94,19.37,27.37,3.68,4.25,7.58,8.32,11.66,12.21,0,0-.66.75-.66.75h0Z"/><path class="j" d="M131.65,407.16c45.78,6.59,80.31,58.3,68.9,103.06,0,0-1,.05-1,.05-1.39-21.42-8.19-42.59-20.33-60.34-8.84-13.45-20.58-24.97-34.03-33.8-4.46-3-9.13-5.69-13.96-8.06,0,0,.43-.9.43-.9h0Z"/><path class="i" d="M739.6,595.69c-3.42-8.3-3.51-17.69-.52-26.32,6.82-19.45,29.64-26.94,47.84-19.81,8.39,3.23,15.74,9.22,19.92,17.07,0,0-.5.49-.5.49-2.95-2.83-6.17-5.37-9.68-7.44-17.5-10.63-43.2-7.85-52.5,12.09-3.42,7.36-4.56,15.78-3.87,23.83,0,0-.69.09-.69.09h0Z"/><path class="i" d="M915.95,577.21c-4.63-12.74-9.38-24.95-21.19-31.4-6.27-3.32-13.45-4.02-20.45-2.54-7.07,1.4-13.29,4.94-19.41,9.28,0,0-.57-.41-.57-.41,2.28-3.14,4.9-6.03,7.92-8.51,16.83-13.28,40.34-8.84,49.49,11.01,3.37,7.05,4.9,14.83,4.9,22.58h-.7Z"/><ellipse class="j" cx="789.83" cy="601.83" rx="19.42" ry="28.35" transform="translate(60.76 1275.99) rotate(-80.07)"/><ellipse class="j" cx="872.37" cy="589.03" rx="28.35" ry="19.42" transform="translate(-154.34 356.97) rotate(-21.29)"/><path class="e" d="M156.88,408.95c29.13-14.48,73.97-35.37,130.4-55.93,193.85-70.61,404.71-98.43,416.06-146.02,1.19-4.97-2.32-23.65-6.66-57.42-1.8-14.04-2.71-21.05-3.23-23.95-4.97-27.77-27.9-67.98-68.46-83.55-40.13-15.4-103.29-9.31-119.6,31.43-12.45,31.09-.5,67.03,1.2,71.7,19.23,52.88,71.21,57.46,73.6,57.62-64.15,14.7-133.03,33.12-205.56,56.34-71.26,22.8-136.95,47.32-196.82,72.13-6.98,25.89-13.96,51.77-20.94,77.66Z"/><path class="j" d="M541.17,188.97c21.89,8.05,46.35,12.54,69.23,6.47,14.14-3.97,28.35-12.81,35.4-25.75,10.64-20.7-1.39-44.71-15.65-60.61-5.06-5.72-11-10.59-17.24-14.93-12.2-8.83-26.95-12.45-40.99-5.98-9.75,4.25-18.75,12.36-20.31,23.29-2.31,14.78,7.76,29.71,21.48,35.16,10.99,4.48,23.62,1.31,32.89-5.71-2.88,2.77-6.22,5.1-9.86,6.9-29.71,15.09-63.36-21.02-46.82-49.81,8.88-15,27.84-23.56,44.98-21.11,10.97,1.67,20.28,7.12,28.68,13.55,18.07,13.7,33.15,34.46,35.18,57.66,1.51,18.23-8,34.14-23.34,43.45-6.98,4.5-14.87,7.91-23.01,9.59-24.01,4.95-49.19-1.18-70.63-12.18h0Z"/><path class="e" d="M1000.14,215.1c-105.67,12.85-282.53,29.03-294.06-8.81-.72-2.37-2.39-18.63-5.82-51.13-2.55-24.15-3.83-36.23-3.7-40.15,1.04-31.62,22.2-64.03,49.55-82.35,31.67-21.21,91.95-37.8,113.95-5.69,17.05,24.89,12.96,61.24,12.3,66.01-7.51,53.97-53.64,73.14-55.76,73.98,45.36-2.11,90.72-4.23,136.07-6.34,15.83,18.15,31.65,36.31,47.48,54.46Z"/><path class="j" d="M845.83,150.9c-23.31,19.12-59.74,30.95-87.19,12.99-10.19-6.78-18.02-17.39-21.08-29.36-6.06-24.03,5.15-49.52,22.61-65.97,13.69-12.44,37.52-24.34,56.16-18.01,16.55,5.56,24.5,25.22,21.1,41.45-5.61,26.45-31.96,41.12-53.56,20.79,3.09,2.22,6.42,4.08,9.95,5.31,10.56,4.12,22.11.82,29.26-7.86,11.41-13.23,12.39-35.19-.85-47.4-14.05-12.24-34.01-3.09-47.6,5.7-11.87,7.77-20.98,19.86-26.14,33.03-5.12,13.03-5.99,28.17.6,40.74,6.55,12.77,18.99,21.57,33.07,24.11,22.1,4.08,44.92-3.98,63.68-15.52h0Z"/></svg>
