<?xml version="1.0" encoding="UTF-8"?><svg id="a" xmlns="http://www.w3.org/2000/svg" viewBox="0 0 1280 1280"><defs><style>.b{fill:none;}.b,.c,.d,.e,.f,.g,.h,.i,.j,.k{stroke-miterlimit:10;}.b,.c,.g{stroke:#020202;}.b,.d,.e,.f,.h,.k{stroke-width:4px;}.c{fill:#cb762b;}.c,.g,.j{stroke-width:5px;}.d,.e{fill:#fff;}.d,.f,.h,.i,.j,.k{stroke:#000;}.e{stroke:#231f20;}.l{fill:#020202;}.l,.m{stroke-width:0px;}.m{fill:#000;}.f,.j{fill:#c93939;}.g{fill:#fb0;}.h{fill:#c13838;}.i{fill:#ffd400;stroke-width:3px;}.k{fill:#ffbbbb;}</style></defs><path class="j" d="M418.01,516.75c-20.49,4.73-91.36,19.79-104.82-4.24-2.47-4.41-5.05-13.79-1.14-17.84,5.16-5.35,18.7,1.55,30.11,4.78,14.86,4.21,37.25,5.36,69.49-9.18"/><path class="j" d="M259.8,374.87c-2.17.96-12.12,5.76-13.76,16.24-.91,5.79.5,14.77,6,16.94,6.23,2.46,14.17-5.23,17.65-10.94,4.98-8.17,5.86-20.47.71-23.65-3.09-1.91-7.47.03-10.59,1.41Z"/><path class="c" d="M620.02,1242.05c-26.59,3.94-53.17,7.88-79.76,11.82-82.42-187.19-162.07-402.21-226.85-643.29-54.94-204.44-90.77-396.32-113.69-571.34,12.05-5.72,24.09-11.44,36.14-17.16,23.59,174.36,62.55,369.64,125.8,579.42,74.1,245.73,166.02,459.92,258.35,640.54Z"/><path class="g" d="M496.05,977.84c47,91.72,94.01,183.44,141.01,275.16-36.26,2.13-72.52,4.27-108.78,6.4-29.54-84.55-59.09-169.1-88.63-253.65.36-1.74,3.71-16.59,21.06-25.01,16.94-8.22,33.28-3.52,35.34-2.9Z"/><path class="g" d="M208.33,10.75c10.41-3.37,22.12-1.6,30.16,4.52,9.45,66.09,18.91,132.17,28.36,198.26-3.49-.35-11.27-.73-20.19,2.38-10.27,3.57-15.98,9.64-18.04,12.06-13.41-64.34-26.81-128.69-40.22-193.03.02-10.6,8.14-20.37,19.93-24.19Z"/><path class="m" d="M572.05,1231.09c-24.56,4.02-48.69,21.12-46.31,30.75,2.82,11.44,42.8,11.69,66.08,9.03,9.1-1.04,47.13-5.38,48.16-16.19,1.03-10.78-34.67-29.04-67.93-23.59Z"/><path class="j" d="M288.97,515.5c-3.52-2.06-41.45-25.08-44-68.28-.14-2.38-1.67-37.7,23.78-61.41,11.94-11.12,33.84-23.44,44.12-15.88,6.35,4.67,8.63,17.23,4.24,24.71-2.22,3.77-5.66,5.45-7.41,6.35-15.83,8.16-30.33,23.15-34.94,31.76-3.02,5.65-6.94,18.2,4.89,42.44,3.11,13.44,6.22,26.87,9.33,40.31Z"/><path class="j" d="M252.95,206.84c11.68,7.42,6.09,37.62.63,51.44-2.26,5.71-5.03,10-8.82,21.18-2.85,8.41-2.92,10.82-4.9,11.5-6.24,2.16-22.53-15.94-25.83-37.05-.74-4.72-4.02-25.73,10.42-39.02,7.3-6.71,20.77-12.98,28.51-8.05Z"/><path class="j" d="M669.47,262.71c-6.61,3.59-17.25,8.43-30.88,10.29-44.9,6.15-71.85-26.79-106.44-13.37-1.17.45.36-.09-20.03,13.37-37.5,24.76-51.13,32.18-64.71,38.24-9.47,4.23-14.21,6.34-17.72,7.16-37.39,8.74-80.79-21.51-103.76-47.65-10.31-11.72-22.86-29.83-48.97-44.96-3.57-2.07-6.59-3.61-8.57-4.59,5.09,25.39,10.18,50.78,15.27,76.18,1.78.58,4.31,1.59,6.98,3.38,5.73,3.82,8.48,8.84,9.18,9.88,8.9,13.25,45.21,60.13,93.18,73.41,7.99,2.21,41.81,11.58,74.82-2.82,15.47-6.75,21.42-14.64,29.65-12,20.32,6.52,26.27,68.14,8.47,77.65-14.8,7.9-33.09-27.09-78.35-30.35-10.89-.79-35.92-2.59-50.82,12-8.06,7.89-17.32,24.65,5.65,138.35,14.06,69.62,21.21,81.55,11.29,100.94-12.23,23.91-35.84,36.5-33.88,62.82.16,2.14,1.23,16.62,9.18,19.76,12.05,4.77,36.16-18.07,46.59-39.53,2.25-4.64,5.45-12.46,12.71-26.82,3.2-6.33,5.94-11.47,7.76-14.82-1.64-20.55-3.57-50.46-4.24-86.82-.94-51.52.38-60.17,6.35-63.53,17.43-9.81,62.04,30.47,87.53,67.76,14.4,21.07,45.25,74.2,36.71,141.18-1.44,11.31-4.33,32.51-16.94,56.47-16.16,30.73-51.35,71.92-83.24,72.39-2.81.04-8.03-.2-12.76,3.14-10.37,7.35-8.85,25.54-7.06,44.47,1.81,19.08,4.2,44.25,16.24,47.29,6.4,1.62,12.8-3.71,13.41-4.24,17.85-15.29-1.41-55.37,13.41-64.24,2.54-1.52,4.79-1.35,7.9-1.44,30.06-.88,74.1-38.52,77.51-41.62,43.93-39.86,60.26-93.39,75.44-143.15.34-1.13.89-2.82,1.5-5.09,7.27-26.93,7.77-48.53,8.47-78.35,1.2-51.07-6.63-60.88-2.12-87.53,1.72-10.16,12.31-73.46,53.65-87.53,11.38-3.87,20.29-3.09,38.12-.71,42.55,5.7,72.91,24.58,131.29,41.65,6.21,1.82,14.78,4.19,21.88,0,6.9-4.07,13.3-14.9,9.88-56.47-4.72-57.44-22.24-101.09-24.35-106.24-15.17-36.98-22.98-39.41-29.65-68.82-6.47-28.54-1.53-36.85-10.59-50.82-21.08-32.5-78.51-34.8-82.59-25.41-2.67,6.16,19.53,12.85,24.35,36,3.65,17.5-6.24,27.11,1.06,39.18,5.82,9.63,14.29,7.1,23.29,15.88,12.52,12.21,7.96,28.61,10.59,52.94,5.05,46.71,30.6,66.88,22.24,75.18-8.06,8-35.68-6.94-53.66-16.65-13.89-7.51-22.13-16.63-42.34-29.58-20.18-12.94-36.39-21.93-40.94-40.24-4.04-16.27,3.71-29.49-4.24-38.12-7.18-7.79-21.79-6.02-32.69-3.45Z"/><path class="f" d="M596.12,143.39c-9.79-13.63-16.42-13.91-19.14-13.5-12.87,1.94-23.5,31.98-16.06,55.01,2.3,7.12,5.95,12.41,8.96,15.97-1.01,3.26-2.19,7.89-2.77,13.53,0,0-1.29,12.51,2.11,25.68,8.13,31.55,56.04,59.28,60.72,61.93,23.23,13.18,39.33,15.63,46.86,16.36,14.4,1.4,23.99-.87,26.4-1.48,3.15-.79,15.76-4.21,28.3-14.23,4.49-3.59,8.17-7.38,12.44-11.79,8.2-8.46,8.4-10.16,14.03-14.94,7.86-6.67,10.18-5.68,13.17-10.4,4.2-6.62,3.3-14.35,2.79-18.77-1.37-11.79-7.67-19.86-10.91-23.44,2.39-1.05,5.25-2.53,8.27-4.66,2.93-2.06,5.27-4.19,7.06-6.06,2.05-.64,9.15-3.13,13-10.38,2.69-5.06,2.51-9.98,2.39-13.16-.24-6.48-2.37-11.36-3.72-13.95-.02-1.21-.23-3.48-1.5-5.88-1.89-3.55-4.89-5.04-5.93-5.51-.14-2-.61-5.06-2.2-8.37-2.55-5.32-6.5-8.13-8.34-9.28-1-4.34-3.45-12.41-9.87-20.12-2.26-2.71-12.25-14.08-29.07-15.99-10.25-1.16-18.38,1.71-22.35,3.42-2.44-2.18-6.01-5.21-10.57-8.48-5.79-4.14-10.9-7.81-16.64-9.76-8.85-3.01-16.72-1.13-24.39.82-16.27,4.12-27.25,12.62-36.03,19.56-7.33,5.79-17.24,14.78-27.02,27.86Z"/><path class="k" d="M757.97,275.94c1.5-1.57,2.71-2.6,4.58-3.93,3.99-2.84,6.48-3.14,8.6-6.47,4.2-6.62,3.3-14.35,2.79-18.77-1.37-11.79-7.67-19.86-10.91-23.44,2.49-.81,5.88-2.21,9.48-4.71,3.45-2.39,5.94-4.98,7.6-7,1.84-.93,8.7-4.69,12.05-13.17,4.63-11.71-1.47-22.24-2.13-23.33-.09-1.24-.37-2.95-1.19-4.8-1.8-4-4.98-5.93-6.24-6.59-.17-2.13-.66-5.18-2.2-8.37-7.34-15.24-29.97-16.09-34.41-16.25-5.3-.2-14.52.25-25.41,5.14-3.9-4.33-10.2-10.14-19.24-14.03-27.94-12.03-66.59,1.04-75.54,24.33-3.34,8.68-2.3,18.14-2.12,19.62,1.52,12.63,8.12,20.91,10.86,23.99-3.86,1.42-15.85,6.4-21.21,18.73-5.63,12.94-.5,25.99,1.74,31.69,20.77,52.81,116.16,54.27,127.01,44.22,5.03-4.66,9.71-9.81,9.71-9.81.59-.67,1.48-1.67,2.55-2.9,2.25-2.58,2.72-3.2,3.63-4.15Z"/><path class="e" d="M737.22,172.51c16.11-5.38,28.73-.33,36.37,2.73,9.02,3.61,25.04,12.39,23.25,19.26-1.08,4.16-8.22,5.92-15.83,7.8-9.83,2.43-33.56,8.3-52.95-6.84-4.87-3.8-8.26-7.99-10.51-11.27,3.86-3.45,10.57-8.64,19.66-11.67Z"/><path class="d" d="M727.43,179.01c-.78-11.87-24.69-18.83-38.39-20.79-17.59-2.52-42.21-.19-43.67,7.65-1.79,9.61,32.24,21.92,45.42,25.85,16.54,4.93,24.05,3.77,29.32-.15.72-.53,7.76-5.9,7.32-12.57Z"/><path class="m" d="M714.89,184.6c-3.63,8.43-18.28,12.01-27.24,6.47-8-4.94-12.95-18.04-8.38-25.76,4.49-7.59,16.79-7.62,24.18-3.78,7.92,4.12,14.87,15.11,11.44,23.07Z"/><path class="m" d="M774.17,195.3c-3.66,8.96-17.17,12.43-25.89,8.02-9.22-4.67-14.4-18.83-9.37-27.11,4.78-7.86,17.42-8.2,25.15-3.66,7,4.11,13.55,14.32,10.1,22.75Z"/><path class="h" d="M626.97,210.76c7.01-1.47,12.23,11.85,22.17,22.52,8.91,9.57,25.85,14.57,59.73,24.58,0,0,32.58,9.62,48.63,6.02,10.79-2.42,12.24-3.12,12.24-3.12,2.08-1,3.4-1.93,4.5-1.32,2.06,1.14,2.05,6.88-.14,10.69-3.24,5.65-10.79,5.77-11.55,5.77.1,1.2.17,3.91-1.22,6.82-.16.33-2.42,4.87-7.16,6.42-3.58,1.17-6.59-.03-9.78-1.04-5.89-1.86-12.19-1.98-18.21-3.35-15.83-3.59-19.34-3.76-28.43-5.88-18.42-4.29-32.04-7.47-46.01-16.15-14.17-8.81-35.64-27.6-32-42.88.89-3.74,3.53-8.32,7.24-9.1Z"/><path class="b" d="M631.22,225.58c2.13,4.08,5.76,10.09,11.55,16.02,10.99,11.26,22.89,15.22,42.37,21.44,5.12,1.64,19.2,5.95,39.02,9.11,14.95,2.38,27.8,3.25,37.53,3.54"/><path class="l" d="M648.8,157.82c15.6-9.76,35.33-13.14,53.17-8.29,9.99,2.47,21.35,6.79,25.83,16.97,1.73,4.11,1.58,8.68.12,12.44l-.39-.07c.69-3.85.31-7.96-1.6-11.39-6.16-10.55-19.51-13.09-30.63-15.32-7.76-1.42-15.74-1.41-23.54-.23-7.79,1.24-15.51,3.22-22.81,6.25,0,0-.15-.37-.15-.37h0Z"/><path class="l" d="M656.24,143.58c23.72-13.94,58.71-10.43,73.15,14.99,0,0-4.32-1.53-4.32-1.53l4.96-1.61-.73.31c.46-.26,1.01-.38,1.52-.52.48-.13,1.81-.47,2.31-.59,15.58-3.77,32.53-1.09,46.53,6.54,2.53,1.56,6.33,4.3,8.9,6.67.3,1.23.63,2.46.88,3.71,0,0,.77,3.53.77,3.53,0,0-.38.13-.38.13,0,0-2.3-6.8-2.3-6.8,0,0,.08.11.08.11-14.36-11.02-36.12-14.56-53.54-10.12,0,0-2.86.76-2.86.76l-.08.03-4.69,1.58s-.31.1-.31.1c-1.7-2.89-3.69-5.62-5.97-8.08-11.25-12.22-28.92-15.95-44.94-14.01-6.49.72-12.85,2.52-18.82,5.18,0,0-.16-.36-.16-.36h0Z"/><path class="l" d="M723.84,188.35c-11.32,19.7-36.06,20.67-53.98,9.38-5.67-3.47-10.8-7.75-14.74-13.04l.27-.3c4.83,4.15,10.22,7.66,15.89,10.54,11.23,5.63,24.71,8.55,36.78,3.95,5.98-2.17,11.23-6.08,15.48-10.79,0,0,.3.27.3.27h0Z"/><path class="l" d="M709.15,134.17c5.17,2.2,9.78,5.36,13.64,9.53,4.04,4.14,5.8,10.45,5.58,16.17,0,0-.19-.73-.19-.73,1.86,3.66,2.14,8.08.74,11.91,0,0,.05-.41.05-.41.11,3.16-.34,6.32-1.21,9.31-.88,2.99-2.21,5.82-3.9,8.38l-.35-.2c2.7-5.35,3.95-11.41,3.23-17.33-.04-.17,0-.26.05-.41.88-3.33.37-6.91-1.33-9.77l-.17-.28-.02-.45c-.3-10.63-9.75-18.05-16.35-25.37,0,0,.23-.33.23-.33h0Z"/><path class="l" d="M666.41,210.37c6.75-1.98,13.13-2.87,19.89-3.83,6.53-.92,12.1-3.13,18.52-5.54,0,0,.27.29.27.29-8.23,8-17.36,9.86-28.46,9.95-3.43.09-6.87-.08-10.27-.48,0,0,.04-.4.04-.4h0Z"/><path class="l" d="M734.42,204.53c3.35,1.97,6.82,3.7,10.44,5,7.16,2.63,15.04,3.28,22.53,2.93,5.64-.34,11.64-2.41,16.95-4.25-2.89,3.61-6.17,8.31-10.12,10.81-6.89,4.69-16.2,6.23-23.98,3.05,0,0,.09-.39.09-.39,7.7.43,15.28-1.67,21.54-6.09,2.03-1.41,3.94-3.01,5.67-4.82l1.94,3.03c-3.92.95-7.92,1.5-11.93,1.59-4.09,0-7.95-.45-11.86-1.09-7.83-1.28-15.13-4.83-21.48-9.44,0,0,.22-.33.22-.33h0Z"/><path class="l" d="M705.91,109c13.44,6.11,18.05,22.22,15.89,35.89,0,0-.28-.85-.28-.85,1.77,2.1,3.08,4.54,3.93,7.09.85,2.56,1.19,5.25,1.03,7.88h-.4c-.19-2.58-.82-5.1-1.86-7.4-1.1-2.45-2.7-4.6-4.59-6.42.24-3.45.07-6.92-.52-10.29-1.12-6.4-4.25-12.07-7.55-17.58-1.74-2.72-3.71-5.34-5.88-8.01l.24-.32h0Z"/><path class="l" d="M726.59,155.41c1.55,3.55,2.57,7.29,3.37,11.08,0,0-1.85-1.12-1.85-1.12,20.57-9.72,46.04-4.02,63.1,10.21,1.95,5.6,3.92,11.19,5.84,16.8,0,0-.37.14-.37.14-2.33-5.38-4.61-10.78-6.9-16.18l.26.34c-12.97-9.57-29.38-13.8-45.33-11.75-5.83.57-11.68,1.73-17.33,3.52-.24-2.4-.32-4.86-.56-7.27-.16-1.89-.39-3.77-.6-5.68l.39-.1h0Z"/><path class="m" d="M576.53,185.95c-2.75-4.2-4.63-9.02-5.48-14.08-1.1-5.71-.4-25.66,8.46-24.31,6.62,1.63,9.64,12.01,10.17,17.9,0,0-.38.12-.38.12-1.91-3.25-3.59-6.43-5.76-9.41-1.22-1.69-2.83-3.72-4.6-4.5-.46-.11-.6-.18-1.1.18-3.13,2.99-3.84,8.37-4.53,12.56-1.06,7.29.28,14.66,3.56,21.33,0,0-.35.2-.35.2h0Z"/><path class="m" d="M591.82,139.06c10.72,2.93,14.88,18.54,7.27,26.55,0,0-.39-.1-.39-.1.27-1.15.46-2.32.58-3.5.83-7.02-1.13-14.35-5.44-19.96-.7-.95-1.47-1.85-2.3-2.7l.28-.29h0Z"/><path class="l" d="M701.96,226.78c-2.36-4.74,1.69-10.55,6.91-10.71,5.05-.36,9.89,4.04,8.92,9.01,0,0-.36.17-.36.17-.84-1.55-2.01-2.89-3.45-3.85-5.18-3.35-10.39-.2-11.63,5.45,0,0-.39-.07-.39-.07h0Z"/><path class="l" d="M739.07,234.63c-1.81-3.83-2.55-6.34-6.02-8.2-1.01-.51-2.42-.85-4.59-.98l-.24-.32c4.42-3.89,11.36-1.51,11.82,4.54.2,1.73-.03,3.46-.59,5.08,0,0-.38-.12-.38-.12h0Z"/><path class="i" d="M596.77,141.19c6.88-1.12,17.38-2.56,30.22-3.14,44.1-2.02,88.85,6.18,94.29-3.16.57-.98,1.08-5.17,2.42-12.62.56-3.1.83-4.65.92-5.29.81-6.22-1.21-16.28-8.44-22.3-7.16-5.95-20.41-8.88-26.41-1.33-4.58,5.76-4.51,14.18-4.47,15.29.44,12.5,10.72,16.95,11.19,17.14-14.02-1.17-29.26-1.87-45.55-1.79-16,.07-30.99.88-44.81,2.14-3.12,5.02-6.25,10.05-9.37,15.07Z"/><path class="m" d="M689.46,120.23c2.77,2.1,5.78,3.86,8.99,4.86,5.77,2.01,14.08.41,15.28-6.39.93-5.76-2.11-13.33-7.12-16.56-2.43-1.4-6.08-.99-8.27.84-2.23,1.85-2.57,5.56-.99,8.32,1.53,3.08,5.25,4.24,8.46,3.08-3.18,1.93-7.67.93-9.71-2.29-6.91-11.49,9.42-18.76,16.16-8.6,3.35,4.42,5.35,10.21,4.24,15.8-1.18,6.1-7.51,9.23-13.3,8.58-5.39-.57-10.22-3.75-13.74-7.63h0Z"/><path class="i" d="M781.16,156.45c-22.35-4.34-59.42-12.73-59.28-21.52,0-.55.74-4.11,2.18-11.23,1.07-5.29,1.6-7.94,1.89-8.76,2.29-6.64,8.73-12.1,15.5-14.15,7.84-2.38,21.2-1.87,23.57,6.41,1.83,6.42-1.39,13.85-1.84,14.82-5.08,10.94-15.73,11.93-16.21,11.96,9.37,2.58,18.74,5.17,28.11,7.75,2.03,4.91,4.05,9.82,6.08,14.72Z"/><path class="m" d="M753.98,132.52c-6.06,2.8-14.72,2.8-19.1-3.07-4.85-6.28-1.58-15.02,4.45-19.14,4.88-3.46,14.13-5.29,17.51,1.06,2.02,4.33,0,9.79-4.15,12.01-3.39,1.96-7.32.31-8.83-3.09,1.83,2.67,5.4,3.89,8.06,1.83,4.99-3.3,4.74-12.46-2.45-12.08-5.92-.06-11.93,4.05-13.76,9.7-1.48,4.24.38,9.15,4.26,11.44,4.17,2.47,9.27,2.39,13.99,1.33h0Z"/><path class="j" d="M786.63,221.36c.5-4.21.69-10.44-1.38-17.35-6.09-20.26-25.93-26.93-23.78-33.15,2.41-6.99,29.09-3.32,30.62-3.1,14.44,2.07,25.51,7.16,32.28,10.89"/></svg>
