<?xml version="1.0" encoding="UTF-8"?><svg id="a" xmlns="http://www.w3.org/2000/svg" viewBox="0 0 1280 1280"><defs><style>.b{fill:#c13838;}.b,.c,.d,.e,.f,.g,.h,.i,.j,.k{stroke-miterlimit:10;stroke-width:6px;}.b,.c,.d,.f,.g{stroke:#000;}.c,.k{fill:#c93939;}.d{fill:#ffbbbb;}.l{fill:#020202;}.l,.m{stroke-width:0px;}.m{fill:#000;}.e{fill:none;}.e,.i,.j,.k{stroke:#020202;}.f{fill:#ffd400;}.g,.h{fill:#fff;}.h{stroke:#231f20;}.i{fill:#fb0;}.j{fill:#cb762b;}</style></defs><path class="j" d="M72.99,777.85c-1.25,1.95-13.93,22.44-4.6,44.85,6.4,15.37,19.26,22.3,23,24.15,152.43-72.93,359.32-152.86,613-200.12,182.07-33.92,345.43-43.04,480.74-41.4,7.39-3.92,11.89-11.57,11.5-19.55-.48-9.9-8.26-15.45-9.2-16.1-139.48-6.68-310.89-3.04-503.74,27.6-251.97,40.04-458.46,113.15-610.7,180.56Z"/><path class="i" d="M303.02,688.71c-87.43,28.61-165.08,59.43-232.18,89.14-1.25,1.95-13.93,22.44-4.6,44.85,6.4,15.37,19.26,22.3,23,24.15,66.7-31.91,143.83-65.17,230.75-96.44-5.67-20.57-10.39-41.42-16.97-61.71Z"/><path class="i" d="M1194.49,585.78c-.48-9.9-8.26-15.45-9.2-16.1-49.11-2.35-102.2-3.42-158.77-2.48-.43,13.84-1.87,27.65-3.73,41.4,56.88-3.01,110.44-3.87,160.2-3.27,7.39-3.92,11.89-11.57,11.5-19.55Z"/><path class="e" d="M72.64,777.85c19.59,4.42,33.31,20.37,33.8,37.72.51,18.06-13.55,29.79-15.4,31.28"/><path class="c" d="M779.02,836.29c54.47,68.21,112.04,103.19,142.59,87.53,11.16-5.72,23.69-20.75,24-36.71.53-27.48-36.22-36.84-36.71-70.59-.03-2.26-.09-24.59,12.71-31.06,8.56-4.33,18.95.43,24,2.82,28.33,13.44,61.75,56.12,55.06,105.88-.89,6.64-6.43,42.69-38.12,66.35-40.85,30.51-90.75,14.74-101.65,11.29-25.18-7.96-41.57-23.4-73.41-53.65-27.98-26.58-48.48-51.3-62.12-69.18"/><path class="k" d="M160.82,333.89c-24.31,18.14-29.26,69.47,4.87,113.45.23,19.89,3.29,124.49,80.47,188.47,11.8,9.79,55.32,45.86,117.53,52.94,42.02,4.78,58.43-7.56,82.59,7.41,36.59,22.68,41.59,77.44,43.99,103.71,1.88,20.65,4.49,49.2-10.02,78.92-7.53,15.42-16.07,23.78-55.12,57.62-67.49,58.49-74.86,62-79.44,75.27-7.29,21.11-3.54,55.36,46.87,112.62,2.33,31.55,6.92,47.83,13.78,48.85,8.57,1.27,20.68-21.27,36.33-67.64-3.34-2.57-31.38-24.75-27.56-51.36,2.52-17.52,17.55-26.71,47.6-45.1,23.61-14.44,53.74-32.87,72.65-21.3,3.93,2.4,8.83,7,12.53,17.54,16.83,48-11.22,162.62-16.28,182.89-32.16,26.51-46.36,43.21-42.59,50.11,4.42,8.11,33.65,2.68,87.69-16.28,38.07-83.08,74.08-148.31,100.21-192.91,66.34-113.24,82.15-116.08,107.73-181.64,43.05-110.32,19.01-155.39,67.64-192.91,33.62-25.94,79.69-31.08,149.07-38.83,36.13-4.04,66.47-4.3,87.69-3.76,19.64-6.2,34.65-21.02,37.58-38.83,4.75-28.86-23.15-59.8-46.35-56.37-14.88,2.2-23.88,17.97-26.31,22.55-29.9,1.79-76.51,3.55-134.03,1.25-59.33-2.37-73.94-4.18-105.22,0-60.95,8.14-73.22,27.92-130.19,44.41-28.27,8.18-33.71,5.76-182.12,7.41-128.91,1.44-149.91,3.55-177.48-14.24-45.2-29.16-61.95-82.05-68.9-116.5,1.4-2,32.24-47.33,11.27-90.19-9.91-20.26-26.62-30.23-31.72-33.19-20.78-12.03-54.63-19.41-74.75-4.39Z"/><path class="c" d="M849.62,279.38c34.06-22.62,49.95-17.88,56.05-14.76,28.86,14.74,29.91,90.62-6.14,136.21-11.13,14.08-24,22.99-33.97,28.54-.22,8.12-1.15,19.43-4.3,32.54,0,0-6.98,29.06-25.56,55.83-44.49,64.09-179.93,87.49-193.11,89.66-65.45,10.75-105.46,3.22-123.84-1.22-35.15-8.49-55.98-21.34-61.2-24.65-6.81-4.33-33.87-22.16-55.47-54.74-7.74-11.68-13.38-23.13-19.95-36.47-12.59-25.57-11.71-29.54-21.19-44.8-13.22-21.3-19.5-20.95-22.8-33.93-4.62-18.21,3.7-34.81,8.46-44.31,12.69-25.31,34.05-38.29,44.57-43.69-4.8-4.27-10.37-9.92-15.81-17.13-5.27-6.99-9.08-13.65-11.83-19.27-4.34-3.08-19.1-14.4-22.41-33.76-2.3-13.5,2.08-24.39,4.91-31.42,5.76-14.31,14.7-23.54,19.97-28.25,1.03-2.7,3.33-7.62,8.27-11.96,7.3-6.41,15.59-7.35,18.42-7.54,1.93-4.36,5.49-10.85,11.9-16.98,10.3-9.85,21.88-12.97,27.15-14.04,5.83-8.9,18.09-25.01,39.44-37.09,7.51-4.25,40.24-21.65,81.5-12.33,25.14,5.68,42.07,18.68,50.07,25.73,7.51-2.92,18.38-6.82,31.78-10.45,16.99-4.61,32.02-8.68,47.14-8.42,23.32.4,40.42,10.99,56.97,21.54,35.13,22.38,54.27,50.29,69.46,72.92,12.69,18.9,28.9,47.03,41.52,84.25Z"/><path class="d" d="M360.95,445.49c-2.29-4.73-4.32-8.02-7.67-12.5-7.16-9.58-12.8-12.26-15.13-21.43-4.62-18.21,3.7-34.81,8.46-44.31,12.69-25.31,34.05-38.29,44.57-43.69-5.24-3.83-12.12-9.71-18.63-18.21-6.24-8.15-10.04-15.96-12.35-21.82-3.6-3.57-16.8-17.54-17.92-39.25-1.54-29.97,21.29-48.62,23.73-50.54,1.2-2.7,3.23-6.32,6.66-9.78,7.45-7.51,16.53-9.24,20.02-9.72,2.1-4.64,5.7-11.06,11.9-16.98,29.56-28.2,83.72-11.81,94.35-8.6,12.68,3.84,34.1,12.28,55.93,32.06,12.69-6.54,32.24-14.47,56.7-15.88,75.66-4.36,156.52,56.14,159,115.54.92,22.14-9.11,42.49-10.72,45.66-13.71,27.05-35.95,40.27-44.88,44.97,7.98,6.3,32.31,27.15,35.11,59.11,2.94,33.53-19.65,58.62-29.51,69.57-91.39,101.51-317.98,27.7-335.56-3.59-8.15-14.5-15.09-29.83-15.09-29.83-.87-1.97-2.16-4.94-3.71-8.56-3.24-7.6-3.86-9.36-5.25-12.22Z"/><path class="h" d="M492.87,230.6c-33.76-25.08-67.62-23.96-88.13-23.28-24.22.8-69.09,7.51-70.38,24.35-.78,10.18,14.68,19.91,31.14,30.26,21.28,13.39,72.64,45.7,130.59,27.45,14.55-4.58,25.92-11.22,33.87-16.76-6.35-10.84-18.06-27.89-37.1-42.04Z"/><path class="g" d="M510.79,253.06c11.37-25.95,73.44-22.22,107.37-15.54,43.59,8.58,99.9,33.69,97.06,52.44-3.48,22.98-93.74,23.04-128.03,21.19-43.04-2.32-59.85-11-69.17-24.03-1.27-1.78-13.6-19.49-7.22-34.06Z"/><path class="m" d="M535.97,275.71c1.82,21.81,33.56,41.67,59.19,36.51,22.85-4.6,45.07-29.94,40.46-50.94-4.53-20.64-33.57-30.64-54.11-28-22.02,2.83-47.25,21.83-45.53,42.42Z"/><path class="m" d="M387.31,251.79c1.46,23.03,30.62,41.72,54.74,38.88,25.54-3,49.12-30.54,43.86-53.16-5-21.47-34.59-32.45-56.5-28.52-19.83,3.55-43.49,21.12-42.11,42.8Z"/><path class="b" d="M722.73,405.36c-15.39-8.95-38.39,16.66-70.43,32.53-28.73,14.24-72.76,11.76-160.82,6.79,0,0-84.71-4.78-119.73-25.8-23.56-14.15-26.42-16.87-26.42-16.87-4.12-3.93-6.49-7.06-9.58-6.59-5.78.88-10.36,13.75-8.24,24.07,3.13,15.28,20.87,21.63,22.67,22.25-1.21,2.61-3.54,8.62-2.58,16.28.11.86,1.81,12.87,11.77,20.16,7.53,5.51,15.59,5.25,23.95,5.58,15.41.6,30.38,5.41,45.7,7.21,40.29,4.75,48.7,7.2,71.89,9.81,46.97,5.27,81.69,9.17,121.66,1.01,40.53-8.28,106.33-33.02,109.99-70.18.9-9.09-1.68-21.5-9.82-26.24Z"/><path class="e" d="M700.82,435.12c-8.31,7.42-21.69,17.94-40.13,26.55-34.98,16.34-66.28,15.59-117.31,13.79-13.42-.47-50.14-2.18-99.51-11.13-37.23-6.74-68.28-15.18-91.51-22.39"/><path class="l" d="M713.06,269.72c-24.04-16.23-49.57-30.62-77.18-39.58-15.93-5.28-32.48-7.89-49.14-9.7-20.45-1.84-43.6-3.2-61.07,9.02-7.65,5.46-12.79,14.12-15.18,23.2,0,0-.59-.09-.59-.09,1.42-9.77,6.11-19.13,13.73-25.53,19.15-15.6,47.76-14.07,70.97-11.58,24.46,2.44,48.4,9.5,70.14,20.99,17.33,9.19,33.89,19.95,48.72,32.82,0,0-.39.45-.39.45h0Z"/><path class="l" d="M706.86,231.79c-41.7-32.86-105.73-52.35-155.62-27.85-8.18,4-15.73,9.3-22.79,15.04-2.81-2.18-11.03-8.13-13.85-10.49.23.26.5.5.79.7-3.85-2.65-8.29-5.52-12.39-7.9-3.24-1.74-6.49-3.49-9.73-5.22-1.67-.77-5.04-2.32-6.7-3.09-2.27-1.12-7.89-3.17-10.29-4.14-22.26-7.76-45.98-11.77-69.6-11.33-5.5.09-11.14.8-16.59,1.65-4.29.71-8.58,1.51-12.83,2.52,0,0,.68-.45.68-.45-3.84,4.28-7.79,8.48-11.69,12.71l-.47-.38s10.83-13.41,10.83-13.41c8.36-2.68,17.37-4.42,26-5.52,27.94-2.32,56.39,1.81,82.54,11.83,2.03.7,5.03,2.13,7.04,2.98,4.65,1.95,9.23,4.5,13.67,6.84,4.2,2.4,8.53,5.16,12.55,7.86,0,0,.2.13.2.13.06.05.12.07.29.22l-.09-.08,9.93,7.34h-.73c22.23-18.26,51.75-26.23,80.23-23.77,20.33,1.58,40.23,7.47,58.59,16.21,14.75,6.94,28.38,16.19,40.44,27.14l-.4.44h0Z"/><path class="l" d="M512.54,276.59c11.31,18.62,26.09,33.68,45.34,42.86,37.22,17.43,79.78,12.43,118.94,4.05,0,0,.22.56.22.56-7.42,2.85-15.04,5.06-22.75,6.94-30.61,7.22-64.24,8.94-93.56-4.1-21.97-9.6-39.4-28.12-48.74-50.06,0,0,.55-.24.55-.24h0Z"/><path class="l" d="M590.13,168.14c-11.41,4.64-22.73,9.06-33.48,14.96-12.15,6.55-21.99,15.22-26.9,28.34,0,0-.23.61-.23.61l-.42.35c-6.46,5.31-10.59,13.37-10.98,21.75,0,0-.02.38-.02.38l-.12.26c-6.26,12.91-7.84,27.76-5.4,41.86,0,0-.59.12-.59.12-2.64-10.68-2.91-21.99-.43-32.74.8-3.62,1.95-7.16,3.37-10.59,0,0-.14.64-.14.64,0-4.68.97-9.41,2.92-13.73,1.96-4.32,4.84-8.22,8.36-11.42,0,0-.66.96-.66.96,7.62-22.21,23.41-32.03,44.99-38.3,6.41-1.89,12.96-3.3,19.58-4.03l.15.58h0Z"/><path class="l" d="M629.68,373.36c-13.08.09-25.86-3.16-37.99-7.72-12.49-4.49-24.56-11.35-33.13-21.67-5.84-6.74-10.31-14.58-12.66-23.02l.52-.3c4.26,7.29,9.43,14.03,15.47,19.91,9.01,9,20.32,15.03,32.01,19.83,7.77,3.36,15.64,6.41,23.73,8.89,4.03,1.28,8.09,2.44,12.19,3.48,0,0-.14.58-.14.58h0Z"/><path class="l" d="M474.02,305.34c-18.89,4.89-38.79,6.62-58.1,3-9.69-1.82-19.13-4.03-28.49-7.34-9.23-3.5-18.08-7.98-26.41-13.34l4.2-3.44c2.63,5.73,5.92,11.12,9.76,16.09,7.76,9.99,17.7,18.22,29.2,23.65,5.77,2.78,11.92,4.84,18.3,6.34l-.07.6c-27.17-.45-52.82-19.13-62.39-44.47,0,0-3.52-9-3.52-9l7.72,5.56c11.6,8.37,24.55,14.68,38.41,18.5,13.81,4.09,28.03,6.81,42.53,6.47,9.63-.11,19.25-1.31,28.75-3.19l.14.58h0Z"/><path class="l" d="M618.01,114.37c-17.29,8.03-32.62,19.13-44.99,33.53-8.24,9.94-14.03,21.75-17.36,34.25,0,0-.21.78-.21.78,0,0-.64.3-.64.3-11.2,5.15-20.3,14.6-24.98,26.09,0,0-.56-.21-.56-.21,3.87-12.26,12.76-22.66,24.09-28.77,0,0-.85,1.08-.85,1.08,3.25-16.35,11.1-31.7,22.14-44.18,8.38-9.35,19.36-16.31,31.17-20.45,3.92-1.37,7.94-2.4,12.02-2.99,0,0,.17.57.17.57h0Z"/><path class="l" d="M532.35,201.33c-5.04,8.48-9.4,17.33-13.64,26.22-18.1-13.54-38.48-23.77-59.98-30.54-30.47-9.51-63.67-9.25-94.28-.4,0,0,.53-.34.53-.34,0,0-28.77,31.02-28.77,31.02l-.45-.4,27.45-32.2.2-.23c22.84-7.72,47.48-10.2,71.47-7.63,31.26,3.33,60.69,15.12,84.34,36.07,0,0-3.08.65-3.08.65,4.64-7.92,9.72-15.6,15.72-22.57,0,0,.49.35.49.35h0Z"/><path class="m" d="M861.28,389.95c13.37-11.92,23.04-27.52,26.73-44.99,1.93-9.24,4.72-24.89-.53-33-3.03-3.89-8.5-1.23-12.39.58-10.21,5.39-18.9,13.88-27.32,21.96,0,0-.47-.37-.47-.37,6.71-11.61,20.3-28.26,34.46-30.3,19.81-1.33,13.25,30.53,10.13,42.11-4.69,17.66-15.79,33.54-30.21,44.48,0,0-.38-.46-.38-.46h0Z"/><path class="m" d="M863.57,273.88c-18.84,17.35-27.78,29.36-37.99,52.94,0,0-.6-.04-.6-.04.93-17.36,9.71-34.08,23.45-44.72,4.53-3.58,9.55-6.54,14.9-8.73,0,0,.24.55.24.55h0Z"/><path class="l" d="M531.92,380.53c-3.94-12.14-9.55-18.48-22.53-18.23-3.99.09-8.26,1.12-12.18,2.32,0,0-.42-.43-.42-.43,1.59-1.54,3.34-2.93,5.27-4.07,9.8-5.71,24.14-3.91,28.95,7.38,1.8,4.14,2.18,8.74,1.49,13.13,0,0-.59-.1-.59-.1h0Z"/><path class="l" d="M437.92,368.24c-3.92-8.53-.15-19.83,8.42-24.06,7.54-4.13,17.93-1.83,22.84,5.16,1.36,1.96,2.31,4.14,2.62,6.5,0,0-.49.34-.49.34-2.4-3.23-5.61-5.88-9.35-7.26-7.55-3.04-16.62.52-20.22,7.77-1.88,3.53-2.93,7.55-3.21,11.54,0,0-.6,0-.6,0h0Z"/><path class="f" d="M849.84,273.93c-15.36-8.08-39.02-19.77-68.89-31.46-102.59-40.16-214.9-57.96-220.27-83.27-.56-2.64,1.59-12.46,4.4-30.23,1.17-7.39,1.75-11.08,2.07-12.6,3.06-14.59,15.9-35.49,37.81-43.12,21.67-7.54,55.35-3.39,63.47,18.37,6.2,16.61-.71,35.41-1.69,37.85-11.05,27.65-38.9,29.3-40.18,29.35,34.08,8.71,70.62,19.46,109.06,32.79,37.76,13.1,72.51,27.02,104.15,41,3.35,13.77,6.71,27.55,10.06,41.32Z"/><path class="m" d="M647.63,152.08c-11.56,5.86-25.04,8.91-37.95,6.14-21.1-5.21-31.71-22.71-20.75-42.77,4.37-8.04,10.92-14.62,18.63-19.42,8.12-5.35,18.42-7.07,27.31-2.32,4.21,2.12,8.07,5.32,10.45,9.72,7.5,13.48-5.64,30.46-20.28,28.39-4.47-.68-8.43-2.99-11.35-6.07,3.43,2.5,7.49,4.08,11.51,4.14,7.78.11,15.2-6.03,16.92-13.43,3.1-11.55-10.17-20.38-20.53-18.82-6.44.95-12.53,5.35-17.45,9.64-8.6,8.05-16.75,20.98-11.23,32.75,5.64,10.43,18.13,15.47,29.93,15.72,8.33.3,16.8-1.21,24.78-3.65h0Z"/><path class="f" d="M401.91,159.1c56.3,8.35,150.6,19.5,157.31-.31.42-1.24,1.55-9.8,3.86-26.92,1.72-12.72,2.57-19.08,2.56-21.15-.09-16.72-10.94-34.15-25.28-44.22-16.62-11.67-48.6-21.32-60.83-4.68-9.48,12.89-7.82,32.16-7.54,34.69,3.23,28.62,27.6,39.42,28.73,39.9-24.21-1.79-48.43-3.57-72.64-5.36-8.72,9.36-17.45,18.71-26.17,28.07Z"/><path class="m" d="M485.33,127.47c12.33,7.4,27.99,12.49,41.44,5.81,15.54-8.45,14.86-26.94,5.02-39.72-5.44-7.57-18.31-15.9-27.7-13.72-4.82,1.15-8.3,6-9.32,10.86-1.8,8.64,3.59,19.67,13.07,20.66,3.89.4,7.84-1.03,11.15-3.11-4.37,4.3-11.66,6.64-17.61,3.8-12.88-5.94-15.85-24.81-5.37-34.51,9.19-8.37,22.92-3.47,31.85,2.67,10.88,7.54,18.24,20.51,17.65,33.92-.45,12.73-10.39,23.6-22.78,25.86-13.59,2.46-27.58-3.67-37.41-12.52h0Z"/></svg>
