<?xml version="1.0" encoding="UTF-8"?>
<svg id="Layer_1" data-name="Layer 1" xmlns="http://www.w3.org/2000/svg" viewBox="0 0 1280 1280">
  <defs>
    <style>
      .cls-1 {
        fill: #ef242f;
      }

      .cls-1, .cls-2, .cls-3, .cls-4, .cls-5, .cls-6 {
        stroke-width: 0px;
      }

      .cls-7, .cls-8, .cls-9, .cls-10, .cls-11 {
        stroke: #000;
      }

      .cls-7, .cls-10 {
        stroke-width: 12.61px;
      }

      .cls-7, .cls-10, .cls-11 {
        stroke-linecap: round;
        stroke-linejoin: round;
      }

      .cls-7, .cls-11 {
        fill: none;
      }

      .cls-8 {
        fill: #b2272c;
        stroke-width: 5px;
      }

      .cls-8, .cls-9 {
        stroke-miterlimit: 10;
      }

      .cls-2 {
        fill: #eabe42;
      }

      .cls-3, .cls-10 {
        fill: #000;
      }

      .cls-4 {
        fill: #de3c31;
      }

      .cls-5 {
        fill: #f5c785;
      }

      .cls-9 {
        fill: #f5c941;
        stroke-width: 10px;
      }

      .cls-11 {
        stroke-width: 12px;
      }

      .cls-6 {
        fill: #fff;
      }
    </style>
  </defs>
  <path class="cls-1" d="M167.15,1051.64c38.82,60.69,26.96,95.61,212.89,113.34,244.73,23.34,269.54,20.16,312.79,13.57,70.79-10.78,129.98-30.59,135.63-32.51,28.7-9.74,21.01-9.09,83.44-32.31,53.42-19.86,69.64-24.27,95.02-40.38,16.92-10.75,28.95-21.62,53.01-43.36,46.7-42.2,70.05-63.3,78.07-82.63,21.84-52.63,1.42-114-16.98-135.33-25.73-29.82-54.51-67.93-61.81-80.56,0,0,28.96-3.6,47.41-28.8,18.45-25.2-1.07-24.11,27.07-33.67,46.99-15.98,36.51-34.54,39.67-57.55,3.16-23.02-.08-76.12-22.94-90.82-6.21-3.99-11.76-9.82-11.76-9.82-9.39-7.34-10.51-7.09-14.99-11.22-7.54-6.97-6.37-9.56-13.98-17.44-5.86-6.07-7.86-4.91-15.79-12.44-16.77-15.94-14.48-24.93-51.34-28.4-45.56-4.29-23.13-5.02-23.13-5.02,0,0,.82,12.47-25.99-29.92-26.82-42.38-61.31-88.49-109.08-98.37-47.76-9.89-63.58-17.56-113.17,8.82-49.59,26.38-90.03,71.28-90.03,71.28,0,0-47.87-56.71-120.23-72.42-72.37-15.71-130.68,41.81-165.03,75.98-34.36,34.17-73.75,84.72-89.97,134.03-16.24,49.32-15.72,60.33-15.72,60.33l-9.4-10.17-40.73,16.07s-100.96,36.21-110.78,77.87c-9.82,41.66,9.69,74.89,25.16,94.56,0,0,9.79-9.92.05,25.73-9.74,35.64-49.54,164.31,12.66,261.56Z"/>
  <path class="cls-5" d="M402.96,537.84l24.46,249.94s-58.04,77.31-36.07,177.49c21.97,100.19,64.73,123.45,110.24,129.94,45.5,6.48,466.03,12.38,510.18-20.41,44.16-32.8,28.17-31.03,28.17-31.03,0,0,135.65-120.18,76.9-226.96l-87.04-62.18,1.18-16.4s64.17,1.96,85.99-61.4c0,0,54.36,8.23,49.07-58.65-2.87-36.32,5.57-54.73-3.31-74.06-6.41-13.95-15.5-23.41-21.84-29.01-10.43-8.28-26.7-21.31-46.7-37.77-17.69-14.57-22.83-18.37-30.55-23.49-11.36-7.53-29.5-13.99-66.38-14.92-79.35-1.99-179.45-5.55-253.08,31.56,0,0-212.19-94.21-341.2,67.35Z"/>
  <path class="cls-6" d="M836.16,617.25s67.38-72.28,164.4-76.86c97.03-4.56,174.76,26.48,182.49,42.58,7.73,16.1-7.7,25.63-25.4,39.7-17.69,14.07-154.91,77.51-317.76,53.26l-8.38-6.61s-40.58,43.19-159.18,38.77c-118.6-4.43-164.35-33.98-164.35-33.98,0,0,26.09-91.35,147.43-95.76,121.35-4.4,138.47-2.01,154.24,4.58,15.76,6.58,26.5,34.32,26.5,34.32Z"/>
  <path class="cls-4" d="M1053.65,903.92s-68.12,32.51-187.77,29.97c-119.63-2.56-135.97,28.37-206.61-26.68-70.63-55.05-108.31-83.69-144.37-46.12-9.55,9.95-15.33,20.74-17.75,31.97-6.55,30.38,20.88,70.18,48.74,95.51,56.68,51.55,130.3,59.02,275.21,71.86,55.26,4.9,81.47,4.32,95.33,3.75,62.78-2.55,129.62-6.85,176.32-52.18,12.39-12.02,17.55-24.67,27.96-37.42,28.89-35.38,40.36-70.99,29.79-95.99-10.58-24.99-8.52-64.59-23.89-63.9-15.36.69-59.64,32.87-72.98,89.22Z"/>
  <path class="cls-11" d="M577.45,918.53c30.7,38.12,98.63,57.77,144.63,69.48,106.8,27.19,196.08,28.49,299.64-10.05,34.59-12.88,89-52.88,111.73-94.34,11.08-20.22,16.91-36.94,4.81-58.43-1.81-3.23-4.06-5.35-6.59-6.58-10.54-5.13-27.41,8.14-33.62,13.08-25.54,20.32-40.84,52.06-49.27,74.45-21.48,7.04-50.67,15.29-85.91,21.35-14.13,2.43-49.81,5.68-112.19,8.76-56.55,2.79-122.24,8.58-174.22-15.2-38.72-17.72-57.94-60.77-101.26-71.8-28.19-7.18-89.28,7.15-83.01,51.29,6.27,44.14,61.38,105.11,99.23,122.43,88,40.26,198.5,37.14,293.06,37.87,42.99.33,91.52,3.25,132.76-10.84,52.72-18.02,79.25-46.21,112.1-90.6,32.85-44.39,21.32-94.75,17.29-93.88"/>
  <path class="cls-11" d="M1050.66,1035.78c-10.04,11.66-40.19,37.4-54.75,44.04-34.51,15.72-53.74,12.09-91.88,14.52-70.29,4.47-112.55,6.44-183.04,8.91-58.75,2.05-210.1,10.78-258.55-19.55-57.29-35.86-74.52-83.71-76.32-159.89-.87-37.04,24.34-125.92,52.11-138.57"/>
  <path class="cls-11" d="M426.88,790.98c-9.4-19.61-18.66-191.17-26.04-249.76"/>
  <path class="cls-11" d="M400.69,543.18c3.12-15.64,50.16-55.02,62.84-64.97,78.71-61.83,269.62-54.02,312,40.58"/>
  <path class="cls-11" d="M741.27,473.86c5.42-6.99,55.43-21.48,55.43-21.48,0,0,127.83-37.92,189-7.82"/>
  <path class="cls-11" d="M988.11,443.99s23.72-5.55,30.49-5.22c33.4,1.61,77.88,32.18,99.27,55.73"/>
  <path class="cls-11" d="M826.53,563.07c11.42-8.76,42.67-41.94,103.18-62.58,60.5-20.64,112.06-16.31,143.74-11.12,14.58,2.39,57.66,9.22,73.66,28.79,18.74,22.91,23.04,48.84,23.04,48.84"/>
  <path class="cls-11" d="M840.15,619.48s22.65-27.29,57.4-46.2c34.75-18.92,44.19-21.62,81.6-29.47,55.6-11.68,115.32-12.48,167.61,12.97,6.73,3.28,39.51,23.4,38.31,32.48-2.36,17.95-43.84,40.06-70.69,52.66-83.36,39.12-187.8,47.94-276.57,30.87"/>
  <path class="cls-11" d="M1168.13,613.92c-.28-.94,10.77,28.47-10.16,49.47-15.36,15.4-33.89,20.27-56.62,17.99"/>
  <path class="cls-11" d="M1119.18,682.89c2.15-3.82-2.55,27.62-66.81,50.34-64.26,22.71-150.54,27.45-188.94,33.22"/>
  <path class="cls-11" d="M1026.45,744.14c4.05,6.11,5.52,16.29,5.68,16.39,27.13,15.23,58.36,28.29,79.98,52.09"/>
  <path class="cls-11" d="M1060.23,732.16c18.05,32.54,41.92,64.11,57.38,81.14"/>
  <path class="cls-11" d="M502.25,674.72c-3.37-1.71,21.23-52.06,84.69-78.57,55.66-23.24,84.71-21.72,145.65-20.63,25.69.45,69.65-.22,84.93,11.13,20.95,15.56,21.73,50.18,20.75,68.88-1.7,32.33-76.87,45.36-109.82,49.89-19.2,2.64-78.47,7.08-134.96-.4-56.49-7.47-56.44-17.8-90.98-29.51-1.52-.52-13.94,4.13-23.93,3.42-18.34-1.3-38.47-7.96-38.47-7.96"/>
  <path class="cls-11" d="M834.76,673.18c9.87,30.17-30.11,60.98-76.25,66.8-110.71,13.97-214.38-1.77-233.4-11.41"/>
  <path class="cls-11" d="M763.56,740.25s-75.73,61.68-116.68,75.09"/>
  <path class="cls-11" d="M823.89,586.76c5.92-21.79-1.04-41.99-38.12-62.47-37.08-20.48-111.49-13.81-111.49-13.81,0,0-64.78.68-123.37,30.15-58.59,29.47-111,87.73-111,87.73"/>
  <path class="cls-11" d="M934.61,781.32c23.08,8.59,39.84,20.75,44.21,29.95"/>
  <path class="cls-11" d="M898.32,830.83c5.96,6.22,16.39,21.71,16.2,30.66"/>
  <path class="cls-11" d="M836.28,873.96c-3.26-5.1-3.71-24.8-1.57-30.51"/>
  <path class="cls-3" d="M937.87,557.37c-3.73.39-6.42,12.87-7.07,15.84-3.59,16.28-3.77,29.6-2.01,46.3,5.03,47.69,35.32,65.96,78.9,54.98,12.46-3.14,29.18-6.76,38.81-16.27,28.95-28.62,31.83-95.11-6.06-117.75-8.71-5.2-24.35.25-33.13,2.17-24.27,5.32-49.77,6.93-70.95,20.45"/>
  <path class="cls-7" d="M937.87,557.37c-3.73.39-6.42,12.87-7.07,15.84-3.59,16.28-3.77,29.6-2.01,46.3,5.03,47.69,35.32,65.96,78.9,54.98,12.46-3.14,29.18-6.76,38.81-16.27,28.95-28.62,31.83-95.11-6.06-117.75-8.71-5.2-24.35.25-33.13,2.17-24.27,5.32-49.77,6.93-70.95,20.45"/>
  <path class="cls-6" d="M952.71,563.75c-6.61.7-11.23,3.83-14.77,11.89-4.67,10.63-5.36,27.69,10.66,28.27,13.17.49,24.65-19.49,20.25-31.53-4.44-10.44-8.11-8.96-16.14-8.63Z"/>
  <path class="cls-10" d="M593.71,598.75c.46.76-9.58,11.53-10.31,12.97-6.96,13.7-9.93,23.91-7.39,39.44,9.2,56.24,37.71,56.32,86.78,51.8,17.32-1.58,38.02-2.25,49.2-18.19,19.44-27.73,12.35-61.94-5.12-87.17-4.31-6.23-11.26-13.52-19.44-14.34-20.6-2.07-42.02.49-62.24,2.91-7.04.84-14.79,9.63-21.66,10.45-2.56.3-9.9,1.97-9.81,2.13Z"/>
  <path class="cls-6" d="M621.21,596.46c-18.74-6.76-38.88,21.79-19.72,33.34,20.97,12.65,45.65-23.97,23.13-32.06"/>
  <path class="cls-11" d="M737.42,468.1c2.88-4.65-22.74-46.45-58.19-81.28-28.51-28.01-51.76-45.06-77.48-54.94-84.97-32.64-127.62-10.79-183.54,38.05-65.22,56.97-119.29,126.34-127.24,214.02"/>
  <path class="cls-11" d="M683.5,384.81s24.73-25.39,80.19-61.65c54.05-35.34,132.23-31.18,179.44,20.81,43.67,48.1,67.26,92.73,67.26,92.73"/>
  <path class="cls-11" d="M340.83,1160.49s95.61,12.89,122.67,15.78c138.54,14.77,278.14,6.98,408.29-46.17,0,0,92.99-38,104.28-42.37"/>
  <path class="cls-11" d="M288.14,836.3c-14.73,9.41-44.99,2.98-73.98-16.66-21.27-14.42-43.55-40.95-49.99-48.36-27.25-31.34-47.44-57.85-37.85-101.41,8.91-40.45,142.07-99.62,155.5-92.01,28.21,15.97,32.2,47.42,35.26,76.52"/>
  <path class="cls-11" d="M213.01,651.04c19.19-2.02,49.08-2.98,64.67,9.64,16.83,13.62,5.34,89.96-1.48,108.15"/>
  <path class="cls-11" d="M160.52,769.64c-5.74,7.09-40.35,107.09-24.17,204.36,14.03,84.26,50.62,122.59,83,149.74,18.36,15.39,96.32,34.07,121.77,36.54"/>
  <path class="cls-11" d="M487.21,1031.14c-40.23-28.66-45.15-39.64-51.69-82.67-6.52-43.02,14.04-81.05,25.56-89.45"/>
  <g>
    <path class="cls-9" d="M95.05,543.15C433.06,106.64,630.03,91.87,630.03,91.87c146.9-11.01,285.69,92.54,563.23,299.7,10.09,7.53,34.76,27.22,30.42,42.21-2.73,9.42-16.01,13.84-42.44,22.3-19.86,6.36-36.65,9.89-48.01,11.9-18.51-18.08-37.03-36.16-55.54-54.24,13.13,19.39,26.27,38.78,39.4,58.17-124.33,33.16-263.63,63.01-416.44,84.46-92.14,12.94-180.02,21.53-262.93,26.85.16-16.8.32-33.6.48-50.4-4.87,17.28-9.74,34.57-14.61,51.85-103.3,6.96-182.71,13.2-236.73,17.67-45.25,3.74-97.87,8.31-108.01-13.62-6.75-14.59,8.03-35.03,16.19-45.57Z"/>
    <path class="cls-3" d="M388.83,263.01c-20.59,23.08-41.48,46.99-61.17,70.89-35.7,43.24-68.9,88.49-99.97,135.16-5.13,7.5-10.56,15.79-15.52,23.45,0,0-5.18,7.84-5.18,7.84,46.8-86.37,110.62-169.67,181.83-237.35h0Z"/>
    <path class="cls-3" d="M583.75,115.44c-26.83,24.8-52.68,50.79-76.49,78.53-21.98,25.7-42.35,52.96-61.02,81.16-4.11,6.33-8.84,13.37-12.82,19.76-2.02,3.29-6.27,10.09-8.34,13.36,0,0-.45-.23-.45-.23,19.08-37.4,42.14-72.78,68.78-105.23,26.7-32.41,57-61.83,90.03-87.74,0,0,.31.39.31.39h0Z"/>
    <path class="cls-3" d="M695.94,116.84c21.47,19.65,40.16,42.32,57.27,65.79,16.84,23.75,32.3,48.56,44.16,75.22,0,0-.43.26-.43.26-14.86-24.87-30.81-49.09-47.79-72.56-16.85-23.56-34.74-46.38-53.59-68.38,0,0,.38-.33.38-.33h0Z"/>
    <path class="cls-3" d="M616.29,142.82c.49,15.94-.37,38.35-.54,54.43-.39,16.14-.3,38.41-1.31,54.41,0,0-.5.06-.5.06-3.65-27.11-4.19-54.63-1.68-81.87.81-9.08,1.99-18.13,3.53-27.11,0,0,.49.08.49.08h0Z"/>
    <path class="cls-3" d="M736.67,122.97c35.54,17.46,69.23,38.97,101.44,61.92,32.07,23.32,62.98,48.34,90.92,76.55-30.15-23.61-61.62-50.06-93.84-72.49-31.49-23.42-66.57-44.9-98.52-65.98h0Z"/>
    <path class="cls-3" d="M852.35,396.92c29.38,37.56,55.81,77.5,78.94,119.35l-4.42,2.34c-21.54-42.39-46.48-83.13-74.53-121.69,0,0,28.05,38.56,0,0Z"/>
    <path class="cls-3" d="M332.69,457.87c-16.63,44.71-28.89,90.97-36.58,137.88l-4.92-.9c9.39-46.94,23.32-92.88,41.5-136.99,0,0-18.18,44.11,0,0Z"/>
    <path class="cls-3" d="M151.62,526.24c-14.24,24.99-25.08,51.79-32.16,79.44l-4.81-1.38c8.81-27.62,21.3-53.94,36.97-78.06,0,0-15.67,24.12,0,0Z"/>
    <path class="cls-3" d="M475.93,439.99c-1.28,47.64-.12,95.29,3.48,142.73l-4.99.29c-1.94-47.7-1.43-95.45,1.51-143.02,0,0-2.94,47.56,0,0Z"/>
    <path class="cls-3" d="M975.28,260.13c28.52,15.74,55.94,33.79,82.29,52.91,39.46,28.93,77.14,60.45,111.35,95.48,0,0,5.7,5.83,5.7,5.83,0,0,5.56,5.98,5.56,5.98-63.63-57.26-134.04-112.19-204.9-160.21h0Z"/>
    <path class="cls-8" d="M486.5,217.06c-4.9,33.64-8.36,72.79-8.14,116.4.19,36.47,2.92,69.66,6.81,98.92,62.93-2.08,133.47-8.03,209.84-20.46,57.09-9.29,109.71-20.95,157.48-33.62-.61-25.3-2.28-52.71-5.53-81.9-3.1-27.85-7.23-53.8-11.91-77.66-45.38-8.22-98.84-14.69-158.86-15.89-73.03-1.47-137.17,5.22-189.71,14.21Z"/>
    <g>
      <path class="cls-2" d="M550.81,269l10.22,20.14c.91,1.8-1.01,3.71-2.8,2.79l-20.12-10.28c-.8-.41-1.77-.26-2.41.38l-16.01,15.94c-1.43,1.42-3.84.19-3.52-1.8l3.57-22.3c.14-.89-.3-1.77-1.1-2.18l-20.08-10.28c-1.79-.92-1.36-3.59.63-3.9l22.3-3.49c.89-.14,1.59-.84,1.73-1.72l3.57-22.3c.32-1.99,2.99-2.41,3.91-.61l10.22,20.14c.41.8,1.29,1.25,2.17,1.11l22.3-3.49c1.99-.31,3.21,2.1,1.79,3.53l-15.98,15.93c-.64.64-.79,1.61-.39,2.41Z"/>
      <path class="cls-2" d="M619.3,228.5l-8.93,1.61c-.64.12-1.14.63-1.23,1.28l-1.23,8.97-4.27-7.97c-.31-.58-.95-.89-1.6-.77l-8.92,1.61,6.26-6.55c.45-.47.55-1.18.24-1.75l-4.27-8.01,8.17,3.94c.59.28,1.29.16,1.74-.32l6.26-6.54-1.23,9.01c-.09.65.25,1.28.84,1.56l8.17,3.94Z"/>
      <path class="cls-2" d="M644.11,263.03l-8.88-2c-.64-.14-1.29.14-1.63.7l-4.63,7.79-.86-9.02c-.06-.65-.53-1.18-1.17-1.33l-8.81-1.99,8.3-3.58c.6-.26.97-.88.9-1.53l-.86-9.01,6,6.76c.43.49,1.13.64,1.73.38l8.35-3.61-4.63,7.83c-.33.56-.27,1.28.17,1.76l6.03,6.83Z"/>
      <path class="cls-2" d="M635.97,298.87c-.53.38-.76,1.06-.57,1.68l2.7,8.64-7.26-5.4c-.52-.39-1.24-.4-1.77-.02l-7.37,5.23,2.91-8.58c.21-.62,0-1.3-.53-1.69l-7.3-5.44,9.09.13c.66,0,1.24-.41,1.45-1.03l2.88-8.58,2.7,8.64c.19.62.77,1.05,1.42,1.06l9.06.13-7.41,5.26Z"/>
      <path class="cls-2" d="M614.71,325.69l-8.85,1.98c-.64.14-1.11.68-1.17,1.33l-.86,9.02-4.59-7.77c-.33-.56-.99-.85-1.63-.7l-8.85,1.98,6-6.8c.43-.49.5-1.2.17-1.77l-4.65-7.84,8.34,3.61c.6.26,1.3.1,1.73-.39l6-6.8-.86,9.02c-.06.65.3,1.27.9,1.53l8.34,3.61Z"/>
    </g>
  </g>
</svg>