<?xml version="1.0" encoding="utf-8"?>
<!-- Generator: Adobe Illustrator 28.4.1, SVG Export Plug-In . SVG Version: 6.00 Build 0)  -->
<svg version="1.1" id="a" xmlns="http://www.w3.org/2000/svg" xmlns:xlink="http://www.w3.org/1999/xlink" x="0px" y="0px"
	 viewBox="0 0 1280 1280" style="enable-background:new 0 0 1280 1280;" xml:space="preserve">
<style type="text/css">
	.st0{fill:#EF242F;stroke:#000000;stroke-width:12;stroke-miterlimit:10;}
	.st1{fill:#F5C785;stroke:#000000;stroke-width:12;stroke-miterlimit:10;}
	.st2{fill:#FFFFFF;}
	.st3{fill:#DE3C31;}
	.st4{fill:#F5C941;}
	.st5{fill:#B2272C;stroke:#000000;stroke-width:5;stroke-miterlimit:10;}
	.st6{fill:#EABE42;}
</style>
<g>
	<path class="st0" d="M857,1284.3c122.8-135.8,213.1-260.8,275.2-354.8c102.4-154.9,119-229.8,126.2-290
		c13.2-111.8-6-271.5-74.6-293c-2.9-0.9-26.3-7.9-42.3,4.2c-38.1,28.9,25.4,121.1,15.4,235c-6.8,76.7-43.8,128.1-105.2,213.3
		c-37.5,52-102.5,129.2-206.3,200.4"/>
	<path class="st0" d="M17.2,1423.1c5.2-76.4,35.1-423.8,233.5-498.7c20-7.5,61.2-12.4,144-14.8c199.1-5.9,317.9-16.7,421.4,52.9
		c44.8,30.1,70,63.1,92.5,92.6c106.1,138.8,116.5,293.8,115.9,368.1"/>
	<g>
		<g>
			<path class="st0" d="M143.3,932.1c41,49.9,99.5,58.2,207.7,73.6c23.4,3.3,240.2,31.6,425.9-66.1c45.4-23.9,78.6-49.9,124.2-85.7
				c53-41.6,62.7-57.1,69.6-73.7c19.5-46.9,1.3-101.7-15.1-120.7c-22.9-26.6-48.6-60.6-55.1-71.9c0,0,25.8-3.2,42.3-25.7
				c16.5-22.5-1-21.5,24.1-30c41.9-14.3,32.6-30.8,35.4-51.3c2.8-20.5-0.1-67.9-20.5-81c-5.5-3.6-10.5-8.8-10.5-8.8
				c-8.4-6.6-9.4-6.3-13.4-10c-6.7-6.2-5.7-8.5-12.5-15.6c-3.8-3.9-5.7-4.5-9.2-7c-2.5-1.8-4-3.3-4.9-4.1
				c-19.3-18-45.8-25.3-45.8-25.3c-5.9-1.6-14.6-3.5-25.6-3.7c-5-9-51.8-92.2-115.6-115.2c-10.3-3.7-30.1-10.2-55.8-7.9
				c-12.6,1.1-26.1,5.6-45.2,15.8c-44.2,23.5-80.3,63.6-80.3,63.6s-42.7-50.6-107.2-64.6c-64.5-14-116.6,37.3-147.2,67.8
				c-45.3,45.1-69.9,95.7-80.2,119.5c-8,18.2-13.3,34.1-16.8,45.8c-2.4,0.3-5.8,0.8-9.9,1.6c-41,7.6-69.7,25.1-77.9,30.3
				c-28.3,18.2-45.7,29.3-53,50.9C57.8,571.7,89,611.4,93.5,617c0,0,1.5-1.5,2.6-1c3.5,1.4-2,21.6-2.6,24
				C87.9,662.4,69.7,842.5,143.3,932.1z"/>
		</g>
		<g>
			<path d="M952.6,666c-1.5,0-2.9-0.6-4-1.8c-14.3-15.8-35.9-44.6-51.9-73.4c-1.4-2.6-0.5-5.8,2.1-7.3c2.6-1.4,5.8-0.5,7.3,2.1
				c15.6,28,36.6,56.1,50.5,71.4c2,2.2,1.8,5.6-0.4,7.6C955.2,665.5,953.9,666,952.6,666z"/>
		</g>
		<g>
			<g>
				<path class="st1" d="M315.2,414.9L337,637.9c0,0-51.8,69-32.2,158.3c19.6,89.4,57.7,110.1,98.3,115.9
					c40.6,5.8,415.7,11,455-18.2c39.4-29.3,25.1-27.7,25.1-27.7s121-107.2,68.6-202.4l-77.6-55.5l1-14.6c0,0,57.2,1.7,76.7-54.8
					c7.9-1.1,33.8-5.9,45.5-26.6c3.8-6.7,4.5-13.4,5.8-26.4c2.3-22.5,4.9-48.8-9.9-72.7c-5.1-8.2-10.3-13-18.7-20.8
					c-17.2-16-24.6-15.4-43.1-31.4c-2.8-2.4-10.6-9.2-22-17.4c-1.8-1.2-3.4-2.4-5.2-3.6c-10.1-6.7-26.3-12.5-59.2-13.3
					c-70.8-1.8-160.1-4.9-225.7,28.1C619.5,354.9,430.3,270.8,315.2,414.9z"/>
			</g>
			<g>
				<path class="st2" d="M701.6,485.8c0,0,60.1-64.5,146.6-68.6c86.5-4.1,155.9,23.6,162.8,38c6.9,14.4-6.9,22.9-22.7,35.4
					c-15.8,12.5-138.2,69.1-283.4,47.5l-7.5-5.9c0,0-36.2,38.5-142,34.6c-105.8-3.9-146.6-30.3-146.6-30.3s23.3-81.5,131.5-85.4
					c108.2-3.9,123.5-1.8,137.6,4.1C692,461,701.6,485.8,701.6,485.8z"/>
			</g>
			<g>
				<path class="st3" d="M895.6,741.5c0,0-60.8,29-167.5,26.7c-106.7-2.3-121.3,25.3-184.3-23.8c-63-49.1-96.6-74.6-128.8-41.1
					c-8.5,8.9-13.7,18.5-15.8,28.5c-5.8,27.1,18.6,62.6,43.5,85.2c50.6,46,116.2,52.6,245.5,64.1c49.3,4.4,72.7,3.9,85,3.3
					c56-2.3,115.6-6.1,157.3-46.5c11-10.7,15.7-22,24.9-33.4c25.8-31.6,36-63.3,26.6-85.6c-9.4-22.3-7.6-57.6-21.3-57
					C946.9,662.5,907.5,691.2,895.6,741.5z"/>
			</g>
			<g>
				<path d="M781.9,887.2c-7.6,0-15-0.1-22.3-0.2c-5.1-0.1-10.1-0.2-15-0.2c-7-0.1-14-0.1-21.2-0.1c-79.4-0.3-169.3-0.7-242.4-34.1
					c-17.4-8-38.6-25.6-56.7-47.1c-26.7-31.7-33.3-55.1-34.9-66.3c-2-13.9,2.6-26.3,13.2-35.8c17.7-15.9,48.8-20.6,67.5-15.9
					c22.9,5.8,38.5,20.9,53.6,35.4c11.9,11.5,23.1,22.3,37.6,28.9c41.5,19,94.1,16.2,140.6,13.7c4.1-0.2,8.2-0.4,12.3-0.6
					c68.9-3.4,92.5-6.5,99.4-7.7c24.8-4.3,49.5-10.3,73.4-18.1c11.3-29.1,26.7-52,44.7-66.3c9.9-7.9,24.4-17.8,35.7-12.3
					c3.4,1.6,6.1,4.3,8.2,8.1c7,12.5,7.8,23.6,5.5,33.8c1,0.5,2,1.3,2.9,2.7c5.5,8.6,11,51.6-16.7,89
					c-31.3,42.3-55.8,66.7-102.6,82.7C838.9,885.7,809.7,887.2,781.9,887.2z M454.8,696.5c-15.2,0-34,5-45,14.9
					c-7.9,7.1-11.2,16-9.7,26.4c2.4,17,14.3,39.2,32.5,60.9c16.9,20,37.2,37,53,44.2c70.9,32.5,159.7,32.8,238,33.2
					c7.2,0,14.2,0.1,21.2,0.1c5,0,10,0.1,15.1,0.2c34.6,0.5,70.4,1.1,101.6-9.6c44.1-15.1,67.4-38.4,97.4-78.9
					c21-28.4,20.2-59.7,17.8-72c-1.6,3.4-3.3,6.8-5.1,10.1c-20.6,37.6-69.2,74.2-102.5,86.6c-45.8,17-89.7,25.8-134.3,26.8
					c-41.8,1-85.1-4.7-136.2-17.7c-47.1-12-104.7-30.1-131.8-63.8c-1.9-2.3-1.5-5.7,0.8-7.5c2.3-1.9,5.7-1.5,7.5,0.8
					c25.2,31.3,80.6,48.6,126.2,60.1c50.1,12.7,92.4,18.3,133.3,17.3c43.4-1,86.2-9.5,130.8-26.1c31.6-11.8,78-47.4,96.8-81.7
					c10.1-18.3,13.5-30.6,4.3-46.9c-1-1.8-2.2-3-3.6-3.7c-2.4-1.2-8.8-1.3-24.3,11c-16.9,13.5-31.5,35.6-42.3,64.1
					c-0.6,1.5-1.8,2.7-3.3,3.2c-25.2,8.3-51.2,14.7-77.4,19.2c-15.1,2.6-51.8,5.5-100.7,7.9c-4,0.2-8.1,0.4-12.2,0.6
					c-47.7,2.5-101.8,5.4-145.6-14.7c-16.2-7.4-28.6-19.4-40.6-31c-14.8-14.2-28.7-27.6-48.8-32.8
					C463.8,696.9,459.5,696.5,454.8,696.5z M979.6,712.4C979.6,712.4,979.6,712.4,979.6,712.4C979.6,712.4,979.6,712.4,979.6,712.4z
					"/>
			</g>
			<g>
				<path d="M999.5,446.3c-2.6,0-4.8-1.9-5.3-4.5c0-0.2-3.9-22-19.4-41c-12.8-15.7-49.8-21.7-61.9-23.7l-0.5-0.1
					c-44.2-7.2-85.3-4.1-125.6,9.7c-44.4,15.1-71.1,38.4-84,49.5c-2.7,2.3-4.8,4.1-6.5,5.5c-2.3,1.8-5.7,1.4-7.5-1
					c-1.8-2.3-1.4-5.7,1-7.5c1.5-1.1,3.5-2.9,6-5.1c13.4-11.6,41.2-35.8,87.5-51.6c42.1-14.3,84.8-17.7,130.8-10.1l0.5,0.1
					c14.5,2.4,53.1,8.7,68.5,27.5c17.4,21.3,21.5,45.1,21.7,46.1c0.5,2.9-1.5,5.7-4.4,6.2C1000.1,446.3,999.8,446.3,999.5,446.3z"/>
			</g>
			<g>
				<path d="M782.5,548.1c-27.1,0-54.2-2.5-80.5-7.5c-2.9-0.6-4.8-3.4-4.2-6.3c0.6-2.9,3.4-4.8,6.3-4.2
					c82.4,15.9,173.4,5.7,243.4-27.1c52.3-24.6,59.2-38.4,60-42.5c-0.3-0.8-2.4-4.6-13.5-12.7c-7.5-5.4-15.3-10-17.6-11.1
					c-39.8-19.4-89-23.1-146.1-11.1c-33.7,7.1-41.3,9.4-71.3,25.7c-29.7,16.1-49.4,39.7-49.6,39.9c-1.9,2.3-5.3,2.6-7.5,0.7
					c-2.3-1.9-2.6-5.3-0.7-7.5c0.9-1,21.2-25.3,52.8-42.5c31.1-16.9,39.7-19.6,74.2-26.8c59.5-12.5,110.9-8.5,152.9,12
					c3.6,1.8,12.8,7.3,20.6,13.1c12.4,9.2,17.3,15.6,16.6,21.4c-1.2,8.8-9.6,18.3-25.7,29c-10.5,7-24.1,14.4-40.4,22.1
					C902.4,535.9,842.6,548.1,782.5,548.1z M1007.5,460.6L1007.5,460.6L1007.5,460.6z"/>
			</g>
			<g>
				<path d="M723.9,621.1c-2.6,0-4.9-1.9-5.3-4.6c-0.4-2.9,1.6-5.6,4.5-6.1c8.2-1.2,18.8-2.4,31-3.8c39.4-4.4,93.4-10.4,136.6-25.6
					c43.8-15.5,54.1-34.8,56-39.4c-0.1-1,0.1-2.1,0.7-3.1c1.6-2.8,4.3-3.3,6.1-2.9c2.4,0.6,4.1,2.6,4.2,5.1
					c0.3,5.4-10,31.4-63.5,50.3c-44.3,15.7-99,21.7-139,26.2c-12.1,1.3-22.5,2.5-30.6,3.7C724.4,621.1,724.2,621.1,723.9,621.1z"/>
			</g>
			<g>
				<path d="M545.8,573.1c-19,0-40.3-1-61.3-3.7c-34.2-4.5-46.3-10.4-59-16.7c-6.2-3.1-12.6-6.2-22.1-9.5c-0.7,0.1-1.6,0.4-2.5,0.6
					c-4.7,1.1-11.9,2.9-18.6,2.4c-16.8-1.2-34.9-7.1-35.6-7.4c-2.8-0.9-4.3-4-3.4-6.8c0.9-2.8,4-4.3,6.8-3.4
					c0.2,0.1,17.5,5.7,33,6.8c5,0.4,11.2-1.1,15.3-2.1c0.1,0,0.2-0.1,0.4-0.1c3.9-13.2,29.3-50.6,78.6-71.2
					c48.7-20.4,76.1-19.8,125.8-18.9l6.3,0.1c2.2,0,4.6,0.1,7.1,0.1c24.5,0.3,58,0.7,71.7,10.9c15.2,11.3,22.3,34.1,20.7,66
					c-1.2,23.7-35.7,40.3-102.6,49.5C596.6,571,573.7,573.1,545.8,573.1z M409.7,534.1c8.6,3.1,14.9,6.2,20.4,9
					c12.5,6.1,23.2,11.4,55.7,15.7c50.8,6.7,103.1,2.5,118.9,0.4c83-11.4,92.9-31.4,93.3-39.5c1-19.6-1-45.4-16.4-56.9
					c-10.9-8.1-45.1-8.5-65.5-8.8c-2.5,0-4.9-0.1-7.2-0.1l-6.3-0.1c-49.8-0.9-74.8-1.4-121.5,18.1c-26.9,11.2-44.7,27-55,38.3
					C416.7,520.8,411.6,529.7,409.7,534.1z M402.3,542.8C402.3,542.8,402.3,542.8,402.3,542.8C402.3,542.8,402.3,542.8,402.3,542.8z
					 M406.2,532.3C406.2,532.3,406.2,532.3,406.2,532.3C406.2,532.3,406.2,532.3,406.2,532.3z M406.2,532.3
					C406.2,532.3,406.2,532.3,406.2,532.3C406.2,532.3,406.2,532.3,406.2,532.3z M406.2,532.3C406.2,532.3,406.2,532.3,406.2,532.3
					C406.2,532.3,406.2,532.3,406.2,532.3z M406.2,532.3C406.2,532.3,406.2,532.3,406.2,532.3C406.2,532.3,406.2,532.3,406.2,532.3z
					 M406.2,532.3C406.2,532.3,406.2,532.3,406.2,532.3C406.2,532.3,406.2,532.3,406.2,532.3z"/>
			</g>
			<g>
				<path d="M551.5,605.5c-65.4,0-117.1-9.3-129.8-15.7c-2.6-1.3-3.7-4.6-2.4-7.2c1.3-2.6,4.6-3.7,7.2-2.4
					c16.3,8.3,108.3,21.9,205.1,9.6c26-3.3,50.2-16,60.1-31.7c4.5-7.1,5.7-14.1,3.4-20.9c-0.9-2.8,0.6-5.8,3.4-6.8
					c2.8-0.9,5.8,0.6,6.8,3.4c3.2,9.8,1.6,20.1-4.6,29.9c-11.7,18.5-38.4,32.9-67.8,36.6C604.7,604.1,577.1,605.5,551.5,605.5z"/>
			</g>
			<g>
				<path d="M532.8,667.8c-2.3,0-4.3-1.4-5.1-3.7c-0.9-2.8,0.6-5.8,3.4-6.8c35.2-11.5,101.7-65.5,102.4-66c2.3-1.9,5.7-1.5,7.5,0.8
					c1.9,2.3,1.5,5.7-0.8,7.5c-2.8,2.3-68.7,55.8-105.8,67.9C533.9,667.7,533.3,667.8,532.8,667.8z"/>
			</g>
			<g>
				<path d="M348.2,501c-1.3,0-2.6-0.5-3.6-1.4c-2.2-2-2.4-5.4-0.4-7.6c1.9-2.2,48-53,100.6-79.5c51.7-26,107.7-27.4,112.2-27.5
					c4.9-0.4,68.8-5.5,102.3,13c31.7,17.5,43.3,37.1,36.6,61.8c-0.8,2.9-3.7,4.5-6.6,3.8c-2.9-0.8-4.5-3.7-3.8-6.6
					c3.8-13.9,3-30.6-31.4-49.6c-31.2-17.3-95.7-11.7-96.4-11.7c-0.1,0-0.3,0-0.4,0c-0.6,0-57.2,0.9-107.7,26.3
					c-50.7,25.5-97,76.5-97.4,77C351.1,500.4,349.6,501,348.2,501z"/>
			</g>
			<g>
				<path d="M828.8,664.2c-2,0-3.9-1.1-4.8-3.1c-3-6.3-16.5-16.6-36.5-24c-2.8-1-4.2-4.1-3.1-6.9c1-2.8,4.1-4.2,6.9-3.1
					c21,7.8,37.6,19.4,42.4,29.4c1.3,2.7,0.1,5.9-2.5,7.1C830.4,664,829.6,664.2,828.8,664.2z"/>
			</g>
			<g>
				<path d="M771.5,709c0,0-0.1,0-0.1,0c-3-0.1-5.3-2.5-5.2-5.5c0.1-5.7-7.7-18-13-23.5c-2-2.1-2-5.5,0.2-7.6c2.1-2,5.5-2,7.6,0.2
					c3.3,3.4,7.1,8.7,10.1,13.8c4,6.9,6,12.8,5.9,17.4C776.7,706.6,774.4,709,771.5,709z"/>
			</g>
			<g>
				<path d="M701.7,720.1c-1.8,0-3.5-0.9-4.5-2.5c-4-6.3-4.2-25.8-1.9-32c1-2.8,4.1-4.2,6.9-3.1c2.8,1,4.2,4.1,3.1,6.9
					c-1.5,4-0.9,19.5,0.9,22.5c1.6,2.5,0.9,5.8-1.6,7.4C703.7,719.8,702.7,720.1,701.7,720.1z"/>
			</g>
			<g>
				<path d="M792.3,432.4c-3.3,0.4-5.7,11.5-6.3,14.1c-3.2,14.5-3.4,26.4-1.8,41.3c4.5,42.5,31.5,58.8,70.4,49
					c11.1-2.8,26-6,34.6-14.5c25.8-25.5,28.4-84.8-5.4-105c-7.8-4.6-21.7,0.2-29.6,1.9c-21.6,4.7-44.4,6.2-63.3,18.2"/>
			</g>
			<g>
				<path d="M834.1,545.2c-12.2,0-22.8-3-31.4-9.1c-13.6-9.5-21.7-25.6-24-47.7c-1.8-16.8-1.2-28.9,1.9-43.1
					c2.3-10.7,5.1-17.9,11.2-18.5c1.7-0.2,3.2,0.4,4.4,1.4c13.2-6.4,27.7-9,41.7-11.5c5-0.9,10.3-1.9,15.3-3c1.2-0.3,2.7-0.6,4.2-1
					c8.8-2.2,20.9-5.3,29.4-0.2c15,9,24.7,25.4,27.2,46.2c3.1,25.2-5.3,52.4-20.7,67.6c-9.1,9-23.3,12.5-34.8,15.4l-2.4,0.6
					C848.2,544.2,840.9,545.2,834.1,545.2z M792.7,442.8c-0.4,1.3-0.8,2.9-1.2,4.8c-2.9,13-3.3,24.1-1.7,39.6
					c2,18.8,8.5,32.1,19.3,39.7c10.7,7.5,26,9.1,44.1,4.5l2.4-0.6c10.1-2.5,22.7-5.7,29.6-12.5c13.1-12.9,20.1-36.4,17.4-58.3
					c-2.1-17.3-9.8-30.8-21.8-37.9c-4.5-2.7-14.3-0.2-20.9,1.5c-1.6,0.4-3.2,0.8-4.6,1.1c-5.2,1.1-10.5,2.1-15.7,3
					c-16.6,3-32.3,5.8-45.8,14.5C793.6,442.5,793.1,442.7,792.7,442.8z"/>
			</g>
			<g>
				<path class="st2" d="M805.5,438c-5.9,0.6-10,3.4-13.2,10.6c-4.2,9.5-4.8,24.7,9.5,25.2c11.7,0.4,22-17.4,18.1-28.1
					C816,436.4,812.7,437.8,805.5,438z"/>
			</g>
			<g>
				<path d="M485.3,469.3c0.4,0.7-8.5,10.3-9.2,11.6c-6.2,12.2-8.9,21.3-6.6,35.2c8.2,50.2,33.6,50.2,77.4,46.2
					c15.5-1.4,33.9-2,43.9-16.2c17.3-24.7,11-55.2-4.6-77.7c-3.8-5.6-10-12.1-17.3-12.8c-18.4-1.8-37.5,0.4-55.5,2.6
					c-6.3,0.7-13.2,8.6-19.3,9.3C491.8,467.6,485.3,469.1,485.3,469.3z"/>
				<path d="M520.7,569.4c-10.7,0-20.1-1.2-28.1-4.8c-15.3-6.9-24.4-22-28.6-47.6c-2.5-15.6,0.7-25.9,7.1-38.6c0.5-1,1.3-2,4.4-5.6
					c1.4-1.6,3.7-4.2,4.5-5.4c0.1-0.2,0.1-0.3,0.2-0.5c1.3-2.6,3.2-3,7.4-3.9c1.2-0.3,4.1-0.9,5.7-1.1c1.7-0.2,4.6-2.1,7.1-3.7
					c3.8-2.5,7.7-5.1,12.2-5.6c18.6-2.2,37.8-4.5,56.7-2.6c10.2,1,17.8,10,21.4,15.2c15.3,22,24.5,55.7,4.5,84.2
					c-10.8,15.4-29.6,17-44.7,18.3c-1.1,0.1-2.2,0.2-3.3,0.3C537.8,568.7,528.9,569.4,520.7,569.4z M481,483.7
					c-5.5,11-8,18.9-5.9,31.4c7.4,45.4,28.4,45.5,71.3,41.5c1.1-0.1,2.2-0.2,3.3-0.3c14.1-1.2,28.7-2.5,36.5-13.6
					c16.6-23.7,8.5-52.4-4.6-71.3c-4.3-6.2-9.1-10-13.3-10.4c-17.7-1.8-36.3,0.4-54.2,2.6c-1.9,0.2-4.9,2.1-7.4,3.8
					c-3.7,2.4-7.6,5-12,5.5c-1.1,0.1-3.9,0.7-5.7,1.1c-0.3,0.4-0.7,0.9-1,1.2c-1.1,1.4-2.6,3.1-4,4.7C483,481.3,481.5,483,481,483.7
					z M481.2,483.4C481.1,483.4,481.1,483.4,481.2,483.4C481.1,483.4,481.1,483.4,481.2,483.4z M480.5,472.2
					C480.5,472.2,480.5,472.2,480.5,472.2C480.5,472.2,480.5,472.2,480.5,472.2z M480.5,472.2C480.5,472.2,480.5,472.2,480.5,472.2
					C480.5,472.2,480.5,472.2,480.5,472.2z M479.9,470.6c0.1,0.5,0.3,1.1,0.7,1.6c0,0,0,0,0,0C480.2,471.7,480,471.1,479.9,470.6z"
					/>
			</g>
			<g>
				<path class="st2" d="M509.9,467.2c-16.7-6-34.7,19.4-17.6,29.7c18.7,11.3,40.7-21.4,20.6-28.6"/>
			</g>
			<g>
				<path d="M390.3,860.3c-1.1,0-2.2-0.3-3.1-1c-37.5-26.7-42.3-37.7-48.3-77.3c-6.1-40,12.7-76,24.9-84.9c2.4-1.7,5.7-1.2,7.5,1.2
					c1.7,2.4,1.2,5.7-1.2,7.5c-7.9,5.8-26.3,37.5-20.7,74.7c5.6,37,9.4,45.6,43.9,70.2c2.4,1.7,3,5.1,1.3,7.5
					C393.7,859.5,392,860.3,390.3,860.3z"/>
			</g>
		</g>
		<g>
			<path d="M197.3,690.3c-15.3,0-34.7-6.9-53.5-19.6c-18.3-12.4-37.2-34.3-44.3-42.5l-1.3-1.5c-11.9-13.7-23.1-27.2-30-42.4
				c-7.6-16.7-9.1-33.4-4.9-52.7c2.6-11.6,14.3-24.8,34.9-39.3c16.2-11.4,37-22.9,58.7-32.6c11.9-5.3,23-9.5,31.9-12.1
				c13.9-4.1,18.5-3.1,21.1-1.6c28.2,16,31.5,47.2,34.1,72.3c0.3,2.9-1.8,5.6-4.8,5.9c-2.9,0.3-5.6-1.8-5.9-4.8
				c-3-28.7-7.1-51.7-28.5-64c-6.9-1.4-48.8,13.3-87.1,36.9C92,508,76,523.2,73.7,533.9c-7.9,35.9,7.8,57.3,32.6,85.8l1.3,1.6
				c6.9,7.9,25.1,29.1,42.2,40.7c26.5,18,50.3,21,60.1,14.8c2.5-1.6,5.8-0.9,7.4,1.6c1.6,2.5,0.9,5.8-1.6,7.4
				C210.8,688.8,204.5,690.3,197.3,690.3z"/>
		</g>
		<g>
			<path d="M202.1,626.3c-0.6,0-1.3-0.1-1.9-0.3c-2.8-1-4.2-4.1-3.1-6.9c2.9-7.7,6.8-28.3,8.2-48.3c1.9-26.4-1.5-39.1-5.3-42.2
				c-9.4-7.6-28-10.2-53.8-7.4c-2.9,0.3-5.6-1.8-5.9-4.8c-0.3-2.9,1.8-5.6,4.8-5.9c29.1-3.1,49.8,0.2,61.6,9.8
				c8.1,6.5,11.2,23.8,9.2,51.2c-1.5,21.2-5.7,42.7-8.9,51.3C206.3,625,204.3,626.3,202.1,626.3z"/>
		</g>
		<g>
			<g>
				<g>
					<path class="st4" d="M40.6,419.7C342,30.3,517.7,17.2,517.7,17.2c131-9.8,254.8,82.5,502.4,267.3c9,6.7,31,24.3,27.1,37.6
						c-2.4,8.4-14.3,12.3-37.9,19.9c-17.7,5.7-32.7,8.8-42.8,10.6c-16.5-16.1-33-32.3-49.5-48.4c11.7,17.3,23.4,34.6,35.1,51.9
						c-110.9,29.6-235.1,56.2-371.4,75.3c-82.2,11.5-160.6,19.2-234.5,23.9c0.1-15,0.3-30,0.4-45c-4.3,15.4-8.7,30.8-13,46.2
						c-92.1,6.2-163,11.8-211.1,15.8c-40.4,3.3-87.3,7.4-96.3-12.1C20.1,447.3,33.3,429.1,40.6,419.7z"/>
				</g>
				<g>
					<path d="M73.2,479.8c-24.8,0-44.8-3.8-51.1-17.6c-6.7-14.5,5.3-32.8,15-45.2c68.9-89,136.9-165.6,202.2-227.6
						C291.5,139.6,342.2,99,389.8,68.7c78.9-50.3,123.3-55.5,127.6-55.9l0,0c132.7-10,257.3,83,505.4,268.2
						c22.4,16.7,32.1,31,28.7,42.5c-3.1,10.9-16.5,15.1-40.8,22.9c-14.2,4.6-28.8,8.2-43.4,10.8l-2.3,0.4l-19.7-19.2l14,20.6
						l-6.1,1.6c-122,32.5-247.1,57.9-372,75.4c-77.6,10.9-156.6,19-234.8,24l-4.8,0.3l0.2-16.3L337,461l-3.1,0.2
						c-73.6,5-144.6,10.3-211.1,15.8l-1.2,0.1C105.1,478.4,88.3,479.8,73.2,479.8z M40.6,419.7l3.5,2.7c-4.7,6.1-19.1,24.7-13.9,36
						c7.6,16.5,53.7,12.7,90.8,9.7l1.2-0.1c65.5-5.4,135.5-10.6,208.1-15.5l21.2-75.4l-0.7,73.6c76.5-5,153.6-13,229.4-23.6
						c122.4-17.2,245.1-41.9,364.8-73.6l-56.3-83.1l79.4,77.5c13.4-2.5,26.9-5.9,40-10.1c21.8-7,33.2-10.9,34.9-16.9
						c2.1-7.1-7.5-19.4-25.5-32.8C771.1,104.2,647.5,11.9,518.1,21.6c-0.4,0-11.4,1-31.9,8.2c-19.2,6.7-50.8,20.3-92.7,47.1
						c-47.1,30.1-97.2,70.3-148.9,119.6c-64.7,61.6-132.2,137.6-200.5,225.9L40.6,419.7z"/>
				</g>
			</g>
			<g>
				<path d="M302.6,169.8c-18.4,20.6-37,41.9-54.6,63.2c-31.8,38.6-61.5,78.9-89.2,120.6c-4.6,6.7-9.4,14.1-13.8,20.9
					c0,0-4.6,7-4.6,7C182.2,304.5,239.1,230.2,302.6,169.8L302.6,169.8z"/>
			</g>
			<g>
				<path d="M476.4,38.2c-23.9,22.1-47,45.3-68.2,70c-19.6,22.9-37.8,47.2-54.4,72.4c-3.7,5.6-7.9,11.9-11.4,17.6
					c-1.8,2.9-5.6,9-7.4,11.9c0,0-0.4-0.2-0.4-0.2c17-33.4,37.6-64.9,61.3-93.9c23.8-28.9,50.8-55.1,80.3-78.3
					C476.2,37.8,476.4,38.2,476.4,38.2L476.4,38.2z"/>
			</g>
			<g>
				<path d="M576.5,39.4c19.2,17.5,35.8,37.7,51.1,58.7c15,21.2,28.8,43.3,39.4,67.1c0,0-0.4,0.2-0.4,0.2
					c-13.3-22.2-27.5-43.8-42.6-64.7c-15-21-31-41.4-47.8-61L576.5,39.4L576.5,39.4z"/>
			</g>
			<g>
				<path d="M505.5,62.6c0.4,14.2-0.3,34.2-0.5,48.5c-0.3,14.4-0.3,34.3-1.2,48.5c0,0-0.4,0.1-0.4,0.1c-3.3-24.2-3.7-48.7-1.5-73
					c0.7-8.1,1.8-16.2,3.1-24.2C505,62.5,505.5,62.6,505.5,62.6L505.5,62.6z"/>
			</g>
			<g>
				<path d="M612.8,44.9c31.7,15.6,61.8,34.8,90.5,55.2c28.6,20.8,56.2,43.1,81.1,68.3c-26.9-21.1-55-44.6-83.7-64.7
					C672.6,82.9,641.3,63.7,612.8,44.9L612.8,44.9z"/>
			</g>
			<g>
				<path d="M716,289.3c26.2,33.5,49.8,69.1,70.4,106.4l-3.9,2.1C763.3,360,741,323.6,716,289.3C716,289.3,741,323.6,716,289.3z"/>
			</g>
			<g>
				<path d="M252.5,343.6c-14.8,39.9-25.8,81.1-32.6,123l-4.4-0.8C223.9,423.9,236.3,383,252.5,343.6
					C252.5,343.6,236.3,383,252.5,343.6z"/>
			</g>
			<g>
				<path d="M91,404.6c-12.7,22.3-22.4,46.2-28.7,70.9l-4.3-1.2C65.9,449.6,77.1,426.1,91,404.6C91,404.6,77.1,426.1,91,404.6z"/>
			</g>
			<g>
				<path d="M380.3,327.7c-1.1,42.5-0.1,85,3.1,127.3l-4.5,0.3C377.2,412.7,377.7,370.1,380.3,327.7
					C380.3,327.7,377.7,370.1,380.3,327.7z"/>
			</g>
			<g>
				<path d="M825.7,167.3c25.4,14,49.9,30.1,73.4,47.2c35.2,25.8,68.8,53.9,99.3,85.2c0,0,5.1,5.2,5.1,5.2l5,5.3
					C951.7,259.1,888.9,210.1,825.7,167.3L825.7,167.3z"/>
			</g>
			<g>
				<path class="st5" d="M371.2,142.3c-4.9,33.6-8.4,72.8-8.1,116.4c0.2,36.5,2.9,69.7,6.8,98.9c62.9-2.1,133.5-8,209.8-20.5
					c57.1-9.3,109.7-21,157.5-33.6c-0.6-25.3-2.3-52.7-5.5-81.9c-3.1-27.9-7.2-53.8-11.9-77.7c-45.4-8.2-98.8-14.7-158.9-15.9
					C487.9,126.6,423.7,133.3,371.2,142.3L371.2,142.3z"/>
				<g>
					<path class="st6" d="M435.5,194.2l10.2,20.1c0.9,1.8-1,3.7-2.8,2.8l-20.1-10.3c-0.8-0.4-1.8-0.3-2.4,0.4l-16,15.9
						c-1.4,1.4-3.8,0.2-3.5-1.8l3.6-22.3c0.1-0.9-0.3-1.8-1.1-2.2l-20.1-10.3c-1.8-0.9-1.4-3.6,0.6-3.9l22.3-3.5
						c0.9-0.1,1.6-0.8,1.7-1.7l3.6-22.3c0.3-2,3-2.4,3.9-0.6l10.2,20.1c0.4,0.8,1.3,1.2,2.2,1.1l22.3-3.5c2-0.3,3.2,2.1,1.8,3.5
						l-16,15.9C435.3,192.4,435.1,193.4,435.5,194.2L435.5,194.2z"/>
					<path class="st6" d="M504,153.7l-8.9,1.6c-0.6,0.1-1.1,0.6-1.2,1.3l-1.2,9l-4.3-8c-0.3-0.6-1-0.9-1.6-0.8l-8.9,1.6l6.3-6.6
						c0.5-0.5,0.5-1.2,0.2-1.8l-4.3-8l8.2,3.9c0.6,0.3,1.3,0.2,1.7-0.3l6.3-6.5l-1.2,9c-0.1,0.6,0.2,1.3,0.8,1.6L504,153.7
						L504,153.7z"/>
					<path class="st6" d="M528.8,188.2l-8.9-2c-0.6-0.1-1.3,0.1-1.6,0.7l-4.6,7.8l-0.9-9c-0.1-0.6-0.5-1.2-1.2-1.3l-8.8-2l8.3-3.6
						c0.6-0.3,1-0.9,0.9-1.5l-0.9-9l6,6.8c0.4,0.5,1.1,0.6,1.7,0.4l8.3-3.6l-4.6,7.8c-0.3,0.6-0.3,1.3,0.2,1.8L528.8,188.2
						L528.8,188.2z"/>
					<path class="st6" d="M520.7,224.1c-0.5,0.4-0.8,1.1-0.6,1.7l2.7,8.6l-7.3-5.4c-0.5-0.4-1.2-0.4-1.8,0l-7.4,5.2l2.9-8.6
						c0.2-0.6,0-1.3-0.5-1.7l-7.3-5.4l9.1,0.1c0.7,0,1.2-0.4,1.4-1l2.9-8.6l2.7,8.6c0.2,0.6,0.8,1,1.4,1.1l9.1,0.1L520.7,224.1
						L520.7,224.1z"/>
					<path class="st6" d="M499.4,250.9l-8.8,2c-0.6,0.1-1.1,0.7-1.2,1.3l-0.9,9l-4.6-7.8c-0.3-0.6-1-0.9-1.6-0.7l-8.8,2l6-6.8
						c0.4-0.5,0.5-1.2,0.2-1.8l-4.7-7.8l8.3,3.6c0.6,0.3,1.3,0.1,1.7-0.4l6-6.8l-0.9,9c-0.1,0.6,0.3,1.3,0.9,1.5L499.4,250.9
						L499.4,250.9z"/>
				</g>
			</g>
		</g>
	</g>
</g>
</svg>
