<?xml version="1.0" encoding="UTF-8"?><svg id="a" xmlns="http://www.w3.org/2000/svg" viewBox="0 0 1280 1280"><defs><style>.b{stroke-width:5px;}.b,.c,.d{stroke:#000;stroke-miterlimit:10;}.b,.d{fill:#fb0;}.c{fill:#cb762b;}.c,.d{stroke-width:6px;}.e{fill:#000;stroke-width:0px;}</style></defs><path class="c" d="M43.91,85.18c22.5-17.57,45.01-35.13,67.51-52.7,131.6,204.58,322.91,462.23,592.52,728.26,192.96,190.4,381.21,340.86,544.2,456.94-7.56,12.35-15.12,24.69-22.68,37.04-171.23-114.2-373.2-266.19-581.5-463.29C371.81,533.91,177.52,283.26,43.91,85.18Z"/><path class="d" d="M260.38,377.08C180.4,278.53,100.42,179.97,20.45,81.42c32.87-20.35,65.73-40.69,98.6-61.04,66.45,101.47,132.91,202.94,199.36,304.41-1.68,6.2-6.86,22.05-22.03,35.36-14.3,12.54-29.6,15.9-36,16.94Z"/><path class="b" d="M1259.12,1253.72c-8.98,13.79-23.78,16.42-26.22,16.82-67.08-50.9-134.16-101.8-201.24-152.69,2-.47,16.04-4.03,23.09-18.06,6.06-12.06,2.74-23.47,1.99-25.86,68.34,47.65,136.68,95.31,205.02,142.96.61,1.38,8.42,19.86-2.63,36.84Z"/><path class="e" d="M89.58,76.71c22.91-15.58,39.66-47.2,30.23-60.33-9.53-13.28-44.43-5.7-66.5,8.05-22.58,14.08-44.41,42.52-36.76,56.55,7.93,14.56,47.33,13.19,73.02-4.28Z"/></svg>