<?xml version="1.0" encoding="UTF-8"?>
<svg id="Calque_1" data-name="Calque 1" xmlns="http://www.w3.org/2000/svg" width="30" height="30" version="1.1" viewBox="0 0 30 30">
  <defs>
    <style>
      .cls-1 {
        fill: #fff;
        stroke-width: 0px;
      }
    </style>
  </defs>
  <path class="cls-1" d="M3.5,9.4l9.3-3.7,9.3,3.7-9.3,3.7-9.3-3.7Z"/>
  <path class="cls-1" d="M4.3,9.4v11.6l-.8-.3v-11.2h.8Z"/>
  <path class="cls-1" d="M13.2,12.6v11.6h-.4c0,.1-.4,0-.4,0v-11.6h.8Z"/>
  <path class="cls-1" d="M13.9,23.9l-.7.3h-.4c0,.1-.4,0-.4,0l-.6-.3-7.5-3-.8-.3v-.9l.8.3,8.1,3.3.4.2h.4c0,.1.7.4.7.4h0Z"/>
  <path class="cls-1" d="M3.5,9.4v.9l9.7,3.9v-.9l-9.7-3.9Z"/>
  <path class="cls-1" d="M26.5,7.6l-13.8,5.5.3.7,13.5-5.4s0-.9,0-.9Z"/>
  <path class="cls-1" d="M26.5,11.1l-13.8,5.5.3.7,13.5-5.4s0-.9,0-.9Z"/>
  <path class="cls-1" d="M26.5,14.5l-13.8,5.5.3.7,13.5-5.4v-.9Z"/>
  <path class="cls-1" d="M26.5,18v.9l-12.6,5.1-.7.3h-.4c0,.1-.4,0-.4,0l-.6-.3.6-.3.4-.2h.4c0-.1,13.3-5.5,13.3-5.5h0Z"/>
</svg>