<?xml version="1.0" encoding="UTF-8"?><svg id="a" xmlns="http://www.w3.org/2000/svg" viewBox="0 0 200 200"><defs><style>.c{fill:#e5414d;}.c,.d,.e{stroke-width:0px;}.d{fill:#ba3138;}.e{fill:#fff;}</style></defs><circle class="c" cx="100" cy="100" r="100"/><circle class="d" cx="100" cy="100" r="90"/><g id="b"><path class="e" d="M163.31,84.46c-5.62-5.19-13.41-13.12-19.74-18.75l-.37-.26c-.62-.5-1.33-.89-2.08-1.16h0c-15.28-2.85-86.4-16.14-87.79-15.97-.39.05-.76.2-1.09.41l-.36.28c-.44.45-.77.98-.97,1.57l-.09.24v1.54c8.01,22.29,39.62,95.32,45.84,112.46.37,1.16,1.09,3.37,2.42,3.49h.3c.71,0,3.75-4.01,3.75-4.01,0,0,54.3-65.85,59.79-72.86.71-.86,1.34-1.79,1.87-2.77.28-1.56-.28-3.16-1.48-4.2ZM117.05,92.13l23.17-19.22,13.59,12.52-36.77,6.69ZM108.05,90.87l-39.9-32.7,64.56,11.91-24.66,20.79ZM111.65,99.44l40.84-6.58-46.69,56.25,5.85-49.67ZM62.73,61.43l41.98,35.62-6.07,52.09L62.73,61.43Z"/></g></svg>