<?xml version="1.0" encoding="UTF-8"?>
<svg id="Calque_1" data-name="Calque 1" xmlns="http://www.w3.org/2000/svg" width="30" height="30" xmlns:xlink="http://www.w3.org/1999/xlink" version="1.1" viewBox="0 0 30 30">
  <defs>
    <style>
      .cls-1 {
        mask: url(#mask);
      }

      .cls-2 {
        fill: #fff;
        stroke-width: 0px;
      }
    </style>
    <mask id="mask" x=".9" y=".8" width="28" height="28" maskUnits="userSpaceOnUse">
      <g id="mask0">
        <circle class="cls-2" cx="14.9" cy="14.3" r="10.9"/>
      </g>
    </mask>
  </defs>
  <g class="cls-1">
    <g>
      <path class="cls-2" d="M15,.8v5.8h0c-.1,0-.3,0-.4,0V.8h.5Z"/>
      <path class="cls-2" d="M13.8.8v5.8c-.2,0-.3,0-.5,0V.8h.5Z"/>
      <path class="cls-2" d="M16.4.8v5.9c-.2,0-.3,0-.5,0V.8h.5Z"/>
      <polygon class="cls-2" points="12.7 1.7 12.7 6.9 12.2 7 10 3 9.9 2.6 9.8 2.6 9.7 2.4 10.2 2.2 12.2 5.9 12.2 1.7 12.7 1.7"/>
      <polygon class="cls-2" points="20 2.3 17.5 6.9 17.1 6.8 17.1 1.5 17.6 1.5 17.6 5.8 19.6 2 20 2.3"/>
      <path class="cls-2" d="M15.3,22.1v6.7h-.5v-6.7h0c.2,0,.3,0,.4,0Z"/>
      <path class="cls-2" d="M16.5,22v6.8h-.5v-6.7c.2,0,.3,0,.5,0Z"/>
      <path class="cls-2" d="M13.9,22.1v6.7h-.5v-6.8c.2,0,.3,0,.5,0Z"/>
      <polygon class="cls-2" points="20.2 27.3 20.2 27.3 19.7 27.5 17.7 23.8 17.7 28.1 17.2 28.1 17.2 22.8 17.7 22.7 19.9 26.9 20.1 27.3 20.2 27.3"/>
      <polygon class="cls-2" points="12.7 22.9 12.7 28.1 12.2 28.1 12.2 23.9 10.2 27.6 9.7 27.4 9.8 27.3 10.3 26.3 12.2 22.8 12.7 22.9"/>
      <path class="cls-2" d="M7.2,15.3H.9v-.5h6.2c0,.2,0,.3,0,.5Z"/>
      <path class="cls-2" d="M7.4,16.4H.9v-.5h6.4c0,.2,0,.3.1.5Z"/>
      <path class="cls-2" d="M7.2,13.3c0,.2,0,.3,0,.5H.9v-.5h6.3Z"/>
      <polygon class="cls-2" points="3 19.7 2.4 19.9 2.4 20 2.3 20 2.1 19.6 5.8 17.6 1.6 17.6 1.6 17.1 6.8 17.1 6.9 17.6 3 19.7"/>
      <path class="cls-2" d="M7.4,12.3c0,.2,0,.3-.1.5H2.1v-.5h4.2l-3.7-2,.2-.3.7.2,3.9,2.1Z"/>
      <path class="cls-2" d="M28.9,14.4v.5h-6.2c0-.2,0-.3,0-.5h6.2Z"/>
      <path class="cls-2" d="M28.9,13.2v.5h-6.2c0-.2,0-.3,0-.5h6.3Z"/>
      <path class="cls-2" d="M28.9,15.8v.5h-6.5c0-.2,0-.3,0-.5h6.4Z"/>
      <polygon class="cls-2" points="28 12 28 12.5 22.8 12.5 22.6 12.1 26.8 9.8 27.3 9.7 27.5 10 23.8 12 28 12"/>
      <polygon class="cls-2" points="28.3 17.5 24 17.5 27.7 19.5 27.5 20 27.5 20 27.5 19.9 27.1 19.7 22.9 17.5 23 17 28.3 17 28.3 17.5"/>
      <path class="cls-2" d="M10,20.4l-4.6,4.7-.4-.4,4.6-4.6c.1.1.2.2.4.3Z"/>
      <path class="cls-2" d="M10.9,21l-4.8,4.8-.4-.4,4.7-4.7h0c.1,0,.3.2.4.3Z"/>
      <path class="cls-2" d="M8.9,19.3l-4.6,4.6-.4-.3,4.7-4.7c.1.1.2.3.3.4Z"/>
      <polygon class="cls-2" points="11.5 22.4 10.3 26.3 9.8 27.3 9.5 27.3 10.7 23.2 7.7 26.2 7.4 25.9 11.1 22.2 11.5 22.4"/>
      <polygon class="cls-2" points="7.6 18.8 3.9 22.5 3.6 22.1 6.6 19.1 2.5 20.3 2.4 20 3 19.7 7.4 18.4 7.6 18.8"/>
      <path class="cls-2" d="M24.8,5l-3.6,3.6-.6.6c-.1-.1-.2-.2-.3-.3l.5-.5,3.6-3.6.4.4Z"/>
      <path class="cls-2" d="M24,4.2l-3.7,3.7-.5.5c-.1-.1-.3-.2-.4-.3l4.2-4.2.4.3Z"/>
      <path class="cls-2" d="M25.9,6l-4.3,4.3c0-.2-.2-.3-.3-.4l4.3-4.2.4.3Z"/>
      <polygon class="cls-2" points="22.6 3.9 19.1 7.5 18.9 7.6 18.5 7.4 18.5 7.3 20 2.4 20.5 2.5 19.2 6.6 22.2 3.6 22.6 3.9"/>
      <polygon class="cls-2" points="27.4 9.7 27.3 9.7 27.2 9.6 26.8 9.8 22.4 11.2 22.2 10.7 25.8 7 26.2 7.4 23.2 10.4 27.2 9.2 27.4 9.7"/>
      <path class="cls-2" d="M25.1,24.4l-.3.4-4.6-4.6c.1-.1.2-.2.4-.3l4.6,4.6Z"/>
      <path class="cls-2" d="M25.9,23.6l-.4.4-4.7-4.6h0c.1-.1.2-.3.3-.4l4.7,4.7Z"/>
      <path class="cls-2" d="M24.1,25.5l-.4.3-4.8-4.8c.2,0,.3-.2.4-.3l4.7,4.7Z"/>
      <polygon class="cls-2" points="27.4 20.3 23.3 19.1 26.3 22.1 26 22.5 22.3 18.8 22.5 18.4 27.1 19.7 27.5 20 27.4 20.3"/>
      <polygon class="cls-2" points="22.3 26.2 19.3 23.2 20.5 27.2 20.2 27.3 19.9 26.9 18.5 22.3 19 22.1 22.7 25.8 22.3 26.2"/>
      <path class="cls-2" d="M9.2,9c-.1.1-.2.2-.3.4l-4.2-4.2.3-.4,4.2,4.2Z"/>
      <path class="cls-2" d="M8.5,9.9c-.1.1-.2.3-.3.4L3.9,6l.3-.4,4.3,4.3Z"/>
      <path class="cls-2" d="M10.3,8.1c-.1,0-.3.2-.4.3l-4.2-4.2.4-.3,4.2,4.2Z"/>
      <path class="cls-2" d="M7.9,11c0,.2-.2.3-.2.5l-4.2-1.3-.6-.3h0c0,.1,0,.1,0,.1v-.5c.1,0,4.2,1.2,4.2,1.2l-3-3,.4-.3,3.6,3.6Z"/>
      <path class="cls-2" d="M11.4,7.4c-.2,0-.3.2-.5.3l-3.6-3.6.3-.4,3,3-1.2-4h.4c0-.1.2.2.2.2l1.3,4.5Z"/>
    </g>
  </g>
  <path class="cls-2" d="M14.3,14.5l.3-2.2.2-1.6v-.6c0,0,.4-2.9.4-2.9,0,0-.2,0-.3,0h0c-.1,0-.3,0-.4,0-.2,0-.4,0-.6,0-.2,0-.3,0-.5,0-.9.2-1.8.6-2.5,1.1-.1,0-.3.2-.4.3-.2.2-.5.4-.7.7-.1.1-.2.2-.3.4-.1.2-.3.3-.4.5,0,.1-.2.3-.3.4-.1.2-.2.5-.3.7h0c-.2.5-.4,1.1-.5,1.7,0,.2,0,.3,0,.5,0,.2,0,.4,0,.6s0,.3,0,.4c0,0,0,0,0,.1,0,.1,0,.2,0,.4,0,.2,0,.4,0,.6,0,.2,0,.3.1.5.2.8.6,1.4,1,2.1.1.1.2.3.3.4.2.3.4.5.7.7.1.1.2.2.4.3.2.1.3.3.5.4.2,0,.3.2.4.3.6.4,1.3.6,2,.8.2,0,.3,0,.5,0,.3,0,.7,0,1,0h.1v-.2s.1-1.8.1-1.8v-.3s0-.3,0-.3c0,0,0,0,0,0-1.4.1-2.6-.7-2.8-1.9l3-.2v-.3s0,0,0,0v-.3s.1-1.6.1-1.6h-1ZM12.9,14.8c-1.3.8-2.8.9-3.2.7-.5-.2-1.3-1.3-1.3-2.3-.1-.6,1.1-1.4,2.8-1.6,1.9-.3,2.8-.4,3,.2.3,1.1-.2,2.4-1.2,3Z"/>
  <g>
    <path class="cls-2" d="M21.7,11.7c-.1-1.2-3.1-1.3-6.9-.9,0,0-.1,0-.2,0-3.9.5-6.8.8-6.6,2.5.2,1.4,1.1,2.8,2.5,2.7,4.7-.6,4-3.6,4-4.6,0,.3.1.6.2.9.7,2.1,2.7,2.8,5.8,2.5,1-.1,1.5-2.2,1.4-3.1ZM9.7,15.5c-.5-.2-1.3-1.3-1.3-2.3-.1-.6,1.1-1.4,2.8-1.6,1.9-.3,2.8-.4,3,.2.3,1.1-.2,2.4-1.2,3-1.3.8-2.8.9-3.2.7ZM16.7,14.2c-1.3-.5-1.8-1.7-1.9-2.3,0-.8.9-.9,3-.9s3.4.2,3.5.7c0,1-.2,2.5-.7,2.7-.5.2-2.4.3-4-.2Z"/>
    <path class="cls-2" d="M22.3,11.6c-.2-1.5-2.7-2-7.5-1.5-.1,0-.2,0-.4,0-2,.2-3.7.5-4.9.8-.5.1-.9.3-1.2.5h0c-.8.5-1.1,1.1-1,1.9,0,.5.2,1,.4,1.4.5,1,1.3,1.8,2.4,1.8s.2,0,.3,0c.4,0,.8-.1,1.1-.2,0,0,0,0,0,0,.1,0,.2,0,.3,0h0c1.4-.4,2.2-1.1,2.6-1.8,0-.2.2-.3.2-.5.1.2.3.3.5.5.2.1.4.3.6.4,1.1.6,2.6.8,4.5.5,1.5-.2,2-2.6,1.9-3.8ZM16.7,14.2c-1.3-.5-1.8-1.7-1.9-2.3,0-.8.9-.9,3-.9s3.4.2,3.5.7c0,1-.2,2.5-.7,2.7-.5.2-2.4.3-4-.2ZM9.7,15.5c-.5-.2-1.3-1.3-1.3-2.3-.1-.6,1.1-1.4,2.8-1.6,1.9-.3,2.8-.4,3,.2.3,1.1-.2,2.4-1.2,3-1.3.8-2.8.9-3.2.7Z"/>
  </g>
  <g>
    <path class="cls-2" d="M15.2,16.4h0s-3.4.3-3.4.3c.1,1.5,1.5,2.6,3.2,2.5,0,0,0,0,0,0,1.6-.2,2.8-1.5,2.7-2.9l-2.5.2ZM15.1,18.8s0,0,0,0c-1.4.1-2.6-.7-2.8-1.9l3-.2,2.3-.2c0,1.2-1.1,2.2-2.4,2.3Z"/>
    <path class="cls-2" d="M17.7,15.9l-2.5.2-3.2.3h-.2c0,0-.1,0-.2,0,0,0,0,0,0,0,0,0,0,.1,0,.2.1,1.6,1.5,2.7,3.2,2.7s.2,0,.3,0h0c1.8-.2,3.1-1.6,3-3.2,0-.2-.2-.3-.3-.2ZM15.1,18.8s0,0,0,0c-1.4.1-2.6-.7-2.8-1.9l3-.2,2.3-.2c0,1.2-1.1,2.2-2.4,2.3Z"/>
  </g>
  <path class="cls-2" d="M17.4,17.7h-1.6c-.1,0-.2-.1-.2-.2s.1-.2.2-.2h1.6c.1,0,.2.1.2.2s-.1.2-.2.2Z"/>
  <path class="cls-2" d="M21.7,8.5l.6,1.7,1.7.6-1.7.6-.6,1.7-.6-1.7-1.7-.6,1.7-.6.6-1.7Z"/>
</svg>